M48
;DRILL file {KiCad (5.0.2)-1} date 18/03/2019 09:59:50
;FORMAT={-:-/ absolute / inch / decimal}
FMAT,2
INCH,TZ
T1C0.0157
T2C0.0276
T3C0.0315
T4C0.0354
T5C0.0394
T6C0.0433
T7C0.0472
T8C0.1102
T9C0.1063
T10C0.1260
%
G90
G05
T1
X1.23Y-2.62
X1.2316Y-1.57
X1.2316Y-2.045
X1.28Y-3.34
X1.34Y-1.15
X1.44Y-1.15
X1.49Y-3.95
X1.49Y-4.93
X1.51Y-2.54
X1.51Y-3.65
X1.54Y-1.08
X1.54Y-1.41
X1.54Y-2.44
X1.54Y-3.37
X1.54Y-3.7
X1.57Y-1.48
X1.57Y-2.69
X1.57Y-3.6
X1.6Y-1.53
X1.6Y-3.55
X1.6043Y-3.3776
X1.62Y-3.75
X1.63Y-1.63
X1.76Y-1.68
X1.76Y-2.74
X1.76Y-3.8
X1.88Y-1.82
X1.88Y-2.88
X1.88Y-3.94
X1.91Y-1.53
X1.91Y-1.85
X1.91Y-2.91
X1.91Y-3.97
X1.94Y-1.88
X1.94Y-2.94
X1.94Y-4.
X1.97Y-2.04
X1.98Y-3.07
X2.Y-2.59
X2.01Y-3.65
X2.03Y-1.57
X2.03Y-2.2
X2.03Y-3.26
X2.09Y-2.04
X2.09Y-2.56
X2.09Y-3.07
X2.12Y-1.15
X2.21Y-1.15
X2.24Y-2.04
X2.24Y-3.07
X2.29Y-3.95
X2.29Y-4.93
X2.31Y-1.08
X2.31Y-2.54
X2.31Y-3.65
X2.32Y-4.14
X2.32Y-4.2
X2.34Y-1.41
X2.34Y-2.44
X2.34Y-3.37
X2.34Y-3.7
X2.35Y-4.11
X2.35Y-4.17
X2.35Y-4.23
X2.37Y-1.48
X2.37Y-2.69
X2.37Y-3.6
X2.4Y-1.53
X2.4Y-3.55
X2.4043Y-3.3776
X2.42Y-3.75
X2.43Y-1.63
X2.48Y-4.23
X2.56Y-1.68
X2.56Y-2.74
X2.56Y-3.8
X2.68Y-1.82
X2.68Y-2.88
X2.68Y-3.94
X2.68Y-4.2
X2.7Y-1.53
X2.71Y-1.85
X2.71Y-2.91
X2.71Y-3.97
X2.71Y-4.17
X2.74Y-1.88
X2.74Y-2.94
X2.74Y-4.
X2.74Y-4.14
X2.77Y-2.04
X2.78Y-3.07
X2.8Y-2.59
X2.81Y-3.65
X2.81Y-4.11
X2.83Y-1.57
X2.83Y-2.21
X2.83Y-3.26
X2.88Y-3.07
X2.89Y-2.04
X2.89Y-2.56
X2.92Y-1.15
X3.01Y-1.15
X3.03Y-2.04
X3.04Y-3.07
X3.09Y-3.95
X3.09Y-4.93
X3.11Y-1.08
X3.11Y-2.54
X3.11Y-3.65
X3.12Y-4.14
X3.12Y-4.2
X3.12Y-4.26
X3.14Y-1.41
X3.14Y-2.44
X3.14Y-3.37
X3.14Y-3.7
X3.15Y-4.11
X3.15Y-4.17
X3.15Y-4.23
X3.17Y-1.48
X3.17Y-2.69
X3.17Y-3.6
X3.2Y-1.53
X3.2Y-3.55
X3.2043Y-3.3776
X3.22Y-3.75
X3.23Y-1.63
X3.28Y-4.23
X3.31Y-4.26
X3.36Y-1.68
X3.36Y-2.74
X3.36Y-3.8
X3.48Y-1.82
X3.48Y-2.87
X3.48Y-3.94
X3.48Y-4.2
X3.51Y-1.53
X3.51Y-1.85
X3.51Y-2.9
X3.51Y-3.97
X3.51Y-4.17
X3.54Y-1.88
X3.54Y-2.93
X3.54Y-4.
X3.54Y-4.14
X3.57Y-2.04
X3.6Y-2.59
X3.6Y-3.
X3.61Y-3.7
X3.61Y-4.11
X3.63Y-1.57
X3.63Y-2.21
X3.69Y-2.04
X3.69Y-2.56
X3.72Y-1.15
X3.75Y-3.03
X3.77Y-3.44
X3.81Y-1.15
X3.83Y-2.04
X3.85Y-3.07
X3.89Y-3.95
X3.89Y-4.93
X3.91Y-1.08
X3.91Y-2.54
X3.91Y-3.65
X3.92Y-4.14
X3.92Y-4.2
X3.92Y-4.26
X3.94Y-1.41
X3.94Y-2.44
X3.94Y-3.37
X3.94Y-3.7
X3.95Y-4.11
X3.95Y-4.17
X3.95Y-4.23
X3.95Y-4.29
X3.97Y-1.48
X3.97Y-2.69
X3.97Y-3.6
X4.Y-1.53
X4.Y-3.55
X4.01Y-3.37
X4.02Y-3.75
X4.03Y-1.63
X4.08Y-4.23
X4.08Y-4.29
X4.11Y-4.26
X4.16Y-1.68
X4.16Y-2.74
X4.16Y-3.8
X4.28Y-1.82
X4.28Y-2.88
X4.28Y-3.94
X4.28Y-4.2
X4.31Y-1.53
X4.31Y-1.85
X4.31Y-2.91
X4.31Y-3.97
X4.31Y-4.17
X4.34Y-1.88
X4.34Y-2.94
X4.34Y-4.
X4.34Y-4.14
X4.37Y-2.04
X4.38Y-3.07
X4.4Y-2.59
X4.41Y-3.65
X4.41Y-4.11
X4.43Y-2.21
X4.43Y-3.26
X4.4316Y-1.57
X4.49Y-2.04
X4.49Y-2.56
X4.49Y-3.07
X4.52Y-1.15
X4.61Y-1.15
X4.63Y-2.04
X4.65Y-3.07
X4.69Y-3.95
X4.69Y-4.93
X4.71Y-1.08
X4.71Y-2.54
X4.71Y-3.65
X4.72Y-4.14
X4.72Y-4.2
X4.72Y-4.26
X4.72Y-4.32
X4.74Y-1.41
X4.74Y-2.44
X4.74Y-3.37
X4.74Y-3.7
X4.75Y-4.11
X4.75Y-4.17
X4.75Y-4.23
X4.75Y-4.29
X4.77Y-1.48
X4.77Y-2.69
X4.77Y-3.6
X4.8Y-1.53
X4.8Y-3.55
X4.8043Y-3.3776
X4.82Y-3.75
X4.83Y-1.63
X4.88Y-4.23
X4.88Y-4.29
X4.91Y-4.26
X4.91Y-4.32
X4.96Y-1.68
X4.96Y-2.74
X4.96Y-3.8
X5.08Y-1.82
X5.08Y-2.88
X5.08Y-3.94
X5.08Y-4.2
X5.11Y-1.53
X5.11Y-1.85
X5.11Y-2.91
X5.11Y-3.97
X5.11Y-4.17
X5.14Y-1.88
X5.14Y-2.94
X5.14Y-4.
X5.14Y-4.14
X5.17Y-2.04
X5.18Y-3.07
X5.2Y-2.59
X5.21Y-3.65
X5.21Y-4.11
X5.23Y-1.57
X5.23Y-2.2
X5.23Y-3.26
X5.29Y-2.56
X5.29Y-3.07
X5.3Y-2.04
X5.32Y-1.15
X5.42Y-1.15
X5.44Y-2.04
X5.44Y-3.07
X5.49Y-3.95
X5.49Y-4.93
X5.51Y-1.08
X5.51Y-2.54
X5.51Y-3.65
X5.52Y-4.14
X5.52Y-4.2
X5.52Y-4.26
X5.52Y-4.32
X5.54Y-1.42
X5.54Y-2.44
X5.54Y-3.37
X5.54Y-3.7
X5.55Y-4.11
X5.55Y-4.17
X5.55Y-4.23
X5.55Y-4.29
X5.55Y-4.35
X5.57Y-1.48
X5.57Y-2.69
X5.57Y-3.6
X5.6Y-1.53
X5.6Y-3.55
X5.6043Y-3.3776
X5.62Y-3.75
X5.63Y-1.63
X5.68Y-4.23
X5.68Y-4.29
X5.68Y-4.35
X5.71Y-4.26
X5.71Y-4.32
X5.76Y-1.68
X5.76Y-2.74
X5.76Y-3.8
X5.88Y-1.82
X5.88Y-2.88
X5.88Y-3.94
X5.88Y-4.2
X5.9Y-1.53
X5.91Y-4.17
X5.91Y-1.85
X5.91Y-2.91
X5.91Y-3.97
X5.94Y-1.88
X5.94Y-2.94
X5.94Y-4.
X5.94Y-4.14
X5.99Y-2.04
X6.Y-2.59
X6.Y-3.02
X6.01Y-3.65
X6.01Y-4.11
X6.37Y-2.04
X6.37Y-3.02
X6.43Y-1.57
X6.43Y-2.2
X6.43Y-3.29
X6.48Y-3.06
X6.49Y-2.04
X6.49Y-2.56
X6.52Y-1.15
X6.61Y-1.15
X6.62Y-3.06
X6.64Y-2.04
X6.69Y-3.95
X6.69Y-4.93
X6.71Y-2.54
X6.71Y-3.65
X6.7113Y-1.07
X6.72Y-4.14
X6.72Y-4.2
X6.72Y-4.26
X6.72Y-4.32
X6.72Y-4.38
X6.74Y-1.41
X6.74Y-2.44
X6.74Y-3.37
X6.74Y-3.7
X6.75Y-4.11
X6.75Y-4.17
X6.75Y-4.23
X6.75Y-4.29
X6.75Y-4.35
X6.77Y-1.48
X6.77Y-2.69
X6.77Y-3.6
X6.8Y-1.53
X6.8Y-3.55
X6.8043Y-3.3776
X6.82Y-3.75
X6.83Y-1.63
X6.88Y-4.23
X6.88Y-4.29
X6.88Y-4.35
X6.91Y-4.26
X6.91Y-4.32
X6.91Y-4.38
X6.96Y-1.68
X6.96Y-2.74
X6.96Y-3.8
X7.08Y-1.82
X7.08Y-2.88
X7.08Y-3.94
X7.08Y-4.2
X7.1Y-1.53
X7.11Y-1.85
X7.11Y-2.91
X7.11Y-3.97
X7.11Y-4.17
X7.14Y-1.88
X7.14Y-2.94
X7.14Y-4.
X7.14Y-4.14
X7.17Y-2.04
X7.17Y-4.11
X7.18Y-3.06
X7.2Y-2.59
X7.21Y-3.65
X7.31Y-3.28
X7.31Y-3.79
X7.31Y-4.46
X7.38Y-3.43
X7.38Y-3.57
X7.38Y-3.79
X7.38Y-4.46
X7.49Y-3.83
X7.49Y-3.92
X7.69Y-3.83
X7.69Y-3.89
X7.7Y-5.08
X7.7Y-5.27
X7.7Y-5.45
X7.72Y-2.52
X7.79Y-2.06
X7.79Y-2.16
X7.85Y-1.89
X7.8616Y-2.57
X7.9Y-4.41
X7.95Y-1.99
X7.97Y-2.93
X8.Y-4.38
X8.02Y-1.1309
X8.05Y-3.88
X8.06Y-3.23
X8.1Y-4.35
X8.15Y-2.58
X8.15Y-2.93
X8.15Y-3.88
X8.2Y-2.58
X8.2Y-3.84
X8.2Y-4.32
X8.22Y-1.1309
X8.23Y-3.8
X8.25Y-2.58
X8.25Y-2.93
X8.25Y-3.88
X8.3Y-3.23
X8.3Y-4.29
X8.34Y-2.56
X8.35Y-3.8
X8.35Y-3.88
X8.36Y-2.93
X8.4Y-4.26
X8.44Y-1.09
X8.45Y-2.93
X8.5Y-2.36
X8.5Y-4.23
X8.52Y-2.52
X8.55Y-3.88
X8.6Y-3.88
X8.68Y-2.26
X8.73Y-2.26
X8.78Y-2.26
X8.78Y-2.42
T2
X8.1Y-4.48
X8.1Y-4.68
X7.5Y-3.28
X7.7Y-3.28
X8.5Y-4.47
X8.5Y-4.67
X8.8Y-4.27
X8.8Y-4.47
X8.Y-4.48
X8.Y-4.68
X7.59Y-3.5
X7.59Y-3.7
X8.6Y-4.47
X8.6Y-4.67
X8.7Y-4.47
X8.7Y-4.67
X7.69Y-3.5
X7.69Y-3.7
X7.5Y-3.08
X7.7Y-3.08
X7.49Y-3.5
X7.49Y-3.7
X7.9Y-4.48
X7.9Y-4.68
X7.5Y-3.18
X7.7Y-3.18
T3
X8.15Y-4.9984
X8.15Y-5.0969
X8.4016Y-5.03
X8.5Y-5.03
X7.48Y-2.4216
X7.48Y-2.52
X8.4016Y-5.2
X8.5Y-5.2
X8.Y-4.9884
X8.Y-5.0869
X8.4016Y-5.37
X8.5Y-5.37
X7.85Y-4.9884
X7.85Y-5.0869
T4
X8.5Y-5.56
X8.5Y-5.66
T5
X7.85Y-1.56
X7.95Y-1.56
X8.05Y-1.56
X8.15Y-1.56
X8.25Y-1.56
X8.35Y-1.56
X8.45Y-1.56
X8.55Y-1.56
T6
X7.5Y-4.87
X7.6Y-4.87
X7.7Y-4.87
X7.8Y-4.87
X7.9Y-4.87
X8.Y-4.87
X8.1Y-4.87
X8.2Y-4.87
X8.3Y-4.87
X8.4Y-4.87
X8.5Y-4.87
X8.6Y-4.87
X8.7Y-4.87
X8.8Y-4.87
X7.5Y-4.07
X7.6Y-4.07
X7.7Y-4.07
X7.8Y-4.07
X7.9Y-4.07
X8.Y-4.07
X8.1Y-4.07
X8.2Y-4.07
X8.3Y-4.07
X8.4Y-4.07
X8.5Y-4.07
X8.6Y-4.07
X8.7Y-4.07
X8.8Y-4.07
X7.5Y-4.17
X7.5Y-4.77
X7.6Y-4.17
X7.6Y-4.77
X7.7Y-4.17
X7.7Y-4.77
X7.8Y-4.17
X7.8Y-4.77
X7.9Y-4.17
X7.9Y-4.77
X8.Y-4.17
X8.Y-4.77
X8.1Y-4.17
X8.1Y-4.77
X8.2Y-4.17
X8.2Y-4.77
X8.3Y-4.17
X8.3Y-4.77
X8.4Y-4.17
X8.4Y-4.77
X8.5Y-4.17
X8.5Y-4.77
X8.6Y-4.17
X8.6Y-4.77
X8.7Y-4.17
X8.7Y-4.77
X8.8Y-4.17
X8.8Y-4.77
T7
X6.69Y-3.45
X6.69Y-4.02
X6.79Y-3.45
X6.89Y-3.45
X6.89Y-4.02
X5.49Y-3.45
X5.49Y-4.02
X5.59Y-3.45
X5.69Y-3.45
X5.69Y-4.02
X3.89Y-4.51
X3.89Y-5.08
X3.99Y-4.51
X4.09Y-4.51
X4.09Y-5.08
X1.49Y-3.45
X1.49Y-4.02
X1.59Y-3.45
X1.69Y-3.45
X1.69Y-4.02
X1.49Y-2.39
X1.49Y-2.96
X1.59Y-2.39
X1.69Y-2.39
X1.69Y-2.96
X6.69Y-4.51
X6.69Y-5.08
X6.79Y-4.51
X6.89Y-4.51
X6.89Y-5.08
X4.69Y-3.45
X4.69Y-4.02
X4.79Y-3.45
X4.89Y-3.45
X4.89Y-4.02
X4.69Y-2.39
X4.69Y-2.96
X4.79Y-2.39
X4.89Y-2.39
X4.89Y-2.96
X3.09Y-3.45
X3.09Y-4.02
X3.19Y-3.45
X3.29Y-3.45
X3.29Y-4.02
X3.09Y-1.33
X3.09Y-1.9
X3.19Y-1.33
X3.29Y-1.33
X3.29Y-1.9
X1.49Y-4.51
X1.49Y-5.08
X1.59Y-4.51
X1.69Y-4.51
X1.69Y-5.08
X4.69Y-1.33
X4.69Y-1.9
X4.79Y-1.33
X4.89Y-1.33
X4.89Y-1.9
X4.69Y-4.51
X4.69Y-5.08
X4.79Y-4.51
X4.89Y-4.51
X4.89Y-5.08
X1.49Y-1.33
X1.49Y-1.9
X1.59Y-1.33
X1.69Y-1.33
X1.69Y-1.9
X6.69Y-2.39
X6.69Y-2.96
X6.79Y-2.39
X6.89Y-2.39
X6.89Y-2.96
X5.49Y-1.33
X5.49Y-1.9
X5.59Y-1.33
X5.69Y-1.33
X5.69Y-1.9
X8.28Y-1.86
X8.28Y-1.96
X8.28Y-2.06
X8.28Y-2.16
X8.28Y-2.26
X2.29Y-3.45
X2.29Y-4.02
X2.39Y-3.45
X2.49Y-3.45
X2.49Y-4.02
X2.29Y-4.51
X2.29Y-5.08
X2.39Y-4.51
X2.49Y-4.51
X2.49Y-5.08
X5.49Y-2.39
X5.49Y-2.96
X5.59Y-2.39
X5.69Y-2.39
X5.69Y-2.96
X3.89Y-1.33
X3.89Y-1.9
X3.99Y-1.33
X4.09Y-1.33
X4.09Y-1.9
X2.29Y-2.39
X2.29Y-2.96
X2.39Y-2.39
X2.49Y-2.39
X2.49Y-2.96
X3.09Y-2.39
X3.09Y-2.96
X3.19Y-2.39
X3.29Y-2.39
X3.29Y-2.96
X5.49Y-4.51
X5.49Y-5.08
X5.59Y-4.51
X5.69Y-4.51
X5.69Y-5.08
X3.89Y-2.39
X3.89Y-2.96
X3.99Y-2.39
X4.09Y-2.39
X4.09Y-2.96
X3.09Y-4.51
X3.09Y-5.08
X3.19Y-4.51
X3.29Y-4.51
X3.29Y-5.08
X6.69Y-1.33
X6.69Y-1.9
X6.79Y-1.33
X6.89Y-1.33
X6.89Y-1.9
X3.89Y-3.45
X3.89Y-4.02
X3.99Y-3.45
X4.09Y-3.45
X4.09Y-4.02
X2.29Y-1.33
X2.29Y-1.9
X2.39Y-1.33
X2.49Y-1.33
X2.49Y-1.9
X8.1Y-3.03
X8.1Y-3.6
X8.2Y-3.03
X8.3Y-3.03
X8.3Y-3.6
T8
X3.73Y-3.745
X4.25Y-3.745
X2.13Y-1.625
X2.65Y-1.625
X7.94Y-3.325
X8.46Y-3.325
X6.53Y-3.745
X7.05Y-3.745
X5.33Y-3.745
X5.85Y-3.745
X3.73Y-4.805
X4.25Y-4.805
X1.33Y-3.745
X1.85Y-3.745
X1.33Y-2.685
X1.85Y-2.685
X6.53Y-4.805
X7.05Y-4.805
X4.53Y-3.745
X5.05Y-3.745
X4.53Y-2.685
X5.05Y-2.685
X2.93Y-3.745
X3.45Y-3.745
X2.93Y-1.625
X3.45Y-1.625
X1.33Y-4.805
X1.85Y-4.805
X4.53Y-1.625
X5.05Y-1.625
X4.53Y-4.805
X5.05Y-4.805
X1.33Y-1.625
X1.85Y-1.625
X6.53Y-2.685
X7.05Y-2.685
X5.33Y-1.625
X5.85Y-1.625
X2.13Y-3.745
X2.65Y-3.745
X2.13Y-4.805
X2.65Y-4.805
X5.33Y-2.685
X5.85Y-2.685
X3.73Y-1.625
X4.25Y-1.625
X2.13Y-2.685
X2.65Y-2.685
X2.93Y-2.685
X3.45Y-2.685
X5.33Y-4.805
X5.85Y-4.805
X3.73Y-2.685
X4.25Y-2.685
X2.93Y-4.805
X3.45Y-4.805
X6.53Y-1.625
X7.05Y-1.625
T9
X7.63Y-1.56
X7.63Y-2.72
X8.77Y-1.56
X8.77Y-2.72
T10
X3.59Y-0.8
X8.13Y-5.61
X3.59Y-3.21
X6.19Y-3.21
X3.59Y-5.61
X8.78Y-3.21
X6.19Y-5.61
X1.67Y-0.8
X8.13Y-0.8
X1.67Y-5.61
X6.19Y-0.8
X1.02Y-3.21
T0
M30
