G04 #@! TF.GenerationSoftware,KiCad,Pcbnew,(5.0.2)-1*
G04 #@! TF.CreationDate,2019-03-18T07:41:53+01:00*
G04 #@! TF.ProjectId,PanneauEncoderRotatif_G218,50616e6e-6561-4754-956e-636f64657252,rev?*
G04 #@! TF.SameCoordinates,Original*
G04 #@! TF.FileFunction,Profile,NP*
%FSLAX46Y46*%
G04 Gerber Fmt 4.6, Leading zero omitted, Abs format (unit mm)*
G04 Created by KiCad (PCBNEW (5.0.2)-1) date 18/03/2019 07:41:53*
%MOMM*%
%LPD*%
G01*
G04 APERTURE LIST*
%ADD10C,0.200000*%
G04 APERTURE END LIST*
D10*
X25654000Y-128778000D02*
G75*
G02X28956000Y-132080000I0J-3302000D01*
G01*
X115316000Y-141732000D02*
G75*
G02X118618000Y-138430000I3302000J0D01*
G01*
X130302000Y-138430000D02*
G75*
G02X133604000Y-141732000I0J-3302000D01*
G01*
X219964000Y-132080000D02*
G75*
G02X223266000Y-128778000I3302000J0D01*
G01*
X22352000Y-128778000D02*
G75*
G02X20828000Y-127254000I0J1524000D01*
G01*
X30480000Y-147574000D02*
G75*
G02X28956000Y-146050000I0J1524000D01*
G01*
X115316000Y-146050000D02*
G75*
G02X113792000Y-147574000I-1524000J0D01*
G01*
X135128000Y-147574000D02*
G75*
G02X133604000Y-146050000I0J1524000D01*
G01*
X219964000Y-146050000D02*
G75*
G02X218440000Y-147574000I-1524000J0D01*
G01*
X228092000Y-127254000D02*
G75*
G02X226568000Y-128778000I-1524000J0D01*
G01*
X226568000Y-34036000D02*
G75*
G02X228092000Y-35560000I0J-1524000D01*
G01*
X218440000Y-15240000D02*
G75*
G02X219964000Y-16764000I0J-1524000D01*
G01*
X20828000Y-35560000D02*
G75*
G02X22352000Y-34036000I1524000J0D01*
G01*
X28956000Y-16764000D02*
G75*
G02X30480000Y-15240000I1524000J0D01*
G01*
X133604000Y-16764000D02*
G75*
G02X135128000Y-15240000I1524000J0D01*
G01*
X113792000Y-15240000D02*
G75*
G02X115316000Y-16764000I0J-1524000D01*
G01*
X223266000Y-34036000D02*
G75*
G02X219964000Y-30734000I0J3302000D01*
G01*
X118618000Y-24384000D02*
G75*
G02X115316000Y-21082000I0J3302000D01*
G01*
X133604000Y-21082000D02*
G75*
G02X130302000Y-24384000I-3302000J0D01*
G01*
X28956000Y-30734000D02*
G75*
G02X25654000Y-34036000I-3302000J0D01*
G01*
X218440000Y-147574000D02*
X135128000Y-147574000D01*
X115316000Y-141732000D02*
X115316000Y-146050000D01*
X118618000Y-138430000D02*
X130302000Y-138430000D01*
X133604000Y-141732000D02*
X133604000Y-146050000D01*
X218440000Y-15240000D02*
X135128000Y-15240000D01*
X118618000Y-24384000D02*
X130302000Y-24384000D01*
X115316000Y-16764000D02*
X115316000Y-21082000D01*
X133604000Y-16764000D02*
X133604000Y-21082000D01*
X219964000Y-132080000D02*
X219964000Y-146050000D01*
X223266000Y-128778000D02*
X226568000Y-128778000D01*
X219964000Y-16764000D02*
X219964000Y-30734000D01*
X223266000Y-34036000D02*
X226568000Y-34036000D01*
X22352000Y-128778000D02*
X25654000Y-128778000D01*
X28956000Y-132080000D02*
X28956000Y-146050000D01*
X28956000Y-16764000D02*
X28956000Y-30734000D01*
X22352000Y-34036000D02*
X25654000Y-34036000D01*
X20828000Y-35560000D02*
X20828000Y-127254000D01*
X30480000Y-147574000D02*
X113792000Y-147574000D01*
X228092000Y-35560000D02*
X228092000Y-127254000D01*
X30480000Y-15240000D02*
X113792000Y-15240000D01*
M02*
