G04 #@! TF.GenerationSoftware,KiCad,Pcbnew,(5.0.2)-1*
G04 #@! TF.CreationDate,2019-03-18T09:59:51+01:00*
G04 #@! TF.ProjectId,PanneauEncoderRotatif_G218,50616e6e-6561-4754-956e-636f64657252,rev?*
G04 #@! TF.SameCoordinates,Original*
G04 #@! TF.FileFunction,Copper,L1,Top*
G04 #@! TF.FilePolarity,Positive*
%FSLAX46Y46*%
G04 Gerber Fmt 4.6, Leading zero omitted, Abs format (unit mm)*
G04 Created by KiCad (PCBNEW (5.0.2)-1) date 18/03/2019 09:59:52*
%MOMM*%
%LPD*%
G01*
G04 APERTURE LIST*
G04 #@! TA.AperFunction,ComponentPad*
%ADD10O,1.400000X1.400000*%
G04 #@! TD*
G04 #@! TA.AperFunction,ComponentPad*
%ADD11C,1.400000*%
G04 #@! TD*
G04 #@! TA.AperFunction,ComponentPad*
%ADD12C,1.700000*%
G04 #@! TD*
G04 #@! TA.AperFunction,ComponentPad*
%ADD13C,3.600000*%
G04 #@! TD*
G04 #@! TA.AperFunction,ComponentPad*
%ADD14C,1.600000*%
G04 #@! TD*
G04 #@! TA.AperFunction,ComponentPad*
%ADD15R,1.600000X1.600000*%
G04 #@! TD*
G04 #@! TA.AperFunction,SMDPad,CuDef*
%ADD16R,1.500000X3.200000*%
G04 #@! TD*
G04 #@! TA.AperFunction,SMDPad,CuDef*
%ADD17R,1.600000X1.000000*%
G04 #@! TD*
G04 #@! TA.AperFunction,ComponentPad*
%ADD18R,1.700000X1.700000*%
G04 #@! TD*
G04 #@! TA.AperFunction,ComponentPad*
%ADD19O,2.200000X1.740000*%
G04 #@! TD*
G04 #@! TA.AperFunction,ComponentPad*
%ADD20R,2.200000X1.740000*%
G04 #@! TD*
G04 #@! TA.AperFunction,ComponentPad*
%ADD21R,1.800000X1.800000*%
G04 #@! TD*
G04 #@! TA.AperFunction,ComponentPad*
%ADD22C,1.800000*%
G04 #@! TD*
G04 #@! TA.AperFunction,ViaPad*
%ADD23C,0.800000*%
G04 #@! TD*
G04 #@! TA.AperFunction,Conductor*
%ADD24C,0.609600*%
G04 #@! TD*
G04 #@! TA.AperFunction,Conductor*
%ADD25C,0.254000*%
G04 #@! TD*
G04 #@! TA.AperFunction,Conductor*
%ADD26C,0.304800*%
G04 #@! TD*
G04 #@! TA.AperFunction,Conductor*
%ADD27C,1.016000*%
G04 #@! TD*
G04 #@! TA.AperFunction,Conductor*
%ADD28C,0.406400*%
G04 #@! TD*
G04 APERTURE END LIST*
D10*
G04 #@! TO.P,R13,2*
G04 #@! TO.N,Net-(LED1-Pad2)*
X223520000Y-113538000D03*
D11*
G04 #@! TO.P,R13,1*
G04 #@! TO.N,TEENSY_LED*
X223520000Y-108458000D03*
G04 #@! TD*
D12*
G04 #@! TO.P,SW62,A*
G04 #@! TO.N,SW62_CH_A*
X175006000Y-60706000D03*
G04 #@! TO.P,SW62,B*
G04 #@! TO.N,SW62_CH_B*
X169926000Y-60706000D03*
G04 #@! TO.P,SW62,C*
G04 #@! TO.N,GND*
X172466000Y-60706000D03*
D13*
G04 #@! TO.P,SW62,P$3*
G04 #@! TO.N,N/C*
X165862000Y-68199000D03*
X179070000Y-68199000D03*
D12*
G04 #@! TO.P,SW62,SW+*
G04 #@! TO.N,SW62_BP*
X169926000Y-75184000D03*
G04 #@! TO.P,SW62,SW-*
G04 #@! TO.N,GND*
X175006000Y-75184000D03*
G04 #@! TD*
G04 #@! TO.P,SW64,A*
G04 #@! TO.N,SW64_CH_A*
X175006000Y-114554000D03*
G04 #@! TO.P,SW64,B*
G04 #@! TO.N,SW64_CH_B*
X169926000Y-114554000D03*
G04 #@! TO.P,SW64,C*
G04 #@! TO.N,GND*
X172466000Y-114554000D03*
D13*
G04 #@! TO.P,SW64,P$3*
G04 #@! TO.N,N/C*
X165862000Y-122047000D03*
X179070000Y-122047000D03*
D12*
G04 #@! TO.P,SW64,SW+*
G04 #@! TO.N,SW64_BP*
X169926000Y-129032000D03*
G04 #@! TO.P,SW64,SW-*
G04 #@! TO.N,GND*
X175006000Y-129032000D03*
G04 #@! TD*
G04 #@! TO.P,SW63,A*
G04 #@! TO.N,SW63_CH_A*
X175006000Y-87630000D03*
G04 #@! TO.P,SW63,B*
G04 #@! TO.N,SW63_CH_B*
X169926000Y-87630000D03*
G04 #@! TO.P,SW63,C*
G04 #@! TO.N,GND*
X172466000Y-87630000D03*
D13*
G04 #@! TO.P,SW63,P$3*
G04 #@! TO.N,N/C*
X165862000Y-95123000D03*
X179070000Y-95123000D03*
D12*
G04 #@! TO.P,SW63,SW+*
G04 #@! TO.N,SW63_BP*
X169926000Y-102108000D03*
G04 #@! TO.P,SW63,SW-*
G04 #@! TO.N,GND*
X175006000Y-102108000D03*
G04 #@! TD*
G04 #@! TO.P,SW61,A*
G04 #@! TO.N,SW61_CH_A*
X175006000Y-33782000D03*
G04 #@! TO.P,SW61,B*
G04 #@! TO.N,SW61_CH_B*
X169926000Y-33782000D03*
G04 #@! TO.P,SW61,C*
G04 #@! TO.N,GND*
X172466000Y-33782000D03*
D13*
G04 #@! TO.P,SW61,P$3*
G04 #@! TO.N,N/C*
X165862000Y-41275000D03*
X179070000Y-41275000D03*
D12*
G04 #@! TO.P,SW61,SW+*
G04 #@! TO.N,SW61_BP*
X169926000Y-48260000D03*
G04 #@! TO.P,SW61,SW-*
G04 #@! TO.N,GND*
X175006000Y-48260000D03*
G04 #@! TD*
G04 #@! TO.P,SW54,A*
G04 #@! TO.N,SW54_CH_A*
X144526000Y-114554000D03*
G04 #@! TO.P,SW54,B*
G04 #@! TO.N,SW54_CH_B*
X139446000Y-114554000D03*
G04 #@! TO.P,SW54,C*
G04 #@! TO.N,GND*
X141986000Y-114554000D03*
D13*
G04 #@! TO.P,SW54,P$3*
G04 #@! TO.N,N/C*
X135382000Y-122047000D03*
X148590000Y-122047000D03*
D12*
G04 #@! TO.P,SW54,SW+*
G04 #@! TO.N,SW54_BP*
X139446000Y-129032000D03*
G04 #@! TO.P,SW54,SW-*
G04 #@! TO.N,GND*
X144526000Y-129032000D03*
G04 #@! TD*
G04 #@! TO.P,SW52,A*
G04 #@! TO.N,SW52_CH_A*
X144526000Y-60706000D03*
G04 #@! TO.P,SW52,B*
G04 #@! TO.N,SW52_CH_B*
X139446000Y-60706000D03*
G04 #@! TO.P,SW52,C*
G04 #@! TO.N,GND*
X141986000Y-60706000D03*
D13*
G04 #@! TO.P,SW52,P$3*
G04 #@! TO.N,N/C*
X135382000Y-68199000D03*
X148590000Y-68199000D03*
D12*
G04 #@! TO.P,SW52,SW+*
G04 #@! TO.N,SW52_BP*
X139446000Y-75184000D03*
G04 #@! TO.P,SW52,SW-*
G04 #@! TO.N,GND*
X144526000Y-75184000D03*
G04 #@! TD*
G04 #@! TO.P,SW51,A*
G04 #@! TO.N,SW51_CH_A*
X144526000Y-33782000D03*
G04 #@! TO.P,SW51,B*
G04 #@! TO.N,SW51_CH_B*
X139446000Y-33782000D03*
G04 #@! TO.P,SW51,C*
G04 #@! TO.N,GND*
X141986000Y-33782000D03*
D13*
G04 #@! TO.P,SW51,P$3*
G04 #@! TO.N,N/C*
X135382000Y-41275000D03*
X148590000Y-41275000D03*
D12*
G04 #@! TO.P,SW51,SW+*
G04 #@! TO.N,SW51_BP*
X139446000Y-48260000D03*
G04 #@! TO.P,SW51,SW-*
G04 #@! TO.N,GND*
X144526000Y-48260000D03*
G04 #@! TD*
G04 #@! TO.P,SW53,A*
G04 #@! TO.N,SW53_CH_A*
X144526000Y-87630000D03*
G04 #@! TO.P,SW53,B*
G04 #@! TO.N,SW53_CH_B*
X139446000Y-87630000D03*
G04 #@! TO.P,SW53,C*
G04 #@! TO.N,GND*
X141986000Y-87630000D03*
D13*
G04 #@! TO.P,SW53,P$3*
G04 #@! TO.N,N/C*
X135382000Y-95123000D03*
X148590000Y-95123000D03*
D12*
G04 #@! TO.P,SW53,SW+*
G04 #@! TO.N,SW53_BP*
X139446000Y-102108000D03*
G04 #@! TO.P,SW53,SW-*
G04 #@! TO.N,GND*
X144526000Y-102108000D03*
G04 #@! TD*
G04 #@! TO.P,SW43,A*
G04 #@! TO.N,SW43_CH_A*
X124206000Y-87630000D03*
G04 #@! TO.P,SW43,B*
G04 #@! TO.N,SW43_CH_B*
X119126000Y-87630000D03*
G04 #@! TO.P,SW43,C*
G04 #@! TO.N,GND*
X121666000Y-87630000D03*
D13*
G04 #@! TO.P,SW43,P$3*
G04 #@! TO.N,N/C*
X115062000Y-95123000D03*
X128270000Y-95123000D03*
D12*
G04 #@! TO.P,SW43,SW+*
G04 #@! TO.N,SW43_BP*
X119126000Y-102108000D03*
G04 #@! TO.P,SW43,SW-*
G04 #@! TO.N,GND*
X124206000Y-102108000D03*
G04 #@! TD*
G04 #@! TO.P,SW42,A*
G04 #@! TO.N,SW42_CH_A*
X124206000Y-60706000D03*
G04 #@! TO.P,SW42,B*
G04 #@! TO.N,SW42_CH_B*
X119126000Y-60706000D03*
G04 #@! TO.P,SW42,C*
G04 #@! TO.N,GND*
X121666000Y-60706000D03*
D13*
G04 #@! TO.P,SW42,P$3*
G04 #@! TO.N,N/C*
X115062000Y-68199000D03*
X128270000Y-68199000D03*
D12*
G04 #@! TO.P,SW42,SW+*
G04 #@! TO.N,SW42_BP*
X119126000Y-75184000D03*
G04 #@! TO.P,SW42,SW-*
G04 #@! TO.N,GND*
X124206000Y-75184000D03*
G04 #@! TD*
G04 #@! TO.P,SW44,A*
G04 #@! TO.N,SW44_CH_A*
X124206000Y-114554000D03*
G04 #@! TO.P,SW44,B*
G04 #@! TO.N,SW44_CH_B*
X119126000Y-114554000D03*
G04 #@! TO.P,SW44,C*
G04 #@! TO.N,GND*
X121666000Y-114554000D03*
D13*
G04 #@! TO.P,SW44,P$3*
G04 #@! TO.N,N/C*
X115062000Y-122047000D03*
X128270000Y-122047000D03*
D12*
G04 #@! TO.P,SW44,SW+*
G04 #@! TO.N,SW44_BP*
X119126000Y-129032000D03*
G04 #@! TO.P,SW44,SW-*
G04 #@! TO.N,GND*
X124206000Y-129032000D03*
G04 #@! TD*
G04 #@! TO.P,SW41,A*
G04 #@! TO.N,SW41_CH_A*
X124206000Y-33782000D03*
G04 #@! TO.P,SW41,B*
G04 #@! TO.N,SW41_CH_B*
X119126000Y-33782000D03*
G04 #@! TO.P,SW41,C*
G04 #@! TO.N,GND*
X121666000Y-33782000D03*
D13*
G04 #@! TO.P,SW41,P$3*
G04 #@! TO.N,N/C*
X115062000Y-41275000D03*
X128270000Y-41275000D03*
D12*
G04 #@! TO.P,SW41,SW+*
G04 #@! TO.N,SW41_BP*
X119126000Y-48260000D03*
G04 #@! TO.P,SW41,SW-*
G04 #@! TO.N,GND*
X124206000Y-48260000D03*
G04 #@! TD*
G04 #@! TO.P,SW33,A*
G04 #@! TO.N,SW33_CH_A*
X103886000Y-87630000D03*
G04 #@! TO.P,SW33,B*
G04 #@! TO.N,SW33_CH_B*
X98806000Y-87630000D03*
G04 #@! TO.P,SW33,C*
G04 #@! TO.N,GND*
X101346000Y-87630000D03*
D13*
G04 #@! TO.P,SW33,P$3*
G04 #@! TO.N,N/C*
X94742000Y-95123000D03*
X107950000Y-95123000D03*
D12*
G04 #@! TO.P,SW33,SW+*
G04 #@! TO.N,SW33_BP*
X98806000Y-102108000D03*
G04 #@! TO.P,SW33,SW-*
G04 #@! TO.N,GND*
X103886000Y-102108000D03*
G04 #@! TD*
G04 #@! TO.P,SW32,A*
G04 #@! TO.N,SW32_CH_A*
X103886000Y-60706000D03*
G04 #@! TO.P,SW32,B*
G04 #@! TO.N,SW32_CH_B*
X98806000Y-60706000D03*
G04 #@! TO.P,SW32,C*
G04 #@! TO.N,GND*
X101346000Y-60706000D03*
D13*
G04 #@! TO.P,SW32,P$3*
G04 #@! TO.N,N/C*
X94742000Y-68199000D03*
X107950000Y-68199000D03*
D12*
G04 #@! TO.P,SW32,SW+*
G04 #@! TO.N,SW32_BP*
X98806000Y-75184000D03*
G04 #@! TO.P,SW32,SW-*
G04 #@! TO.N,GND*
X103886000Y-75184000D03*
G04 #@! TD*
G04 #@! TO.P,SW31,A*
G04 #@! TO.N,SW31_CH_A*
X103886000Y-33782000D03*
G04 #@! TO.P,SW31,B*
G04 #@! TO.N,SW31_CH_B*
X98806000Y-33782000D03*
G04 #@! TO.P,SW31,C*
G04 #@! TO.N,GND*
X101346000Y-33782000D03*
D13*
G04 #@! TO.P,SW31,P$3*
G04 #@! TO.N,N/C*
X94742000Y-41275000D03*
X107950000Y-41275000D03*
D12*
G04 #@! TO.P,SW31,SW+*
G04 #@! TO.N,SW31_BP*
X98806000Y-48260000D03*
G04 #@! TO.P,SW31,SW-*
G04 #@! TO.N,GND*
X103886000Y-48260000D03*
G04 #@! TD*
G04 #@! TO.P,SW34,A*
G04 #@! TO.N,SW34_CH_A*
X103886000Y-114554000D03*
G04 #@! TO.P,SW34,B*
G04 #@! TO.N,SW34_CH_B*
X98806000Y-114554000D03*
G04 #@! TO.P,SW34,C*
G04 #@! TO.N,GND*
X101346000Y-114554000D03*
D13*
G04 #@! TO.P,SW34,P$3*
G04 #@! TO.N,N/C*
X94742000Y-122047000D03*
X107950000Y-122047000D03*
D12*
G04 #@! TO.P,SW34,SW+*
G04 #@! TO.N,SW34_BP*
X98806000Y-129032000D03*
G04 #@! TO.P,SW34,SW-*
G04 #@! TO.N,GND*
X103886000Y-129032000D03*
G04 #@! TD*
G04 #@! TO.P,SW21,A*
G04 #@! TO.N,SW21_CH_A*
X83566000Y-33782000D03*
G04 #@! TO.P,SW21,B*
G04 #@! TO.N,SW21_CH_B*
X78486000Y-33782000D03*
G04 #@! TO.P,SW21,C*
G04 #@! TO.N,GND*
X81026000Y-33782000D03*
D13*
G04 #@! TO.P,SW21,P$3*
G04 #@! TO.N,N/C*
X74422000Y-41275000D03*
X87630000Y-41275000D03*
D12*
G04 #@! TO.P,SW21,SW+*
G04 #@! TO.N,SW21_BP*
X78486000Y-48260000D03*
G04 #@! TO.P,SW21,SW-*
G04 #@! TO.N,GND*
X83566000Y-48260000D03*
G04 #@! TD*
G04 #@! TO.P,SW23,A*
G04 #@! TO.N,SW23_CH_A*
X83566000Y-87630000D03*
G04 #@! TO.P,SW23,B*
G04 #@! TO.N,SW23_CH_B*
X78486000Y-87630000D03*
G04 #@! TO.P,SW23,C*
G04 #@! TO.N,GND*
X81026000Y-87630000D03*
D13*
G04 #@! TO.P,SW23,P$3*
G04 #@! TO.N,N/C*
X74422000Y-95123000D03*
X87630000Y-95123000D03*
D12*
G04 #@! TO.P,SW23,SW+*
G04 #@! TO.N,SW23_BP*
X78486000Y-102108000D03*
G04 #@! TO.P,SW23,SW-*
G04 #@! TO.N,GND*
X83566000Y-102108000D03*
G04 #@! TD*
G04 #@! TO.P,SW24,A*
G04 #@! TO.N,SW24_CH_A*
X83566000Y-114554000D03*
G04 #@! TO.P,SW24,B*
G04 #@! TO.N,SW24_CH_B*
X78486000Y-114554000D03*
G04 #@! TO.P,SW24,C*
G04 #@! TO.N,GND*
X81026000Y-114554000D03*
D13*
G04 #@! TO.P,SW24,P$3*
G04 #@! TO.N,N/C*
X74422000Y-122047000D03*
X87630000Y-122047000D03*
D12*
G04 #@! TO.P,SW24,SW+*
G04 #@! TO.N,SW24_BP*
X78486000Y-129032000D03*
G04 #@! TO.P,SW24,SW-*
G04 #@! TO.N,GND*
X83566000Y-129032000D03*
G04 #@! TD*
G04 #@! TO.P,SW22,A*
G04 #@! TO.N,SW22_CH_A*
X83566000Y-60706000D03*
G04 #@! TO.P,SW22,B*
G04 #@! TO.N,SW22_CH_B*
X78486000Y-60706000D03*
G04 #@! TO.P,SW22,C*
G04 #@! TO.N,GND*
X81026000Y-60706000D03*
D13*
G04 #@! TO.P,SW22,P$3*
G04 #@! TO.N,N/C*
X74422000Y-68199000D03*
X87630000Y-68199000D03*
D12*
G04 #@! TO.P,SW22,SW+*
G04 #@! TO.N,SW22_BP*
X78486000Y-75184000D03*
G04 #@! TO.P,SW22,SW-*
G04 #@! TO.N,GND*
X83566000Y-75184000D03*
G04 #@! TD*
G04 #@! TO.P,SW12,A*
G04 #@! TO.N,SW12_CH_A*
X63246000Y-60706000D03*
G04 #@! TO.P,SW12,B*
G04 #@! TO.N,SW12_CH_B*
X58166000Y-60706000D03*
G04 #@! TO.P,SW12,C*
G04 #@! TO.N,GND*
X60706000Y-60706000D03*
D13*
G04 #@! TO.P,SW12,P$3*
G04 #@! TO.N,N/C*
X54102000Y-68199000D03*
X67310000Y-68199000D03*
D12*
G04 #@! TO.P,SW12,SW+*
G04 #@! TO.N,SW12_BP*
X58166000Y-75184000D03*
G04 #@! TO.P,SW12,SW-*
G04 #@! TO.N,GND*
X63246000Y-75184000D03*
G04 #@! TD*
G04 #@! TO.P,SW14,A*
G04 #@! TO.N,SW14_CH_A*
X63246000Y-114554000D03*
G04 #@! TO.P,SW14,B*
G04 #@! TO.N,SW14_CH_B*
X58166000Y-114554000D03*
G04 #@! TO.P,SW14,C*
G04 #@! TO.N,GND*
X60706000Y-114554000D03*
D13*
G04 #@! TO.P,SW14,P$3*
G04 #@! TO.N,N/C*
X54102000Y-122047000D03*
X67310000Y-122047000D03*
D12*
G04 #@! TO.P,SW14,SW+*
G04 #@! TO.N,SW14_BP*
X58166000Y-129032000D03*
G04 #@! TO.P,SW14,SW-*
G04 #@! TO.N,GND*
X63246000Y-129032000D03*
G04 #@! TD*
G04 #@! TO.P,SW13,A*
G04 #@! TO.N,SW13_CH_A*
X63246000Y-87630000D03*
G04 #@! TO.P,SW13,B*
G04 #@! TO.N,SW13_CH_B*
X58166000Y-87630000D03*
G04 #@! TO.P,SW13,C*
G04 #@! TO.N,GND*
X60706000Y-87630000D03*
D13*
G04 #@! TO.P,SW13,P$3*
G04 #@! TO.N,N/C*
X54102000Y-95123000D03*
X67310000Y-95123000D03*
D12*
G04 #@! TO.P,SW13,SW+*
G04 #@! TO.N,SW13_BP*
X58166000Y-102108000D03*
G04 #@! TO.P,SW13,SW-*
G04 #@! TO.N,GND*
X63246000Y-102108000D03*
G04 #@! TD*
G04 #@! TO.P,SW11,A*
G04 #@! TO.N,SW11_CH_A*
X63246000Y-33782000D03*
G04 #@! TO.P,SW11,B*
G04 #@! TO.N,SW11_CH_B*
X58166000Y-33782000D03*
G04 #@! TO.P,SW11,C*
G04 #@! TO.N,GND*
X60706000Y-33782000D03*
D13*
G04 #@! TO.P,SW11,P$3*
G04 #@! TO.N,N/C*
X54102000Y-41275000D03*
X67310000Y-41275000D03*
D12*
G04 #@! TO.P,SW11,SW+*
G04 #@! TO.N,SW11_BP*
X58166000Y-48260000D03*
G04 #@! TO.P,SW11,SW-*
G04 #@! TO.N,GND*
X63246000Y-48260000D03*
G04 #@! TD*
G04 #@! TO.P,SW2,A*
G04 #@! TO.N,SW02_CH_A*
X42926000Y-60706000D03*
G04 #@! TO.P,SW2,B*
G04 #@! TO.N,SW02_CH_B*
X37846000Y-60706000D03*
G04 #@! TO.P,SW2,C*
G04 #@! TO.N,GND*
X40386000Y-60706000D03*
D13*
G04 #@! TO.P,SW2,P$3*
G04 #@! TO.N,N/C*
X33782000Y-68199000D03*
X46990000Y-68199000D03*
D12*
G04 #@! TO.P,SW2,SW+*
G04 #@! TO.N,SW02_BP*
X37846000Y-75184000D03*
G04 #@! TO.P,SW2,SW-*
G04 #@! TO.N,GND*
X42926000Y-75184000D03*
G04 #@! TD*
G04 #@! TO.P,SW1,A*
G04 #@! TO.N,SW01_CH_A*
X42926000Y-33782000D03*
G04 #@! TO.P,SW1,B*
G04 #@! TO.N,SW01_CH_B*
X37846000Y-33782000D03*
G04 #@! TO.P,SW1,C*
G04 #@! TO.N,GND*
X40386000Y-33782000D03*
D13*
G04 #@! TO.P,SW1,P$3*
G04 #@! TO.N,N/C*
X33782000Y-41275000D03*
X46990000Y-41275000D03*
D12*
G04 #@! TO.P,SW1,SW+*
G04 #@! TO.N,SW01_BP*
X37846000Y-48260000D03*
G04 #@! TO.P,SW1,SW-*
G04 #@! TO.N,GND*
X42926000Y-48260000D03*
G04 #@! TD*
G04 #@! TO.P,SW3,A*
G04 #@! TO.N,SW03_CH_A*
X42926000Y-87630000D03*
G04 #@! TO.P,SW3,B*
G04 #@! TO.N,SW03_CH_B*
X37846000Y-87630000D03*
G04 #@! TO.P,SW3,C*
G04 #@! TO.N,GND*
X40386000Y-87630000D03*
D13*
G04 #@! TO.P,SW3,P$3*
G04 #@! TO.N,N/C*
X33782000Y-95123000D03*
X46990000Y-95123000D03*
D12*
G04 #@! TO.P,SW3,SW+*
G04 #@! TO.N,SW03_BP*
X37846000Y-102108000D03*
G04 #@! TO.P,SW3,SW-*
G04 #@! TO.N,GND*
X42926000Y-102108000D03*
G04 #@! TD*
G04 #@! TO.P,SW4,A*
G04 #@! TO.N,SW04_CH_A*
X42926000Y-114554000D03*
G04 #@! TO.P,SW4,B*
G04 #@! TO.N,SW04_CH_B*
X37846000Y-114554000D03*
G04 #@! TO.P,SW4,C*
G04 #@! TO.N,GND*
X40386000Y-114554000D03*
D13*
G04 #@! TO.P,SW4,P$3*
G04 #@! TO.N,N/C*
X33782000Y-122047000D03*
X46990000Y-122047000D03*
D12*
G04 #@! TO.P,SW4,SW+*
G04 #@! TO.N,SW04_BP*
X37846000Y-129032000D03*
G04 #@! TO.P,SW4,SW-*
G04 #@! TO.N,GND*
X42926000Y-129032000D03*
G04 #@! TD*
G04 #@! TO.P,SW_MAIN1,A*
G04 #@! TO.N,UI_CH_A*
X210820000Y-76962000D03*
G04 #@! TO.P,SW_MAIN1,B*
G04 #@! TO.N,UI_CH_B*
X205740000Y-76962000D03*
G04 #@! TO.P,SW_MAIN1,C*
G04 #@! TO.N,GND*
X208280000Y-76962000D03*
D13*
G04 #@! TO.P,SW_MAIN1,P$3*
G04 #@! TO.N,N/C*
X201676000Y-84455000D03*
X214884000Y-84455000D03*
D12*
G04 #@! TO.P,SW_MAIN1,SW+*
G04 #@! TO.N,UI_BP*
X205740000Y-91440000D03*
G04 #@! TO.P,SW_MAIN1,SW-*
G04 #@! TO.N,GND*
X210820000Y-91440000D03*
G04 #@! TD*
D14*
G04 #@! TO.P,U100,20*
G04 #@! TO.N,TEENSY_LED*
X223520000Y-121158000D03*
G04 #@! TO.P,U100,14*
G04 #@! TO.N,Net-(U100-Pad14)*
X223520000Y-105918000D03*
G04 #@! TO.P,U100,21*
G04 #@! TO.N,CH_A_F*
X220980000Y-121158000D03*
G04 #@! TO.P,U100,22*
G04 #@! TO.N,CH_B_F*
X218440000Y-121158000D03*
G04 #@! TO.P,U100,23*
G04 #@! TO.N,BP_F*
X215900000Y-121158000D03*
G04 #@! TO.P,U100,24*
G04 #@! TO.N,LCD_RST*
X213360000Y-121158000D03*
G04 #@! TO.P,U100,25*
G04 #@! TO.N,SDA*
X210820000Y-121158000D03*
G04 #@! TO.P,U100,26*
G04 #@! TO.N,SCL*
X208280000Y-121158000D03*
G04 #@! TO.P,U100,27*
G04 #@! TO.N,UI_CH_A_F*
X205740000Y-121158000D03*
G04 #@! TO.P,U100,28*
G04 #@! TO.N,UI_CH_B_F*
X203200000Y-121158000D03*
G04 #@! TO.P,U100,29*
G04 #@! TO.N,UI_BP_F*
X200660000Y-121158000D03*
G04 #@! TO.P,U100,30*
G04 #@! TO.N,Net-(U100-Pad30)*
X198120000Y-121158000D03*
G04 #@! TO.P,U100,31*
G04 #@! TO.N,3V3*
X195580000Y-121158000D03*
G04 #@! TO.P,U100,32*
G04 #@! TO.N,Net-(U100-Pad32)*
X193040000Y-121158000D03*
G04 #@! TO.P,U100,33*
G04 #@! TO.N,+5V*
X190500000Y-121158000D03*
G04 #@! TO.P,U100,13*
G04 #@! TO.N,Net-(U100-Pad13)*
X220980000Y-105918000D03*
G04 #@! TO.P,U100,12*
G04 #@! TO.N,OLED_IN_3V3*
X218440000Y-105918000D03*
G04 #@! TO.P,U100,11*
G04 #@! TO.N,Enable_Column6*
X215900000Y-105918000D03*
G04 #@! TO.P,U100,10*
G04 #@! TO.N,Enable_Column5*
X213360000Y-105918000D03*
G04 #@! TO.P,U100,9*
G04 #@! TO.N,Enable_Column4*
X210820000Y-105918000D03*
G04 #@! TO.P,U100,8*
G04 #@! TO.N,Enable_Column3*
X208280000Y-105918000D03*
G04 #@! TO.P,U100,7*
G04 #@! TO.N,Enable_Column2*
X205740000Y-105918000D03*
G04 #@! TO.P,U100,6*
G04 #@! TO.N,Enable_Column1*
X203200000Y-105918000D03*
G04 #@! TO.P,U100,5*
G04 #@! TO.N,Enable_Column0*
X200660000Y-105918000D03*
G04 #@! TO.P,U100,4*
G04 #@! TO.N,Select_C*
X198120000Y-105918000D03*
G04 #@! TO.P,U100,3*
G04 #@! TO.N,Select_B*
X195580000Y-105918000D03*
G04 #@! TO.P,U100,2*
G04 #@! TO.N,Select_A*
X193040000Y-105918000D03*
D15*
G04 #@! TO.P,U100,1*
G04 #@! TO.N,GND*
X190500000Y-105918000D03*
G04 #@! TD*
D14*
G04 #@! TO.P,REF\002A\002A,14*
G04 #@! TO.N,Net-(U100-Pad14)*
X223520000Y-103378000D03*
G04 #@! TO.P,REF\002A\002A,13*
G04 #@! TO.N,Net-(U100-Pad13)*
X220980000Y-103378000D03*
G04 #@! TO.P,REF\002A\002A,12*
G04 #@! TO.N,NEOPIXEL_IN_3V3*
X218440000Y-103378000D03*
G04 #@! TO.P,REF\002A\002A,11*
G04 #@! TO.N,Enable_Column6*
X215900000Y-103378000D03*
G04 #@! TO.P,REF\002A\002A,10*
G04 #@! TO.N,Enable_Column5*
X213360000Y-103378000D03*
G04 #@! TO.P,REF\002A\002A,9*
G04 #@! TO.N,Enable_Column4*
X210820000Y-103378000D03*
G04 #@! TO.P,REF\002A\002A,8*
G04 #@! TO.N,Enable_Column3*
X208280000Y-103378000D03*
G04 #@! TO.P,REF\002A\002A,7*
G04 #@! TO.N,Enable_Column2*
X205740000Y-103378000D03*
G04 #@! TO.P,REF\002A\002A,6*
G04 #@! TO.N,Enable_Column1*
X203200000Y-103378000D03*
G04 #@! TO.P,REF\002A\002A,5*
G04 #@! TO.N,Enable_Column0*
X200660000Y-103378000D03*
G04 #@! TO.P,REF\002A\002A,4*
G04 #@! TO.N,Select_C*
X198120000Y-103378000D03*
G04 #@! TO.P,REF\002A\002A,3*
G04 #@! TO.N,Select_B*
X195580000Y-103378000D03*
G04 #@! TO.P,REF\002A\002A,2*
G04 #@! TO.N,Select_A*
X193040000Y-103378000D03*
D15*
G04 #@! TO.P,REF\002A\002A,1*
G04 #@! TO.N,GND*
X190500000Y-103378000D03*
G04 #@! TD*
D14*
G04 #@! TO.P,REF\002A\002A,1*
G04 #@! TO.N,+5V*
X190500000Y-123698000D03*
G04 #@! TO.P,REF\002A\002A,2*
G04 #@! TO.N,Net-(U100-Pad32)*
X193040000Y-123698000D03*
G04 #@! TO.P,REF\002A\002A,3*
G04 #@! TO.N,3V3*
X195580000Y-123698000D03*
G04 #@! TO.P,REF\002A\002A,4*
G04 #@! TO.N,Net-(U100-Pad30)*
X198120000Y-123698000D03*
G04 #@! TO.P,REF\002A\002A,5*
G04 #@! TO.N,UI_BP_F*
X200660000Y-123698000D03*
G04 #@! TO.P,REF\002A\002A,6*
G04 #@! TO.N,UI_CH_B_F*
X203200000Y-123698000D03*
G04 #@! TO.P,REF\002A\002A,7*
G04 #@! TO.N,UI_CH_A_F*
X205740000Y-123698000D03*
G04 #@! TO.P,REF\002A\002A,8*
G04 #@! TO.N,SCL*
X208280000Y-123698000D03*
G04 #@! TO.P,REF\002A\002A,9*
G04 #@! TO.N,SDA*
X210820000Y-123698000D03*
G04 #@! TO.P,REF\002A\002A,10*
G04 #@! TO.N,LCD_RST*
X213360000Y-123698000D03*
G04 #@! TO.P,REF\002A\002A,11*
G04 #@! TO.N,BP_F*
X215900000Y-123698000D03*
G04 #@! TO.P,REF\002A\002A,12*
G04 #@! TO.N,CH_B_F*
X218440000Y-123698000D03*
G04 #@! TO.P,REF\002A\002A,13*
G04 #@! TO.N,CH_A_F*
X220980000Y-123698000D03*
G04 #@! TO.P,REF\002A\002A,14*
G04 #@! TO.N,TEENSY_LED*
X223520000Y-123698000D03*
G04 #@! TD*
D11*
G04 #@! TO.P,R9,1*
G04 #@! TO.N,CH_A*
X220980000Y-113538000D03*
D10*
G04 #@! TO.P,R9,2*
G04 #@! TO.N,CH_A_F*
X220980000Y-118618000D03*
G04 #@! TD*
D11*
G04 #@! TO.P,R8,1*
G04 #@! TO.N,CH_B*
X218440000Y-113538000D03*
D10*
G04 #@! TO.P,R8,2*
G04 #@! TO.N,CH_B_F*
X218440000Y-118618000D03*
G04 #@! TD*
G04 #@! TO.P,R7,2*
G04 #@! TO.N,BP_F*
X215900000Y-118618000D03*
D11*
G04 #@! TO.P,R7,1*
G04 #@! TO.N,BP*
X215900000Y-113538000D03*
G04 #@! TD*
G04 #@! TO.P,R6,1*
G04 #@! TO.N,3V3*
X190500000Y-83312000D03*
D10*
G04 #@! TO.P,R6,2*
G04 #@! TO.N,UI_BP*
X195580000Y-83312000D03*
G04 #@! TD*
D11*
G04 #@! TO.P,R5,1*
G04 #@! TO.N,3V3*
X190500000Y-80772000D03*
D10*
G04 #@! TO.P,R5,2*
G04 #@! TO.N,UI_CH_A*
X195580000Y-80772000D03*
G04 #@! TD*
D11*
G04 #@! TO.P,R4,1*
G04 #@! TO.N,3V3*
X190500000Y-78232000D03*
D10*
G04 #@! TO.P,R4,2*
G04 #@! TO.N,UI_CH_B*
X195580000Y-78232000D03*
G04 #@! TD*
D11*
G04 #@! TO.P,R3,1*
G04 #@! TO.N,3V3*
X190246000Y-88900000D03*
D10*
G04 #@! TO.P,R3,2*
G04 #@! TO.N,BP*
X190246000Y-93980000D03*
G04 #@! TD*
D11*
G04 #@! TO.P,R2,1*
G04 #@! TO.N,3V3*
X195326000Y-88900000D03*
D10*
G04 #@! TO.P,R2,2*
G04 #@! TO.N,CH_B*
X195326000Y-93980000D03*
G04 #@! TD*
D11*
G04 #@! TO.P,R1,1*
G04 #@! TO.N,3V3*
X192786000Y-88900000D03*
D10*
G04 #@! TO.P,R1,2*
G04 #@! TO.N,CH_A*
X192786000Y-93980000D03*
G04 #@! TD*
D16*
G04 #@! TO.P,CM4,2*
G04 #@! TO.N,GND*
X212090000Y-27686000D03*
G04 #@! TO.P,CM4,1*
G04 #@! TO.N,+5V*
X212090000Y-31686000D03*
G04 #@! TD*
D17*
G04 #@! TO.P,CM5,2*
G04 #@! TO.N,+5V*
X203708000Y-32996000D03*
G04 #@! TO.P,CM5,1*
G04 #@! TO.N,GND*
X203708000Y-29996000D03*
G04 #@! TD*
G04 #@! TO.P,CM6,1*
G04 #@! TO.N,GND*
X208788000Y-29996000D03*
G04 #@! TO.P,CM6,2*
G04 #@! TO.N,+5V*
X208788000Y-32996000D03*
G04 #@! TD*
D18*
G04 #@! TO.P,OLED1,1*
G04 #@! TO.N,SDA*
X199390000Y-39624000D03*
D12*
G04 #@! TO.P,OLED1,2*
G04 #@! TO.N,SCL*
X201930000Y-39624000D03*
G04 #@! TO.P,OLED1,3*
G04 #@! TO.N,Net-(OLED1-Pad3)*
X204470000Y-39624000D03*
G04 #@! TO.P,OLED1,4*
G04 #@! TO.N,LCD_RST*
X207010000Y-39624000D03*
G04 #@! TO.P,OLED1,5*
G04 #@! TO.N,Net-(OLED1-Pad5)*
X209550000Y-39624000D03*
G04 #@! TO.P,OLED1,6*
G04 #@! TO.N,Net-(OLED1-Pad6)*
X212090000Y-39624000D03*
G04 #@! TO.P,OLED1,7*
G04 #@! TO.N,+5V*
X214630000Y-39624000D03*
G04 #@! TO.P,OLED1,8*
G04 #@! TO.N,GND*
X217170000Y-39624000D03*
G04 #@! TD*
D14*
G04 #@! TO.P,CM7,2*
G04 #@! TO.N,GND*
X213400000Y-136398000D03*
G04 #@! TO.P,CM7,1*
G04 #@! TO.N,CH_A_F*
X215900000Y-136398000D03*
G04 #@! TD*
G04 #@! TO.P,CM8,1*
G04 #@! TO.N,CH_B_F*
X215900000Y-132080000D03*
G04 #@! TO.P,CM8,2*
G04 #@! TO.N,GND*
X213400000Y-132080000D03*
G04 #@! TD*
G04 #@! TO.P,CM9,2*
G04 #@! TO.N,GND*
X213400000Y-127762000D03*
G04 #@! TO.P,CM9,1*
G04 #@! TO.N,BP_F*
X215900000Y-127762000D03*
G04 #@! TD*
G04 #@! TO.P,CM10,2*
G04 #@! TO.N,GND*
X203200000Y-129206000D03*
G04 #@! TO.P,CM10,1*
G04 #@! TO.N,UI_CH_B_F*
X203200000Y-126706000D03*
G04 #@! TD*
G04 #@! TO.P,CM11,2*
G04 #@! TO.N,GND*
X207010000Y-129460000D03*
G04 #@! TO.P,CM11,1*
G04 #@! TO.N,UI_CH_A_F*
X207010000Y-126960000D03*
G04 #@! TD*
G04 #@! TO.P,CM12,1*
G04 #@! TO.N,UI_BP_F*
X199390000Y-126706000D03*
G04 #@! TO.P,CM12,2*
G04 #@! TO.N,GND*
X199390000Y-129206000D03*
G04 #@! TD*
D11*
G04 #@! TO.P,R10,1*
G04 #@! TO.N,UI_CH_B*
X203200000Y-113792000D03*
D10*
G04 #@! TO.P,R10,2*
G04 #@! TO.N,UI_CH_B_F*
X203200000Y-118872000D03*
G04 #@! TD*
G04 #@! TO.P,R11,2*
G04 #@! TO.N,UI_CH_A_F*
X205740000Y-118872000D03*
D11*
G04 #@! TO.P,R11,1*
G04 #@! TO.N,UI_CH_A*
X205740000Y-113792000D03*
G04 #@! TD*
D10*
G04 #@! TO.P,R12,2*
G04 #@! TO.N,UI_BP_F*
X200660000Y-118872000D03*
D11*
G04 #@! TO.P,R12,1*
G04 #@! TO.N,UI_BP*
X200660000Y-113792000D03*
G04 #@! TD*
D19*
G04 #@! TO.P,TEENSY_I2C,5*
G04 #@! TO.N,SDA*
X210312000Y-47244000D03*
G04 #@! TO.P,TEENSY_I2C,4*
G04 #@! TO.N,SCL*
X210312000Y-49784000D03*
G04 #@! TO.P,TEENSY_I2C,3*
G04 #@! TO.N,3V3*
X210312000Y-52324000D03*
G04 #@! TO.P,TEENSY_I2C,2*
G04 #@! TO.N,+5V*
X210312000Y-54864000D03*
D20*
G04 #@! TO.P,TEENSY_I2C,1*
G04 #@! TO.N,GND*
X210312000Y-57404000D03*
G04 #@! TD*
D17*
G04 #@! TO.P,D1,1*
G04 #@! TO.N,+5V*
X211876000Y-69266000D03*
G04 #@! TO.P,D1,2*
G04 #@! TO.N,Net-(D1-Pad2)*
X211876000Y-72466000D03*
G04 #@! TO.P,D1,4*
G04 #@! TO.N,NEOPIXEL_IN*
X216876000Y-69266000D03*
G04 #@! TO.P,D1,3*
G04 #@! TO.N,GND*
X216876000Y-72466000D03*
G04 #@! TD*
G04 #@! TO.P,D2,3*
G04 #@! TO.N,GND*
X204684000Y-72466000D03*
G04 #@! TO.P,D2,4*
G04 #@! TO.N,Net-(D1-Pad2)*
X204684000Y-69266000D03*
G04 #@! TO.P,D2,2*
G04 #@! TO.N,Net-(D2-Pad2)*
X199684000Y-72466000D03*
G04 #@! TO.P,D2,1*
G04 #@! TO.N,+5V*
X199684000Y-69266000D03*
G04 #@! TD*
D14*
G04 #@! TO.P,C10,2*
G04 #@! TO.N,GND*
X189992000Y-61508000D03*
D15*
G04 #@! TO.P,C10,1*
G04 #@! TO.N,+5V*
X189992000Y-64008000D03*
G04 #@! TD*
D21*
G04 #@! TO.P,LED1,1*
G04 #@! TO.N,GND*
X215900000Y-143764000D03*
D22*
G04 #@! TO.P,LED1,2*
G04 #@! TO.N,Net-(LED1-Pad2)*
X215900000Y-141224000D03*
G04 #@! TD*
D23*
G04 #@! TO.N,GND*
X208788000Y-28726000D03*
X214376000Y-27686000D03*
X203708000Y-28726000D03*
X214630000Y-74422000D03*
X202438000Y-74422000D03*
G04 #@! TO.N,Select_C*
X181356000Y-47752000D03*
X181356000Y-105156000D03*
X181356000Y-101600000D03*
X181356000Y-74676000D03*
X150876000Y-74676000D03*
X150876000Y-47752000D03*
X150876000Y-101600000D03*
X150876000Y-105156000D03*
X130556000Y-74676000D03*
X130556000Y-101600000D03*
X130556000Y-105156000D03*
X130556000Y-47752000D03*
X110236000Y-105156000D03*
X110236000Y-47752000D03*
X110236000Y-101600000D03*
X89916000Y-74422000D03*
X89916000Y-101600000D03*
X89916000Y-47752000D03*
X69596000Y-47752000D03*
X69596000Y-101600000D03*
X69596000Y-74676000D03*
X49276000Y-47752000D03*
X49276000Y-74676000D03*
X49276000Y-101600000D03*
X69596000Y-105156000D03*
X89916000Y-105156000D03*
X110236000Y-74676000D03*
X170688000Y-105156000D03*
X140208000Y-105156000D03*
X119888000Y-105156000D03*
X99568000Y-105156000D03*
X79248000Y-105156000D03*
X58928000Y-105156000D03*
G04 #@! TO.N,Select_B*
X180594000Y-46990000D03*
X180594000Y-73914000D03*
X180594000Y-105918000D03*
X180594000Y-100838000D03*
X150114000Y-100838000D03*
X150114000Y-46990000D03*
X150114000Y-73914000D03*
X150113994Y-105918000D03*
X129794000Y-46990000D03*
X129794000Y-73914000D03*
X129794000Y-100838000D03*
X109474000Y-100838000D03*
X109474000Y-46990000D03*
X89154000Y-73660000D03*
X89154000Y-100838000D03*
X89154000Y-46990000D03*
X68834000Y-46990000D03*
X68834000Y-73914000D03*
X68834000Y-100838000D03*
X48514000Y-46990000D03*
X48514000Y-100838000D03*
X48514000Y-73914000D03*
X89154000Y-105918000D03*
X68834000Y-105918000D03*
X109474000Y-73914000D03*
X129794000Y-105918000D03*
X109474000Y-105918000D03*
X171450000Y-105918000D03*
X140970000Y-105918000D03*
X120650000Y-105918000D03*
X100330000Y-105918000D03*
X80010000Y-105918000D03*
X59690000Y-105918000D03*
G04 #@! TO.N,Select_A*
X179832000Y-100076000D03*
X179832000Y-73152000D03*
X179832000Y-46228000D03*
X149352000Y-73152000D03*
X149352000Y-46228000D03*
X149352000Y-100076000D03*
X129032000Y-106680000D03*
X129032000Y-100076000D03*
X129032000Y-73152000D03*
X129032000Y-46228000D03*
X108712000Y-73152000D03*
X108712000Y-100076000D03*
X108712000Y-46228000D03*
X108712000Y-106680000D03*
X88392000Y-46228000D03*
X88392000Y-72898000D03*
X88392000Y-100076000D03*
X68072000Y-46228000D03*
X68072000Y-73152000D03*
X68072000Y-100076000D03*
X47752000Y-46228000D03*
X47752000Y-100076000D03*
X47752000Y-73152000D03*
X88392000Y-106680000D03*
X68072000Y-106680000D03*
X179832000Y-106680000D03*
X149352000Y-106680000D03*
X170688000Y-106680000D03*
X140208000Y-106680000D03*
X119888000Y-106680000D03*
X99568000Y-106680000D03*
X79248000Y-106680000D03*
X58928000Y-106680000D03*
G04 #@! TO.N,Enable_Column1*
X65024000Y-96520000D03*
X65024000Y-69596000D03*
X104394000Y-108204000D03*
X145034000Y-109728000D03*
X174752000Y-110490000D03*
X171450000Y-110490000D03*
X140208000Y-109728000D03*
X120650000Y-108966000D03*
X123952000Y-108966000D03*
X99568000Y-108204000D03*
X83312000Y-107442000D03*
X80010000Y-107442000D03*
X203200000Y-111252000D03*
X65024000Y-42672000D03*
G04 #@! TO.N,SW11_CH_B*
X59436000Y-61976000D03*
X59436000Y-35814000D03*
G04 #@! TO.N,SW11_BP*
X59436000Y-93980000D03*
G04 #@! TO.N,SW12_BP*
X58674000Y-92710000D03*
G04 #@! TO.N,SW12_CH_A*
X60960000Y-38862000D03*
G04 #@! TO.N,SW13_CH_A*
X60198000Y-37592000D03*
X61069786Y-85790270D03*
G04 #@! TO.N,SW13_CH_B*
X58674000Y-64516000D03*
G04 #@! TO.N,SW13_BP*
X58166000Y-100330000D03*
X60198000Y-91440000D03*
G04 #@! TO.N,SW14_BP*
X61468000Y-95250000D03*
X58166000Y-125222000D03*
G04 #@! TO.N,SW14_CH_B*
X60960000Y-90170000D03*
X59436000Y-85598000D03*
X60198000Y-68326000D03*
G04 #@! TO.N,SW14_CH_A*
X61722000Y-41402000D03*
G04 #@! TO.N,CH_A*
X180340000Y-38862000D03*
X149860000Y-38862000D03*
X129794000Y-38862000D03*
X68580000Y-38862000D03*
X48514000Y-38862000D03*
X89154000Y-38862000D03*
X109474000Y-38862000D03*
X50038000Y-51816000D03*
X53086000Y-51816000D03*
X56896000Y-51816000D03*
X70358000Y-51816000D03*
X73406000Y-51816000D03*
X76962000Y-51816000D03*
X90678000Y-51816000D03*
X93726000Y-51816000D03*
X97282000Y-51816000D03*
X110998000Y-51816000D03*
X114046000Y-51816000D03*
X117602000Y-51816000D03*
X134620000Y-51816000D03*
X131318000Y-51816000D03*
X138176000Y-51816000D03*
X152146000Y-51816000D03*
X161798000Y-51816000D03*
X164846000Y-51816000D03*
X168656000Y-51816000D03*
X182118000Y-51816000D03*
G04 #@! TO.N,CH_B*
X182880000Y-65786000D03*
X152400000Y-76708000D03*
X152400000Y-65786000D03*
X132080000Y-65786000D03*
X91440000Y-65786000D03*
X71120000Y-65786000D03*
X50800000Y-65786000D03*
X91440000Y-76200000D03*
X111760000Y-65786000D03*
X161798000Y-76708000D03*
X195326000Y-98806000D03*
X195326000Y-97282000D03*
X50292000Y-77978000D03*
X53086000Y-77978000D03*
X70612000Y-77978000D03*
X73152000Y-77978000D03*
X111252000Y-77978000D03*
X131572000Y-77978000D03*
X134366000Y-77978000D03*
X182372000Y-77724000D03*
X168148000Y-77724000D03*
X164592000Y-77724000D03*
X114046000Y-77978000D03*
X118110000Y-77978000D03*
X95250000Y-76962000D03*
X97790000Y-77978000D03*
X138176000Y-77978000D03*
X56896000Y-77978000D03*
X77216000Y-77978000D03*
G04 #@! TO.N,BP*
X183134000Y-92710000D03*
X182118000Y-104394000D03*
X132334000Y-92710000D03*
X112014000Y-104394000D03*
X132334000Y-104394000D03*
X112014000Y-92710000D03*
X91694000Y-104394000D03*
X91694000Y-93980000D03*
X71374000Y-92710000D03*
X51054000Y-92710000D03*
X71374000Y-104394000D03*
X152654000Y-92710000D03*
X152654000Y-104394000D03*
X171450000Y-104394000D03*
X140970000Y-104394000D03*
X120650000Y-104394000D03*
X100330000Y-104394000D03*
X80010000Y-104394000D03*
X59690000Y-104394000D03*
X190246000Y-99568000D03*
X190246000Y-97282000D03*
G04 #@! TO.N,SW01_CH_B*
X39116000Y-61976000D03*
X39116000Y-35814000D03*
G04 #@! TO.N,SW01_BP*
X39116000Y-93980000D03*
G04 #@! TO.N,SW02_BP*
X38354000Y-92710000D03*
G04 #@! TO.N,SW02_CH_A*
X40640000Y-38862000D03*
G04 #@! TO.N,SW03_BP*
X39878000Y-91440000D03*
X37846000Y-100330000D03*
G04 #@! TO.N,SW03_CH_B*
X38354000Y-64516000D03*
G04 #@! TO.N,SW03_CH_A*
X39878000Y-37592000D03*
X40749786Y-85790270D03*
G04 #@! TO.N,SW04_CH_A*
X41402000Y-41402000D03*
G04 #@! TO.N,SW04_CH_B*
X40640000Y-90170000D03*
X39116000Y-85598000D03*
X39878000Y-68326000D03*
G04 #@! TO.N,SW04_BP*
X37846000Y-125222000D03*
X41148000Y-95250000D03*
G04 #@! TO.N,Enable_Column0*
X44704000Y-42672000D03*
X44704000Y-69596000D03*
X44704000Y-96520000D03*
X62992000Y-107442000D03*
X103632000Y-108966000D03*
X144272000Y-110490000D03*
X175514000Y-111252000D03*
X170688000Y-111252000D03*
X140970000Y-110490000D03*
X119888000Y-109728000D03*
X124714000Y-109728000D03*
X100330000Y-108966000D03*
X84074000Y-108204000D03*
X79248000Y-108204000D03*
X59690000Y-107442000D03*
X200660000Y-112014000D03*
G04 #@! TO.N,SW21_CH_B*
X79756000Y-61976000D03*
X79756000Y-35814000D03*
G04 #@! TO.N,SW21_BP*
X79756000Y-93980000D03*
G04 #@! TO.N,SW22_BP*
X78994000Y-92710000D03*
G04 #@! TO.N,SW22_CH_A*
X81280000Y-38862000D03*
G04 #@! TO.N,SW23_BP*
X80518000Y-91440000D03*
X78486000Y-100330000D03*
G04 #@! TO.N,SW23_CH_B*
X78994000Y-64516000D03*
G04 #@! TO.N,SW23_CH_A*
X80518000Y-37592000D03*
X81389786Y-85790270D03*
G04 #@! TO.N,SW24_CH_A*
X82042000Y-41402000D03*
G04 #@! TO.N,SW24_CH_B*
X81280000Y-90170000D03*
X79756000Y-85598000D03*
X80518000Y-68326000D03*
G04 #@! TO.N,SW24_BP*
X81788000Y-95250000D03*
X78486000Y-125222000D03*
G04 #@! TO.N,Enable_Column2*
X85344000Y-96520000D03*
X85344000Y-69596000D03*
X85344000Y-42672000D03*
X170688000Y-109728000D03*
X103632000Y-107442000D03*
X175514000Y-109728000D03*
X144272000Y-108966000D03*
X140970000Y-108966000D03*
X119888000Y-108204000D03*
X124714000Y-108204000D03*
X100330000Y-107442000D03*
X205740000Y-110490000D03*
G04 #@! TO.N,SW31_BP*
X100076000Y-93980000D03*
G04 #@! TO.N,SW31_CH_B*
X100076000Y-61976000D03*
X100076000Y-35814000D03*
G04 #@! TO.N,SW32_CH_A*
X101600000Y-38862000D03*
G04 #@! TO.N,SW32_BP*
X99314000Y-92710000D03*
G04 #@! TO.N,SW33_CH_A*
X101854000Y-85598000D03*
X100838000Y-37592000D03*
G04 #@! TO.N,SW33_CH_B*
X99314000Y-64516000D03*
G04 #@! TO.N,SW33_BP*
X98806000Y-100330000D03*
X100838000Y-91440000D03*
G04 #@! TO.N,SW34_BP*
X102108000Y-95250000D03*
X98806000Y-125222000D03*
G04 #@! TO.N,SW34_CH_B*
X101600000Y-90170000D03*
X100076000Y-85598000D03*
X100838000Y-68326000D03*
G04 #@! TO.N,SW34_CH_A*
X102362000Y-41402000D03*
G04 #@! TO.N,Enable_Column3*
X105664000Y-69596000D03*
X105664000Y-96520000D03*
X105664000Y-42672000D03*
X174752000Y-108966000D03*
X145034000Y-108204000D03*
X171450000Y-108966000D03*
X140208000Y-108204000D03*
X120650000Y-107442000D03*
X123952000Y-107442000D03*
X208280000Y-109728000D03*
G04 #@! TO.N,SW41_BP*
X120396000Y-93980000D03*
G04 #@! TO.N,SW41_CH_B*
X120396000Y-61976000D03*
X120396000Y-35814000D03*
G04 #@! TO.N,SW42_CH_A*
X121920000Y-38862000D03*
G04 #@! TO.N,SW42_BP*
X119634000Y-92710000D03*
G04 #@! TO.N,SW43_CH_A*
X121158000Y-37592000D03*
X122029786Y-85790270D03*
G04 #@! TO.N,SW43_CH_B*
X119634000Y-64516000D03*
G04 #@! TO.N,SW43_BP*
X121158000Y-91440000D03*
X119126000Y-100330000D03*
G04 #@! TO.N,SW44_BP*
X119126000Y-125222000D03*
X122428000Y-95250000D03*
G04 #@! TO.N,SW44_CH_B*
X121920000Y-90170000D03*
X120396000Y-85598000D03*
X121158000Y-68326000D03*
G04 #@! TO.N,SW44_CH_A*
X122682000Y-41402000D03*
G04 #@! TO.N,Enable_Column4*
X125984000Y-42672000D03*
X125984000Y-69596000D03*
X125984000Y-96520000D03*
X175514000Y-108204000D03*
X144272000Y-107442000D03*
X170688000Y-108204000D03*
X140970000Y-107442000D03*
X210820000Y-108966000D03*
G04 #@! TO.N,SW51_CH_B*
X140716000Y-61976000D03*
X140716000Y-36068000D03*
G04 #@! TO.N,SW51_BP*
X140716000Y-93980000D03*
G04 #@! TO.N,SW52_BP*
X139954000Y-92710000D03*
G04 #@! TO.N,SW52_CH_A*
X142240000Y-38862000D03*
G04 #@! TO.N,SW53_BP*
X139446000Y-100330000D03*
X141478000Y-91440000D03*
G04 #@! TO.N,SW53_CH_B*
X139954000Y-64516000D03*
G04 #@! TO.N,SW53_CH_A*
X142349786Y-85790270D03*
X141478000Y-37592000D03*
G04 #@! TO.N,SW54_CH_A*
X143002000Y-41402000D03*
G04 #@! TO.N,SW54_CH_B*
X142240000Y-90170000D03*
X140716000Y-85598000D03*
X141478000Y-68326000D03*
G04 #@! TO.N,SW54_BP*
X142748000Y-95250000D03*
X139446000Y-125222000D03*
G04 #@! TO.N,Enable_Column5*
X146304000Y-69596000D03*
X146304000Y-96520000D03*
X174752000Y-107442000D03*
X171450000Y-107442000D03*
X213360000Y-108204000D03*
X146304000Y-42672000D03*
G04 #@! TO.N,SW61_BP*
X171196000Y-93980000D03*
G04 #@! TO.N,SW61_CH_B*
X171196000Y-61976000D03*
X171196000Y-35814000D03*
G04 #@! TO.N,SW62_CH_A*
X172720000Y-38862000D03*
G04 #@! TO.N,SW62_BP*
X170434000Y-92710000D03*
G04 #@! TO.N,SW63_CH_A*
X172829786Y-85790270D03*
X171958000Y-37592000D03*
G04 #@! TO.N,SW63_CH_B*
X170434000Y-64516000D03*
G04 #@! TO.N,SW63_BP*
X169926000Y-100330000D03*
X171958000Y-91440000D03*
G04 #@! TO.N,SW64_BP*
X169926000Y-125222000D03*
X173228000Y-95250000D03*
G04 #@! TO.N,SW64_CH_B*
X171196000Y-85598000D03*
X172720000Y-90170000D03*
X171958000Y-68326000D03*
G04 #@! TO.N,SW64_CH_A*
X173482000Y-41402000D03*
G04 #@! TO.N,Enable_Column6*
X176784000Y-69596000D03*
X176784000Y-96520000D03*
X215900000Y-107442000D03*
X176784000Y-42672000D03*
G04 #@! TO.N,SDA*
X208280000Y-97536000D03*
X199390000Y-48006000D03*
X207010000Y-74422000D03*
X207010000Y-65532000D03*
G04 #@! TO.N,SCL*
X212090000Y-98552000D03*
X209042000Y-96520000D03*
X212090000Y-96520000D03*
X201930000Y-50546000D03*
X209550000Y-74422000D03*
X208280000Y-65532000D03*
G04 #@! TO.N,LCD_RST*
X217170000Y-98552000D03*
X212344000Y-74422000D03*
X209550000Y-65532000D03*
G04 #@! TO.N,UI_CH_A*
X209550000Y-98552000D03*
X210820000Y-82042000D03*
X204724000Y-82042000D03*
G04 #@! TO.N,UI_BP*
X204470000Y-98552000D03*
G04 #@! TO.N,UI_CH_B*
X207010000Y-98552000D03*
G04 #@! TO.N,+5V*
X187452000Y-90678000D03*
X187452000Y-87122000D03*
X187452000Y-96266000D03*
X197866000Y-54864000D03*
X187452000Y-113284000D03*
X211836000Y-65024000D03*
X199684000Y-65278000D03*
X196088000Y-64008000D03*
X215900000Y-59944000D03*
G04 #@! TO.N,3V3*
X195580000Y-138430000D03*
X164846000Y-65024000D03*
X163322000Y-39878000D03*
X132842000Y-82804000D03*
X134366000Y-65024000D03*
X132842000Y-39878000D03*
X112522000Y-56134000D03*
X112561400Y-39878000D03*
X114046000Y-65024000D03*
X92202000Y-56134000D03*
X93726000Y-65024000D03*
X73406000Y-65024000D03*
X53086000Y-65024000D03*
X31242000Y-66548000D03*
X31281400Y-39878000D03*
X31281400Y-51943000D03*
X71882000Y-56134000D03*
X51562000Y-39878000D03*
X71882000Y-82804000D03*
X51562000Y-82804000D03*
X34036000Y-29210000D03*
X53848000Y-29210000D03*
X56134000Y-29210000D03*
X74168000Y-29210000D03*
X58674000Y-27432000D03*
X94488000Y-29210000D03*
X114808000Y-29210000D03*
X137668000Y-29210000D03*
X76454000Y-29210000D03*
X96774000Y-29210000D03*
X117094000Y-29210000D03*
X135128000Y-29210000D03*
X99314000Y-27432000D03*
X139954000Y-27432000D03*
X167894000Y-29210000D03*
X165608000Y-29210000D03*
X51562000Y-55880000D03*
X132842000Y-55880000D03*
X163322000Y-55880000D03*
X170466000Y-27178000D03*
X195580000Y-129032000D03*
X195580000Y-133858000D03*
X95758000Y-87376000D03*
X112522000Y-82804000D03*
X32512000Y-84836000D03*
X78994000Y-27432000D03*
X119634000Y-27432000D03*
X185674000Y-96266000D03*
X39116000Y-27432000D03*
X36576000Y-29210000D03*
X163322000Y-83566002D03*
X71882000Y-39878000D03*
X92202000Y-39878000D03*
X197866000Y-52324000D03*
X185674000Y-83312000D03*
X185674000Y-113284000D03*
G04 #@! TO.N,NEOPIXEL_IN*
X221742000Y-57404000D03*
G04 #@! TO.N,NEOPIXEL_IN_3V3*
X218440000Y-98552000D03*
X223012000Y-61468000D03*
X223012000Y-57404000D03*
G04 #@! TO.N,NEOPIXEL_IN_5V*
X216408000Y-64008000D03*
X220472000Y-57404000D03*
G04 #@! TD*
D24*
G04 #@! TO.N,GND*
X212090000Y-27686000D02*
X214376000Y-27686000D01*
X203708000Y-28726000D02*
X203708000Y-29996000D01*
X208788000Y-28726000D02*
X208788000Y-29996000D01*
X190500000Y-103378000D02*
X190500000Y-105918000D01*
X215466400Y-72466000D02*
X214630000Y-73302400D01*
X216876000Y-72466000D02*
X215466400Y-72466000D01*
X214630000Y-73302400D02*
X214630000Y-74422000D01*
X204684000Y-72466000D02*
X204684000Y-73575600D01*
X204684000Y-73575600D02*
X203837600Y-74422000D01*
X203837600Y-74422000D02*
X202438000Y-74422000D01*
D25*
G04 #@! TO.N,Select_C*
X181356000Y-101600000D02*
X181356000Y-105156000D01*
X182372000Y-100584000D02*
X181755999Y-101200001D01*
X182372000Y-92710000D02*
X182372000Y-100584000D01*
X181755999Y-101200001D02*
X181356000Y-101600000D01*
X181356000Y-91694000D02*
X182372000Y-92710000D01*
X151275999Y-101200001D02*
X150876000Y-101600000D01*
X151892000Y-92710000D02*
X151892000Y-100584000D01*
X150876000Y-91694000D02*
X151892000Y-92710000D01*
X151892000Y-100584000D02*
X151275999Y-101200001D01*
X150876000Y-101600000D02*
X150876000Y-105156000D01*
X130556000Y-91694000D02*
X131572000Y-92710000D01*
X131572000Y-100584000D02*
X130955999Y-101200001D01*
X130955999Y-101200001D02*
X130556000Y-101600000D01*
X131572000Y-92710000D02*
X131572000Y-100584000D01*
X130556000Y-101600000D02*
X130556000Y-105156000D01*
X110236000Y-101600000D02*
X110236000Y-105156000D01*
X69995999Y-101200001D02*
X69596000Y-101600000D01*
X70612000Y-100584000D02*
X69995999Y-101200001D01*
X70612000Y-92710000D02*
X70612000Y-100584000D01*
X69596000Y-91694000D02*
X70612000Y-92710000D01*
X50292000Y-101600000D02*
X49276000Y-101600000D01*
X69596000Y-101600000D02*
X69596000Y-105156000D01*
X89916000Y-101600000D02*
X89916000Y-105156000D01*
X69596000Y-74676000D02*
X69596000Y-91694000D01*
X130556000Y-74676000D02*
X130556000Y-91694000D01*
X150876000Y-74676000D02*
X150876000Y-91694000D01*
X181356000Y-74676000D02*
X181356000Y-91694000D01*
X170688000Y-105156000D02*
X150876000Y-105156000D01*
X140208000Y-105156000D02*
X130556000Y-105156000D01*
X119888000Y-105156000D02*
X110236000Y-105156000D01*
X99568000Y-105156000D02*
X89916000Y-105156000D01*
X79248000Y-105156000D02*
X69596000Y-105156000D01*
X49276000Y-91694000D02*
X49276000Y-74676000D01*
X50292000Y-92710000D02*
X49276000Y-91694000D01*
X58928000Y-105156000D02*
X52324000Y-105156000D01*
X52324000Y-105156000D02*
X50292000Y-103124000D01*
X50292000Y-103124000D02*
X50292000Y-92710000D01*
X111252000Y-100584000D02*
X111252000Y-92710000D01*
X110236000Y-101600000D02*
X111252000Y-100584000D01*
X111252000Y-92710000D02*
X110236000Y-91694000D01*
X110236000Y-91694000D02*
X110236000Y-74676000D01*
X90315999Y-101200001D02*
X89916000Y-101600000D01*
X90932000Y-100584000D02*
X90315999Y-101200001D01*
X90932000Y-92710000D02*
X90932000Y-100584000D01*
X89916000Y-76200000D02*
X86614000Y-79502000D01*
X89916000Y-74422000D02*
X89916000Y-76200000D01*
X86614000Y-79502000D02*
X86614000Y-83566000D01*
X86614000Y-83566000D02*
X89916000Y-86868000D01*
X89916000Y-86868000D02*
X89916000Y-91694000D01*
X89916000Y-91694000D02*
X90932000Y-92710000D01*
D26*
X198120000Y-103378000D02*
X198120000Y-105918000D01*
D25*
X198120000Y-101854000D02*
X198120000Y-103378000D01*
X188214000Y-100330000D02*
X196596000Y-100330000D01*
X196596000Y-100330000D02*
X198120000Y-101854000D01*
X183388000Y-105156000D02*
X181356000Y-105156000D01*
X188214000Y-100330000D02*
X183388000Y-105156000D01*
X49276000Y-65278000D02*
X49276000Y-47752000D01*
X49276000Y-65532000D02*
X49276000Y-65278000D01*
X50292000Y-66548000D02*
X49276000Y-65532000D01*
X49276000Y-74676000D02*
X50292000Y-73660000D01*
X50292000Y-73660000D02*
X50292000Y-66548000D01*
X70612000Y-66802000D02*
X70612000Y-73660000D01*
X69596000Y-47752000D02*
X69596000Y-65786000D01*
X69596000Y-65786000D02*
X70612000Y-66802000D01*
X89916000Y-64770000D02*
X89916000Y-47752000D01*
X89916000Y-65786000D02*
X89916000Y-64770000D01*
X90932000Y-66802000D02*
X89916000Y-65786000D01*
X89916000Y-74422000D02*
X90932000Y-73406000D01*
X90932000Y-73406000D02*
X90932000Y-66802000D01*
X70612000Y-73660000D02*
X69596000Y-74676000D01*
X111252000Y-66802000D02*
X111252000Y-73660000D01*
X110236000Y-47752000D02*
X110236000Y-65786000D01*
X110236000Y-65786000D02*
X111252000Y-66802000D01*
X131572000Y-66802000D02*
X131572000Y-73660000D01*
X130556000Y-47752000D02*
X130556000Y-65786000D01*
X130556000Y-65786000D02*
X131572000Y-66802000D01*
X151892000Y-66802000D02*
X151892000Y-73660000D01*
X150876000Y-47752000D02*
X150876000Y-65786000D01*
X150876000Y-65786000D02*
X151892000Y-66802000D01*
X151892000Y-73660000D02*
X150876000Y-74676000D01*
X131572000Y-73660000D02*
X130556000Y-74676000D01*
X111252000Y-73660000D02*
X110236000Y-74676000D01*
X182372000Y-73660000D02*
X181356000Y-74676000D01*
X182372000Y-66802000D02*
X182372000Y-73660000D01*
X181356000Y-47752000D02*
X181356000Y-65786000D01*
X181356000Y-65786000D02*
X182372000Y-66802000D01*
G04 #@! TO.N,Select_B*
X180594000Y-91948000D02*
X181864000Y-93218000D01*
X181864000Y-99568000D02*
X180594000Y-100838000D01*
X181864000Y-93218000D02*
X181864000Y-99568000D01*
X151384000Y-99568000D02*
X150114000Y-100838000D01*
X151384000Y-93218000D02*
X151384000Y-99568000D01*
X150114000Y-91948000D02*
X151384000Y-93218000D01*
X131064000Y-99568000D02*
X129794000Y-100838000D01*
X129794000Y-91948000D02*
X131064000Y-93218000D01*
X131064000Y-93218000D02*
X131064000Y-99568000D01*
X70104000Y-99568000D02*
X68834000Y-100838000D01*
X68834000Y-91948000D02*
X70104000Y-93218000D01*
X70104000Y-93218000D02*
X70104000Y-99568000D01*
X89154000Y-106172000D02*
X89154000Y-100838000D01*
X49784000Y-99568000D02*
X48514000Y-100838000D01*
X49784000Y-93218000D02*
X49784000Y-99568000D01*
X48514000Y-73914000D02*
X48514000Y-91948000D01*
X48514000Y-91948000D02*
X49784000Y-93218000D01*
X68834000Y-73914000D02*
X68834000Y-91948000D01*
X129794000Y-73914000D02*
X129794000Y-91948000D01*
X150114000Y-73914000D02*
X150114000Y-91948000D01*
X180594000Y-73914000D02*
X180594000Y-91948000D01*
X150113994Y-105918000D02*
X150114000Y-106171994D01*
X150114000Y-105918000D02*
X150114000Y-100838000D01*
X180594000Y-106171994D02*
X180593994Y-106172000D01*
X180594000Y-100838000D02*
X180594000Y-105918000D01*
X129794000Y-105918000D02*
X129794000Y-100838000D01*
X109474000Y-105918000D02*
X109474000Y-100838000D01*
X68834000Y-105664000D02*
X68834000Y-100838000D01*
X68834000Y-105918000D02*
X68834000Y-105664000D01*
X171450000Y-105918000D02*
X150113994Y-105918000D01*
X140970000Y-105918000D02*
X129794000Y-105918000D01*
X120650000Y-105918000D02*
X109474000Y-105918000D01*
X100330000Y-105918000D02*
X89154000Y-105918000D01*
X80010000Y-105918000D02*
X68834000Y-105918000D01*
X48514000Y-103457488D02*
X48514000Y-100838000D01*
X51054000Y-105925226D02*
X48514000Y-103457488D01*
X59690000Y-105918000D02*
X51054000Y-105925226D01*
X110744000Y-99568000D02*
X110744000Y-93218000D01*
X109474000Y-100838000D02*
X110744000Y-99568000D01*
X110744000Y-93218000D02*
X109474000Y-91948000D01*
X109474000Y-91948000D02*
X109474000Y-73914000D01*
X90424000Y-99568000D02*
X89154000Y-100838000D01*
X89154000Y-86868000D02*
X89154000Y-91948000D01*
X86106000Y-83820000D02*
X89154000Y-86868000D01*
X90424000Y-93218000D02*
X90424000Y-99568000D01*
X86106000Y-79248000D02*
X86106000Y-83820000D01*
X89154000Y-91948000D02*
X90424000Y-93218000D01*
X89154000Y-73660000D02*
X89154000Y-76200000D01*
X89154000Y-76200000D02*
X86106000Y-79248000D01*
X195072000Y-102870000D02*
X195580000Y-103378000D01*
D26*
X195580000Y-103378000D02*
X195580000Y-105918000D01*
D25*
X183642000Y-105918000D02*
X180594000Y-105918000D01*
X194818000Y-101092000D02*
X188468000Y-101092000D01*
X188468000Y-101092000D02*
X183642000Y-105918000D01*
X195580000Y-101854000D02*
X194818000Y-101092000D01*
X195580000Y-103378000D02*
X195580000Y-101854000D01*
X48514000Y-65532000D02*
X49784000Y-66802000D01*
X48514000Y-46990000D02*
X48514000Y-65532000D01*
X49784000Y-66802000D02*
X49784000Y-72644000D01*
X70104000Y-67056000D02*
X70104000Y-72644000D01*
X68834000Y-46990000D02*
X68834000Y-65786000D01*
X68834000Y-65786000D02*
X70104000Y-67056000D01*
X110744000Y-67056000D02*
X110744000Y-72644000D01*
X109474000Y-46990000D02*
X109474000Y-65786000D01*
X109474000Y-65786000D02*
X110744000Y-67056000D01*
X131064000Y-67056000D02*
X131064000Y-72644000D01*
X129794000Y-46990000D02*
X129794000Y-65786000D01*
X129794000Y-65786000D02*
X131064000Y-67056000D01*
X151384000Y-67056000D02*
X151384000Y-72644000D01*
X150114000Y-46990000D02*
X150114000Y-65786000D01*
X150114000Y-65786000D02*
X151384000Y-67056000D01*
X110744000Y-72644000D02*
X109474000Y-73914000D01*
X131064000Y-72644000D02*
X129794000Y-73914000D01*
X151384000Y-72644000D02*
X150114000Y-73914000D01*
X90424000Y-72390000D02*
X89154000Y-73660000D01*
X90424000Y-67056000D02*
X90424000Y-72390000D01*
X89154000Y-46990000D02*
X89154000Y-65786000D01*
X89154000Y-65786000D02*
X90424000Y-67056000D01*
X70104000Y-72644000D02*
X68834000Y-73914000D01*
X49784000Y-72644000D02*
X48514000Y-73914000D01*
X181864000Y-72644000D02*
X180594000Y-73914000D01*
X181864000Y-67056000D02*
X181864000Y-72644000D01*
X180594000Y-46990000D02*
X180594000Y-65786000D01*
X180594000Y-65786000D02*
X181864000Y-67056000D01*
G04 #@! TO.N,Select_A*
X181356000Y-93726000D02*
X181356000Y-98552000D01*
X181356000Y-98552000D02*
X179832000Y-100076000D01*
X179832000Y-92202000D02*
X181356000Y-93726000D01*
X149352000Y-92202000D02*
X150876000Y-93726000D01*
X150876000Y-93726000D02*
X150876000Y-98552000D01*
X150876000Y-98552000D02*
X149352000Y-100076000D01*
X129032000Y-92202000D02*
X130556000Y-93726000D01*
X130556000Y-98552000D02*
X129032000Y-100076000D01*
X130556000Y-93726000D02*
X130556000Y-98552000D01*
X69596000Y-98552000D02*
X68072000Y-100076000D01*
X69596000Y-93726000D02*
X69596000Y-98552000D01*
X68072000Y-92202000D02*
X69596000Y-93726000D01*
X49276000Y-98552000D02*
X47752000Y-100076000D01*
X49276000Y-93726000D02*
X49276000Y-98552000D01*
X47752000Y-73152000D02*
X47752000Y-92202000D01*
X47752000Y-92202000D02*
X49276000Y-93726000D01*
X68072000Y-73152000D02*
X68072000Y-92202000D01*
X129032000Y-73152000D02*
X129032000Y-92202000D01*
X149352000Y-73152000D02*
X149352000Y-92202000D01*
X179832000Y-73152000D02*
X179832000Y-92202000D01*
X179832000Y-106680000D02*
X179832000Y-100076000D01*
X149352000Y-106680000D02*
X149352000Y-100076000D01*
X88392000Y-100076000D02*
X88392000Y-106680000D01*
X68072000Y-100076000D02*
X68072000Y-106680000D01*
X108712000Y-100076000D02*
X108712000Y-106680000D01*
X129032000Y-106680000D02*
X129032000Y-100076000D01*
X170688000Y-106680000D02*
X149352000Y-106680000D01*
X140208000Y-106680000D02*
X129032000Y-106680000D01*
X108712000Y-106680000D02*
X119888000Y-106680000D01*
X88392000Y-106680000D02*
X99568000Y-106680000D01*
X68072000Y-106680000D02*
X79248000Y-106680000D01*
X47752000Y-103378000D02*
X47752000Y-100076000D01*
X47752000Y-103886000D02*
X47752000Y-103378000D01*
X50546000Y-106680000D02*
X47752000Y-103886000D01*
X58928000Y-106680000D02*
X50546000Y-106680000D01*
X110236000Y-98552000D02*
X108712000Y-100076000D01*
X110236000Y-93726000D02*
X110236000Y-98552000D01*
X108712000Y-73152000D02*
X108712000Y-92202000D01*
X108712000Y-92202000D02*
X110236000Y-93726000D01*
X89916000Y-98552000D02*
X88392000Y-100076000D01*
X89916000Y-93726000D02*
X89916000Y-98552000D01*
X88392000Y-92202000D02*
X89916000Y-93726000D01*
X88392000Y-86868000D02*
X88392000Y-92202000D01*
X85598000Y-84074000D02*
X88392000Y-86868000D01*
X85598000Y-78994000D02*
X85598000Y-84074000D01*
X88392000Y-72898000D02*
X88392000Y-76200000D01*
X88392000Y-76200000D02*
X85598000Y-78994000D01*
D26*
X193040000Y-103378000D02*
X193040000Y-105918000D01*
D25*
X179832000Y-106680000D02*
X183896000Y-106680000D01*
X193040000Y-102246630D02*
X192647370Y-101854000D01*
X193040000Y-103378000D02*
X193040000Y-102246630D01*
X188722000Y-101854000D02*
X183896000Y-106680000D01*
X192647370Y-101854000D02*
X188722000Y-101854000D01*
X47752000Y-65532000D02*
X49276000Y-67056000D01*
X47752000Y-46228000D02*
X47752000Y-65532000D01*
X49276000Y-67056000D02*
X49276000Y-71628000D01*
X69596000Y-67310000D02*
X69596000Y-71628000D01*
X68072000Y-46228000D02*
X68072000Y-65786000D01*
X68072000Y-65786000D02*
X69596000Y-67310000D01*
X110236000Y-67310000D02*
X110236000Y-71628000D01*
X108712000Y-46228000D02*
X108712000Y-65786000D01*
X108712000Y-65786000D02*
X110236000Y-67310000D01*
X130556000Y-67310000D02*
X130556000Y-71628000D01*
X129032000Y-46228000D02*
X129032000Y-65786000D01*
X129032000Y-65786000D02*
X130556000Y-67310000D01*
X150876000Y-67310000D02*
X150876000Y-71628000D01*
X149352000Y-46228000D02*
X149352000Y-65786000D01*
X149352000Y-65786000D02*
X150876000Y-67310000D01*
X110236000Y-71628000D02*
X108712000Y-73152000D01*
X130556000Y-71628000D02*
X129032000Y-73152000D01*
X150876000Y-71628000D02*
X149352000Y-73152000D01*
X89916000Y-71374000D02*
X88392000Y-72898000D01*
X89916000Y-67310000D02*
X89916000Y-71374000D01*
X88392000Y-46228000D02*
X88392000Y-65786000D01*
X88392000Y-65786000D02*
X89916000Y-67310000D01*
X69596000Y-71628000D02*
X68072000Y-73152000D01*
X49276000Y-71628000D02*
X47752000Y-73152000D01*
X181356000Y-71628000D02*
X179832000Y-73152000D01*
X181356000Y-67310000D02*
X181356000Y-71628000D01*
X179832000Y-46228000D02*
X179832000Y-65786000D01*
X179832000Y-65786000D02*
X181356000Y-67310000D01*
G04 #@! TO.N,Enable_Column1*
X147066000Y-109728000D02*
X147828000Y-110490000D01*
X145034000Y-109728000D02*
X147066000Y-109728000D01*
X147828000Y-110490000D02*
X171450000Y-110490000D01*
X127762000Y-109728000D02*
X140208000Y-109728000D01*
X127000000Y-108966000D02*
X127762000Y-109728000D01*
X123952000Y-108966000D02*
X127000000Y-108966000D01*
X106680000Y-108204000D02*
X107442000Y-108966000D01*
X104394000Y-108204000D02*
X106680000Y-108204000D01*
X107442000Y-108966000D02*
X120650000Y-108966000D01*
X87630000Y-108204000D02*
X99568000Y-108204000D01*
X86868000Y-107442000D02*
X87630000Y-108204000D01*
X83312000Y-107442000D02*
X86868000Y-107442000D01*
X65024000Y-69596000D02*
X65024000Y-42672000D01*
X65024000Y-104902000D02*
X65024000Y-96520000D01*
X80010000Y-107442000D02*
X67564000Y-107442000D01*
X67564000Y-107442000D02*
X65024000Y-104902000D01*
X65024000Y-96520000D02*
X65024000Y-69596000D01*
D26*
X203200000Y-103378000D02*
X203200000Y-105918000D01*
D25*
X177800000Y-111252000D02*
X203200000Y-111252000D01*
X174752000Y-110490000D02*
X177038000Y-110490000D01*
X177038000Y-110490000D02*
X177800000Y-111252000D01*
G04 #@! TO.N,SW11_CH_B*
X59436000Y-61976000D02*
X59436000Y-35814000D01*
G04 #@! TO.N,SW11_BP*
X58166000Y-57912000D02*
X58166000Y-57912000D01*
X60317385Y-86240615D02*
X59436000Y-87122000D01*
X60317385Y-84970615D02*
X60317385Y-86240615D01*
X58166000Y-57912000D02*
X56896000Y-59182000D01*
X58166000Y-48260000D02*
X58166000Y-57912000D01*
X56896000Y-61468000D02*
X60960000Y-65532000D01*
X59436000Y-87122000D02*
X59436000Y-93980000D01*
X60960000Y-65532000D02*
X60960000Y-84328000D01*
X56896000Y-59182000D02*
X56896000Y-61468000D01*
X60960000Y-84328000D02*
X60317385Y-84970615D01*
G04 #@! TO.N,SW12_BP*
X58166000Y-82296000D02*
X58166000Y-75184000D01*
X56896000Y-83566000D02*
X58166000Y-82296000D01*
X56896000Y-89154000D02*
X56896000Y-83566000D01*
X58674000Y-92710000D02*
X58674000Y-90932000D01*
X58674000Y-90932000D02*
X56896000Y-89154000D01*
G04 #@! TO.N,SW12_CH_A*
X63246000Y-58166000D02*
X60960000Y-55880000D01*
X63246000Y-58166000D02*
X63246000Y-60706000D01*
X60960000Y-55880000D02*
X60960000Y-38862000D01*
G04 #@! TO.N,SW13_CH_A*
X61976000Y-58674000D02*
X61976000Y-58674000D01*
X61468000Y-85392056D02*
X61069786Y-85790270D01*
X61468000Y-62992000D02*
X61468000Y-85392056D01*
X61976000Y-62484000D02*
X61468000Y-62992000D01*
X60198000Y-56896000D02*
X61976000Y-58674000D01*
X61976000Y-58674000D02*
X61976000Y-62484000D01*
X60198000Y-37592000D02*
X60198000Y-56896000D01*
G04 #@! TO.N,SW13_CH_B*
X58166000Y-85090000D02*
X58166000Y-87630000D01*
X59436000Y-83820000D02*
X58166000Y-85090000D01*
X59436000Y-65278000D02*
X59436000Y-83820000D01*
X58674000Y-64516000D02*
X59436000Y-65278000D01*
G04 #@! TO.N,SW13_BP*
X60198000Y-91440000D02*
X60198000Y-98298000D01*
X60198000Y-98298000D02*
X58166000Y-100330000D01*
G04 #@! TO.N,SW14_BP*
X58166000Y-125222000D02*
X59436000Y-123952000D01*
X61468000Y-111252000D02*
X61468000Y-95250000D01*
X59436000Y-123952000D02*
X59436000Y-113284000D01*
X59436000Y-113284000D02*
X61468000Y-111252000D01*
G04 #@! TO.N,SW14_CH_B*
X60960000Y-92456000D02*
X60960000Y-90170000D01*
X60702810Y-92713190D02*
X60960000Y-92456000D01*
X60702810Y-110747190D02*
X60702810Y-92713190D01*
X58166000Y-113284000D02*
X60702810Y-110747190D01*
X58166000Y-114808000D02*
X58166000Y-113284000D01*
X60198000Y-84270315D02*
X60198000Y-68326000D01*
X59436000Y-85598000D02*
X59436000Y-85032315D01*
X59436000Y-85032315D02*
X60198000Y-84270315D01*
G04 #@! TO.N,SW14_CH_A*
X63246000Y-113284000D02*
X63246000Y-114808000D01*
X61976000Y-112014000D02*
X63246000Y-113284000D01*
X61976000Y-96520000D02*
X61976000Y-112014000D01*
X62230000Y-96266000D02*
X61976000Y-96520000D01*
X62230000Y-93980000D02*
X62230000Y-96266000D01*
X61722000Y-55118000D02*
X64516000Y-57912000D01*
X61722000Y-41402000D02*
X61722000Y-55118000D01*
X64516000Y-62230000D02*
X61976000Y-64770000D01*
X64516000Y-57912000D02*
X64516000Y-62230000D01*
X61976000Y-64770000D02*
X61976000Y-93726000D01*
X61976000Y-93726000D02*
X62230000Y-93980000D01*
G04 #@! TO.N,CH_A*
X53086000Y-51816000D02*
X56896000Y-51816000D01*
X73406000Y-51816000D02*
X76962000Y-51816000D01*
X93726000Y-51816000D02*
X97282000Y-51816000D01*
X114046000Y-51816000D02*
X117602000Y-51816000D01*
X134620000Y-51816000D02*
X138176000Y-51816000D01*
X161798000Y-51816000D02*
X152146000Y-51816000D01*
X164846000Y-51816000D02*
X168656000Y-51816000D01*
X185674000Y-98044000D02*
X192786000Y-98044000D01*
X50038000Y-40386000D02*
X48514000Y-38862000D01*
X50038000Y-51816000D02*
X50038000Y-40386000D01*
X90678000Y-40386000D02*
X89154000Y-38862000D01*
X90678000Y-51816000D02*
X90678000Y-40386000D01*
X131318000Y-40386000D02*
X129794000Y-38862000D01*
X131318000Y-51816000D02*
X131318000Y-40386000D01*
X152146000Y-41148000D02*
X149860000Y-38862000D01*
X152146000Y-51816000D02*
X152146000Y-41148000D01*
X182118000Y-40640000D02*
X180340000Y-38862000D01*
X182118000Y-51816000D02*
X182118000Y-40640000D01*
X70358000Y-40640000D02*
X68580000Y-38862000D01*
X70358000Y-51816000D02*
X70358000Y-40640000D01*
X110998000Y-40386000D02*
X109474000Y-38862000D01*
X110998000Y-51816000D02*
X110998000Y-40386000D01*
X192786000Y-98044000D02*
X192786000Y-93980000D01*
X199136000Y-99822000D02*
X197358000Y-98044000D01*
X219456000Y-99822000D02*
X199136000Y-99822000D01*
X222250000Y-102616000D02*
X219456000Y-99822000D01*
X222250000Y-109474000D02*
X222250000Y-102616000D01*
X220980000Y-113538000D02*
X220980000Y-110744000D01*
X220980000Y-110744000D02*
X222250000Y-109474000D01*
X197358000Y-98044000D02*
X192786000Y-98044000D01*
X184658000Y-97028000D02*
X185674000Y-98044000D01*
X182118000Y-63500000D02*
X183642000Y-65024000D01*
X182118000Y-51816000D02*
X182118000Y-63500000D01*
X183642000Y-65024000D02*
X183642000Y-77978000D01*
X183642000Y-77978000D02*
X183134000Y-78486000D01*
X184658000Y-91694000D02*
X184658000Y-97028000D01*
X183134000Y-78486000D02*
X183134000Y-90170000D01*
X183134000Y-90170000D02*
X184658000Y-91694000D01*
G04 #@! TO.N,CH_B*
X219710000Y-102616000D02*
X217678000Y-100584000D01*
X152400000Y-65786000D02*
X152400000Y-76708000D01*
X161798000Y-76708000D02*
X152400000Y-76708000D01*
X91440000Y-65786000D02*
X91440000Y-76200000D01*
X50800000Y-75438000D02*
X50800000Y-65786000D01*
X50292000Y-75946000D02*
X50800000Y-75438000D01*
X50292000Y-77978000D02*
X50292000Y-75946000D01*
X71120000Y-75438000D02*
X71120000Y-65786000D01*
X70612000Y-75946000D02*
X71120000Y-75438000D01*
X70612000Y-77978000D02*
X70612000Y-75946000D01*
X111760000Y-75692000D02*
X111760000Y-65786000D01*
X111252000Y-76200000D02*
X111760000Y-75692000D01*
X111252000Y-77978000D02*
X111252000Y-76200000D01*
X132080000Y-75946000D02*
X132080000Y-65786000D01*
X131572000Y-76454000D02*
X132080000Y-75946000D01*
X131572000Y-77978000D02*
X131572000Y-76454000D01*
X168148000Y-77724000D02*
X164592000Y-77724000D01*
X114046000Y-77978000D02*
X117856000Y-77978000D01*
X117856000Y-77978000D02*
X118110000Y-77978000D01*
X95250000Y-76962000D02*
X96266000Y-77978000D01*
X96266000Y-77978000D02*
X97790000Y-77978000D01*
X134366000Y-77978000D02*
X138176000Y-77978000D01*
X53086000Y-77978000D02*
X56896000Y-77978000D01*
X73152000Y-77978000D02*
X77216000Y-77978000D01*
X182880000Y-76200000D02*
X182880000Y-65786000D01*
X182372000Y-77724000D02*
X182880000Y-77216000D01*
X182880000Y-77216000D02*
X182880000Y-76200000D01*
X219710000Y-109728000D02*
X219710000Y-102616000D01*
X218440000Y-113538000D02*
X218440000Y-110998000D01*
X218440000Y-110998000D02*
X219710000Y-109728000D01*
X182372000Y-90424000D02*
X182372000Y-77724000D01*
X183887266Y-97282000D02*
X183864201Y-91916201D01*
X183864201Y-91916201D02*
X182372000Y-90424000D01*
X217678000Y-100584000D02*
X198882000Y-100584000D01*
X197104000Y-98806000D02*
X195326000Y-98806000D01*
X198882000Y-100584000D02*
X197104000Y-98806000D01*
X195326000Y-93980000D02*
X195326000Y-97282000D01*
X185420000Y-98806000D02*
X183887266Y-97282000D01*
X195326000Y-98806000D02*
X185420000Y-98806000D01*
G04 #@! TO.N,BP*
X215900000Y-101346000D02*
X217170000Y-102616000D01*
X183134000Y-92710000D02*
X183134000Y-93275685D01*
X132334000Y-104394000D02*
X132334000Y-92710000D01*
X112014000Y-92710000D02*
X112014000Y-92710000D01*
X112014000Y-104394000D02*
X112014000Y-92710000D01*
X132334000Y-92710000D02*
X132334000Y-92710000D01*
X112014000Y-92710000D02*
X112014000Y-92710000D01*
X112014000Y-92710000D02*
X112014000Y-92710000D01*
X112014000Y-104394000D02*
X112014000Y-92710000D01*
X71374000Y-92710000D02*
X71374000Y-92710000D01*
X71374000Y-104394000D02*
X71374000Y-92710000D01*
X152654000Y-93275685D02*
X152654000Y-92710000D01*
X152654000Y-104394000D02*
X152654000Y-93275685D01*
X171450000Y-104394000D02*
X152654000Y-104394000D01*
X140970000Y-104394000D02*
X132334000Y-104394000D01*
X112014000Y-104394000D02*
X120650000Y-104394000D01*
X91694000Y-104394000D02*
X100330000Y-104394000D01*
X71374000Y-104394000D02*
X80010000Y-104394000D01*
X51054000Y-101600000D02*
X51054000Y-92710000D01*
X53848000Y-104394000D02*
X51054000Y-101600000D01*
X59690000Y-104394000D02*
X53848000Y-104394000D01*
X91694000Y-104394000D02*
X91694000Y-93726000D01*
X215900000Y-110744000D02*
X215900000Y-113538000D01*
X217170000Y-102616000D02*
X217170000Y-109474000D01*
X217170000Y-109474000D02*
X215900000Y-110744000D01*
X215900000Y-101346000D02*
X198628000Y-101346000D01*
X196850000Y-99568000D02*
X190246000Y-99568000D01*
X198628000Y-101346000D02*
X196850000Y-99568000D01*
X190246000Y-99568000D02*
X183134000Y-99568000D01*
X183134000Y-93275685D02*
X183134000Y-99568000D01*
X182118000Y-104394000D02*
X183134000Y-103378000D01*
X183134000Y-103378000D02*
X183134000Y-99568000D01*
X190246000Y-93980000D02*
X190246000Y-97282000D01*
G04 #@! TO.N,SW01_CH_B*
X39116000Y-61976000D02*
X39116000Y-35814000D01*
G04 #@! TO.N,SW01_BP*
X37846000Y-57912000D02*
X37846000Y-57912000D01*
X39116000Y-87122000D02*
X39116000Y-93980000D01*
X39997385Y-84970615D02*
X39997385Y-86240615D01*
X37846000Y-57912000D02*
X36576000Y-59182000D01*
X39997385Y-86240615D02*
X39116000Y-87122000D01*
X37846000Y-48260000D02*
X37846000Y-57912000D01*
X36576000Y-59182000D02*
X36576000Y-61468000D01*
X40640000Y-65532000D02*
X40640000Y-84328000D01*
X36576000Y-61468000D02*
X40640000Y-65532000D01*
X40640000Y-84328000D02*
X39997385Y-84970615D01*
G04 #@! TO.N,SW02_BP*
X37846000Y-75184000D02*
X36576000Y-76454000D01*
X38354000Y-90932000D02*
X38354000Y-92710000D01*
X36576000Y-76454000D02*
X36576000Y-89154000D01*
X36576000Y-89154000D02*
X38354000Y-90932000D01*
G04 #@! TO.N,SW02_CH_A*
X42926000Y-58166000D02*
X42926000Y-60706000D01*
X42926000Y-58166000D02*
X40640000Y-55880000D01*
X40640000Y-55880000D02*
X40640000Y-38862000D01*
G04 #@! TO.N,SW03_BP*
X39878000Y-91440000D02*
X39878000Y-98298000D01*
X39878000Y-98298000D02*
X37846000Y-100330000D01*
G04 #@! TO.N,SW03_CH_B*
X38354000Y-64516000D02*
X39116000Y-65278000D01*
X37846000Y-85090000D02*
X37846000Y-87630000D01*
X39116000Y-65278000D02*
X39116000Y-83820000D01*
X39116000Y-83820000D02*
X37846000Y-85090000D01*
G04 #@! TO.N,SW03_CH_A*
X41656000Y-58674000D02*
X41656000Y-58674000D01*
X41656000Y-62484000D02*
X41148000Y-62992000D01*
X41656000Y-58674000D02*
X41656000Y-62484000D01*
X39878000Y-56896000D02*
X41656000Y-58674000D01*
X41148000Y-85392056D02*
X40749786Y-85790270D01*
X41148000Y-62992000D02*
X41148000Y-85392056D01*
X39878000Y-37592000D02*
X39878000Y-56896000D01*
G04 #@! TO.N,SW04_CH_A*
X41656000Y-111760000D02*
X42926000Y-113030000D01*
X41910000Y-96266000D02*
X41656000Y-96520000D01*
X41910000Y-93980000D02*
X41910000Y-96266000D01*
X41402000Y-55372000D02*
X44196000Y-58166000D01*
X41656000Y-96520000D02*
X41656000Y-111760000D01*
X41402000Y-41402000D02*
X41402000Y-55372000D01*
X42926000Y-113030000D02*
X42926000Y-114300000D01*
X44196000Y-58166000D02*
X44196000Y-62230000D01*
X44196000Y-62230000D02*
X41656000Y-64770000D01*
X41656000Y-64770000D02*
X41656000Y-93726000D01*
X41656000Y-93726000D02*
X41910000Y-93980000D01*
G04 #@! TO.N,SW04_CH_B*
X40640000Y-92456000D02*
X40640000Y-90170000D01*
X40382810Y-92713190D02*
X40640000Y-92456000D01*
X40382810Y-110493190D02*
X40382810Y-92713190D01*
X37846000Y-114300000D02*
X37846000Y-113030000D01*
X37846000Y-113030000D02*
X40382810Y-110493190D01*
X39878000Y-84270315D02*
X39878000Y-68326000D01*
X39116000Y-85598000D02*
X39116000Y-85032315D01*
X39116000Y-85032315D02*
X39878000Y-84270315D01*
G04 #@! TO.N,SW04_BP*
X41148000Y-110998000D02*
X41148000Y-95250000D01*
X39116000Y-113030000D02*
X41148000Y-110998000D01*
X37846000Y-125222000D02*
X39116000Y-123952000D01*
X39116000Y-123952000D02*
X39116000Y-113030000D01*
G04 #@! TO.N,Enable_Column0*
X146812000Y-110490000D02*
X147574000Y-111252000D01*
X144272000Y-110490000D02*
X146812000Y-110490000D01*
X147574000Y-111252000D02*
X170688000Y-111252000D01*
X127508000Y-110490000D02*
X140970000Y-110490000D01*
X126746000Y-109728000D02*
X127508000Y-110490000D01*
X124714000Y-109728000D02*
X126746000Y-109728000D01*
X106426000Y-108966000D02*
X107188000Y-109728000D01*
X103632000Y-108966000D02*
X106426000Y-108966000D01*
X107188000Y-109728000D02*
X119888000Y-109728000D01*
X87376000Y-108966000D02*
X100330000Y-108966000D01*
X86614000Y-108204000D02*
X87376000Y-108966000D01*
X84074000Y-108204000D02*
X86614000Y-108204000D01*
X68072000Y-108204000D02*
X79248000Y-108204000D01*
X62992000Y-107442000D02*
X66548000Y-107442000D01*
X67310000Y-108204000D02*
X68072000Y-108204000D01*
X66548000Y-107442000D02*
X67310000Y-108204000D01*
X44704000Y-104140000D02*
X44704000Y-96520000D01*
X59690000Y-107442000D02*
X48006000Y-107442000D01*
X48006000Y-107442000D02*
X44704000Y-104140000D01*
X44704000Y-96520000D02*
X44704000Y-69596000D01*
X44704000Y-69596000D02*
X44704000Y-42672000D01*
D26*
X200660000Y-103378000D02*
X200660000Y-105918000D01*
D25*
X177546000Y-112014000D02*
X200660000Y-112014000D01*
X175514000Y-111252000D02*
X176784000Y-111252000D01*
X176784000Y-111252000D02*
X177546000Y-112014000D01*
G04 #@! TO.N,SW21_CH_B*
X79756000Y-61976000D02*
X79756000Y-35814000D01*
G04 #@! TO.N,SW21_BP*
X78486000Y-57912000D02*
X78486000Y-57912000D01*
X78486000Y-57912000D02*
X77216000Y-59182000D01*
X79756000Y-87122000D02*
X79756000Y-93980000D01*
X80637385Y-86240615D02*
X79756000Y-87122000D01*
X80637385Y-84970615D02*
X80637385Y-86240615D01*
X78486000Y-48260000D02*
X78486000Y-57912000D01*
X81280000Y-65532000D02*
X77216000Y-61468000D01*
X77216000Y-59182000D02*
X77216000Y-61468000D01*
X81280000Y-84328000D02*
X80637385Y-84970615D01*
X81280000Y-65532000D02*
X81280000Y-84328000D01*
G04 #@! TO.N,SW22_BP*
X78994000Y-90932000D02*
X77216000Y-89154000D01*
X78994000Y-92710000D02*
X78994000Y-90932000D01*
X78486000Y-82296000D02*
X77216000Y-83566000D01*
X77216000Y-83566000D02*
X77216000Y-89154000D01*
X78486000Y-75184000D02*
X78486000Y-82296000D01*
G04 #@! TO.N,SW22_CH_A*
X83566000Y-58166000D02*
X81280000Y-55880000D01*
X83566000Y-58166000D02*
X83566000Y-60706000D01*
X81280000Y-55880000D02*
X81280000Y-38862000D01*
G04 #@! TO.N,SW23_BP*
X80518000Y-98298000D02*
X78486000Y-100330000D01*
X80518000Y-91440000D02*
X80518000Y-98298000D01*
G04 #@! TO.N,SW23_CH_B*
X79756000Y-83820000D02*
X78486000Y-85090000D01*
X78486000Y-85090000D02*
X78486000Y-87630000D01*
X79756000Y-65278000D02*
X79756000Y-83820000D01*
X78994000Y-64516000D02*
X79756000Y-65278000D01*
G04 #@! TO.N,SW23_CH_A*
X82296000Y-58674000D02*
X82296000Y-58674000D01*
X81788000Y-85392056D02*
X81389786Y-85790270D01*
X81788000Y-62992000D02*
X81788000Y-85392056D01*
X82296000Y-62484000D02*
X81788000Y-62992000D01*
X80518000Y-56896000D02*
X82296000Y-58674000D01*
X82296000Y-58674000D02*
X82296000Y-62484000D01*
X80518000Y-37592000D02*
X80518000Y-56896000D01*
G04 #@! TO.N,SW24_CH_A*
X83566000Y-113284000D02*
X83566000Y-114808000D01*
X82550000Y-96266000D02*
X82296000Y-96520000D01*
X82550000Y-93980000D02*
X82550000Y-96266000D01*
X82042000Y-55372000D02*
X84836000Y-58166000D01*
X82042000Y-41402000D02*
X82042000Y-55372000D01*
X84836000Y-58166000D02*
X84836000Y-62230000D01*
X82296000Y-96520000D02*
X82296000Y-112014000D01*
X84836000Y-62230000D02*
X82296000Y-64770000D01*
X82296000Y-112014000D02*
X83566000Y-113284000D01*
X82296000Y-64770000D02*
X82296000Y-93726000D01*
X82296000Y-93726000D02*
X82550000Y-93980000D01*
G04 #@! TO.N,SW24_CH_B*
X81280000Y-92456000D02*
X81280000Y-90170000D01*
X81022810Y-92713190D02*
X81280000Y-92456000D01*
X81022810Y-110747190D02*
X81022810Y-92713190D01*
X78486000Y-113284000D02*
X81022810Y-110747190D01*
X78486000Y-114808000D02*
X78486000Y-113284000D01*
X80518000Y-84270315D02*
X80518000Y-68326000D01*
X79756000Y-85598000D02*
X79756000Y-85032315D01*
X79756000Y-85032315D02*
X80518000Y-84270315D01*
G04 #@! TO.N,SW24_BP*
X78486000Y-125222000D02*
X79756000Y-123952000D01*
X81788000Y-111252000D02*
X81788000Y-95250000D01*
X79756000Y-123952000D02*
X79756000Y-113284000D01*
X79756000Y-113284000D02*
X81788000Y-111252000D01*
G04 #@! TO.N,Enable_Column2*
X147320000Y-108966000D02*
X148082000Y-109728000D01*
X144272000Y-108966000D02*
X147320000Y-108966000D01*
X148082000Y-109728000D02*
X170688000Y-109728000D01*
X107696000Y-108204000D02*
X106934000Y-107442000D01*
X119888000Y-108204000D02*
X107696000Y-108204000D01*
X128016000Y-108966000D02*
X140970000Y-108966000D01*
X127254000Y-108204000D02*
X128016000Y-108966000D01*
X124714000Y-108204000D02*
X127254000Y-108204000D01*
X103632000Y-107442000D02*
X106934000Y-107442000D01*
X85344000Y-104902000D02*
X85344000Y-96520000D01*
X100330000Y-107442000D02*
X87884000Y-107442000D01*
X87884000Y-107442000D02*
X85344000Y-104902000D01*
X85344000Y-89916000D02*
X85344000Y-96520000D01*
X84836000Y-89408000D02*
X85344000Y-89916000D01*
X84836000Y-73914000D02*
X84836000Y-89408000D01*
X85344000Y-69596000D02*
X85344000Y-73406000D01*
X85344000Y-73406000D02*
X84836000Y-73914000D01*
X85344000Y-69596000D02*
X85344000Y-42672000D01*
D26*
X205740000Y-103378000D02*
X205740000Y-105918000D01*
D25*
X177292000Y-109728000D02*
X175514000Y-109728000D01*
X205740000Y-110490000D02*
X178054000Y-110490000D01*
X178054000Y-110490000D02*
X177292000Y-109728000D01*
G04 #@! TO.N,SW31_BP*
X98806000Y-57912000D02*
X98806000Y-57912000D01*
X100957385Y-86240615D02*
X100076000Y-87122000D01*
X98806000Y-57912000D02*
X97536000Y-59182000D01*
X100076000Y-87122000D02*
X100076000Y-93980000D01*
X98806000Y-48260000D02*
X98806000Y-57912000D01*
X100957385Y-84970615D02*
X100957385Y-86240615D01*
X97536000Y-59182000D02*
X97536000Y-61468000D01*
X97536000Y-61468000D02*
X101600000Y-65532000D01*
X101600000Y-65532000D02*
X101600000Y-84328000D01*
X101600000Y-84328000D02*
X100957385Y-84970615D01*
G04 #@! TO.N,SW31_CH_B*
X100076000Y-61976000D02*
X100076000Y-35814000D01*
G04 #@! TO.N,SW32_CH_A*
X103886000Y-58166000D02*
X101600000Y-55880000D01*
X103886000Y-58166000D02*
X103886000Y-60706000D01*
X101600000Y-55880000D02*
X101600000Y-38862000D01*
G04 #@! TO.N,SW32_BP*
X97536000Y-83566000D02*
X97536000Y-89154000D01*
X98806000Y-82296000D02*
X97536000Y-83566000D01*
X99314000Y-92710000D02*
X99314000Y-90932000D01*
X99314000Y-90932000D02*
X97536000Y-89154000D01*
X98806000Y-75184000D02*
X98806000Y-82296000D01*
G04 #@! TO.N,SW33_CH_A*
X102616000Y-58674000D02*
X102616000Y-58674000D01*
X101854000Y-84836000D02*
X101854000Y-85598000D01*
X102108000Y-84582000D02*
X101854000Y-84836000D01*
X102108000Y-62992000D02*
X102108000Y-84582000D01*
X102616000Y-62484000D02*
X102108000Y-62992000D01*
X102616000Y-58674000D02*
X102616000Y-62484000D01*
X100838000Y-56896000D02*
X102616000Y-58674000D01*
X100838000Y-37592000D02*
X100838000Y-56896000D01*
G04 #@! TO.N,SW33_CH_B*
X98806000Y-84074000D02*
X98806000Y-87630000D01*
X100076000Y-82804000D02*
X98806000Y-84074000D01*
X99314000Y-64516000D02*
X100076000Y-65278000D01*
X100076000Y-65278000D02*
X100076000Y-82804000D01*
G04 #@! TO.N,SW33_BP*
X100838000Y-91440000D02*
X100838000Y-98298000D01*
X100838000Y-98298000D02*
X98806000Y-100330000D01*
G04 #@! TO.N,SW34_BP*
X98806000Y-125222000D02*
X100076000Y-123952000D01*
X102108000Y-111252000D02*
X102108000Y-95250000D01*
X100076000Y-123952000D02*
X100076000Y-113284000D01*
X100076000Y-113284000D02*
X102108000Y-111252000D01*
G04 #@! TO.N,SW34_CH_B*
X101600000Y-92456000D02*
X101600000Y-90170000D01*
X101342810Y-92713190D02*
X101600000Y-92456000D01*
X101342810Y-110747190D02*
X101342810Y-92713190D01*
X98806000Y-113284000D02*
X101342810Y-110747190D01*
X98806000Y-114808000D02*
X98806000Y-113284000D01*
X100838000Y-84270315D02*
X100838000Y-68326000D01*
X100076000Y-85598000D02*
X100076000Y-85032315D01*
X100076000Y-85032315D02*
X100838000Y-84270315D01*
G04 #@! TO.N,SW34_CH_A*
X103886000Y-113284000D02*
X103886000Y-114808000D01*
X102616000Y-112014000D02*
X103886000Y-113284000D01*
X102616000Y-96520000D02*
X102616000Y-112014000D01*
X102870000Y-93980000D02*
X102870000Y-96266000D01*
X102362000Y-41402000D02*
X102362000Y-55372000D01*
X105156000Y-58166000D02*
X105156000Y-62230000D01*
X105156000Y-62230000D02*
X102616000Y-64770000D01*
X102362000Y-55372000D02*
X105156000Y-58166000D01*
X102616000Y-64770000D02*
X102616000Y-93726000D01*
X102870000Y-96266000D02*
X102616000Y-96520000D01*
X102616000Y-93726000D02*
X102870000Y-93980000D01*
G04 #@! TO.N,Enable_Column3*
X147574000Y-108204000D02*
X148336000Y-108966000D01*
X145034000Y-108204000D02*
X147574000Y-108204000D01*
X148336000Y-108966000D02*
X171450000Y-108966000D01*
X128270000Y-108204000D02*
X140208000Y-108204000D01*
X127508000Y-107442000D02*
X128270000Y-108204000D01*
X123952000Y-107442000D02*
X127508000Y-107442000D01*
X105664000Y-104902000D02*
X105664000Y-96520000D01*
X120650000Y-107442000D02*
X108204000Y-107442000D01*
X108204000Y-107442000D02*
X105664000Y-104902000D01*
X105664000Y-96520000D02*
X105664000Y-69596000D01*
X105664000Y-69596000D02*
X105664000Y-42672000D01*
D26*
X208280000Y-103378000D02*
X208280000Y-105918000D01*
D25*
X178308000Y-109728000D02*
X208280000Y-109728000D01*
X174752000Y-108966000D02*
X177546000Y-108966000D01*
X177546000Y-108966000D02*
X178308000Y-109728000D01*
G04 #@! TO.N,SW41_BP*
X119126000Y-57912000D02*
X119126000Y-57912000D01*
X120396000Y-87122000D02*
X120396000Y-93980000D01*
X121277385Y-86240615D02*
X120396000Y-87122000D01*
X121277385Y-84970615D02*
X121277385Y-86240615D01*
X119126000Y-57912000D02*
X117856000Y-59182000D01*
X119126000Y-48260000D02*
X119126000Y-57912000D01*
X117856000Y-59182000D02*
X117856000Y-61468000D01*
X117856000Y-61468000D02*
X121920000Y-65532000D01*
X121920000Y-65532000D02*
X121920000Y-84328000D01*
X121920000Y-84328000D02*
X121277385Y-84970615D01*
G04 #@! TO.N,SW41_CH_B*
X120396000Y-61976000D02*
X120396000Y-35814000D01*
G04 #@! TO.N,SW42_CH_A*
X124206000Y-58166000D02*
X124206000Y-60706000D01*
X124206000Y-58166000D02*
X121920000Y-55880000D01*
X121920000Y-55880000D02*
X121920000Y-38862000D01*
G04 #@! TO.N,SW42_BP*
X119634000Y-90932000D02*
X117856000Y-89154000D01*
X117856000Y-83566000D02*
X117856000Y-89154000D01*
X119126000Y-82296000D02*
X117856000Y-83566000D01*
X119634000Y-92710000D02*
X119634000Y-90932000D01*
X119126000Y-75184000D02*
X119126000Y-82296000D01*
G04 #@! TO.N,SW43_CH_A*
X122936000Y-58674000D02*
X122936000Y-58674000D01*
X122428000Y-85392056D02*
X122029786Y-85790270D01*
X122428000Y-62992000D02*
X122428000Y-85392056D01*
X122936000Y-62484000D02*
X122428000Y-62992000D01*
X121158000Y-56896000D02*
X122936000Y-58674000D01*
X122936000Y-58674000D02*
X122936000Y-62484000D01*
X121158000Y-37592000D02*
X121158000Y-56896000D01*
G04 #@! TO.N,SW43_CH_B*
X119126000Y-85090000D02*
X119126000Y-87630000D01*
X120396000Y-83820000D02*
X119126000Y-85090000D01*
X120396000Y-65278000D02*
X120396000Y-83820000D01*
X119634000Y-64516000D02*
X120396000Y-65278000D01*
G04 #@! TO.N,SW43_BP*
X121158000Y-98298000D02*
X119126000Y-100330000D01*
X121158000Y-91440000D02*
X121158000Y-98298000D01*
G04 #@! TO.N,SW44_BP*
X119126000Y-125222000D02*
X120396000Y-123952000D01*
X122428000Y-111252000D02*
X122428000Y-95250000D01*
X120396000Y-123952000D02*
X120396000Y-113284000D01*
X120396000Y-113284000D02*
X122428000Y-111252000D01*
G04 #@! TO.N,SW44_CH_B*
X121920000Y-92456000D02*
X121920000Y-90170000D01*
X121662810Y-92713190D02*
X121920000Y-92456000D01*
X121662810Y-110747190D02*
X121662810Y-92713190D01*
X119126000Y-113284000D02*
X121662810Y-110747190D01*
X119126000Y-114808000D02*
X119126000Y-113284000D01*
X121158000Y-84270315D02*
X121158000Y-68326000D01*
X120396000Y-85598000D02*
X120396000Y-85032315D01*
X120396000Y-85032315D02*
X121158000Y-84270315D01*
G04 #@! TO.N,SW44_CH_A*
X124206000Y-113284000D02*
X124206000Y-114808000D01*
X122936000Y-112014000D02*
X124206000Y-113284000D01*
X122936000Y-96520000D02*
X122936000Y-112014000D01*
X123190000Y-93980000D02*
X123190000Y-96266000D01*
X122682000Y-41402000D02*
X122682000Y-55372000D01*
X125476000Y-58166000D02*
X125476000Y-62230000D01*
X125476000Y-62230000D02*
X122936000Y-64770000D01*
X123190000Y-96266000D02*
X122936000Y-96520000D01*
X122682000Y-55372000D02*
X125476000Y-58166000D01*
X122936000Y-64770000D02*
X122936000Y-93726000D01*
X122936000Y-93726000D02*
X123190000Y-93980000D01*
G04 #@! TO.N,Enable_Column4*
X148590000Y-108204000D02*
X170688000Y-108204000D01*
X144272000Y-107442000D02*
X147828000Y-107442000D01*
X147828000Y-107442000D02*
X148590000Y-108204000D01*
X125984000Y-104902000D02*
X125984000Y-96520000D01*
X140970000Y-107442000D02*
X128524000Y-107442000D01*
X128524000Y-107442000D02*
X125984000Y-104902000D01*
X125984000Y-96520000D02*
X125984000Y-69596000D01*
X125984000Y-69596000D02*
X125984000Y-42672000D01*
D26*
X210820000Y-103378000D02*
X210820000Y-105918000D01*
D25*
X177800000Y-108204000D02*
X175514000Y-108204000D01*
X210820000Y-108966000D02*
X178562000Y-108966000D01*
X178562000Y-108966000D02*
X177800000Y-108204000D01*
G04 #@! TO.N,SW51_CH_B*
X140716000Y-61976000D02*
X140716000Y-36068000D01*
G04 #@! TO.N,SW51_BP*
X139446000Y-57912000D02*
X139446000Y-57912000D01*
X140716000Y-87122000D02*
X140716000Y-93980000D01*
X141597385Y-86240615D02*
X140716000Y-87122000D01*
X141597385Y-84970615D02*
X141597385Y-86240615D01*
X139446000Y-57912000D02*
X138176000Y-59182000D01*
X139446000Y-48260000D02*
X139446000Y-57912000D01*
X138176000Y-59182000D02*
X138176000Y-61468000D01*
X138176000Y-61468000D02*
X142240000Y-65532000D01*
X142240000Y-65532000D02*
X142240000Y-84328000D01*
X142240000Y-84328000D02*
X141597385Y-84970615D01*
G04 #@! TO.N,SW52_BP*
X138176000Y-83566000D02*
X139446000Y-82296000D01*
X138176000Y-83566000D02*
X138176000Y-89154000D01*
X138176000Y-89154000D02*
X139954000Y-90932000D01*
X139954000Y-90932000D02*
X139954000Y-92710000D01*
X139446000Y-82296000D02*
X139446000Y-75184000D01*
G04 #@! TO.N,SW52_CH_A*
X144526000Y-58166000D02*
X142240000Y-55880000D01*
X144526000Y-58166000D02*
X144526000Y-60706000D01*
X142240000Y-55880000D02*
X142240000Y-38862000D01*
G04 #@! TO.N,SW53_BP*
X141478000Y-91440000D02*
X141478000Y-98298000D01*
X141478000Y-98298000D02*
X139446000Y-100330000D01*
G04 #@! TO.N,SW53_CH_B*
X139446000Y-85090000D02*
X139446000Y-87630000D01*
X140716000Y-83820000D02*
X139446000Y-85090000D01*
X140716000Y-65278000D02*
X140716000Y-83820000D01*
X139954000Y-64516000D02*
X140716000Y-65278000D01*
G04 #@! TO.N,SW53_CH_A*
X143256000Y-58674000D02*
X143256000Y-58674000D01*
X142748000Y-85392056D02*
X142349786Y-85790270D01*
X142748000Y-62992000D02*
X142748000Y-85392056D01*
X143256000Y-62484000D02*
X142748000Y-62992000D01*
X141478000Y-56896000D02*
X143256000Y-58674000D01*
X143256000Y-58674000D02*
X143256000Y-62484000D01*
X141478000Y-37592000D02*
X141478000Y-56896000D01*
G04 #@! TO.N,SW54_CH_A*
X144526000Y-113284000D02*
X144526000Y-114808000D01*
X143256000Y-112014000D02*
X144526000Y-113284000D01*
X143256000Y-96520000D02*
X143256000Y-112014000D01*
X143510000Y-96266000D02*
X143256000Y-96520000D01*
X143510000Y-93980000D02*
X143510000Y-96266000D01*
X143002000Y-41402000D02*
X143002000Y-55372000D01*
X143256000Y-64770000D02*
X143256000Y-93726000D01*
X143256000Y-93726000D02*
X143510000Y-93980000D01*
X143002000Y-55372000D02*
X145542000Y-57912000D01*
X145542000Y-57912000D02*
X145796000Y-58166000D01*
X145796000Y-58166000D02*
X145796000Y-61976000D01*
X145796000Y-61976000D02*
X145796000Y-62230000D01*
X145796000Y-62230000D02*
X143256000Y-64770000D01*
G04 #@! TO.N,SW54_CH_B*
X142240000Y-92456000D02*
X142240000Y-90170000D01*
X141982810Y-92713190D02*
X142240000Y-92456000D01*
X141982810Y-110747190D02*
X141982810Y-92713190D01*
X139446000Y-113284000D02*
X141982810Y-110747190D01*
X139446000Y-114808000D02*
X139446000Y-113284000D01*
X141478000Y-84270315D02*
X141478000Y-68326000D01*
X140716000Y-85598000D02*
X140716000Y-85032315D01*
X140716000Y-85032315D02*
X141478000Y-84270315D01*
G04 #@! TO.N,SW54_BP*
X140716000Y-123952000D02*
X139446000Y-125222000D01*
X140716000Y-113284000D02*
X140716000Y-123952000D01*
X142748000Y-95250000D02*
X142748000Y-111252000D01*
X142748000Y-111252000D02*
X140716000Y-113284000D01*
G04 #@! TO.N,Enable_Column5*
X146304000Y-104902000D02*
X146304000Y-96520000D01*
X171450000Y-107442000D02*
X148844000Y-107442000D01*
X148844000Y-107442000D02*
X146304000Y-104902000D01*
X146304000Y-96520000D02*
X146304000Y-69596000D01*
X146304000Y-69596000D02*
X146304000Y-42672000D01*
D26*
X213360000Y-103378000D02*
X213360000Y-105918000D01*
D25*
X178816000Y-108204000D02*
X213360000Y-108204000D01*
X174752000Y-107442000D02*
X178054000Y-107442000D01*
X178054000Y-107442000D02*
X178816000Y-108204000D01*
G04 #@! TO.N,SW61_BP*
X169926000Y-57912000D02*
X169926000Y-57912000D01*
X171196000Y-87122000D02*
X171196000Y-93980000D01*
X172077385Y-84970615D02*
X172077385Y-86240615D01*
X169926000Y-48260000D02*
X169926000Y-57912000D01*
X168656000Y-61468000D02*
X172720000Y-65532000D01*
X172077385Y-86240615D02*
X171196000Y-87122000D01*
X168656000Y-59182000D02*
X168656000Y-61468000D01*
X172720000Y-65532000D02*
X172720000Y-84328000D01*
X169926000Y-57912000D02*
X168656000Y-59182000D01*
X172720000Y-84328000D02*
X172077385Y-84970615D01*
G04 #@! TO.N,SW61_CH_B*
X171196000Y-61976000D02*
X171196000Y-35814000D01*
G04 #@! TO.N,SW62_CH_A*
X175006000Y-58166000D02*
X175006000Y-60706000D01*
X175006000Y-58166000D02*
X172720000Y-55880000D01*
X172720000Y-55880000D02*
X172720000Y-38862000D01*
G04 #@! TO.N,SW62_BP*
X170434000Y-90932000D02*
X170434000Y-92710000D01*
X168656000Y-83566000D02*
X169926000Y-82296000D01*
X168656000Y-83566000D02*
X168656000Y-89154000D01*
X168656000Y-89154000D02*
X170434000Y-90932000D01*
X169926000Y-82296000D02*
X169926000Y-75184000D01*
G04 #@! TO.N,SW63_CH_A*
X173736000Y-58674000D02*
X173736000Y-58674000D01*
X173228000Y-85392056D02*
X172829786Y-85790270D01*
X173228000Y-62992000D02*
X173228000Y-85392056D01*
X173736000Y-62484000D02*
X173228000Y-62992000D01*
X171958000Y-56896000D02*
X173736000Y-58674000D01*
X173736000Y-58674000D02*
X173736000Y-62484000D01*
X171958000Y-37592000D02*
X171958000Y-56896000D01*
G04 #@! TO.N,SW63_CH_B*
X171196000Y-83820000D02*
X169926000Y-85090000D01*
X169926000Y-85090000D02*
X169926000Y-87630000D01*
X171196000Y-65278000D02*
X171196000Y-83820000D01*
X170434000Y-64516000D02*
X171196000Y-65278000D01*
G04 #@! TO.N,SW63_BP*
X171958000Y-98298000D02*
X169926000Y-100330000D01*
X171958000Y-91440000D02*
X171958000Y-98298000D01*
G04 #@! TO.N,SW64_BP*
X169926000Y-125222000D02*
X171196000Y-123952000D01*
X173228000Y-110998000D02*
X173228000Y-95250000D01*
X171196000Y-123952000D02*
X171196000Y-113030000D01*
X171196000Y-113030000D02*
X173228000Y-110998000D01*
G04 #@! TO.N,SW64_CH_B*
X172720000Y-92456000D02*
X172720000Y-90170000D01*
X172462810Y-92713190D02*
X172720000Y-92456000D01*
X172462810Y-110747190D02*
X172462810Y-92713190D01*
X169926000Y-113284000D02*
X172462810Y-110747190D01*
X169926000Y-114808000D02*
X169926000Y-113284000D01*
X171958000Y-84270315D02*
X171958000Y-68326000D01*
X171196000Y-85598000D02*
X171196000Y-85032315D01*
X171196000Y-85032315D02*
X171958000Y-84270315D01*
G04 #@! TO.N,SW64_CH_A*
X173736000Y-112014000D02*
X175006000Y-113284000D01*
X173736000Y-96520000D02*
X173736000Y-112014000D01*
X173990000Y-96266000D02*
X173736000Y-96520000D01*
X173990000Y-93980000D02*
X173990000Y-96266000D01*
X173736000Y-64770000D02*
X173736000Y-93726000D01*
X173736000Y-93726000D02*
X173990000Y-93980000D01*
X173482000Y-41402000D02*
X173482000Y-55372000D01*
X175006000Y-113284000D02*
X175006000Y-114808000D01*
X173482000Y-55372000D02*
X176022000Y-57912000D01*
X176022000Y-57912000D02*
X176276000Y-58166000D01*
X176276000Y-58166000D02*
X176276000Y-61214000D01*
X176276000Y-61214000D02*
X176276000Y-62230000D01*
X176276000Y-62230000D02*
X173736000Y-64770000D01*
G04 #@! TO.N,Enable_Column6*
X176784000Y-69596000D02*
X176784000Y-96520000D01*
X176784000Y-69596000D02*
X176784000Y-42672000D01*
D26*
X215900000Y-103378000D02*
X215900000Y-105918000D01*
D25*
X179324000Y-107442000D02*
X215900000Y-107442000D01*
X176784000Y-96774000D02*
X176784000Y-104902000D01*
X176784000Y-104902000D02*
X179324000Y-107442000D01*
D26*
G04 #@! TO.N,Net-(U100-Pad14)*
X223520000Y-103378000D02*
X223520000Y-105918000D01*
G04 #@! TO.N,Net-(U100-Pad30)*
X198120000Y-121158000D02*
X198120000Y-123698000D01*
G04 #@! TO.N,Net-(U100-Pad32)*
X193040000Y-121158000D02*
X193040000Y-123698000D01*
D25*
G04 #@! TO.N,SDA*
X199390000Y-48006000D02*
X199390000Y-39624000D01*
D26*
X210820000Y-121158000D02*
X210820000Y-123698000D01*
D25*
X207010000Y-74422000D02*
X207010000Y-87122000D01*
X207010000Y-87122000D02*
X207772000Y-87884000D01*
X207772000Y-87884000D02*
X207772000Y-94996000D01*
X207772000Y-94996000D02*
X208280000Y-95504000D01*
X208280000Y-95504000D02*
X208280000Y-97536000D01*
X207010000Y-65532000D02*
X207010000Y-64770000D01*
X207010000Y-64770000D02*
X199390000Y-57150000D01*
X199390000Y-57150000D02*
X199390000Y-48006000D01*
G04 #@! TO.N,SCL*
X212090000Y-96520000D02*
X212090000Y-98552000D01*
D26*
X208280000Y-121158000D02*
X208280000Y-123698000D01*
D25*
X209550000Y-74422000D02*
X209550000Y-86868000D01*
X209550000Y-86868000D02*
X208534000Y-87884000D01*
X208534000Y-87884000D02*
X208534000Y-94742000D01*
X208534000Y-94742000D02*
X209042000Y-95250000D01*
X209042000Y-95250000D02*
X209042000Y-96520000D01*
X201930000Y-58420000D02*
X201930000Y-39624000D01*
X208280000Y-65532000D02*
X208280000Y-64770000D01*
X208280000Y-64770000D02*
X201930000Y-58420000D01*
D26*
G04 #@! TO.N,LCD_RST*
X213360000Y-121158000D02*
X213360000Y-123698000D01*
D25*
X207010000Y-62230000D02*
X207010000Y-39624000D01*
X209550000Y-65532000D02*
X209550000Y-64770000D01*
X209550000Y-64770000D02*
X207010000Y-62230000D01*
X217170000Y-97790000D02*
X217170000Y-98552000D01*
X212344000Y-74422000D02*
X212344000Y-92964000D01*
X212344000Y-92964000D02*
X217170000Y-97790000D01*
G04 #@! TO.N,UI_CH_A*
X197358000Y-80772000D02*
X195580000Y-80772000D01*
X198628000Y-82042000D02*
X197358000Y-80772000D01*
X204724000Y-82042000D02*
X198628000Y-82042000D01*
X209550000Y-97790000D02*
X209550000Y-98552000D01*
X209804000Y-97536000D02*
X209550000Y-97790000D01*
X209804000Y-94996000D02*
X209804000Y-97536000D01*
X209296000Y-94488000D02*
X209804000Y-94996000D01*
X209296000Y-88138000D02*
X209296000Y-94488000D01*
X210820000Y-76962000D02*
X210820000Y-86614000D01*
X210820000Y-86614000D02*
X209296000Y-88138000D01*
G04 #@! TO.N,UI_BP*
X195580000Y-83312000D02*
X199136000Y-86868000D01*
X205740000Y-88646000D02*
X205740000Y-91440000D01*
X199136000Y-86868000D02*
X203962000Y-86868000D01*
X203962000Y-86868000D02*
X205740000Y-88646000D01*
X205740000Y-97282000D02*
X204470000Y-98552000D01*
X205740000Y-91440000D02*
X205740000Y-97282000D01*
G04 #@! TO.N,UI_CH_B*
X195580000Y-78232000D02*
X196850000Y-76962000D01*
X196850000Y-76962000D02*
X205740000Y-76962000D01*
X207010000Y-88138000D02*
X207010000Y-98552000D01*
X205740000Y-76962000D02*
X205740000Y-86868000D01*
X205740000Y-86868000D02*
X207010000Y-88138000D01*
D24*
G04 #@! TO.N,+5V*
X208788000Y-35052000D02*
X212090000Y-35052000D01*
X212090000Y-35052000D02*
X212090000Y-31686000D01*
X212090000Y-35052000D02*
X214630000Y-37592000D01*
X214630000Y-37592000D02*
X214630000Y-39624000D01*
X208788000Y-35052000D02*
X208788000Y-32996000D01*
X204724000Y-35052000D02*
X208788000Y-35052000D01*
X203708000Y-32996000D02*
X203708000Y-34036000D01*
X203708000Y-34036000D02*
X204724000Y-35052000D01*
D27*
X212598000Y-54864000D02*
X210312000Y-54864000D01*
X214630000Y-52832000D02*
X212598000Y-54864000D01*
X190500000Y-121158000D02*
X190500000Y-123698000D01*
X187452000Y-96266000D02*
X187452000Y-90678000D01*
X187452000Y-118110000D02*
X190500000Y-121158000D01*
X187452000Y-113284000D02*
X187452000Y-118110000D01*
D24*
X187484000Y-63468000D02*
X187452000Y-63500000D01*
D27*
X197866000Y-54864000D02*
X188722000Y-54864000D01*
X188722000Y-54864000D02*
X187452000Y-56134000D01*
D24*
X199684000Y-67310000D02*
X211074000Y-67310000D01*
X199684000Y-67310000D02*
X199684000Y-65278000D01*
X199684000Y-69266000D02*
X199684000Y-67310000D01*
X211074000Y-65786000D02*
X211836000Y-65024000D01*
X211074000Y-67310000D02*
X211074000Y-65786000D01*
X211074000Y-67557600D02*
X211074000Y-67310000D01*
X211876000Y-68359600D02*
X211074000Y-67557600D01*
X211876000Y-69266000D02*
X211876000Y-68359600D01*
D27*
X187452000Y-87122000D02*
X187452000Y-64008000D01*
X187452000Y-64008000D02*
X187452000Y-63500000D01*
D24*
X189992000Y-64008000D02*
X187452000Y-64008000D01*
X198414000Y-64008000D02*
X199684000Y-65278000D01*
X196088000Y-64008000D02*
X198414000Y-64008000D01*
X189992000Y-64008000D02*
X196088000Y-64008000D01*
X211836000Y-60706000D02*
X211836000Y-65024000D01*
X215900000Y-59944000D02*
X212598000Y-59944000D01*
X212598000Y-59944000D02*
X211836000Y-60706000D01*
D27*
X214630000Y-39624000D02*
X214630000Y-52832000D01*
X187452000Y-59944000D02*
X187452000Y-63500000D01*
X187452000Y-56134000D02*
X187452000Y-59944000D01*
D24*
G04 #@! TO.N,3V3*
X192786000Y-88900000D02*
X195326000Y-88900000D01*
D28*
X163322000Y-66548000D02*
X163322000Y-66548000D01*
X132842000Y-66548000D02*
X132842000Y-66548000D01*
X112522000Y-66548000D02*
X112522000Y-66548000D01*
X92202000Y-66548000D02*
X92202000Y-66548000D01*
X71882000Y-66548000D02*
X71882000Y-66548000D01*
X51562000Y-66548000D02*
X51562000Y-66548000D01*
X31242000Y-66548000D02*
X31242000Y-66548000D01*
D24*
X53848000Y-29210000D02*
X56134000Y-29210000D01*
X72390000Y-27432000D02*
X74168000Y-29210000D01*
X58674000Y-27432000D02*
X72390000Y-27432000D01*
X75888315Y-29210000D02*
X74168000Y-29210000D01*
X76454000Y-29210000D02*
X75888315Y-29210000D01*
X96774000Y-29210000D02*
X94488000Y-29210000D01*
X117094000Y-29210000D02*
X114808000Y-29210000D01*
X137668000Y-29210000D02*
X135128000Y-29210000D01*
X109982000Y-29210000D02*
X114808000Y-29210000D01*
X99314000Y-27432000D02*
X108204000Y-27432000D01*
X108204000Y-27432000D02*
X109982000Y-29210000D01*
X167894000Y-29210000D02*
X165608000Y-29210000D01*
X163830000Y-27432000D02*
X165608000Y-29210000D01*
X139954000Y-27432000D02*
X163830000Y-27432000D01*
X51562000Y-66548000D02*
X53086000Y-65024000D01*
X51562000Y-82804000D02*
X51562000Y-66548000D01*
X71882000Y-66548000D02*
X71882000Y-82804000D01*
X73406000Y-65024000D02*
X71882000Y-66548000D01*
X132842000Y-66548000D02*
X134366000Y-65024000D01*
X132842000Y-82804000D02*
X132842000Y-66548000D01*
X112522000Y-66548000D02*
X114046000Y-65024000D01*
X112522000Y-66548000D02*
X112522000Y-82804000D01*
X31242000Y-73152000D02*
X31242000Y-66548000D01*
X32512000Y-74422000D02*
X31242000Y-73152000D01*
X32512000Y-84836000D02*
X32512000Y-74422000D01*
X90424000Y-29210000D02*
X94488000Y-29210000D01*
X90424000Y-29210000D02*
X88646000Y-27432000D01*
X78994000Y-27432000D02*
X88646000Y-27432000D01*
X131318000Y-29210000D02*
X135128000Y-29210000D01*
X119634000Y-27432000D02*
X129540000Y-27432000D01*
X129540000Y-27432000D02*
X131318000Y-29210000D01*
X52070000Y-27432000D02*
X53848000Y-29210000D01*
X39116000Y-27432000D02*
X52070000Y-27432000D01*
X34036000Y-29210000D02*
X36576000Y-29210000D01*
X51562000Y-39878000D02*
X51562000Y-55880000D01*
X31281400Y-51943000D02*
X31281400Y-39878000D01*
X112522000Y-56134000D02*
X112522000Y-39878000D01*
X132842000Y-39878000D02*
X132842000Y-55880000D01*
X163322000Y-39878000D02*
X163322000Y-55880000D01*
X163322000Y-66548000D02*
X164846000Y-65024000D01*
X163322000Y-83566002D02*
X163322000Y-66548000D01*
X95758000Y-84836000D02*
X95758000Y-87376000D01*
X96266000Y-84328000D02*
X95758000Y-84836000D01*
X96266000Y-79502000D02*
X96266000Y-84328000D01*
X92202000Y-75438000D02*
X96266000Y-79502000D01*
X93726000Y-65024000D02*
X92202000Y-66548000D01*
X92202000Y-66548000D02*
X92202000Y-75438000D01*
D27*
X195580000Y-129032000D02*
X195580000Y-138430000D01*
X195580000Y-121158000D02*
X195580000Y-123698000D01*
X195580000Y-123698000D02*
X195580000Y-129032000D01*
X185674000Y-96266000D02*
X185674000Y-83312000D01*
X181356000Y-27178000D02*
X170466000Y-27178000D01*
X185674000Y-31496000D02*
X181356000Y-27178000D01*
X197866000Y-52324000D02*
X185674000Y-52324000D01*
X185674000Y-53086000D02*
X185674000Y-31496000D01*
D24*
X185674000Y-88900000D02*
X190246000Y-88900000D01*
X190246000Y-88900000D02*
X192786000Y-88900000D01*
D27*
X189230000Y-125984000D02*
X195580000Y-125984000D01*
X185674000Y-122428000D02*
X189230000Y-125984000D01*
X185674000Y-113284000D02*
X185674000Y-122428000D01*
D24*
X190500000Y-80772000D02*
X190500000Y-83312000D01*
X190500000Y-78232000D02*
X190500000Y-80772000D01*
D27*
X185674000Y-83312000D02*
X185674000Y-62992000D01*
X185674000Y-62992000D02*
X185674000Y-53086000D01*
D24*
X92202000Y-56134000D02*
X92202000Y-39878000D01*
X71882000Y-55568315D02*
X71882000Y-39878000D01*
X71882000Y-56134000D02*
X71882000Y-55568315D01*
D28*
G04 #@! TO.N,UI_CH_A_F*
X205740000Y-118872000D02*
X205740000Y-121158000D01*
D26*
X207010000Y-126960000D02*
X205740000Y-125690000D01*
X205740000Y-125690000D02*
X205740000Y-123698000D01*
X205740000Y-123698000D02*
X205740000Y-121158000D01*
D28*
G04 #@! TO.N,UI_CH_B_F*
X203200000Y-118872000D02*
X203200000Y-121158000D01*
D26*
X203200000Y-123952000D02*
X203200000Y-121158000D01*
X203200000Y-126706000D02*
X203200000Y-123698000D01*
D28*
G04 #@! TO.N,UI_BP_F*
X200660000Y-118872000D02*
X200660000Y-121158000D01*
D26*
X199390000Y-126706000D02*
X200660000Y-125436000D01*
X200660000Y-123698000D02*
X200660000Y-121158000D01*
X200660000Y-125436000D02*
X200660000Y-123698000D01*
G04 #@! TO.N,CH_A_F*
X220980000Y-118618000D02*
X220980000Y-121158000D01*
X220980000Y-123698000D02*
X220980000Y-121158000D01*
X220980000Y-125476000D02*
X220980000Y-123698000D01*
X218440000Y-128016000D02*
X220980000Y-125476000D01*
X218440000Y-133858000D02*
X218440000Y-128016000D01*
X215900000Y-136398000D02*
X218440000Y-133858000D01*
G04 #@! TO.N,CH_B_F*
X218440000Y-118618000D02*
X218440000Y-121158000D01*
X218440000Y-121158000D02*
X218440000Y-123698000D01*
X218440000Y-125476000D02*
X218440000Y-123698000D01*
X217678000Y-126238000D02*
X218440000Y-125476000D01*
X215900000Y-132080000D02*
X217678000Y-130302000D01*
X217678000Y-130302000D02*
X217678000Y-126238000D01*
G04 #@! TO.N,BP_F*
X215900000Y-118618000D02*
X215900000Y-121158000D01*
X215900000Y-123698000D02*
X215900000Y-121158000D01*
X215900000Y-123698000D02*
X215900000Y-127762000D01*
D25*
G04 #@! TO.N,Net-(D1-Pad2)*
X209956000Y-72466000D02*
X206756000Y-69266000D01*
X206756000Y-69266000D02*
X204684000Y-69266000D01*
X211876000Y-72466000D02*
X209956000Y-72466000D01*
D26*
G04 #@! TO.N,Net-(U100-Pad13)*
X220980000Y-103378000D02*
X220980000Y-105918000D01*
G04 #@! TO.N,NEOPIXEL_IN*
X216876000Y-67096000D02*
X216876000Y-69266000D01*
X221742000Y-62230000D02*
X216876000Y-67096000D01*
X221742000Y-57404000D02*
X221742000Y-62230000D01*
G04 #@! TO.N,NEOPIXEL_IN_3V3*
X218440000Y-103378000D02*
X218440000Y-105918000D01*
D25*
X217678000Y-97028000D02*
X218440000Y-97790000D01*
X217678000Y-76708000D02*
X217678000Y-97028000D01*
X218440000Y-75946000D02*
X217678000Y-76708000D01*
X218440000Y-97790000D02*
X218440000Y-98552000D01*
X218440000Y-75946000D02*
X218440000Y-67310000D01*
X218440000Y-67310000D02*
X223012000Y-62738000D01*
X223012000Y-62738000D02*
X223012000Y-61468000D01*
D26*
X223012000Y-61468000D02*
X223012000Y-57404000D01*
G04 #@! TO.N,NEOPIXEL_IN_5V*
X218186000Y-64008000D02*
X216408000Y-64008000D01*
X220472000Y-61722000D02*
X218186000Y-64008000D01*
X220472000Y-57404000D02*
X220472000Y-61722000D01*
G04 #@! TO.N,TEENSY_LED*
X223520000Y-121158000D02*
X223520000Y-123698000D01*
D25*
G04 #@! TO.N,Net-(LED1-Pad2)*
X219202000Y-128524000D02*
X219202000Y-137922000D01*
X219202000Y-137922000D02*
X215900000Y-141224000D01*
X222250000Y-125476000D02*
X219202000Y-128524000D01*
X222250000Y-119888000D02*
X222250000Y-125476000D01*
X223520000Y-113538000D02*
X223520000Y-118618000D01*
X223520000Y-118618000D02*
X222250000Y-119888000D01*
G04 #@! TO.N,TEENSY_LED*
X225044000Y-109982000D02*
X223520000Y-108458000D01*
X223520000Y-121158000D02*
X225044000Y-119634000D01*
X225044000Y-119634000D02*
X225044000Y-109982000D01*
G04 #@! TD*
M02*
