G04 Layer: TopSilkLayer*
G04 EasyEDA v6.4.20.6, 2021-08-02T11:14:11+02:00*
G04 e7c21c1e6ca5491a88c75d15d8fd51ee,3e5df01c9dd74657a85989452aaa4bc1,10*
G04 Gerber Generator version 0.2*
G04 Scale: 100 percent, Rotated: No, Reflected: No *
G04 Dimensions in millimeters *
G04 leading zeros omitted , absolute positions ,4 integer and 5 decimal *
%FSLAX45Y45*%
%MOMM*%

%ADD10C,0.2540*%
%ADD16C,0.1778*%

%LPD*%
D16*
X12510061Y-13151449D02*
G01*
X12510061Y-13229173D01*
X12515141Y-13244921D01*
X12525555Y-13255335D01*
X12541303Y-13260415D01*
X12551717Y-13260415D01*
X12567211Y-13255335D01*
X12577625Y-13244921D01*
X12582705Y-13229173D01*
X12582705Y-13151449D01*
X12643157Y-13151449D02*
G01*
X12627409Y-13156529D01*
X12622329Y-13166943D01*
X12622329Y-13177357D01*
X12627409Y-13187771D01*
X12637823Y-13192851D01*
X12658651Y-13198185D01*
X12674145Y-13203265D01*
X12684559Y-13213679D01*
X12689893Y-13224093D01*
X12689893Y-13239587D01*
X12684559Y-13250001D01*
X12679479Y-13255335D01*
X12663731Y-13260415D01*
X12643157Y-13260415D01*
X12627409Y-13255335D01*
X12622329Y-13250001D01*
X12616995Y-13239587D01*
X12616995Y-13224093D01*
X12622329Y-13213679D01*
X12632743Y-13203265D01*
X12648237Y-13198185D01*
X12669065Y-13192851D01*
X12679479Y-13187771D01*
X12684559Y-13177357D01*
X12684559Y-13166943D01*
X12679479Y-13156529D01*
X12663731Y-13151449D01*
X12643157Y-13151449D01*
X12509045Y-10831667D02*
G01*
X12509045Y-10909391D01*
X12514125Y-10925139D01*
X12524539Y-10935553D01*
X12540287Y-10940633D01*
X12550701Y-10940633D01*
X12566195Y-10935553D01*
X12576609Y-10925139D01*
X12581689Y-10909391D01*
X12581689Y-10831667D01*
X12683543Y-10867989D02*
G01*
X12678463Y-10883483D01*
X12668049Y-10893897D01*
X12652555Y-10898977D01*
X12647221Y-10898977D01*
X12631727Y-10893897D01*
X12621313Y-10883483D01*
X12615979Y-10867989D01*
X12615979Y-10862655D01*
X12621313Y-10847161D01*
X12631727Y-10836747D01*
X12647221Y-10831667D01*
X12652555Y-10831667D01*
X12668049Y-10836747D01*
X12678463Y-10847161D01*
X12683543Y-10867989D01*
X12683543Y-10893897D01*
X12678463Y-10919805D01*
X12668049Y-10935553D01*
X12652555Y-10940633D01*
X12642141Y-10940633D01*
X12626393Y-10935553D01*
X12621313Y-10925139D01*
X12489487Y-8480897D02*
G01*
X12489487Y-8558621D01*
X12494567Y-8574369D01*
X12504981Y-8584783D01*
X12520729Y-8589863D01*
X12531143Y-8589863D01*
X12546637Y-8584783D01*
X12557051Y-8574369D01*
X12562131Y-8558621D01*
X12562131Y-8480897D01*
X12596421Y-8501471D02*
G01*
X12606835Y-8496391D01*
X12622583Y-8480897D01*
X12622583Y-8589863D01*
X12687861Y-8480897D02*
G01*
X12672367Y-8485977D01*
X12661953Y-8501471D01*
X12656873Y-8527633D01*
X12656873Y-8543127D01*
X12661953Y-8569035D01*
X12672367Y-8584783D01*
X12687861Y-8589863D01*
X12698275Y-8589863D01*
X12714023Y-8584783D01*
X12724437Y-8569035D01*
X12729517Y-8543127D01*
X12729517Y-8527633D01*
X12724437Y-8501471D01*
X12714023Y-8485977D01*
X12698275Y-8480897D01*
X12687861Y-8480897D01*
X12467389Y-6160353D02*
G01*
X12467389Y-6238077D01*
X12472469Y-6253825D01*
X12482883Y-6264239D01*
X12498631Y-6269319D01*
X12509045Y-6269319D01*
X12524539Y-6264239D01*
X12534953Y-6253825D01*
X12540033Y-6238077D01*
X12540033Y-6160353D01*
X12574323Y-6180927D02*
G01*
X12584737Y-6175847D01*
X12600485Y-6160353D01*
X12600485Y-6269319D01*
X12634775Y-6180927D02*
G01*
X12645189Y-6175847D01*
X12660683Y-6160353D01*
X12660683Y-6269319D01*
X10509735Y-13149023D02*
G01*
X10509735Y-13226747D01*
X10514815Y-13242495D01*
X10525229Y-13252909D01*
X10540977Y-13257989D01*
X10551391Y-13257989D01*
X10566885Y-13252909D01*
X10577299Y-13242495D01*
X10582379Y-13226747D01*
X10582379Y-13149023D01*
X10616669Y-13169597D02*
G01*
X10627083Y-13164517D01*
X10642831Y-13149023D01*
X10642831Y-13257989D01*
X10508719Y-10829241D02*
G01*
X10508719Y-10906965D01*
X10513799Y-10922713D01*
X10524213Y-10933127D01*
X10539961Y-10938207D01*
X10550375Y-10938207D01*
X10565869Y-10933127D01*
X10576283Y-10922713D01*
X10581363Y-10906965D01*
X10581363Y-10829241D01*
X10620987Y-10855149D02*
G01*
X10620987Y-10849815D01*
X10626067Y-10839401D01*
X10631401Y-10834321D01*
X10641815Y-10829241D01*
X10662389Y-10829241D01*
X10672803Y-10834321D01*
X10678137Y-10839401D01*
X10683217Y-10849815D01*
X10683217Y-10860229D01*
X10678137Y-10870643D01*
X10667723Y-10886391D01*
X10615653Y-10938207D01*
X10688551Y-10938207D01*
X10489161Y-8478471D02*
G01*
X10489161Y-8556195D01*
X10494241Y-8571943D01*
X10504655Y-8582357D01*
X10520403Y-8587437D01*
X10530817Y-8587437D01*
X10546311Y-8582357D01*
X10556725Y-8571943D01*
X10561805Y-8556195D01*
X10561805Y-8478471D01*
X10606509Y-8478471D02*
G01*
X10663659Y-8478471D01*
X10632671Y-8519873D01*
X10648165Y-8519873D01*
X10658579Y-8525207D01*
X10663659Y-8530287D01*
X10668993Y-8545781D01*
X10668993Y-8556195D01*
X10663659Y-8571943D01*
X10653245Y-8582357D01*
X10637751Y-8587437D01*
X10622257Y-8587437D01*
X10606509Y-8582357D01*
X10601429Y-8577023D01*
X10596095Y-8566609D01*
X10467063Y-6157927D02*
G01*
X10467063Y-6235651D01*
X10472143Y-6251399D01*
X10482557Y-6261813D01*
X10498305Y-6266893D01*
X10508719Y-6266893D01*
X10524213Y-6261813D01*
X10534627Y-6251399D01*
X10539707Y-6235651D01*
X10539707Y-6157927D01*
X10626067Y-6157927D02*
G01*
X10573997Y-6230571D01*
X10651975Y-6230571D01*
X10626067Y-6157927D02*
G01*
X10626067Y-6266893D01*
X16507731Y-13149041D02*
G01*
X16507731Y-13226765D01*
X16512811Y-13242513D01*
X16523225Y-13252927D01*
X16538973Y-13258007D01*
X16549387Y-13258007D01*
X16564881Y-13252927D01*
X16575295Y-13242513D01*
X16580375Y-13226765D01*
X16580375Y-13149041D01*
X16614665Y-13169615D02*
G01*
X16625079Y-13164535D01*
X16640827Y-13149041D01*
X16640827Y-13258007D01*
X16737347Y-13149041D02*
G01*
X16685531Y-13149041D01*
X16680197Y-13195777D01*
X16685531Y-13190443D01*
X16701025Y-13185363D01*
X16716519Y-13185363D01*
X16732267Y-13190443D01*
X16742681Y-13200857D01*
X16747761Y-13216351D01*
X16747761Y-13226765D01*
X16742681Y-13242513D01*
X16732267Y-13252927D01*
X16716519Y-13258007D01*
X16701025Y-13258007D01*
X16685531Y-13252927D01*
X16680197Y-13247593D01*
X16675117Y-13237179D01*
X16506715Y-10829259D02*
G01*
X16506715Y-10906983D01*
X16511795Y-10922731D01*
X16522209Y-10933145D01*
X16537957Y-10938225D01*
X16548371Y-10938225D01*
X16563865Y-10933145D01*
X16574279Y-10922731D01*
X16579359Y-10906983D01*
X16579359Y-10829259D01*
X16613649Y-10849833D02*
G01*
X16624063Y-10844753D01*
X16639811Y-10829259D01*
X16639811Y-10938225D01*
X16736331Y-10844753D02*
G01*
X16731251Y-10834339D01*
X16715503Y-10829259D01*
X16705089Y-10829259D01*
X16689595Y-10834339D01*
X16679181Y-10849833D01*
X16674101Y-10875995D01*
X16674101Y-10901903D01*
X16679181Y-10922731D01*
X16689595Y-10933145D01*
X16705089Y-10938225D01*
X16710423Y-10938225D01*
X16725917Y-10933145D01*
X16736331Y-10922731D01*
X16741665Y-10906983D01*
X16741665Y-10901903D01*
X16736331Y-10886409D01*
X16725917Y-10875995D01*
X16710423Y-10870661D01*
X16705089Y-10870661D01*
X16689595Y-10875995D01*
X16679181Y-10886409D01*
X16674101Y-10901903D01*
X16487157Y-8478489D02*
G01*
X16487157Y-8556213D01*
X16492237Y-8571961D01*
X16502651Y-8582375D01*
X16518399Y-8587455D01*
X16528813Y-8587455D01*
X16544307Y-8582375D01*
X16554721Y-8571961D01*
X16559801Y-8556213D01*
X16559801Y-8478489D01*
X16594091Y-8499063D02*
G01*
X16604505Y-8493983D01*
X16620253Y-8478489D01*
X16620253Y-8587455D01*
X16727187Y-8478489D02*
G01*
X16675117Y-8587455D01*
X16654543Y-8478489D02*
G01*
X16727187Y-8478489D01*
X16465059Y-6157945D02*
G01*
X16465059Y-6235669D01*
X16470139Y-6251417D01*
X16480553Y-6261831D01*
X16496301Y-6266911D01*
X16506715Y-6266911D01*
X16522209Y-6261831D01*
X16532623Y-6251417D01*
X16537703Y-6235669D01*
X16537703Y-6157945D01*
X16571993Y-6178519D02*
G01*
X16582407Y-6173439D01*
X16598155Y-6157945D01*
X16598155Y-6266911D01*
X16658353Y-6157945D02*
G01*
X16642859Y-6163025D01*
X16637525Y-6173439D01*
X16637525Y-6183853D01*
X16642859Y-6194267D01*
X16653019Y-6199347D01*
X16673847Y-6204681D01*
X16689595Y-6209761D01*
X16700009Y-6220175D01*
X16705089Y-6230589D01*
X16705089Y-6246083D01*
X16700009Y-6256497D01*
X16694675Y-6261831D01*
X16679181Y-6266911D01*
X16658353Y-6266911D01*
X16642859Y-6261831D01*
X16637525Y-6256497D01*
X16632445Y-6246083D01*
X16632445Y-6230589D01*
X16637525Y-6220175D01*
X16647939Y-6209761D01*
X16663433Y-6204681D01*
X16684261Y-6199347D01*
X16694675Y-6194267D01*
X16700009Y-6183853D01*
X16700009Y-6173439D01*
X16694675Y-6163025D01*
X16679181Y-6157945D01*
X16658353Y-6157945D01*
X14507735Y-13149041D02*
G01*
X14507735Y-13226765D01*
X14512815Y-13242513D01*
X14523229Y-13252927D01*
X14538977Y-13258007D01*
X14549391Y-13258007D01*
X14564885Y-13252927D01*
X14575299Y-13242513D01*
X14580379Y-13226765D01*
X14580379Y-13149041D01*
X14620003Y-13174949D02*
G01*
X14620003Y-13169615D01*
X14625083Y-13159201D01*
X14630417Y-13154121D01*
X14640831Y-13149041D01*
X14661405Y-13149041D01*
X14671819Y-13154121D01*
X14677153Y-13159201D01*
X14682233Y-13169615D01*
X14682233Y-13180029D01*
X14677153Y-13190443D01*
X14666739Y-13206191D01*
X14614669Y-13258007D01*
X14687567Y-13258007D01*
X14726937Y-13174949D02*
G01*
X14726937Y-13169615D01*
X14732271Y-13159201D01*
X14737351Y-13154121D01*
X14747765Y-13149041D01*
X14768593Y-13149041D01*
X14779007Y-13154121D01*
X14784087Y-13159201D01*
X14789421Y-13169615D01*
X14789421Y-13180029D01*
X14784087Y-13190443D01*
X14773673Y-13206191D01*
X14721857Y-13258007D01*
X14794501Y-13258007D01*
X14506719Y-10829259D02*
G01*
X14506719Y-10906983D01*
X14511799Y-10922731D01*
X14522213Y-10933145D01*
X14537961Y-10938225D01*
X14548375Y-10938225D01*
X14563869Y-10933145D01*
X14574283Y-10922731D01*
X14579363Y-10906983D01*
X14579363Y-10829259D01*
X14618987Y-10855167D02*
G01*
X14618987Y-10849833D01*
X14624067Y-10839419D01*
X14629401Y-10834339D01*
X14639815Y-10829259D01*
X14660389Y-10829259D01*
X14670803Y-10834339D01*
X14676137Y-10839419D01*
X14681217Y-10849833D01*
X14681217Y-10860247D01*
X14676137Y-10870661D01*
X14665723Y-10886409D01*
X14613653Y-10938225D01*
X14686551Y-10938225D01*
X14731255Y-10829259D02*
G01*
X14788405Y-10829259D01*
X14757163Y-10870661D01*
X14772657Y-10870661D01*
X14783071Y-10875995D01*
X14788405Y-10881075D01*
X14793485Y-10896569D01*
X14793485Y-10906983D01*
X14788405Y-10922731D01*
X14777991Y-10933145D01*
X14762243Y-10938225D01*
X14746749Y-10938225D01*
X14731255Y-10933145D01*
X14725921Y-10927811D01*
X14720841Y-10917397D01*
X14487161Y-8478489D02*
G01*
X14487161Y-8556213D01*
X14492241Y-8571961D01*
X14502655Y-8582375D01*
X14518403Y-8587455D01*
X14528817Y-8587455D01*
X14544311Y-8582375D01*
X14554725Y-8571961D01*
X14559805Y-8556213D01*
X14559805Y-8478489D01*
X14599429Y-8504397D02*
G01*
X14599429Y-8499063D01*
X14604509Y-8488649D01*
X14609843Y-8483569D01*
X14620257Y-8478489D01*
X14640831Y-8478489D01*
X14651245Y-8483569D01*
X14656579Y-8488649D01*
X14661659Y-8499063D01*
X14661659Y-8509477D01*
X14656579Y-8519891D01*
X14646165Y-8535639D01*
X14594095Y-8587455D01*
X14666993Y-8587455D01*
X14753099Y-8478489D02*
G01*
X14701283Y-8551133D01*
X14779261Y-8551133D01*
X14753099Y-8478489D02*
G01*
X14753099Y-8587455D01*
X14465063Y-6157945D02*
G01*
X14465063Y-6235669D01*
X14470143Y-6251417D01*
X14480557Y-6261831D01*
X14496305Y-6266911D01*
X14506719Y-6266911D01*
X14522213Y-6261831D01*
X14532627Y-6251417D01*
X14537707Y-6235669D01*
X14537707Y-6157945D01*
X14577331Y-6183853D02*
G01*
X14577331Y-6178519D01*
X14582411Y-6168105D01*
X14587745Y-6163025D01*
X14598159Y-6157945D01*
X14618733Y-6157945D01*
X14629147Y-6163025D01*
X14634481Y-6168105D01*
X14639561Y-6178519D01*
X14639561Y-6188933D01*
X14634481Y-6199347D01*
X14624067Y-6215095D01*
X14571997Y-6266911D01*
X14644895Y-6266911D01*
X14741415Y-6157945D02*
G01*
X14689599Y-6157945D01*
X14684265Y-6204681D01*
X14689599Y-6199347D01*
X14705093Y-6194267D01*
X14720587Y-6194267D01*
X14736335Y-6199347D01*
X14746749Y-6209761D01*
X14751829Y-6225255D01*
X14751829Y-6235669D01*
X14746749Y-6251417D01*
X14736335Y-6261831D01*
X14720587Y-6266911D01*
X14705093Y-6266911D01*
X14689599Y-6261831D01*
X14684265Y-6256497D01*
X14679185Y-6246083D01*
X18509584Y-13150659D02*
G01*
X18509584Y-13228383D01*
X18514664Y-13244131D01*
X18525078Y-13254545D01*
X18540826Y-13259625D01*
X18551240Y-13259625D01*
X18566734Y-13254545D01*
X18577148Y-13244131D01*
X18582228Y-13228383D01*
X18582228Y-13150659D01*
X18621852Y-13176567D02*
G01*
X18621852Y-13171233D01*
X18626932Y-13160819D01*
X18632266Y-13155739D01*
X18642680Y-13150659D01*
X18663254Y-13150659D01*
X18673668Y-13155739D01*
X18679002Y-13160819D01*
X18684082Y-13171233D01*
X18684082Y-13181647D01*
X18679002Y-13192061D01*
X18668588Y-13207809D01*
X18616518Y-13259625D01*
X18689416Y-13259625D01*
X18791270Y-13186981D02*
G01*
X18785936Y-13202475D01*
X18775522Y-13212889D01*
X18760028Y-13217969D01*
X18754694Y-13217969D01*
X18739200Y-13212889D01*
X18728786Y-13202475D01*
X18723706Y-13186981D01*
X18723706Y-13181647D01*
X18728786Y-13166153D01*
X18739200Y-13155739D01*
X18754694Y-13150659D01*
X18760028Y-13150659D01*
X18775522Y-13155739D01*
X18785936Y-13166153D01*
X18791270Y-13186981D01*
X18791270Y-13212889D01*
X18785936Y-13238797D01*
X18775522Y-13254545D01*
X18760028Y-13259625D01*
X18749614Y-13259625D01*
X18734120Y-13254545D01*
X18728786Y-13244131D01*
X18508568Y-10830877D02*
G01*
X18508568Y-10908601D01*
X18513648Y-10924349D01*
X18524062Y-10934763D01*
X18539810Y-10939843D01*
X18550224Y-10939843D01*
X18565718Y-10934763D01*
X18576132Y-10924349D01*
X18581212Y-10908601D01*
X18581212Y-10830877D01*
X18625916Y-10830877D02*
G01*
X18683066Y-10830877D01*
X18652078Y-10872279D01*
X18667572Y-10872279D01*
X18677986Y-10877613D01*
X18683066Y-10882693D01*
X18688400Y-10898187D01*
X18688400Y-10908601D01*
X18683066Y-10924349D01*
X18672652Y-10934763D01*
X18657158Y-10939843D01*
X18641664Y-10939843D01*
X18625916Y-10934763D01*
X18620836Y-10929429D01*
X18615502Y-10919015D01*
X18753678Y-10830877D02*
G01*
X18738184Y-10835957D01*
X18727770Y-10851451D01*
X18722690Y-10877613D01*
X18722690Y-10893107D01*
X18727770Y-10919015D01*
X18738184Y-10934763D01*
X18753678Y-10939843D01*
X18764092Y-10939843D01*
X18779840Y-10934763D01*
X18790254Y-10919015D01*
X18795334Y-10893107D01*
X18795334Y-10877613D01*
X18790254Y-10851451D01*
X18779840Y-10835957D01*
X18764092Y-10830877D01*
X18753678Y-10830877D01*
X18489010Y-8480107D02*
G01*
X18489010Y-8557831D01*
X18494090Y-8573579D01*
X18504504Y-8583993D01*
X18520252Y-8589073D01*
X18530666Y-8589073D01*
X18546160Y-8583993D01*
X18556574Y-8573579D01*
X18561654Y-8557831D01*
X18561654Y-8480107D01*
X18606358Y-8480107D02*
G01*
X18663508Y-8480107D01*
X18632520Y-8521509D01*
X18648014Y-8521509D01*
X18658428Y-8526843D01*
X18663508Y-8531923D01*
X18668842Y-8547417D01*
X18668842Y-8557831D01*
X18663508Y-8573579D01*
X18653094Y-8583993D01*
X18637600Y-8589073D01*
X18622106Y-8589073D01*
X18606358Y-8583993D01*
X18601278Y-8578659D01*
X18595944Y-8568245D01*
X18703132Y-8500681D02*
G01*
X18713546Y-8495601D01*
X18729040Y-8480107D01*
X18729040Y-8589073D01*
X18466912Y-6159563D02*
G01*
X18466912Y-6237287D01*
X18471992Y-6253035D01*
X18482406Y-6263449D01*
X18498154Y-6268529D01*
X18508568Y-6268529D01*
X18524062Y-6263449D01*
X18534476Y-6253035D01*
X18539556Y-6237287D01*
X18539556Y-6159563D01*
X18584260Y-6159563D02*
G01*
X18641410Y-6159563D01*
X18610422Y-6200965D01*
X18625916Y-6200965D01*
X18636330Y-6206299D01*
X18641410Y-6211379D01*
X18646744Y-6226873D01*
X18646744Y-6237287D01*
X18641410Y-6253035D01*
X18630996Y-6263449D01*
X18615502Y-6268529D01*
X18600008Y-6268529D01*
X18584260Y-6263449D01*
X18579180Y-6258115D01*
X18573846Y-6247701D01*
X18686114Y-6185471D02*
G01*
X18686114Y-6180137D01*
X18691448Y-6169723D01*
X18696528Y-6164643D01*
X18706942Y-6159563D01*
X18727770Y-6159563D01*
X18738184Y-6164643D01*
X18743264Y-6169723D01*
X18748598Y-6180137D01*
X18748598Y-6190551D01*
X18743264Y-6200965D01*
X18732850Y-6216713D01*
X18681034Y-6268529D01*
X18753678Y-6268529D01*
X23508583Y-13150329D02*
G01*
X23508583Y-13228053D01*
X23513663Y-13243801D01*
X23524077Y-13254215D01*
X23539825Y-13259295D01*
X23550239Y-13259295D01*
X23565733Y-13254215D01*
X23576147Y-13243801D01*
X23581227Y-13228053D01*
X23581227Y-13150329D01*
X23625931Y-13150329D02*
G01*
X23683081Y-13150329D01*
X23652093Y-13191731D01*
X23667587Y-13191731D01*
X23678001Y-13197065D01*
X23683081Y-13202145D01*
X23688415Y-13217639D01*
X23688415Y-13228053D01*
X23683081Y-13243801D01*
X23672667Y-13254215D01*
X23657173Y-13259295D01*
X23641679Y-13259295D01*
X23625931Y-13254215D01*
X23620851Y-13248881D01*
X23615517Y-13238467D01*
X23784935Y-13165823D02*
G01*
X23779855Y-13155409D01*
X23764107Y-13150329D01*
X23753693Y-13150329D01*
X23738199Y-13155409D01*
X23727785Y-13170903D01*
X23722705Y-13197065D01*
X23722705Y-13222973D01*
X23727785Y-13243801D01*
X23738199Y-13254215D01*
X23753693Y-13259295D01*
X23759027Y-13259295D01*
X23774521Y-13254215D01*
X23784935Y-13243801D01*
X23790269Y-13228053D01*
X23790269Y-13222973D01*
X23784935Y-13207479D01*
X23774521Y-13197065D01*
X23759027Y-13191731D01*
X23753693Y-13191731D01*
X23738199Y-13197065D01*
X23727785Y-13207479D01*
X23722705Y-13222973D01*
X23507567Y-10830547D02*
G01*
X23507567Y-10908271D01*
X23512647Y-10924019D01*
X23523061Y-10934433D01*
X23538809Y-10939513D01*
X23549223Y-10939513D01*
X23564717Y-10934433D01*
X23575131Y-10924019D01*
X23580211Y-10908271D01*
X23580211Y-10830547D01*
X23624915Y-10830547D02*
G01*
X23682065Y-10830547D01*
X23651077Y-10871949D01*
X23666571Y-10871949D01*
X23676985Y-10877283D01*
X23682065Y-10882363D01*
X23687399Y-10897857D01*
X23687399Y-10908271D01*
X23682065Y-10924019D01*
X23671651Y-10934433D01*
X23656157Y-10939513D01*
X23640663Y-10939513D01*
X23624915Y-10934433D01*
X23619835Y-10929099D01*
X23614501Y-10918685D01*
X23794333Y-10830547D02*
G01*
X23742517Y-10939513D01*
X23721689Y-10830547D02*
G01*
X23794333Y-10830547D01*
X23488009Y-8479777D02*
G01*
X23488009Y-8557501D01*
X23493089Y-8573249D01*
X23503503Y-8583663D01*
X23519251Y-8588743D01*
X23529665Y-8588743D01*
X23545159Y-8583663D01*
X23555573Y-8573249D01*
X23560653Y-8557501D01*
X23560653Y-8479777D01*
X23605357Y-8479777D02*
G01*
X23662507Y-8479777D01*
X23631519Y-8521179D01*
X23647013Y-8521179D01*
X23657427Y-8526513D01*
X23662507Y-8531593D01*
X23667841Y-8547087D01*
X23667841Y-8557501D01*
X23662507Y-8573249D01*
X23652093Y-8583663D01*
X23636599Y-8588743D01*
X23621105Y-8588743D01*
X23605357Y-8583663D01*
X23600277Y-8578329D01*
X23594943Y-8567915D01*
X23728039Y-8479777D02*
G01*
X23712545Y-8484857D01*
X23707211Y-8495271D01*
X23707211Y-8505685D01*
X23712545Y-8516099D01*
X23722959Y-8521179D01*
X23743533Y-8526513D01*
X23759281Y-8531593D01*
X23769695Y-8542007D01*
X23774775Y-8552421D01*
X23774775Y-8567915D01*
X23769695Y-8578329D01*
X23764361Y-8583663D01*
X23748867Y-8588743D01*
X23728039Y-8588743D01*
X23712545Y-8583663D01*
X23707211Y-8578329D01*
X23702131Y-8567915D01*
X23702131Y-8552421D01*
X23707211Y-8542007D01*
X23717625Y-8531593D01*
X23733119Y-8526513D01*
X23753947Y-8521179D01*
X23764361Y-8516099D01*
X23769695Y-8505685D01*
X23769695Y-8495271D01*
X23764361Y-8484857D01*
X23748867Y-8479777D01*
X23728039Y-8479777D01*
X23465911Y-6159233D02*
G01*
X23465911Y-6236957D01*
X23470991Y-6252705D01*
X23481405Y-6263119D01*
X23497153Y-6268199D01*
X23507567Y-6268199D01*
X23523061Y-6263119D01*
X23533475Y-6252705D01*
X23538555Y-6236957D01*
X23538555Y-6159233D01*
X23583259Y-6159233D02*
G01*
X23640409Y-6159233D01*
X23609421Y-6200635D01*
X23624915Y-6200635D01*
X23635329Y-6205969D01*
X23640409Y-6211049D01*
X23645743Y-6226543D01*
X23645743Y-6236957D01*
X23640409Y-6252705D01*
X23629995Y-6263119D01*
X23614501Y-6268199D01*
X23599007Y-6268199D01*
X23583259Y-6263119D01*
X23578179Y-6257785D01*
X23572845Y-6247371D01*
X23747597Y-6195555D02*
G01*
X23742263Y-6211049D01*
X23731849Y-6221463D01*
X23716355Y-6226543D01*
X23711021Y-6226543D01*
X23695527Y-6221463D01*
X23685113Y-6211049D01*
X23680033Y-6195555D01*
X23680033Y-6190221D01*
X23685113Y-6174727D01*
X23695527Y-6164313D01*
X23711021Y-6159233D01*
X23716355Y-6159233D01*
X23731849Y-6164313D01*
X23742263Y-6174727D01*
X23747597Y-6195555D01*
X23747597Y-6221463D01*
X23742263Y-6247371D01*
X23731849Y-6263119D01*
X23716355Y-6268199D01*
X23705941Y-6268199D01*
X23690447Y-6263119D01*
X23685113Y-6252705D01*
X20509580Y-13150659D02*
G01*
X20509580Y-13228383D01*
X20514660Y-13244131D01*
X20525074Y-13254545D01*
X20540822Y-13259625D01*
X20551236Y-13259625D01*
X20566730Y-13254545D01*
X20577144Y-13244131D01*
X20582224Y-13228383D01*
X20582224Y-13150659D01*
X20668584Y-13150659D02*
G01*
X20616514Y-13223303D01*
X20694492Y-13223303D01*
X20668584Y-13150659D02*
G01*
X20668584Y-13259625D01*
X20739196Y-13150659D02*
G01*
X20796346Y-13150659D01*
X20765104Y-13192061D01*
X20780852Y-13192061D01*
X20791266Y-13197395D01*
X20796346Y-13202475D01*
X20801680Y-13217969D01*
X20801680Y-13228383D01*
X20796346Y-13244131D01*
X20785932Y-13254545D01*
X20770438Y-13259625D01*
X20754690Y-13259625D01*
X20739196Y-13254545D01*
X20734116Y-13249211D01*
X20728782Y-13238797D01*
X20508564Y-10830877D02*
G01*
X20508564Y-10908601D01*
X20513644Y-10924349D01*
X20524058Y-10934763D01*
X20539806Y-10939843D01*
X20550220Y-10939843D01*
X20565714Y-10934763D01*
X20576128Y-10924349D01*
X20581208Y-10908601D01*
X20581208Y-10830877D01*
X20667568Y-10830877D02*
G01*
X20615498Y-10903521D01*
X20693476Y-10903521D01*
X20667568Y-10830877D02*
G01*
X20667568Y-10939843D01*
X20779836Y-10830877D02*
G01*
X20727766Y-10903521D01*
X20805744Y-10903521D01*
X20779836Y-10830877D02*
G01*
X20779836Y-10939843D01*
X20489006Y-8480107D02*
G01*
X20489006Y-8557831D01*
X20494086Y-8573579D01*
X20504500Y-8583993D01*
X20520248Y-8589073D01*
X20530662Y-8589073D01*
X20546156Y-8583993D01*
X20556570Y-8573579D01*
X20561650Y-8557831D01*
X20561650Y-8480107D01*
X20648010Y-8480107D02*
G01*
X20595940Y-8552751D01*
X20673918Y-8552751D01*
X20648010Y-8480107D02*
G01*
X20648010Y-8589073D01*
X20770692Y-8480107D02*
G01*
X20718622Y-8480107D01*
X20713542Y-8526843D01*
X20718622Y-8521509D01*
X20734116Y-8516429D01*
X20749864Y-8516429D01*
X20765358Y-8521509D01*
X20775772Y-8531923D01*
X20781106Y-8547417D01*
X20781106Y-8557831D01*
X20775772Y-8573579D01*
X20765358Y-8583993D01*
X20749864Y-8589073D01*
X20734116Y-8589073D01*
X20718622Y-8583993D01*
X20713542Y-8578659D01*
X20708208Y-8568245D01*
X20466908Y-6159563D02*
G01*
X20466908Y-6237287D01*
X20471988Y-6253035D01*
X20482402Y-6263449D01*
X20498150Y-6268529D01*
X20508564Y-6268529D01*
X20524058Y-6263449D01*
X20534472Y-6253035D01*
X20539552Y-6237287D01*
X20539552Y-6159563D01*
X20625912Y-6159563D02*
G01*
X20573842Y-6232207D01*
X20651820Y-6232207D01*
X20625912Y-6159563D02*
G01*
X20625912Y-6268529D01*
X20748594Y-6175057D02*
G01*
X20743260Y-6164643D01*
X20727766Y-6159563D01*
X20717352Y-6159563D01*
X20701858Y-6164643D01*
X20691444Y-6180137D01*
X20686110Y-6206299D01*
X20686110Y-6232207D01*
X20691444Y-6253035D01*
X20701858Y-6263449D01*
X20717352Y-6268529D01*
X20722432Y-6268529D01*
X20738180Y-6263449D01*
X20748594Y-6253035D01*
X20753674Y-6237287D01*
X20753674Y-6232207D01*
X20748594Y-6216713D01*
X20738180Y-6206299D01*
X20722432Y-6200965D01*
X20717352Y-6200965D01*
X20701858Y-6206299D01*
X20691444Y-6216713D01*
X20686110Y-6232207D01*
D10*
X11569191Y-14382267D02*
G01*
X12808711Y-14382267D01*
X12808711Y-13061467D01*
X11569191Y-13061467D01*
X11569191Y-14382267D01*
X11929872Y-13572007D02*
G01*
X12448031Y-13572007D01*
X11569191Y-12052274D02*
G01*
X12808711Y-12052274D01*
X12808711Y-10731474D01*
X11569191Y-10731474D01*
X11569191Y-12052274D01*
X11929872Y-11242014D02*
G01*
X12448031Y-11242014D01*
X11569191Y-9712274D02*
G01*
X12808711Y-9712274D01*
X12808711Y-8391474D01*
X11569191Y-8391474D01*
X11569191Y-9712274D01*
X11929872Y-8902014D02*
G01*
X12448031Y-8902014D01*
X11569191Y-7392288D02*
G01*
X12808711Y-7392288D01*
X12808711Y-6071488D01*
X11569191Y-6071488D01*
X11569191Y-7392288D01*
X11929872Y-6582029D02*
G01*
X12448031Y-6582029D01*
X9568916Y-14380946D02*
G01*
X10808436Y-14380946D01*
X10808436Y-13060146D01*
X9568916Y-13060146D01*
X9568916Y-14380946D01*
X9929596Y-13570686D02*
G01*
X10447756Y-13570686D01*
X9568916Y-12050953D02*
G01*
X10808436Y-12050953D01*
X10808436Y-10730153D01*
X9568916Y-10730153D01*
X9568916Y-12050953D01*
X9929596Y-11240693D02*
G01*
X10447756Y-11240693D01*
X9568916Y-9710953D02*
G01*
X10808436Y-9710953D01*
X10808436Y-8390153D01*
X9568916Y-8390153D01*
X9568916Y-9710953D01*
X9929596Y-8900693D02*
G01*
X10447756Y-8900693D01*
X9568916Y-7390968D02*
G01*
X10808436Y-7390968D01*
X10808436Y-6070168D01*
X9568916Y-6070168D01*
X9568916Y-7390968D01*
X9929596Y-6580708D02*
G01*
X10447756Y-6580708D01*
X15566923Y-14380946D02*
G01*
X16806443Y-14380946D01*
X16806443Y-13060146D01*
X15566923Y-13060146D01*
X15566923Y-14380946D01*
X15927603Y-13570686D02*
G01*
X16445763Y-13570686D01*
X15566923Y-12050979D02*
G01*
X16806443Y-12050979D01*
X16806443Y-10730179D01*
X15566923Y-10730179D01*
X15566923Y-12050979D01*
X15927603Y-11240693D02*
G01*
X16445763Y-11240693D01*
X15566923Y-9710953D02*
G01*
X16806443Y-9710953D01*
X16806443Y-8390153D01*
X15566923Y-8390153D01*
X15566923Y-9710953D01*
X15927603Y-8900693D02*
G01*
X16445763Y-8900693D01*
X15566923Y-7390968D02*
G01*
X16806443Y-7390968D01*
X16806443Y-6070168D01*
X15566923Y-6070168D01*
X15566923Y-7390968D01*
X15927603Y-6580708D02*
G01*
X16445763Y-6580708D01*
X13566647Y-14379625D02*
G01*
X14806168Y-14379625D01*
X14806168Y-13058825D01*
X13566647Y-13058825D01*
X13566647Y-14379625D01*
X13927327Y-13569391D02*
G01*
X14445488Y-13569391D01*
X13566647Y-12049658D02*
G01*
X14806168Y-12049658D01*
X14806168Y-10728858D01*
X13566647Y-10728858D01*
X13566647Y-12049658D01*
X13927327Y-11239398D02*
G01*
X14445488Y-11239398D01*
X13566647Y-9709658D02*
G01*
X14806168Y-9709658D01*
X14806168Y-8388858D01*
X13566647Y-8388858D01*
X13566647Y-9709658D01*
X13927327Y-8899372D02*
G01*
X14445488Y-8899372D01*
X13566647Y-7389647D02*
G01*
X14806168Y-7389647D01*
X14806168Y-6068847D01*
X13566647Y-6068847D01*
X13566647Y-7389647D01*
X13927327Y-6579387D02*
G01*
X14445488Y-6579387D01*
X17568773Y-14382572D02*
G01*
X18808293Y-14382572D01*
X18808293Y-13061772D01*
X17568773Y-13061772D01*
X17568773Y-14382572D01*
X17929453Y-13572312D02*
G01*
X18447613Y-13572312D01*
X17568773Y-12052579D02*
G01*
X18808293Y-12052579D01*
X18808293Y-10731779D01*
X17568773Y-10731779D01*
X17568773Y-12052579D01*
X17929453Y-11242319D02*
G01*
X18447613Y-11242319D01*
X17568773Y-9712579D02*
G01*
X18808293Y-9712579D01*
X18808293Y-8391779D01*
X17568773Y-8391779D01*
X17568773Y-9712579D01*
X17929453Y-8902319D02*
G01*
X18447613Y-8902319D01*
X17568773Y-7392593D02*
G01*
X18808293Y-7392593D01*
X18808293Y-6071793D01*
X17568773Y-6071793D01*
X17568773Y-7392593D01*
X17929453Y-6582333D02*
G01*
X18447613Y-6582333D01*
X22565512Y-14380946D02*
G01*
X23805032Y-14380946D01*
X23805032Y-13060146D01*
X22565512Y-13060146D01*
X22565512Y-14380946D01*
X22926166Y-13570686D02*
G01*
X23444327Y-13570686D01*
X22565512Y-12050953D02*
G01*
X23805032Y-12050953D01*
X23805032Y-10730153D01*
X22565512Y-10730153D01*
X22565512Y-12050953D01*
X22926166Y-11240693D02*
G01*
X23444327Y-11240693D01*
X22565512Y-9710953D02*
G01*
X23805032Y-9710953D01*
X23805032Y-8390153D01*
X22565512Y-8390153D01*
X22565512Y-9710953D01*
X22926166Y-8900693D02*
G01*
X23444327Y-8900693D01*
X22565512Y-7390968D02*
G01*
X23805032Y-7390968D01*
X23805032Y-6070168D01*
X22565512Y-6070168D01*
X22565512Y-7390968D01*
X22926166Y-6580708D02*
G01*
X23444327Y-6580708D01*
X19566229Y-14379955D02*
G01*
X20805749Y-14379955D01*
X20805749Y-13059155D01*
X19566229Y-13059155D01*
X19566229Y-14379955D01*
X19926909Y-13569695D02*
G01*
X20445069Y-13569695D01*
X19566229Y-12049963D02*
G01*
X20805749Y-12049963D01*
X20805749Y-10729163D01*
X19566229Y-10729163D01*
X19566229Y-12049963D01*
X19926909Y-11239703D02*
G01*
X20445069Y-11239703D01*
X19566229Y-9709962D02*
G01*
X20805749Y-9709962D01*
X20805749Y-8389162D01*
X19566229Y-8389162D01*
X19566229Y-9709962D01*
X19926909Y-8899702D02*
G01*
X20445069Y-8899702D01*
X19566229Y-7389977D02*
G01*
X20805749Y-7389977D01*
X20805749Y-6069177D01*
X19566229Y-6069177D01*
X19566229Y-7389977D01*
X19926909Y-6579717D02*
G01*
X20445069Y-6579717D01*
G75*
G01
X12488672Y-13721842D02*
G03X12488672Y-13721842I-299720J0D01*
G75*
G01
X12488672Y-11391900D02*
G03X12488672Y-11391900I-299720J0D01*
G75*
G01
X12488672Y-9051798D02*
G03X12488672Y-9051798I-299720J0D01*
G75*
G01
X12488672Y-6731762D02*
G03X12488672Y-6731762I-299720J0D01*
G75*
G01
X10488422Y-13720572D02*
G03X10488422Y-13720572I-299720J0D01*
G75*
G01
X10488422Y-11390630D02*
G03X10488422Y-11390630I-299720J0D01*
G75*
G01
X10488422Y-9050528D02*
G03X10488422Y-9050528I-299720J0D01*
G75*
G01
X10488422Y-6730492D02*
G03X10488422Y-6730492I-299720J0D01*
G75*
G01
X16486378Y-13720572D02*
G03X16486378Y-13720572I-299720J0D01*
G75*
G01
X16486378Y-11390630D02*
G03X16486378Y-11390630I-299720J0D01*
G75*
G01
X16486378Y-9050528D02*
G03X16486378Y-9050528I-299720J0D01*
G75*
G01
X16486378Y-6730492D02*
G03X16486378Y-6730492I-299720J0D01*
G75*
G01
X14486128Y-13719302D02*
G03X14486128Y-13719302I-299720J0D01*
G75*
G01
X14486128Y-11389360D02*
G03X14486128Y-11389360I-299720J0D01*
G75*
G01
X14486128Y-9049258D02*
G03X14486128Y-9049258I-299720J0D01*
G75*
G01
X14486128Y-6729222D02*
G03X14486128Y-6729222I-299720J0D01*
G75*
G01
X18488406Y-13722350D02*
G03X18488406Y-13722350I-299720J0D01*
G75*
G01
X18488406Y-11392408D02*
G03X18488406Y-11392408I-299720J0D01*
G75*
G01
X18488406Y-9052306D02*
G03X18488406Y-9052306I-299720J0D01*
G75*
G01
X18488406Y-6732270D02*
G03X18488406Y-6732270I-299720J0D01*
G75*
G01
X23485094Y-13720572D02*
G03X23485094Y-13720572I-299720J0D01*
G75*
G01
X23485094Y-11390630D02*
G03X23485094Y-11390630I-299720J0D01*
G75*
G01
X23485094Y-9050528D02*
G03X23485094Y-9050528I-299720J0D01*
G75*
G01
X23485094Y-6730492D02*
G03X23485094Y-6730492I-299720J0D01*
G75*
G01
X20485862Y-13719556D02*
G03X20485862Y-13719556I-299720J0D01*
G75*
G01
X20485862Y-11389614D02*
G03X20485862Y-11389614I-299720J0D01*
G75*
G01
X20485862Y-9049512D02*
G03X20485862Y-9049512I-299720J0D01*
G75*
G01
X20485862Y-6729476D02*
G03X20485862Y-6729476I-299720J0D01*
M02*
