G04 Layer: BottomLayer*
G04 EasyEDA v6.4.20.6, 2021-08-02T11:14:11+02:00*
G04 e7c21c1e6ca5491a88c75d15d8fd51ee,3e5df01c9dd74657a85989452aaa4bc1,10*
G04 Gerber Generator version 0.2*
G04 Scale: 100 percent, Rotated: No, Reflected: No *
G04 Dimensions in millimeters *
G04 leading zeros omitted , absolute positions ,4 integer and 5 decimal *
%FSLAX45Y45*%
%MOMM*%

%ADD10C,0.2540*%
%ADD11C,0.6198*%
%ADD13C,1.4986*%
%ADD15C,0.6000*%

%LPD*%
D10*
X24668225Y-8633968D02*
G01*
X24513946Y-8633968D01*
X24499950Y-8619972D01*
X24499950Y-7869986D01*
X24719940Y-7869986D01*
X24729948Y-7859979D01*
X24729948Y-5459984D01*
X13039979Y-5459984D01*
X13039979Y-7599934D01*
X19729958Y-7219950D02*
G01*
X19729958Y-8611615D01*
X19737070Y-8618728D01*
X15737586Y-8619744D02*
G01*
X15737586Y-7227570D01*
X15729966Y-7219950D01*
X13737336Y-8618474D02*
G01*
X13737336Y-7222489D01*
X13739875Y-7219950D01*
X11739879Y-8621268D02*
G01*
X11739879Y-7229855D01*
X11729974Y-7219950D01*
X9740011Y-7219950D02*
G01*
X9740011Y-7219950D01*
X9729977Y-7229983D01*
X9729977Y-8610092D01*
X9739629Y-8619744D01*
X17750027Y-7219950D02*
G01*
X17750027Y-8611108D01*
X17739613Y-8621521D01*
X22736302Y-8619744D02*
G01*
X22736302Y-7223633D01*
X22739959Y-7219975D01*
X21289949Y-7219975D01*
X23850142Y-10500258D02*
G01*
X23650117Y-10500258D01*
X24319941Y-10919968D02*
G01*
X24149964Y-10919968D01*
X24149964Y-10669981D02*
G01*
X24149964Y-10669981D01*
X24319941Y-10669981D01*
X23650092Y-10399979D02*
G01*
X23849965Y-10399979D01*
X23849939Y-10299979D02*
G01*
X23649711Y-10299979D01*
X24339956Y-10299979D02*
G01*
X24139880Y-10299954D01*
X24150040Y-10129977D02*
G01*
X24339956Y-10129774D01*
X23660074Y-10129977D02*
G01*
X23849939Y-10129977D01*
X17489424Y-14191234D02*
G01*
X17438624Y-14191234D01*
X17279975Y-14189963D01*
X17419954Y-14959964D02*
G01*
X17679974Y-14960015D01*
X15439974Y-14959964D02*
G01*
X15689961Y-14959964D01*
X13398957Y-14959964D02*
G01*
X13699972Y-14959964D01*
X11419966Y-14959964D02*
G01*
X11749989Y-14959964D01*
X19486879Y-14188694D02*
G01*
X19259956Y-14188694D01*
X19259956Y-15189962D01*
X19429984Y-15189962D01*
X17279975Y-14199971D02*
G01*
X17279975Y-15189962D01*
X15487395Y-14189455D02*
G01*
X15289961Y-14189455D01*
X15289961Y-15189962D01*
X15429966Y-15189962D01*
X13487145Y-14188186D02*
G01*
X13259968Y-14188186D01*
X13259968Y-15189962D01*
X13439978Y-15189962D01*
X11489690Y-14190979D02*
G01*
X11320018Y-14190979D01*
X11320779Y-15130779D01*
X11319967Y-15189962D01*
X22486111Y-14189455D02*
G01*
X22179991Y-14189455D01*
X22179940Y-15189936D01*
X9659975Y-15189987D01*
X9659975Y-14199870D01*
X9489440Y-14189455D01*
X24668225Y-8379968D02*
G01*
X24808383Y-8380044D01*
X24810186Y-5399989D01*
X11040109Y-5400090D01*
X11040109Y-9249918D01*
X10849609Y-9249918D01*
X12849859Y-9250934D02*
G01*
X13039852Y-9249918D01*
X13039852Y-7599934D01*
X13039979Y-7569987D01*
X18739866Y-5599988D02*
G01*
X18739967Y-5599988D01*
X24179961Y-5600014D01*
X24179961Y-8880094D01*
X24660352Y-8880094D01*
X24668225Y-8887968D01*
X14847316Y-9248394D02*
G01*
X15020036Y-9248394D01*
X15020036Y-5649976D01*
X16819956Y-5649976D01*
X18939967Y-5710072D02*
G01*
X24129949Y-5709996D01*
X24129949Y-8959850D01*
X24379936Y-8959850D01*
X24389841Y-8970010D01*
X24389841Y-9169908D01*
X24640286Y-9169908D01*
X24668225Y-9141968D01*
X16847566Y-9249663D02*
G01*
X17040098Y-9249918D01*
X17039970Y-6360007D01*
X18849593Y-9251442D02*
G01*
X18849517Y-9244558D01*
X19029934Y-9243034D01*
X19029934Y-5780023D01*
X19039840Y-5770118D01*
X24070030Y-5770118D01*
X24069954Y-9059926D01*
X24290020Y-9059926D01*
X24299925Y-9070086D01*
X24299925Y-9409937D01*
X24654256Y-9409937D01*
X24668225Y-9395968D01*
X20847050Y-9248647D02*
G01*
X21079968Y-9249918D01*
X21079968Y-5839968D01*
X24009883Y-5839993D01*
X24009959Y-9150095D01*
X24219916Y-9150095D01*
X24219916Y-9670034D01*
X24648159Y-9670034D01*
X24668225Y-9649968D01*
X23846281Y-9249663D02*
G01*
X24149964Y-9249841D01*
X24149964Y-9899980D01*
X24664238Y-9899980D01*
X24668225Y-9903968D01*
X23185374Y-14469871D02*
G01*
X23189945Y-14579980D01*
X23189184Y-14579854D01*
X24659843Y-14579854D01*
X24659843Y-12200381D01*
X24670004Y-12190221D01*
X21159952Y-8858961D02*
G01*
X21389848Y-8859824D01*
X22339706Y-8858961D01*
X19129197Y-8859977D02*
G01*
X19399605Y-8859748D01*
X19409206Y-8859977D01*
X17129607Y-8859748D02*
G01*
X17419675Y-8859748D01*
X17429962Y-8859723D01*
X15109596Y-8859824D02*
G01*
X15399664Y-8859824D01*
X15408706Y-8859469D01*
X13119582Y-8859748D02*
G01*
X13409625Y-8859748D01*
X13419963Y-8859469D01*
X11119865Y-8860028D02*
G01*
X11409934Y-8860028D01*
X11420043Y-8860078D01*
X23473918Y-11195304D02*
G01*
X23934623Y-11195304D01*
X23939957Y-11189970D01*
X23299927Y-11199876D02*
G01*
X23469345Y-11199876D01*
X23473918Y-11195304D01*
X21948393Y-11198097D02*
G01*
X22378161Y-11198097D01*
X22379940Y-11199876D01*
X20463205Y-11194770D02*
G01*
X20980044Y-11200003D01*
X20291983Y-11199977D02*
G01*
X20398816Y-11199621D01*
X20403388Y-11195050D01*
X19159956Y-11198682D02*
G01*
X19410476Y-11199977D01*
X18403138Y-11194795D02*
G01*
X18950000Y-11197615D01*
X18289879Y-11199621D02*
G01*
X18438977Y-11199621D01*
X18443575Y-11195050D01*
X17169968Y-11198656D02*
G01*
X17419954Y-11199977D01*
X16443325Y-11194795D02*
G01*
X16959961Y-11197539D01*
X16310991Y-11199977D02*
G01*
X16488968Y-11199621D01*
X16493540Y-11195050D01*
X15150007Y-11198479D02*
G01*
X15419908Y-11199977D01*
X14493290Y-11194795D02*
G01*
X14950059Y-11197361D01*
X14299463Y-11199977D02*
G01*
X14488896Y-11199698D01*
X14493468Y-11195126D01*
X13149986Y-11198479D02*
G01*
X13410006Y-11199901D01*
X12493218Y-11194872D02*
G01*
X12940004Y-11197336D01*
X12320015Y-11199876D02*
G01*
X12469113Y-11199876D01*
X12473686Y-11195304D01*
X24359946Y-13539978D02*
G01*
X24359870Y-13539724D01*
X24359870Y-11929871D01*
X24670004Y-11929871D01*
X24668225Y-11935968D01*
X23959540Y-13539673D02*
G01*
X24359946Y-13539978D01*
X24359946Y-13539978D01*
X23524972Y-13534644D02*
G01*
X23749609Y-13539749D01*
X23759617Y-13539749D01*
X23495508Y-13534897D02*
G01*
X23292816Y-13529563D01*
X23293070Y-13529563D01*
X20930616Y-13529310D02*
G01*
X22380956Y-13529563D01*
X22380956Y-13529310D01*
X20494980Y-13534644D02*
G01*
X20720710Y-13529208D01*
X20729625Y-13539749D01*
X20465034Y-13534847D02*
G01*
X20274788Y-13534847D01*
X20269708Y-13539927D01*
X18949974Y-13539978D02*
G01*
X19359372Y-13539673D01*
X19359625Y-13539927D01*
X18464809Y-13534644D02*
G01*
X18689447Y-13539749D01*
X18699454Y-13539749D01*
X18455259Y-13534847D02*
G01*
X18265013Y-13534847D01*
X18259958Y-13539927D01*
X16889602Y-13539673D02*
G01*
X17359960Y-13539978D01*
X17349850Y-13539927D01*
X16455034Y-13534644D02*
G01*
X16679697Y-13539749D01*
X16689704Y-13539749D01*
X16495217Y-13534847D02*
G01*
X16304971Y-13534847D01*
X16299891Y-13539927D01*
X14929561Y-13539673D02*
G01*
X15389555Y-13539673D01*
X15389809Y-13539927D01*
X14494992Y-13534644D02*
G01*
X14719630Y-13539749D01*
X14729637Y-13539749D01*
X14485137Y-13534847D02*
G01*
X14294916Y-13534847D01*
X14289811Y-13539927D01*
X12939979Y-13539978D02*
G01*
X13379475Y-13539673D01*
X13379729Y-13539927D01*
X12484938Y-13534644D02*
G01*
X12709550Y-13539749D01*
X12719583Y-13539749D01*
X12495275Y-13534897D02*
G01*
X12305029Y-13534897D01*
X12299950Y-13539978D01*
X10929620Y-13539724D02*
G01*
X11389613Y-13539724D01*
X11389868Y-13539978D01*
X20936864Y-8718880D02*
G01*
X20936864Y-9028760D01*
X20480680Y-8863914D02*
G01*
X20726501Y-8858808D01*
X20727060Y-8868740D01*
X20727060Y-8868740D01*
X20470774Y-11067110D02*
G01*
X20305420Y-11067110D01*
X20297038Y-11058728D01*
X20297038Y-10568762D01*
X20297013Y-10548797D01*
X20526908Y-10548696D01*
X20526908Y-9788728D01*
X20445120Y-9788728D01*
X20434960Y-9798888D01*
X19937120Y-10688650D02*
G01*
X19927087Y-10688650D01*
X19926960Y-9958806D01*
X20186853Y-9958806D01*
X20186040Y-9798888D01*
X20176896Y-11828856D02*
G01*
X20176896Y-10685602D01*
X20176998Y-12298806D02*
G01*
X20176896Y-12148134D01*
X20186040Y-12138990D01*
X20187056Y-14168704D02*
G01*
X20187056Y-13032816D01*
X20170266Y-13016052D01*
X20176998Y-12298806D02*
G01*
X19927011Y-12298756D01*
X19927011Y-13018592D01*
X19937120Y-13018592D01*
X20186040Y-7478852D02*
G01*
X20186040Y-7625664D01*
X20182966Y-7628712D01*
X20182966Y-7628712D02*
G01*
X19917105Y-7628712D01*
X19906995Y-7638821D01*
X19906995Y-8318423D01*
X19937120Y-8348548D01*
X20470774Y-11448110D02*
G01*
X20677124Y-11449024D01*
X20976996Y-11318824D02*
G01*
X20473060Y-11318824D01*
X20470774Y-11321110D01*
X20470774Y-10940110D02*
G01*
X20906993Y-10938916D01*
X20906993Y-9678796D01*
X20917230Y-9678898D01*
X20492364Y-13279704D02*
G01*
X20297013Y-13278789D01*
X20492364Y-13406704D02*
G01*
X20297013Y-13408787D01*
X20492364Y-13660704D02*
G01*
X20295108Y-13660704D01*
X20287005Y-13668806D01*
X20297013Y-13668806D01*
X20297038Y-13788720D02*
G01*
X20491348Y-13788720D01*
X20492364Y-13787704D01*
X20626984Y-9868738D02*
G01*
X20627009Y-10708792D01*
X20606918Y-10708716D01*
X20455026Y-10708716D01*
X20434960Y-10688650D01*
X20480680Y-9117914D02*
G01*
X20627009Y-9118803D01*
X20480680Y-8990914D02*
G01*
X20757006Y-8988805D01*
X20480680Y-8736914D02*
G01*
X20278902Y-8736914D01*
X20276997Y-8738819D01*
X20276997Y-8358809D01*
X20424698Y-8358809D01*
X20434960Y-8348548D01*
X20480680Y-8609914D02*
G01*
X20785886Y-8609914D01*
X20787004Y-8608796D01*
X20787004Y-6028817D01*
X20435265Y-6028817D01*
X20434960Y-6028512D01*
X21057006Y-9888804D02*
G01*
X21057082Y-11578844D01*
X20827136Y-11578920D01*
X20480680Y-9244914D02*
G01*
X20846999Y-9248800D01*
X20846999Y-9248800D01*
X20492364Y-13914704D02*
G01*
X20842909Y-13914704D01*
X20846999Y-13918793D01*
X20846999Y-11598783D01*
X20846999Y-11578793D01*
X20474457Y-11578793D01*
X20470774Y-11575110D01*
X19487032Y-9498914D02*
G01*
X19487032Y-11828348D01*
X19486778Y-11828602D01*
X19486778Y-11828602D02*
G01*
X19486778Y-14188567D01*
X19487006Y-14188795D01*
X19877913Y-14188795D01*
X19898004Y-14168704D01*
X19567016Y-10248798D02*
G01*
X19567016Y-11708460D01*
X19566788Y-11708714D01*
X19567016Y-9378772D02*
G01*
X19567016Y-10248798D01*
X19566991Y-14038808D02*
G01*
X19566991Y-14038808D01*
X19567016Y-13998778D01*
X19567016Y-11708968D01*
X19566788Y-11708714D01*
X19898004Y-14041704D02*
G01*
X19566991Y-14038808D01*
X20077074Y-9498914D02*
G01*
X19886320Y-9498914D01*
X20077074Y-9378772D02*
G01*
X19893178Y-9378772D01*
X19886320Y-9371914D01*
X20036916Y-11698808D02*
G01*
X19879462Y-11698808D01*
X19876160Y-11702110D01*
X20036916Y-11828856D02*
G01*
X19876414Y-11828856D01*
X19876160Y-11829110D01*
X20077074Y-9248724D02*
G01*
X19890130Y-9248724D01*
X19886320Y-9244914D01*
X20036916Y-11578920D02*
G01*
X19879970Y-11578920D01*
X19876160Y-11575110D01*
X19647027Y-9998811D02*
G01*
X19647001Y-9248800D01*
X19647052Y-11568760D02*
G01*
X19647027Y-9998811D01*
X19667270Y-13918793D02*
G01*
X19652919Y-13914704D01*
X19647001Y-13908786D01*
X19647001Y-11568811D01*
X19898004Y-13914704D02*
G01*
X19667270Y-13918793D01*
X19736968Y-10128808D02*
G01*
X19736968Y-8618829D01*
X19736993Y-8618804D01*
X19874890Y-8618804D01*
X19886193Y-8609812D01*
X19736968Y-10958906D02*
G01*
X19736968Y-10128808D01*
X19898004Y-13279704D02*
G01*
X19736993Y-13278789D01*
X19736968Y-13248716D01*
X19736993Y-10938814D01*
X19876160Y-10940110D01*
X19876160Y-10939856D01*
X19898004Y-13406704D02*
G01*
X19898004Y-13787704D01*
X19886193Y-8736812D02*
G01*
X19886193Y-9117812D01*
X19876211Y-11066805D02*
G01*
X19876211Y-11447805D01*
X19934834Y-13016052D02*
G01*
X20170266Y-13016052D01*
X20182966Y-13028752D01*
X19934072Y-10685602D02*
G01*
X20176896Y-10685602D01*
X20176998Y-10688802D01*
X20176998Y-6649999D02*
G01*
X20176998Y-7469809D01*
X20182966Y-7475804D01*
X19934072Y-6025464D02*
G01*
X20173645Y-6025464D01*
X20176998Y-6028817D01*
X20176998Y-6649999D01*
X19937120Y-8348548D02*
G01*
X19937069Y-8348522D01*
X20187005Y-8348802D01*
X20187005Y-9468815D01*
X20187005Y-9498812D01*
X20185989Y-9798862D02*
G01*
X20187005Y-9528810D01*
X20187005Y-9498812D01*
X20480680Y-9498914D01*
X20480680Y-9498914D01*
X20480553Y-9371812D02*
G01*
X20480553Y-9498812D01*
X20492364Y-14168704D02*
G01*
X20187107Y-14168704D01*
X20187005Y-14168805D01*
X20187005Y-14463141D01*
X20183754Y-14466392D01*
X20492364Y-14041704D02*
G01*
X20492364Y-14168704D01*
X20470825Y-11701805D02*
G01*
X20470825Y-11828805D01*
X20470774Y-11828856D02*
G01*
X20176998Y-11828805D01*
X20176998Y-11848795D01*
X20176896Y-12129846D01*
X20182966Y-12135942D01*
X23936147Y-8719870D02*
G01*
X23936147Y-9029750D01*
X23479963Y-8864904D02*
G01*
X23725759Y-8859799D01*
X23726317Y-8869730D01*
X23726317Y-8869730D01*
X23470057Y-11068100D02*
G01*
X23304703Y-11068100D01*
X23296321Y-11059718D01*
X23296321Y-10549788D01*
X23449965Y-10549712D01*
X23449965Y-9789718D01*
X23444403Y-9789718D01*
X23434217Y-9799878D01*
X22936403Y-10689640D02*
G01*
X22926370Y-10689640D01*
X22926217Y-9959797D01*
X23186136Y-9959797D01*
X23185323Y-9799878D01*
X23176179Y-11829846D02*
G01*
X23176179Y-10686592D01*
X23176280Y-12299797D02*
G01*
X23176179Y-12149124D01*
X23185323Y-12139980D01*
X23186339Y-14169694D02*
G01*
X23186339Y-13033806D01*
X23169575Y-13017042D01*
X23176280Y-12299797D02*
G01*
X22926268Y-12299746D01*
X22926268Y-13019582D01*
X22936403Y-13019582D01*
X23185323Y-7479842D02*
G01*
X23185323Y-7626654D01*
X23182275Y-7629702D01*
X23182275Y-7629702D02*
G01*
X22916388Y-7629702D01*
X22906278Y-7639812D01*
X22906278Y-8319414D01*
X22936403Y-8349538D01*
X23470057Y-11449100D02*
G01*
X23676406Y-11450015D01*
X23976279Y-11319814D02*
G01*
X23472317Y-11319814D01*
X23470057Y-11322100D01*
X23470057Y-10941100D02*
G01*
X23939957Y-10939805D01*
X23939957Y-9679787D01*
X23916513Y-9679889D01*
X23491647Y-13280694D02*
G01*
X23296295Y-13279780D01*
X23491647Y-13407694D02*
G01*
X23296295Y-13409777D01*
X23491647Y-13661694D02*
G01*
X23294390Y-13661694D01*
X23286288Y-13669797D01*
X23296295Y-13669797D01*
X23296321Y-13789710D02*
G01*
X23490631Y-13789710D01*
X23491647Y-13788694D01*
X23626241Y-9869728D02*
G01*
X23559947Y-9869728D01*
X23559973Y-10709706D01*
X23454283Y-10709706D01*
X23434217Y-10689640D01*
X23479963Y-9118904D02*
G01*
X23626267Y-9119793D01*
X23479963Y-8991904D02*
G01*
X23756289Y-8989796D01*
X23479963Y-8737904D02*
G01*
X23278160Y-8737904D01*
X23276280Y-8739809D01*
X23276280Y-8359800D01*
X23423981Y-8359800D01*
X23434217Y-8349538D01*
X23479963Y-8610904D02*
G01*
X23785169Y-8610904D01*
X23786287Y-8609787D01*
X23786287Y-6029807D01*
X23434548Y-6029807D01*
X23434217Y-6029502D01*
X24056289Y-9889794D02*
G01*
X24056365Y-11579834D01*
X23826393Y-11579910D01*
X23479963Y-9245904D02*
G01*
X23846281Y-9249790D01*
X23846281Y-9249790D01*
X23491647Y-13915694D02*
G01*
X23842167Y-13915694D01*
X23846281Y-13919784D01*
X23846281Y-11599773D01*
X23846281Y-11579783D01*
X23473740Y-11579783D01*
X23470057Y-11576100D01*
X22486315Y-10499979D02*
G01*
X22486315Y-11829338D01*
X22486061Y-11829592D01*
X22486315Y-9499904D02*
G01*
X22486315Y-10499979D01*
X22486061Y-11829592D02*
G01*
X22486061Y-14189557D01*
X22486289Y-14189786D01*
X22877195Y-14189786D01*
X22897287Y-14169694D01*
X22566325Y-10399979D02*
G01*
X22566325Y-11709450D01*
X22566071Y-11709704D01*
X22566325Y-10249788D02*
G01*
X22566325Y-10399979D01*
X22566325Y-9379762D02*
G01*
X22566325Y-10249788D01*
X22566299Y-14039799D02*
G01*
X22566299Y-14039799D01*
X22566325Y-13999768D01*
X22566325Y-11709958D01*
X22566071Y-11709704D01*
X22897287Y-14042694D02*
G01*
X22566299Y-14039799D01*
X23076357Y-9499904D02*
G01*
X22885603Y-9499904D01*
X23076357Y-9379762D02*
G01*
X22892461Y-9379762D01*
X22885603Y-9372904D01*
X23036225Y-11699798D02*
G01*
X22878745Y-11699798D01*
X22875417Y-11703100D01*
X23036225Y-11829846D02*
G01*
X22875697Y-11829846D01*
X22875417Y-11830100D01*
X23076357Y-9249714D02*
G01*
X22889413Y-9249714D01*
X22885603Y-9245904D01*
X23036225Y-11579910D02*
G01*
X22879253Y-11579910D01*
X22875417Y-11576100D01*
X22646284Y-9999802D02*
G01*
X22646259Y-9249790D01*
X22646284Y-10299979D02*
G01*
X22646284Y-9999802D01*
X22646284Y-10409986D02*
G01*
X22646284Y-10299979D01*
X22646309Y-11569750D02*
G01*
X22646284Y-10409986D01*
X22666553Y-13919784D02*
G01*
X22652177Y-13915694D01*
X22646259Y-13909776D01*
X22646259Y-11569801D01*
X22897287Y-13915694D02*
G01*
X22666553Y-13919784D01*
X22736225Y-10129799D02*
G01*
X22736225Y-8619820D01*
X22736251Y-8619794D01*
X22874173Y-8619794D01*
X22885450Y-8610803D01*
X22736225Y-10959896D02*
G01*
X22736225Y-10129799D01*
X22897287Y-13280694D02*
G01*
X22736251Y-13279780D01*
X22736225Y-13249706D01*
X22736251Y-10939805D01*
X22875417Y-10941100D01*
X22875417Y-10940846D01*
X22897287Y-13407694D02*
G01*
X22897287Y-13788694D01*
X22885450Y-8737803D02*
G01*
X22885450Y-9118803D01*
X22875468Y-11067795D02*
G01*
X22875468Y-11448795D01*
X22934091Y-13017042D02*
G01*
X23169575Y-13017042D01*
X23182275Y-13029742D01*
X22933355Y-10686592D02*
G01*
X23176179Y-10686592D01*
X23176280Y-10689793D01*
X22933355Y-6026454D02*
G01*
X23172927Y-6026454D01*
X23176280Y-6029807D01*
X23176280Y-7470800D01*
X23182275Y-7476794D01*
X22936403Y-8349538D02*
G01*
X22936327Y-8349513D01*
X23186288Y-8349792D01*
X23186288Y-9469805D01*
X23186288Y-9499803D01*
X23185272Y-9799853D02*
G01*
X23186288Y-9529800D01*
X23186288Y-9499803D01*
X23479963Y-9499904D01*
X23479963Y-9499904D01*
X23479836Y-9372803D02*
G01*
X23479836Y-9499803D01*
X23491647Y-14169694D02*
G01*
X23186390Y-14169694D01*
X23186288Y-14169796D01*
X23186288Y-14464131D01*
X23183037Y-14467382D01*
X23491647Y-14042694D02*
G01*
X23491647Y-14169694D01*
X23470108Y-11702795D02*
G01*
X23470108Y-11829795D01*
X23470057Y-11829846D02*
G01*
X23176280Y-11829795D01*
X23176280Y-11849785D01*
X23176179Y-12130836D01*
X23182275Y-12136932D01*
X18939408Y-8721496D02*
G01*
X18939408Y-9031376D01*
X18483224Y-8866530D02*
G01*
X18729706Y-8861755D01*
X18729604Y-8871356D01*
X18729604Y-8871356D01*
X18473318Y-11069726D02*
G01*
X18307964Y-11069726D01*
X18299582Y-11061344D01*
X18299582Y-10559999D01*
X18529452Y-10559897D01*
X18529452Y-9791344D01*
X18447664Y-9791344D01*
X18437504Y-9801504D01*
X17939664Y-10691266D02*
G01*
X17890032Y-10691266D01*
X17889905Y-9961422D01*
X18189397Y-9961422D01*
X18188584Y-9801504D01*
X18179440Y-11831472D02*
G01*
X18179440Y-10688218D01*
X18179541Y-12301423D02*
G01*
X18179440Y-12150750D01*
X18188584Y-12141606D01*
X18189600Y-14171320D02*
G01*
X18189600Y-13035432D01*
X18172836Y-13018668D01*
X18179541Y-12301423D02*
G01*
X17929555Y-12301372D01*
X17929555Y-13021208D01*
X17939664Y-13021208D01*
X18188584Y-7481468D02*
G01*
X18188584Y-7628280D01*
X18185536Y-7631328D01*
X18185536Y-7631328D02*
G01*
X17919649Y-7631328D01*
X17909540Y-7641437D01*
X17909540Y-8321039D01*
X17939664Y-8351164D01*
X18473318Y-11450726D02*
G01*
X18679668Y-11451640D01*
X18979540Y-11321440D02*
G01*
X18475604Y-11321440D01*
X18473318Y-11323726D01*
X18473318Y-10942726D02*
G01*
X18909538Y-10941532D01*
X18909538Y-9681413D01*
X18919774Y-9681514D01*
X18494908Y-13282320D02*
G01*
X18299556Y-13281405D01*
X18494908Y-13409320D02*
G01*
X18299556Y-13411403D01*
X18494908Y-13663320D02*
G01*
X18297652Y-13663320D01*
X18289549Y-13671422D01*
X18299556Y-13671422D01*
X18299582Y-13791336D02*
G01*
X18493892Y-13791336D01*
X18494908Y-13790320D01*
X18629528Y-9871354D02*
G01*
X18629553Y-10711408D01*
X18609462Y-10711332D01*
X18457570Y-10711332D01*
X18437504Y-10691266D01*
X18483224Y-9120530D02*
G01*
X18629553Y-9121419D01*
X18483224Y-8993530D02*
G01*
X18759550Y-8991422D01*
X18483224Y-8739530D02*
G01*
X18281446Y-8739530D01*
X18279541Y-8741435D01*
X18279541Y-8361426D01*
X18427242Y-8361426D01*
X18437504Y-8351164D01*
X18483224Y-8612530D02*
G01*
X18788430Y-8612530D01*
X18789548Y-8611412D01*
X18789548Y-6031433D01*
X18437809Y-6031433D01*
X18437504Y-6031128D01*
X19059550Y-9891420D02*
G01*
X19059626Y-11581460D01*
X18829680Y-11581536D01*
X18483224Y-9247530D02*
G01*
X18849543Y-9251416D01*
X18849543Y-9251416D01*
X18494908Y-13917320D02*
G01*
X18845453Y-13917320D01*
X18849543Y-13921409D01*
X18849543Y-11601399D01*
X18849543Y-11581409D01*
X18477001Y-11581409D01*
X18473318Y-11577726D01*
X17489576Y-9501530D02*
G01*
X17489576Y-11830964D01*
X17489322Y-11831218D01*
X17489322Y-11831218D02*
G01*
X17489322Y-14191183D01*
X17489550Y-14191411D01*
X17880456Y-14191411D01*
X17900548Y-14171320D01*
X17569586Y-10251414D02*
G01*
X17569586Y-11711076D01*
X17569332Y-11711330D01*
X17569586Y-9381388D02*
G01*
X17569586Y-10251414D01*
X17569561Y-14041424D02*
G01*
X17569561Y-14041424D01*
X17569586Y-14001394D01*
X17569586Y-11711584D01*
X17569332Y-11711330D01*
X17900548Y-14044320D02*
G01*
X17569561Y-14041424D01*
X18079618Y-9501530D02*
G01*
X17888864Y-9501530D01*
X18079618Y-9381388D02*
G01*
X17895722Y-9381388D01*
X17888864Y-9374530D01*
X18039486Y-11701424D02*
G01*
X17882006Y-11701424D01*
X17878704Y-11704726D01*
X18039486Y-11831472D02*
G01*
X17878958Y-11831472D01*
X17878704Y-11831726D01*
X18079618Y-9251340D02*
G01*
X17892674Y-9251340D01*
X17888864Y-9247530D01*
X18039486Y-11581536D02*
G01*
X17882514Y-11581536D01*
X17878704Y-11577726D01*
X17649570Y-10001427D02*
G01*
X17649545Y-9251416D01*
X17649596Y-11571376D02*
G01*
X17649570Y-10001427D01*
X17669814Y-13921409D02*
G01*
X17655463Y-13917320D01*
X17649545Y-13911402D01*
X17649545Y-11571427D01*
X17900548Y-13917320D02*
G01*
X17669814Y-13921409D01*
X17739512Y-10131425D02*
G01*
X17739512Y-8621445D01*
X17739537Y-8621420D01*
X17877434Y-8621420D01*
X17888737Y-8612428D01*
X17739512Y-10961522D02*
G01*
X17739512Y-10131425D01*
X17900548Y-13282320D02*
G01*
X17739537Y-13281405D01*
X17739512Y-13251332D01*
X17739537Y-10941430D01*
X17878704Y-10942726D01*
X17878704Y-10942472D01*
X17900548Y-13409320D02*
G01*
X17900548Y-13790320D01*
X17888737Y-8739428D02*
G01*
X17888737Y-9120428D01*
X17878755Y-11069421D02*
G01*
X17878755Y-11450421D01*
X17937378Y-13018668D02*
G01*
X18172836Y-13018668D01*
X18185536Y-13031368D01*
X17936616Y-10688218D02*
G01*
X18179440Y-10688218D01*
X18179541Y-10691418D01*
X18179541Y-6649999D02*
G01*
X18179541Y-7472426D01*
X18185536Y-7478420D01*
X17936616Y-6028080D02*
G01*
X18176189Y-6028080D01*
X18179541Y-6031433D01*
X18179541Y-6649999D01*
X17939664Y-8351164D02*
G01*
X17939613Y-8351138D01*
X18189549Y-8351418D01*
X18189549Y-9471431D01*
X18189549Y-9501428D01*
X18188533Y-9801479D02*
G01*
X18189549Y-9531426D01*
X18189549Y-9501428D01*
X18483224Y-9501530D01*
X18483224Y-9501530D01*
X18483097Y-9374428D02*
G01*
X18483097Y-9501428D01*
X18494908Y-14171320D02*
G01*
X18189651Y-14171320D01*
X18189549Y-14171421D01*
X18189549Y-14465757D01*
X18186298Y-14469008D01*
X18494908Y-14044320D02*
G01*
X18494908Y-14171320D01*
X18473369Y-11704421D02*
G01*
X18473369Y-11831421D01*
X18473318Y-11831472D02*
G01*
X18179541Y-11831421D01*
X18179541Y-11851411D01*
X18179440Y-12132462D01*
X18185536Y-12138558D01*
X14937282Y-8718550D02*
G01*
X14937282Y-9028429D01*
X14481098Y-8863584D02*
G01*
X14726920Y-8858504D01*
X14727478Y-8868410D01*
X14727478Y-8868410D01*
X14471192Y-11066779D02*
G01*
X14305838Y-11066779D01*
X14297456Y-11058423D01*
X14297456Y-10568457D01*
X14297431Y-10548467D01*
X14527326Y-10548391D01*
X14527326Y-9788423D01*
X14445538Y-9788423D01*
X14435378Y-9798583D01*
X13937538Y-10688345D02*
G01*
X13927505Y-10688345D01*
X13927378Y-9958476D01*
X14187271Y-9958476D01*
X14186458Y-9798583D01*
X14177314Y-11828526D02*
G01*
X14177314Y-10685271D01*
X14177416Y-12298476D02*
G01*
X14177314Y-12147804D01*
X14186458Y-12138660D01*
X14187474Y-14168399D02*
G01*
X14187474Y-13032511D01*
X14170710Y-13015721D01*
X14177416Y-12298476D02*
G01*
X13927429Y-12298426D01*
X13927429Y-13018287D01*
X13937538Y-13018287D01*
X14186458Y-7478521D02*
G01*
X14186458Y-7625334D01*
X14183410Y-7628407D01*
X14183410Y-7628407D02*
G01*
X13917523Y-7628407D01*
X13907414Y-7638516D01*
X13907414Y-8318119D01*
X13937538Y-8348218D01*
X14471192Y-11447779D02*
G01*
X14677542Y-11448719D01*
X14977414Y-11318519D02*
G01*
X14473478Y-11318519D01*
X14471192Y-11320779D01*
X14471192Y-10939779D02*
G01*
X14907412Y-10938611D01*
X14907412Y-9678466D01*
X14917648Y-9678568D01*
X14492782Y-13279399D02*
G01*
X14297431Y-13278459D01*
X14492782Y-13406399D02*
G01*
X14297431Y-13408482D01*
X14492782Y-13660399D02*
G01*
X14295526Y-13660399D01*
X14287423Y-13668476D01*
X14297431Y-13668476D01*
X14297456Y-13788415D02*
G01*
X14491766Y-13788415D01*
X14492782Y-13787399D01*
X14627402Y-9868433D02*
G01*
X14627428Y-10708487D01*
X14607336Y-10708411D01*
X14455444Y-10708411D01*
X14435378Y-10688345D01*
X14481098Y-9117584D02*
G01*
X14627428Y-9118498D01*
X14481098Y-8990584D02*
G01*
X14757425Y-8988475D01*
X14481098Y-8736584D02*
G01*
X14279321Y-8736584D01*
X14277416Y-8738488D01*
X14277416Y-8358479D01*
X14425117Y-8358479D01*
X14435378Y-8348218D01*
X14481098Y-8609584D02*
G01*
X14786305Y-8609584D01*
X14787422Y-8608491D01*
X14787422Y-6028512D01*
X14435683Y-6028512D01*
X14435378Y-6028207D01*
X15057424Y-9888499D02*
G01*
X15057500Y-11578513D01*
X14827554Y-11578615D01*
X14481098Y-9244584D02*
G01*
X14847417Y-9248495D01*
X14847417Y-9248495D01*
X14492782Y-13914399D02*
G01*
X14843328Y-13914399D01*
X14847417Y-13918463D01*
X14847417Y-11598478D01*
X14847417Y-11578462D01*
X14474875Y-11578462D01*
X14471192Y-11574779D01*
X13487450Y-9498584D02*
G01*
X13487450Y-11828018D01*
X13487196Y-11828271D01*
X13487196Y-11828271D02*
G01*
X13487196Y-14188262D01*
X13487425Y-14188490D01*
X13878331Y-14188490D01*
X13898422Y-14168399D01*
X13567460Y-10248468D02*
G01*
X13567460Y-11708129D01*
X13567206Y-11708384D01*
X13567460Y-9378442D02*
G01*
X13567460Y-10248468D01*
X13567435Y-14038503D02*
G01*
X13567435Y-14038503D01*
X13567460Y-13998473D01*
X13567460Y-11708637D01*
X13567206Y-11708384D01*
X13898422Y-14041399D02*
G01*
X13567435Y-14038503D01*
X14077492Y-9498584D02*
G01*
X13886738Y-9498584D01*
X14077492Y-9378442D02*
G01*
X13893596Y-9378442D01*
X13886738Y-9371584D01*
X14037360Y-11698503D02*
G01*
X13879880Y-11698503D01*
X13876578Y-11701779D01*
X14037360Y-11828526D02*
G01*
X13876832Y-11828526D01*
X13876578Y-11828779D01*
X14077492Y-9248419D02*
G01*
X13890548Y-9248419D01*
X13886738Y-9244584D01*
X14037360Y-11578615D02*
G01*
X13880388Y-11578615D01*
X13876578Y-11574779D01*
X13647445Y-9998506D02*
G01*
X13647420Y-9248495D01*
X13647470Y-11568429D02*
G01*
X13647445Y-9998506D01*
X13667689Y-13918463D02*
G01*
X13653338Y-13914399D01*
X13647420Y-13908455D01*
X13647420Y-11568480D01*
X13898422Y-13914399D02*
G01*
X13667689Y-13918463D01*
X13737386Y-10128504D02*
G01*
X13737386Y-8618524D01*
X13737412Y-8618499D01*
X13875308Y-8618499D01*
X13886611Y-8609507D01*
X13737386Y-10958576D02*
G01*
X13737386Y-10128504D01*
X13898422Y-13279399D02*
G01*
X13737412Y-13278459D01*
X13737386Y-13248411D01*
X13737412Y-10938484D01*
X13876578Y-10939779D01*
X13876578Y-10939526D01*
X13898422Y-13406399D02*
G01*
X13898422Y-13787399D01*
X13886611Y-8736507D02*
G01*
X13886611Y-9117507D01*
X13876629Y-11066475D02*
G01*
X13876629Y-11447475D01*
X13935252Y-13015721D02*
G01*
X14170710Y-13015721D01*
X14183410Y-13028421D01*
X13934490Y-10685271D02*
G01*
X14177314Y-10685271D01*
X14177416Y-10688472D01*
X14177416Y-6649999D02*
G01*
X14177416Y-7469479D01*
X14183410Y-7475499D01*
X13934490Y-6025134D02*
G01*
X14174063Y-6025134D01*
X14177416Y-6028512D01*
X14177416Y-6649999D01*
X13937538Y-8348218D02*
G01*
X13937488Y-8348192D01*
X14187424Y-8348471D01*
X14187424Y-9468485D01*
X14187424Y-9498507D01*
X14186408Y-9798558D02*
G01*
X14187424Y-9528479D01*
X14187424Y-9498507D01*
X14481098Y-9498584D01*
X14481098Y-9498584D01*
X14480971Y-9371507D02*
G01*
X14480971Y-9498507D01*
X14492782Y-14168399D02*
G01*
X14187525Y-14168399D01*
X14187424Y-14168475D01*
X14187424Y-14462836D01*
X14184172Y-14466087D01*
X14492782Y-14041399D02*
G01*
X14492782Y-14168399D01*
X14471243Y-11701475D02*
G01*
X14471243Y-11828475D01*
X14471192Y-11828526D02*
G01*
X14177416Y-11828475D01*
X14177416Y-11848490D01*
X14177314Y-12129541D01*
X14183410Y-12135637D01*
X16937558Y-8719870D02*
G01*
X16937558Y-9029750D01*
X16481374Y-8864904D02*
G01*
X16727195Y-8859799D01*
X16727754Y-8869730D01*
X16727754Y-8869730D01*
X16471468Y-11068100D02*
G01*
X16306114Y-11068100D01*
X16297732Y-11059718D01*
X16297732Y-10569752D01*
X16297706Y-10549788D01*
X16527602Y-10549686D01*
X16527602Y-9789718D01*
X16445814Y-9789718D01*
X16435654Y-9799904D01*
X15937814Y-10689640D02*
G01*
X15927781Y-10689640D01*
X15927654Y-9959797D01*
X16187547Y-9959797D01*
X16186734Y-9799904D01*
X16177590Y-11829846D02*
G01*
X16177590Y-10686592D01*
X16177691Y-12299797D02*
G01*
X16177590Y-12149150D01*
X16186734Y-12139980D01*
X16187750Y-14169694D02*
G01*
X16187750Y-13033806D01*
X16170986Y-13017042D01*
X16177691Y-12299797D02*
G01*
X15927704Y-12299746D01*
X15927704Y-13019608D01*
X15937814Y-13019608D01*
X16186734Y-7479842D02*
G01*
X16186734Y-7626654D01*
X16183686Y-7629702D01*
X16183686Y-7629702D02*
G01*
X15917799Y-7629702D01*
X15907689Y-7639837D01*
X15907689Y-8319414D01*
X15937814Y-8349538D01*
X16471468Y-11449100D02*
G01*
X16677817Y-11450015D01*
X16977690Y-11319814D02*
G01*
X16473754Y-11319814D01*
X16471468Y-11322100D01*
X16471468Y-10941100D02*
G01*
X16907687Y-10939906D01*
X16907687Y-9679787D01*
X16917924Y-9679889D01*
X16493058Y-13280694D02*
G01*
X16297706Y-13279780D01*
X16493058Y-13407694D02*
G01*
X16297706Y-13409777D01*
X16493058Y-13661694D02*
G01*
X16295801Y-13661694D01*
X16287699Y-13669797D01*
X16297706Y-13669797D01*
X16297732Y-13789710D02*
G01*
X16492042Y-13789710D01*
X16493058Y-13788694D01*
X16627678Y-9869754D02*
G01*
X16627703Y-10709808D01*
X16607612Y-10709706D01*
X16455720Y-10709706D01*
X16435654Y-10689640D01*
X16481374Y-9118904D02*
G01*
X16627703Y-9119793D01*
X16481374Y-8991904D02*
G01*
X16757700Y-8989796D01*
X16481374Y-8737904D02*
G01*
X16279596Y-8737904D01*
X16277691Y-8739809D01*
X16277691Y-8359800D01*
X16425392Y-8359800D01*
X16435654Y-8349538D01*
X16481374Y-8610904D02*
G01*
X16786580Y-8610904D01*
X16787698Y-8609812D01*
X16787698Y-6029807D01*
X16435959Y-6029807D01*
X16435654Y-6029502D01*
X17057700Y-9889794D02*
G01*
X17057776Y-11579834D01*
X16827830Y-11579910D01*
X16481374Y-9245904D02*
G01*
X16847693Y-9249790D01*
X16847693Y-9249790D01*
X16493058Y-13915694D02*
G01*
X16843603Y-13915694D01*
X16847693Y-13919784D01*
X16847693Y-11599773D01*
X16847693Y-11579783D01*
X16475151Y-11579783D01*
X16471468Y-11576100D01*
X15487726Y-9499904D02*
G01*
X15487726Y-11829338D01*
X15487472Y-11829592D01*
X15487472Y-11829592D02*
G01*
X15487472Y-14189557D01*
X15487700Y-14189786D01*
X15878606Y-14189786D01*
X15898698Y-14169694D01*
X15567736Y-10249788D02*
G01*
X15567736Y-11709450D01*
X15567482Y-11709704D01*
X15567736Y-9379762D02*
G01*
X15567736Y-10249788D01*
X15567710Y-14039799D02*
G01*
X15567710Y-14039799D01*
X15567736Y-13999768D01*
X15567736Y-11709958D01*
X15567482Y-11709704D01*
X15898698Y-14042694D02*
G01*
X15567710Y-14039799D01*
X16077768Y-9499904D02*
G01*
X15887014Y-9499904D01*
X16077768Y-9379762D02*
G01*
X15893872Y-9379762D01*
X15887014Y-9372904D01*
X16037636Y-11699798D02*
G01*
X15880156Y-11699798D01*
X15876854Y-11703100D01*
X16037636Y-11829846D02*
G01*
X15877108Y-11829846D01*
X15876854Y-11830100D01*
X16077768Y-9249714D02*
G01*
X15890824Y-9249714D01*
X15887014Y-9245904D01*
X16037636Y-11579910D02*
G01*
X15880664Y-11579910D01*
X15876854Y-11576100D01*
X15647720Y-9999802D02*
G01*
X15647695Y-9249790D01*
X15647746Y-11569750D02*
G01*
X15647720Y-9999802D01*
X15667964Y-13919784D02*
G01*
X15653613Y-13915694D01*
X15647695Y-13909776D01*
X15647695Y-11569801D01*
X15898698Y-13915694D02*
G01*
X15667964Y-13919784D01*
X15737662Y-10129799D02*
G01*
X15737662Y-8619820D01*
X15737687Y-8619794D01*
X15875584Y-8619794D01*
X15886887Y-8610803D01*
X15737662Y-10959896D02*
G01*
X15737662Y-10129799D01*
X15898698Y-13280694D02*
G01*
X15737687Y-13279780D01*
X15737662Y-13249706D01*
X15737687Y-10939805D01*
X15876854Y-10941100D01*
X15876854Y-10940846D01*
X15898698Y-13407694D02*
G01*
X15898698Y-13788694D01*
X15886887Y-8737803D02*
G01*
X15886887Y-9118803D01*
X15876904Y-11067795D02*
G01*
X15876904Y-11448795D01*
X15935528Y-13017042D02*
G01*
X16170986Y-13017042D01*
X16183686Y-13029742D01*
X15934766Y-10686592D02*
G01*
X16177590Y-10686592D01*
X16177691Y-10689793D01*
X16177691Y-6649999D02*
G01*
X16177691Y-7470800D01*
X16183686Y-7476794D01*
X15934766Y-6026454D02*
G01*
X16174338Y-6026454D01*
X16177691Y-6029807D01*
X16177691Y-6649999D01*
X15937814Y-8349538D02*
G01*
X15937763Y-8349513D01*
X16187699Y-8349792D01*
X16187699Y-9469805D01*
X16187699Y-9499803D01*
X16186683Y-9799853D02*
G01*
X16187699Y-9529800D01*
X16187699Y-9499803D01*
X16481374Y-9499904D01*
X16481374Y-9499904D01*
X16481247Y-9372803D02*
G01*
X16481247Y-9499803D01*
X16493058Y-14169694D02*
G01*
X16187800Y-14169694D01*
X16187699Y-14169796D01*
X16187699Y-14464131D01*
X16184448Y-14467408D01*
X16493058Y-14042694D02*
G01*
X16493058Y-14169694D01*
X16471518Y-11702795D02*
G01*
X16471518Y-11829795D01*
X16471468Y-11829846D02*
G01*
X16177691Y-11829795D01*
X16177691Y-11849785D01*
X16177590Y-12130836D01*
X16183686Y-12136958D01*
X10939551Y-8719870D02*
G01*
X10939551Y-9029750D01*
X10483367Y-8864904D02*
G01*
X10729188Y-8859799D01*
X10729747Y-8869730D01*
X10729747Y-8869730D01*
X10473461Y-11068100D02*
G01*
X10308107Y-11068100D01*
X10299725Y-11059718D01*
X10299725Y-10569752D01*
X10299700Y-10549788D01*
X10529595Y-10549686D01*
X10529595Y-9789718D01*
X10447807Y-9789718D01*
X10437647Y-9799878D01*
X9939807Y-10689640D02*
G01*
X9929774Y-10689640D01*
X9929647Y-9959797D01*
X10189540Y-9959797D01*
X10188727Y-9799878D01*
X10179583Y-11829846D02*
G01*
X10179583Y-10686592D01*
X10179684Y-12299797D02*
G01*
X10179583Y-12149124D01*
X10188727Y-12139980D01*
X10189743Y-14169694D02*
G01*
X10189743Y-13033806D01*
X10172979Y-13017042D01*
X10179684Y-12299797D02*
G01*
X9929698Y-12299746D01*
X9929698Y-13019582D01*
X9939807Y-13019582D01*
X10188727Y-7479842D02*
G01*
X10188727Y-7626654D01*
X10185679Y-7629702D01*
X10185679Y-7629702D02*
G01*
X9919792Y-7629702D01*
X9909683Y-7639812D01*
X9909683Y-8319414D01*
X9939807Y-8349538D01*
X10473461Y-11449100D02*
G01*
X10679811Y-11450015D01*
X10979683Y-11319814D02*
G01*
X10475747Y-11319814D01*
X10473461Y-11322100D01*
X10473461Y-10941100D02*
G01*
X10909681Y-10939906D01*
X10909681Y-9679787D01*
X10919917Y-9679889D01*
X10495051Y-13280694D02*
G01*
X10299700Y-13279780D01*
X10495051Y-13407694D02*
G01*
X10299700Y-13409777D01*
X10495051Y-13661694D02*
G01*
X10297795Y-13661694D01*
X10289692Y-13669797D01*
X10299700Y-13669797D01*
X10299725Y-13789710D02*
G01*
X10494035Y-13789710D01*
X10495051Y-13788694D01*
X10629671Y-9869728D02*
G01*
X10629696Y-10709783D01*
X10609605Y-10709706D01*
X10457713Y-10709706D01*
X10437647Y-10689640D01*
X10483367Y-9118904D02*
G01*
X10629696Y-9119793D01*
X10483367Y-8991904D02*
G01*
X10759693Y-8989796D01*
X10483367Y-8737904D02*
G01*
X10281589Y-8737904D01*
X10279684Y-8739809D01*
X10279684Y-8359800D01*
X10427385Y-8359800D01*
X10437647Y-8349538D01*
X10483367Y-8610904D02*
G01*
X10788573Y-8610904D01*
X10789691Y-8609787D01*
X10789691Y-6029807D01*
X10437952Y-6029807D01*
X10437647Y-6029502D01*
X10495051Y-13534694D02*
G01*
X10719688Y-13539800D01*
X10729696Y-13539800D01*
X11159972Y-11198453D02*
G01*
X11419713Y-11199723D01*
X10473461Y-11195100D02*
G01*
X10939983Y-11197386D01*
X11059693Y-9889794D02*
G01*
X11059769Y-11579834D01*
X10829823Y-11579910D01*
X10483367Y-9245904D02*
G01*
X10849686Y-9249790D01*
X10849686Y-9249790D01*
X10495051Y-13915694D02*
G01*
X10845596Y-13915694D01*
X10849686Y-13919784D01*
X10849686Y-11599773D01*
X10849686Y-11579783D01*
X10477144Y-11579783D01*
X10473461Y-11576100D01*
X9489719Y-9499904D02*
G01*
X9489719Y-11829338D01*
X9489465Y-11829592D01*
X9489465Y-11829592D02*
G01*
X9489465Y-14189557D01*
X9489693Y-14189786D01*
X9880600Y-14189786D01*
X9900691Y-14169694D01*
X9569729Y-10249788D02*
G01*
X9569729Y-11709450D01*
X9569475Y-11709704D01*
X9569729Y-9379762D02*
G01*
X9569729Y-10249788D01*
X9569704Y-14039799D02*
G01*
X9569704Y-14039799D01*
X9569729Y-13999768D01*
X9569729Y-11709958D01*
X9569475Y-11709704D01*
X9900691Y-14042694D02*
G01*
X9569704Y-14039799D01*
X10079761Y-9499904D02*
G01*
X9889007Y-9499904D01*
X10079761Y-9379762D02*
G01*
X9895865Y-9379762D01*
X9889007Y-9372904D01*
X10039629Y-11699798D02*
G01*
X9882149Y-11699798D01*
X9878847Y-11703100D01*
X10039629Y-11829846D02*
G01*
X9879101Y-11829846D01*
X9878847Y-11830100D01*
X10079761Y-9249714D02*
G01*
X9892817Y-9249714D01*
X9889007Y-9245904D01*
X10039629Y-11579910D02*
G01*
X9882657Y-11579910D01*
X9878847Y-11576100D01*
X9649713Y-9999802D02*
G01*
X9649688Y-9249790D01*
X9649739Y-11569750D02*
G01*
X9649713Y-9999802D01*
X9669957Y-13919784D02*
G01*
X9655606Y-13915694D01*
X9649688Y-13909776D01*
X9649688Y-11569801D01*
X9900691Y-13915694D02*
G01*
X9669957Y-13919784D01*
X9739655Y-10129799D02*
G01*
X9739655Y-8619820D01*
X9739680Y-8619794D01*
X9877577Y-8619794D01*
X9888880Y-8610803D01*
X9739655Y-10959896D02*
G01*
X9739655Y-10129799D01*
X9900691Y-13280694D02*
G01*
X9739680Y-13279780D01*
X9739655Y-13249706D01*
X9739680Y-10939805D01*
X9878847Y-10941100D01*
X9878847Y-10940846D01*
X9900691Y-13407694D02*
G01*
X9900691Y-13788694D01*
X9888880Y-8737803D02*
G01*
X9888880Y-9118803D01*
X9878898Y-11067795D02*
G01*
X9878898Y-11448795D01*
X9937521Y-13017042D02*
G01*
X10172979Y-13017042D01*
X10185679Y-13029742D01*
X9936759Y-10686592D02*
G01*
X10179583Y-10686592D01*
X10179684Y-10689793D01*
X10179684Y-6649999D02*
G01*
X10179684Y-7470800D01*
X10185679Y-7476794D01*
X9936759Y-6026454D02*
G01*
X10176332Y-6026454D01*
X10179684Y-6029807D01*
X10179684Y-6649999D01*
X9939807Y-8349538D02*
G01*
X9939756Y-8349513D01*
X10189692Y-8349792D01*
X10189692Y-9469805D01*
X10189692Y-9499803D01*
X10188676Y-9799853D02*
G01*
X10189692Y-9529800D01*
X10189692Y-9499803D01*
X10483367Y-9499904D01*
X10483367Y-9499904D01*
X10483240Y-9372803D02*
G01*
X10483240Y-9499803D01*
X10495051Y-14169694D02*
G01*
X10189794Y-14169694D01*
X10189692Y-14169796D01*
X10189692Y-14464131D01*
X10186441Y-14467382D01*
X10495051Y-14042694D02*
G01*
X10495051Y-14169694D01*
X10473512Y-11702795D02*
G01*
X10473512Y-11829795D01*
X10473461Y-11829846D02*
G01*
X10179684Y-11829795D01*
X10179684Y-11849785D01*
X10179583Y-12130836D01*
X10185679Y-12136932D01*
X12939826Y-8721191D02*
G01*
X12939826Y-9031071D01*
X12483642Y-8866225D02*
G01*
X12729463Y-8861120D01*
X12730022Y-8871051D01*
X12730022Y-8871051D01*
X12473736Y-11069421D02*
G01*
X12308382Y-11069421D01*
X12300000Y-11061039D01*
X12300000Y-10571073D01*
X12299975Y-10551109D01*
X12529870Y-10551007D01*
X12529870Y-9791039D01*
X12448082Y-9791039D01*
X12437922Y-9801199D01*
X11940082Y-10690961D02*
G01*
X11930049Y-10690961D01*
X11929922Y-9961118D01*
X12189815Y-9961118D01*
X12189002Y-9801199D01*
X12179858Y-11831167D02*
G01*
X12179858Y-10687913D01*
X12179960Y-12301118D02*
G01*
X12179858Y-12150445D01*
X12189002Y-12141301D01*
X12190018Y-14171015D02*
G01*
X12190018Y-13035127D01*
X12173254Y-13018363D01*
X12179960Y-12301118D02*
G01*
X11929973Y-12301067D01*
X11929973Y-13020903D01*
X11940082Y-13020903D01*
X12189002Y-7481163D02*
G01*
X12189002Y-7627975D01*
X12185954Y-7631023D01*
X12185954Y-7631023D02*
G01*
X11920067Y-7631023D01*
X11909958Y-7641132D01*
X11909958Y-8320735D01*
X11940082Y-8350859D01*
X12473736Y-11450421D02*
G01*
X12680086Y-11451336D01*
X12979958Y-11321135D02*
G01*
X12476022Y-11321135D01*
X12473736Y-11323421D01*
X12473736Y-10942421D02*
G01*
X12909956Y-10941227D01*
X12909956Y-9681108D01*
X12920192Y-9681210D01*
X12495326Y-13282015D02*
G01*
X12299975Y-13281101D01*
X12495326Y-13409015D02*
G01*
X12299975Y-13411098D01*
X12495326Y-13663015D02*
G01*
X12298070Y-13663015D01*
X12289967Y-13671118D01*
X12299975Y-13671118D01*
X12300000Y-13791031D02*
G01*
X12494310Y-13791031D01*
X12495326Y-13790015D01*
X12629946Y-9871049D02*
G01*
X12629972Y-10711103D01*
X12609880Y-10711027D01*
X12457988Y-10711027D01*
X12437922Y-10690961D01*
X12483642Y-9120225D02*
G01*
X12629972Y-9121114D01*
X12483642Y-8993225D02*
G01*
X12759969Y-8991117D01*
X12483642Y-8739225D02*
G01*
X12281865Y-8739225D01*
X12279960Y-8741130D01*
X12279960Y-8361095D01*
X12427661Y-8361095D01*
X12437922Y-8350859D01*
X12483642Y-8612225D02*
G01*
X12788849Y-8612225D01*
X12789966Y-8611108D01*
X12789966Y-6031128D01*
X12438227Y-6031128D01*
X12437922Y-6030823D01*
X13059968Y-9891115D02*
G01*
X13060045Y-11581155D01*
X12830098Y-11581231D01*
X12483642Y-9247225D02*
G01*
X12849961Y-9251111D01*
X12849961Y-9251111D01*
X12495326Y-13917015D02*
G01*
X12845872Y-13917015D01*
X12849961Y-13921104D01*
X12849961Y-11601094D01*
X12849961Y-11581079D01*
X12477419Y-11581079D01*
X12473736Y-11577421D01*
X11489994Y-9501225D02*
G01*
X11489994Y-11830659D01*
X11489740Y-11830913D01*
X11489740Y-11830913D02*
G01*
X11489740Y-14190878D01*
X11489969Y-14191106D01*
X11880875Y-14191106D01*
X11900966Y-14171015D01*
X11570004Y-10251109D02*
G01*
X11570004Y-11710771D01*
X11569750Y-11711025D01*
X11570004Y-9381058D02*
G01*
X11570004Y-10251109D01*
X11579986Y-14039977D02*
G01*
X11569979Y-14041120D01*
X11570004Y-14001089D01*
X11570004Y-11711254D01*
X11569750Y-11711025D01*
X11900966Y-14044015D02*
G01*
X11579986Y-14039977D01*
X12080036Y-9501225D02*
G01*
X11889282Y-9501225D01*
X12080036Y-9381058D02*
G01*
X11896140Y-9381058D01*
X11889282Y-9374225D01*
X12039904Y-11701119D02*
G01*
X11882424Y-11701119D01*
X11879122Y-11704421D01*
X12039904Y-11831167D02*
G01*
X11879376Y-11831167D01*
X11879122Y-11831421D01*
X12080036Y-9251035D02*
G01*
X11893092Y-9251035D01*
X11889282Y-9247225D01*
X12039904Y-11581231D02*
G01*
X11882932Y-11581231D01*
X11879122Y-11577421D01*
X11649989Y-10001122D02*
G01*
X11649963Y-9251111D01*
X11650014Y-11571071D02*
G01*
X11649989Y-10001122D01*
X11670233Y-13921104D02*
G01*
X11655882Y-13917015D01*
X11649963Y-13911097D01*
X11649963Y-11571122D01*
X11900966Y-13917015D02*
G01*
X11670233Y-13921104D01*
X11739930Y-10131120D02*
G01*
X11739930Y-8621140D01*
X11739956Y-8621115D01*
X11877852Y-8621115D01*
X11889155Y-8612124D01*
X11739930Y-10961217D02*
G01*
X11739930Y-10131120D01*
X11900966Y-13282015D02*
G01*
X11739956Y-13281101D01*
X11739930Y-13251027D01*
X11739956Y-10941126D01*
X11879122Y-10942421D01*
X11879122Y-10942167D01*
X11900966Y-13409015D02*
G01*
X11900966Y-13790015D01*
X11889155Y-8739124D02*
G01*
X11889155Y-9120124D01*
X11879173Y-11069116D02*
G01*
X11879173Y-11450116D01*
X11937796Y-13018363D02*
G01*
X12173254Y-13018363D01*
X12185954Y-13031063D01*
X11937034Y-10687913D02*
G01*
X12179858Y-10687913D01*
X12179960Y-10691113D01*
X11937034Y-6027775D02*
G01*
X12176607Y-6027775D01*
X12179960Y-6031128D01*
X12179960Y-7472095D01*
X12185954Y-7478115D01*
X11940082Y-8350859D02*
G01*
X11940031Y-8350834D01*
X12189968Y-8351113D01*
X12189968Y-9471126D01*
X12189968Y-9501124D01*
X12188952Y-9801174D02*
G01*
X12189968Y-9531095D01*
X12189968Y-9501124D01*
X12483642Y-9501225D01*
X12483642Y-9501225D01*
X12483515Y-9374124D02*
G01*
X12483515Y-9501124D01*
X12495326Y-14171015D02*
G01*
X12190069Y-14171015D01*
X12189968Y-14171091D01*
X12189968Y-14465452D01*
X12186716Y-14468703D01*
X12495326Y-14044015D02*
G01*
X12495326Y-14171015D01*
X12473787Y-11704116D02*
G01*
X12473787Y-11831116D01*
X12473736Y-11831167D02*
G01*
X12179960Y-11831116D01*
X12179960Y-11851106D01*
X12179858Y-12132157D01*
X12185954Y-12138253D01*
X22319945Y-14959964D02*
G01*
X22699954Y-14959964D01*
X19389953Y-14959964D02*
G01*
X19679970Y-14960041D01*
D15*
X11829232Y-9500108D02*
G01*
X11949231Y-9500108D01*
X11829232Y-9373108D02*
G01*
X11949231Y-9373108D01*
X11829232Y-9246108D02*
G01*
X11949231Y-9246108D01*
X11829232Y-9119108D02*
G01*
X11949231Y-9119108D01*
X11829232Y-8992108D02*
G01*
X11949231Y-8992108D01*
X11829232Y-8865108D02*
G01*
X11949231Y-8865108D01*
X11829232Y-8738108D02*
G01*
X11949231Y-8738108D01*
X11829232Y-8611108D02*
G01*
X11949231Y-8611108D01*
X12423592Y-9500108D02*
G01*
X12543591Y-9500108D01*
X12423592Y-9373108D02*
G01*
X12543591Y-9373108D01*
X12423592Y-9246108D02*
G01*
X12543591Y-9246108D01*
X12423592Y-9119108D02*
G01*
X12543591Y-9119108D01*
X12423592Y-8992108D02*
G01*
X12543591Y-8992108D01*
X12423592Y-8865108D02*
G01*
X12543591Y-8865108D01*
X12423592Y-8738108D02*
G01*
X12543591Y-8738108D01*
X12423592Y-8611108D02*
G01*
X12543591Y-8611108D01*
X11819072Y-11830304D02*
G01*
X11939071Y-11830304D01*
X11819072Y-11703304D02*
G01*
X11939071Y-11703304D01*
X11819072Y-11576304D02*
G01*
X11939071Y-11576304D01*
X11819072Y-11449304D02*
G01*
X11939071Y-11449304D01*
X11819072Y-11322304D02*
G01*
X11939071Y-11322304D01*
X11819072Y-11195304D02*
G01*
X11939071Y-11195304D01*
X11819072Y-11068304D02*
G01*
X11939071Y-11068304D01*
X11819072Y-10941304D02*
G01*
X11939071Y-10941304D01*
X12413686Y-11830304D02*
G01*
X12533685Y-11830304D01*
X12413686Y-11703304D02*
G01*
X12533685Y-11703304D01*
X12413686Y-11576304D02*
G01*
X12533685Y-11576304D01*
X12413686Y-11449304D02*
G01*
X12533685Y-11449304D01*
X12413686Y-11322304D02*
G01*
X12533685Y-11322304D01*
X12413686Y-11195304D02*
G01*
X12533685Y-11195304D01*
X12413686Y-11068304D02*
G01*
X12533685Y-11068304D01*
X12413686Y-10941304D02*
G01*
X12533685Y-10941304D01*
X11840916Y-14169897D02*
G01*
X11960915Y-14169897D01*
X11840916Y-14042897D02*
G01*
X11960915Y-14042897D01*
X11840916Y-13915897D02*
G01*
X11960915Y-13915897D01*
X11840916Y-13788897D02*
G01*
X11960915Y-13788897D01*
X11840916Y-13661897D02*
G01*
X11960915Y-13661897D01*
X11840916Y-13534897D02*
G01*
X11960915Y-13534897D01*
X11840916Y-13407897D02*
G01*
X11960915Y-13407897D01*
X11840916Y-13280897D02*
G01*
X11960915Y-13280897D01*
X12435276Y-14169897D02*
G01*
X12555275Y-14169897D01*
X12435276Y-14042897D02*
G01*
X12555275Y-14042897D01*
X12435276Y-13915897D02*
G01*
X12555275Y-13915897D01*
X12435276Y-13788897D02*
G01*
X12555275Y-13788897D01*
X12435276Y-13661897D02*
G01*
X12555275Y-13661897D01*
X12435276Y-13534897D02*
G01*
X12555275Y-13534897D01*
X12435276Y-13407897D02*
G01*
X12555275Y-13407897D01*
X12435276Y-13280897D02*
G01*
X12555275Y-13280897D01*
X9829236Y-9500108D02*
G01*
X9949235Y-9500108D01*
X9829236Y-9373108D02*
G01*
X9949235Y-9373108D01*
X9829236Y-9246108D02*
G01*
X9949235Y-9246108D01*
X9829236Y-9119108D02*
G01*
X9949235Y-9119108D01*
X9829236Y-8992108D02*
G01*
X9949235Y-8992108D01*
X9829236Y-8865108D02*
G01*
X9949235Y-8865108D01*
X9829236Y-8738108D02*
G01*
X9949235Y-8738108D01*
X9829236Y-8611108D02*
G01*
X9949235Y-8611108D01*
X10423596Y-9500108D02*
G01*
X10543595Y-9500108D01*
X10423596Y-9373108D02*
G01*
X10543595Y-9373108D01*
X10423596Y-9246108D02*
G01*
X10543595Y-9246108D01*
X10423596Y-9119108D02*
G01*
X10543595Y-9119108D01*
X10423596Y-8992108D02*
G01*
X10543595Y-8992108D01*
X10423596Y-8865108D02*
G01*
X10543595Y-8865108D01*
X10423596Y-8738108D02*
G01*
X10543595Y-8738108D01*
X10423596Y-8611108D02*
G01*
X10543595Y-8611108D01*
X9819076Y-11830304D02*
G01*
X9939075Y-11830304D01*
X9819076Y-11703304D02*
G01*
X9939075Y-11703304D01*
X9819076Y-11576304D02*
G01*
X9939075Y-11576304D01*
X9819076Y-11449304D02*
G01*
X9939075Y-11449304D01*
X9819076Y-11322304D02*
G01*
X9939075Y-11322304D01*
X9819076Y-11195304D02*
G01*
X9939075Y-11195304D01*
X9819076Y-11068304D02*
G01*
X9939075Y-11068304D01*
X9819076Y-10941304D02*
G01*
X9939075Y-10941304D01*
X10413690Y-11830304D02*
G01*
X10533689Y-11830304D01*
X10413690Y-11703304D02*
G01*
X10533689Y-11703304D01*
X10413690Y-11576304D02*
G01*
X10533689Y-11576304D01*
X10413690Y-11449304D02*
G01*
X10533689Y-11449304D01*
X10413690Y-11322304D02*
G01*
X10533689Y-11322304D01*
X10413690Y-11195304D02*
G01*
X10533689Y-11195304D01*
X10413690Y-11068304D02*
G01*
X10533689Y-11068304D01*
X10413690Y-10941304D02*
G01*
X10533689Y-10941304D01*
X9840920Y-14169897D02*
G01*
X9960919Y-14169897D01*
X9840920Y-14042897D02*
G01*
X9960919Y-14042897D01*
X9840920Y-13915897D02*
G01*
X9960919Y-13915897D01*
X9840920Y-13788897D02*
G01*
X9960919Y-13788897D01*
X9840920Y-13661897D02*
G01*
X9960919Y-13661897D01*
X9840920Y-13534897D02*
G01*
X9960919Y-13534897D01*
X9840920Y-13407897D02*
G01*
X9960919Y-13407897D01*
X9840920Y-13280897D02*
G01*
X9960919Y-13280897D01*
X10435280Y-14169897D02*
G01*
X10555279Y-14169897D01*
X10435280Y-14042897D02*
G01*
X10555279Y-14042897D01*
X10435280Y-13915897D02*
G01*
X10555279Y-13915897D01*
X10435280Y-13788897D02*
G01*
X10555279Y-13788897D01*
X10435280Y-13661897D02*
G01*
X10555279Y-13661897D01*
X10435280Y-13534897D02*
G01*
X10555279Y-13534897D01*
X10435280Y-13407897D02*
G01*
X10555279Y-13407897D01*
X10435280Y-13280897D02*
G01*
X10555279Y-13280897D01*
X15829224Y-9500108D02*
G01*
X15949223Y-9500108D01*
X15829224Y-9373108D02*
G01*
X15949223Y-9373108D01*
X15829224Y-9246108D02*
G01*
X15949223Y-9246108D01*
X15829224Y-9119108D02*
G01*
X15949223Y-9119108D01*
X15829224Y-8992108D02*
G01*
X15949223Y-8992108D01*
X15829224Y-8865108D02*
G01*
X15949223Y-8865108D01*
X15829224Y-8738108D02*
G01*
X15949223Y-8738108D01*
X15829224Y-8611108D02*
G01*
X15949223Y-8611108D01*
X16423584Y-9500108D02*
G01*
X16543583Y-9500108D01*
X16423584Y-9373108D02*
G01*
X16543583Y-9373108D01*
X16423584Y-9246108D02*
G01*
X16543583Y-9246108D01*
X16423584Y-9119108D02*
G01*
X16543583Y-9119108D01*
X16423584Y-8992108D02*
G01*
X16543583Y-8992108D01*
X16423584Y-8865108D02*
G01*
X16543583Y-8865108D01*
X16423584Y-8738108D02*
G01*
X16543583Y-8738108D01*
X16423584Y-8611108D02*
G01*
X16543583Y-8611108D01*
X15819064Y-11830304D02*
G01*
X15939063Y-11830304D01*
X15819064Y-11703304D02*
G01*
X15939063Y-11703304D01*
X15819064Y-11576304D02*
G01*
X15939063Y-11576304D01*
X15819064Y-11449304D02*
G01*
X15939063Y-11449304D01*
X15819064Y-11322304D02*
G01*
X15939063Y-11322304D01*
X15819064Y-11195304D02*
G01*
X15939063Y-11195304D01*
X15819064Y-11068304D02*
G01*
X15939063Y-11068304D01*
X15819064Y-10941304D02*
G01*
X15939063Y-10941304D01*
X16413678Y-11830304D02*
G01*
X16533677Y-11830304D01*
X16413678Y-11703304D02*
G01*
X16533677Y-11703304D01*
X16413678Y-11576304D02*
G01*
X16533677Y-11576304D01*
X16413678Y-11449304D02*
G01*
X16533677Y-11449304D01*
X16413678Y-11322304D02*
G01*
X16533677Y-11322304D01*
X16413678Y-11195304D02*
G01*
X16533677Y-11195304D01*
X16413678Y-11068304D02*
G01*
X16533677Y-11068304D01*
X16413678Y-10941304D02*
G01*
X16533677Y-10941304D01*
X15840908Y-14169897D02*
G01*
X15960907Y-14169897D01*
X15840908Y-14042897D02*
G01*
X15960907Y-14042897D01*
X15840908Y-13915897D02*
G01*
X15960907Y-13915897D01*
X15840908Y-13788897D02*
G01*
X15960907Y-13788897D01*
X15840908Y-13661897D02*
G01*
X15960907Y-13661897D01*
X15840908Y-13534897D02*
G01*
X15960907Y-13534897D01*
X15840908Y-13407897D02*
G01*
X15960907Y-13407897D01*
X15840908Y-13280897D02*
G01*
X15960907Y-13280897D01*
X16435268Y-14169897D02*
G01*
X16555267Y-14169897D01*
X16435268Y-14042897D02*
G01*
X16555267Y-14042897D01*
X16435268Y-13915897D02*
G01*
X16555267Y-13915897D01*
X16435268Y-13788897D02*
G01*
X16555267Y-13788897D01*
X16435268Y-13661897D02*
G01*
X16555267Y-13661897D01*
X16435268Y-13534897D02*
G01*
X16555267Y-13534897D01*
X16435268Y-13407897D02*
G01*
X16555267Y-13407897D01*
X16435268Y-13280897D02*
G01*
X16555267Y-13280897D01*
X13829228Y-9500108D02*
G01*
X13949227Y-9500108D01*
X13829228Y-9373108D02*
G01*
X13949227Y-9373108D01*
X13829228Y-9246108D02*
G01*
X13949227Y-9246108D01*
X13829228Y-9119108D02*
G01*
X13949227Y-9119108D01*
X13829228Y-8992108D02*
G01*
X13949227Y-8992108D01*
X13829228Y-8865108D02*
G01*
X13949227Y-8865108D01*
X13829228Y-8738108D02*
G01*
X13949227Y-8738108D01*
X13829228Y-8611108D02*
G01*
X13949227Y-8611108D01*
X14423588Y-9500108D02*
G01*
X14543587Y-9500108D01*
X14423588Y-9373108D02*
G01*
X14543587Y-9373108D01*
X14423588Y-9246108D02*
G01*
X14543587Y-9246108D01*
X14423588Y-9119108D02*
G01*
X14543587Y-9119108D01*
X14423588Y-8992108D02*
G01*
X14543587Y-8992108D01*
X14423588Y-8865108D02*
G01*
X14543587Y-8865108D01*
X14423588Y-8738108D02*
G01*
X14543587Y-8738108D01*
X14423588Y-8611108D02*
G01*
X14543587Y-8611108D01*
X13819068Y-11830304D02*
G01*
X13939067Y-11830304D01*
X13819068Y-11703304D02*
G01*
X13939067Y-11703304D01*
X13819068Y-11576304D02*
G01*
X13939067Y-11576304D01*
X13819068Y-11449304D02*
G01*
X13939067Y-11449304D01*
X13819068Y-11322304D02*
G01*
X13939067Y-11322304D01*
X13819068Y-11195304D02*
G01*
X13939067Y-11195304D01*
X13819068Y-11068304D02*
G01*
X13939067Y-11068304D01*
X13819068Y-10941304D02*
G01*
X13939067Y-10941304D01*
X14413682Y-11830304D02*
G01*
X14533681Y-11830304D01*
X14413682Y-11703304D02*
G01*
X14533681Y-11703304D01*
X14413682Y-11576304D02*
G01*
X14533681Y-11576304D01*
X14413682Y-11449304D02*
G01*
X14533681Y-11449304D01*
X14413682Y-11322304D02*
G01*
X14533681Y-11322304D01*
X14413682Y-11195304D02*
G01*
X14533681Y-11195304D01*
X14413682Y-11068304D02*
G01*
X14533681Y-11068304D01*
X14413682Y-10941304D02*
G01*
X14533681Y-10941304D01*
X13840912Y-14169897D02*
G01*
X13960911Y-14169897D01*
X13840912Y-14042897D02*
G01*
X13960911Y-14042897D01*
X13840912Y-13915897D02*
G01*
X13960911Y-13915897D01*
X13840912Y-13788897D02*
G01*
X13960911Y-13788897D01*
X13840912Y-13661897D02*
G01*
X13960911Y-13661897D01*
X13840912Y-13534897D02*
G01*
X13960911Y-13534897D01*
X13840912Y-13407897D02*
G01*
X13960911Y-13407897D01*
X13840912Y-13280897D02*
G01*
X13960911Y-13280897D01*
X14435272Y-14169897D02*
G01*
X14555271Y-14169897D01*
X14435272Y-14042897D02*
G01*
X14555271Y-14042897D01*
X14435272Y-13915897D02*
G01*
X14555271Y-13915897D01*
X14435272Y-13788897D02*
G01*
X14555271Y-13788897D01*
X14435272Y-13661897D02*
G01*
X14555271Y-13661897D01*
X14435272Y-13534897D02*
G01*
X14555271Y-13534897D01*
X14435272Y-13407897D02*
G01*
X14555271Y-13407897D01*
X14435272Y-13280897D02*
G01*
X14555271Y-13280897D01*
X17829220Y-9499854D02*
G01*
X17949219Y-9499854D01*
X17829220Y-9372854D02*
G01*
X17949219Y-9372854D01*
X17829220Y-9245854D02*
G01*
X17949219Y-9245854D01*
X17829220Y-9118854D02*
G01*
X17949219Y-9118854D01*
X17829220Y-8991854D02*
G01*
X17949219Y-8991854D01*
X17829220Y-8864854D02*
G01*
X17949219Y-8864854D01*
X17829220Y-8737854D02*
G01*
X17949219Y-8737854D01*
X17829220Y-8610854D02*
G01*
X17949219Y-8610854D01*
X18423580Y-9499854D02*
G01*
X18543579Y-9499854D01*
X18423580Y-9372854D02*
G01*
X18543579Y-9372854D01*
X18423580Y-9245854D02*
G01*
X18543579Y-9245854D01*
X18423580Y-9118854D02*
G01*
X18543579Y-9118854D01*
X18423580Y-8991854D02*
G01*
X18543579Y-8991854D01*
X18423580Y-8864854D02*
G01*
X18543579Y-8864854D01*
X18423580Y-8737854D02*
G01*
X18543579Y-8737854D01*
X18423580Y-8610854D02*
G01*
X18543579Y-8610854D01*
X17819060Y-11830050D02*
G01*
X17939059Y-11830050D01*
X17819060Y-11703050D02*
G01*
X17939059Y-11703050D01*
X17819060Y-11576050D02*
G01*
X17939059Y-11576050D01*
X17819060Y-11449050D02*
G01*
X17939059Y-11449050D01*
X17819060Y-11322050D02*
G01*
X17939059Y-11322050D01*
X17819060Y-11195050D02*
G01*
X17939059Y-11195050D01*
X17819060Y-11068050D02*
G01*
X17939059Y-11068050D01*
X17819060Y-10941050D02*
G01*
X17939059Y-10941050D01*
X18413674Y-11830050D02*
G01*
X18533673Y-11830050D01*
X18413674Y-11703050D02*
G01*
X18533673Y-11703050D01*
X18413674Y-11576050D02*
G01*
X18533673Y-11576050D01*
X18413674Y-11449050D02*
G01*
X18533673Y-11449050D01*
X18413674Y-11322050D02*
G01*
X18533673Y-11322050D01*
X18413674Y-11195050D02*
G01*
X18533673Y-11195050D01*
X18413674Y-11068050D02*
G01*
X18533673Y-11068050D01*
X18413674Y-10941050D02*
G01*
X18533673Y-10941050D01*
X17840904Y-14169644D02*
G01*
X17960903Y-14169644D01*
X17840904Y-14042644D02*
G01*
X17960903Y-14042644D01*
X17840904Y-13915644D02*
G01*
X17960903Y-13915644D01*
X17840904Y-13788644D02*
G01*
X17960903Y-13788644D01*
X17840904Y-13661644D02*
G01*
X17960903Y-13661644D01*
X17840904Y-13534644D02*
G01*
X17960903Y-13534644D01*
X17840904Y-13407644D02*
G01*
X17960903Y-13407644D01*
X17840904Y-13280644D02*
G01*
X17960903Y-13280644D01*
X18435264Y-14169644D02*
G01*
X18555263Y-14169644D01*
X18435264Y-14042644D02*
G01*
X18555263Y-14042644D01*
X18435264Y-13915644D02*
G01*
X18555263Y-13915644D01*
X18435264Y-13788644D02*
G01*
X18555263Y-13788644D01*
X18435264Y-13661644D02*
G01*
X18555263Y-13661644D01*
X18435264Y-13534644D02*
G01*
X18555263Y-13534644D01*
X18435264Y-13407644D02*
G01*
X18555263Y-13407644D01*
X18435264Y-13280644D02*
G01*
X18555263Y-13280644D01*
X22829464Y-9499854D02*
G01*
X22949463Y-9499854D01*
X22829464Y-9372854D02*
G01*
X22949463Y-9372854D01*
X22829464Y-9245854D02*
G01*
X22949463Y-9245854D01*
X22829464Y-9118854D02*
G01*
X22949463Y-9118854D01*
X22829464Y-8991854D02*
G01*
X22949463Y-8991854D01*
X22829464Y-8864854D02*
G01*
X22949463Y-8864854D01*
X22829464Y-8737854D02*
G01*
X22949463Y-8737854D01*
X22829464Y-8610854D02*
G01*
X22949463Y-8610854D01*
X23423824Y-9499854D02*
G01*
X23543823Y-9499854D01*
X23423824Y-9372854D02*
G01*
X23543823Y-9372854D01*
X23423824Y-9245854D02*
G01*
X23543823Y-9245854D01*
X23423824Y-9118854D02*
G01*
X23543823Y-9118854D01*
X23423824Y-8991854D02*
G01*
X23543823Y-8991854D01*
X23423824Y-8864854D02*
G01*
X23543823Y-8864854D01*
X23423824Y-8737854D02*
G01*
X23543823Y-8737854D01*
X23423824Y-8610854D02*
G01*
X23543823Y-8610854D01*
X22819304Y-11830304D02*
G01*
X22939303Y-11830304D01*
X22819304Y-11703304D02*
G01*
X22939303Y-11703304D01*
X22819304Y-11576304D02*
G01*
X22939303Y-11576304D01*
X22819304Y-11449304D02*
G01*
X22939303Y-11449304D01*
X22819304Y-11322304D02*
G01*
X22939303Y-11322304D01*
X22819304Y-11195304D02*
G01*
X22939303Y-11195304D01*
X22819304Y-11068304D02*
G01*
X22939303Y-11068304D01*
X22819304Y-10941304D02*
G01*
X22939303Y-10941304D01*
X23413918Y-11830304D02*
G01*
X23533917Y-11830304D01*
X23413918Y-11703304D02*
G01*
X23533917Y-11703304D01*
X23413918Y-11576304D02*
G01*
X23533917Y-11576304D01*
X23413918Y-11449304D02*
G01*
X23533917Y-11449304D01*
X23413918Y-11322304D02*
G01*
X23533917Y-11322304D01*
X23413918Y-11195304D02*
G01*
X23533917Y-11195304D01*
X23413918Y-11068304D02*
G01*
X23533917Y-11068304D01*
X23413918Y-10941304D02*
G01*
X23533917Y-10941304D01*
X22841148Y-14169897D02*
G01*
X22961147Y-14169897D01*
X22841148Y-14042897D02*
G01*
X22961147Y-14042897D01*
X22841148Y-13915897D02*
G01*
X22961147Y-13915897D01*
X22841148Y-13788897D02*
G01*
X22961147Y-13788897D01*
X22841148Y-13661897D02*
G01*
X22961147Y-13661897D01*
X22841148Y-13534897D02*
G01*
X22961147Y-13534897D01*
X22841148Y-13407897D02*
G01*
X22961147Y-13407897D01*
X22841148Y-13280897D02*
G01*
X22961147Y-13280897D01*
X23435508Y-14169897D02*
G01*
X23555507Y-14169897D01*
X23435508Y-14042897D02*
G01*
X23555507Y-14042897D01*
X23435508Y-13915897D02*
G01*
X23555507Y-13915897D01*
X23435508Y-13788897D02*
G01*
X23555507Y-13788897D01*
X23435508Y-13661897D02*
G01*
X23555507Y-13661897D01*
X23435508Y-13534897D02*
G01*
X23555507Y-13534897D01*
X23435508Y-13407897D02*
G01*
X23555507Y-13407897D01*
X23435508Y-13280897D02*
G01*
X23555507Y-13280897D01*
X19829216Y-9499854D02*
G01*
X19949215Y-9499854D01*
X19829216Y-9372854D02*
G01*
X19949215Y-9372854D01*
X19829216Y-9245854D02*
G01*
X19949215Y-9245854D01*
X19829216Y-9118854D02*
G01*
X19949215Y-9118854D01*
X19829216Y-8991854D02*
G01*
X19949215Y-8991854D01*
X19829216Y-8864854D02*
G01*
X19949215Y-8864854D01*
X19829216Y-8737854D02*
G01*
X19949215Y-8737854D01*
X19829216Y-8610854D02*
G01*
X19949215Y-8610854D01*
X20423576Y-9499854D02*
G01*
X20543575Y-9499854D01*
X20423576Y-9372854D02*
G01*
X20543575Y-9372854D01*
X20423576Y-9245854D02*
G01*
X20543575Y-9245854D01*
X20423576Y-9118854D02*
G01*
X20543575Y-9118854D01*
X20423576Y-8991854D02*
G01*
X20543575Y-8991854D01*
X20423576Y-8864854D02*
G01*
X20543575Y-8864854D01*
X20423576Y-8737854D02*
G01*
X20543575Y-8737854D01*
X20423576Y-8610854D02*
G01*
X20543575Y-8610854D01*
X19819056Y-11830050D02*
G01*
X19939055Y-11830050D01*
X19819056Y-11703050D02*
G01*
X19939055Y-11703050D01*
X19819056Y-11576050D02*
G01*
X19939055Y-11576050D01*
X19819056Y-11449050D02*
G01*
X19939055Y-11449050D01*
X19819056Y-11322050D02*
G01*
X19939055Y-11322050D01*
X19819056Y-11195050D02*
G01*
X19939055Y-11195050D01*
X19819056Y-11068050D02*
G01*
X19939055Y-11068050D01*
X19819056Y-10941050D02*
G01*
X19939055Y-10941050D01*
X20413670Y-11830050D02*
G01*
X20533669Y-11830050D01*
X20413670Y-11703050D02*
G01*
X20533669Y-11703050D01*
X20413670Y-11576050D02*
G01*
X20533669Y-11576050D01*
X20413670Y-11449050D02*
G01*
X20533669Y-11449050D01*
X20413670Y-11322050D02*
G01*
X20533669Y-11322050D01*
X20413670Y-11195050D02*
G01*
X20533669Y-11195050D01*
X20413670Y-11068050D02*
G01*
X20533669Y-11068050D01*
X20413670Y-10941050D02*
G01*
X20533669Y-10941050D01*
X19840900Y-14169644D02*
G01*
X19960899Y-14169644D01*
X19840900Y-14042644D02*
G01*
X19960899Y-14042644D01*
X19840900Y-13915644D02*
G01*
X19960899Y-13915644D01*
X19840900Y-13788644D02*
G01*
X19960899Y-13788644D01*
X19840900Y-13661644D02*
G01*
X19960899Y-13661644D01*
X19840900Y-13534644D02*
G01*
X19960899Y-13534644D01*
X19840900Y-13407644D02*
G01*
X19960899Y-13407644D01*
X19840900Y-13280644D02*
G01*
X19960899Y-13280644D01*
X20435260Y-14169644D02*
G01*
X20555259Y-14169644D01*
X20435260Y-14042644D02*
G01*
X20555259Y-14042644D01*
X20435260Y-13915644D02*
G01*
X20555259Y-13915644D01*
X20435260Y-13788644D02*
G01*
X20555259Y-13788644D01*
X20435260Y-13661644D02*
G01*
X20555259Y-13661644D01*
X20435260Y-13534644D02*
G01*
X20555259Y-13534644D01*
X20435260Y-13407644D02*
G01*
X20555259Y-13407644D01*
X20435260Y-13280644D02*
G01*
X20555259Y-13280644D01*
G36*
X24744984Y-12265050D02*
G01*
X24744984Y-12115190D01*
X24595124Y-12115190D01*
X24595124Y-12265050D01*
G37*
D13*
G01*
X24668225Y-11935968D03*
G01*
X24668225Y-11681968D03*
G01*
X24668225Y-11427968D03*
G01*
X24668225Y-11173968D03*
G01*
X24668225Y-10919968D03*
G01*
X24668225Y-10665968D03*
G01*
X24668225Y-10411968D03*
G01*
X24668225Y-10157968D03*
G01*
X24668225Y-9903968D03*
G01*
X24668225Y-9649968D03*
G01*
X24668225Y-9395968D03*
G01*
X24668225Y-9141968D03*
G01*
X24668225Y-8887968D03*
G01*
X24668225Y-8633968D03*
G01*
X24668225Y-8379968D03*
G36*
X11870054Y-14401190D02*
G01*
X12010009Y-14401190D01*
X12010009Y-14541144D01*
X11870054Y-14541144D01*
G37*
G36*
X12118975Y-14401190D02*
G01*
X12258929Y-14401190D01*
X12258929Y-14541144D01*
X12118975Y-14541144D01*
G37*
G36*
X12367895Y-14401190D02*
G01*
X12507849Y-14401190D01*
X12507849Y-14541144D01*
X12367895Y-14541144D01*
G37*
G36*
X11870054Y-12950850D02*
G01*
X12010009Y-12950850D01*
X12010009Y-13090804D01*
X11870054Y-13090804D01*
G37*
G36*
X12367895Y-12950850D02*
G01*
X12507849Y-12950850D01*
X12507849Y-13090804D01*
X12367895Y-13090804D01*
G37*
G36*
X11870054Y-12071197D02*
G01*
X12010009Y-12071197D01*
X12010009Y-12211151D01*
X11870054Y-12211151D01*
G37*
G36*
X12118975Y-12071197D02*
G01*
X12258929Y-12071197D01*
X12258929Y-12211151D01*
X12118975Y-12211151D01*
G37*
G36*
X12367895Y-12071197D02*
G01*
X12507849Y-12071197D01*
X12507849Y-12211151D01*
X12367895Y-12211151D01*
G37*
G36*
X11870054Y-10620857D02*
G01*
X12010009Y-10620857D01*
X12010009Y-10760811D01*
X11870054Y-10760811D01*
G37*
G36*
X12367895Y-10620857D02*
G01*
X12507849Y-10620857D01*
X12507849Y-10760811D01*
X12367895Y-10760811D01*
G37*
G36*
X11870054Y-9731197D02*
G01*
X12010009Y-9731197D01*
X12010009Y-9871151D01*
X11870054Y-9871151D01*
G37*
G36*
X12118975Y-9731197D02*
G01*
X12258929Y-9731197D01*
X12258929Y-9871151D01*
X12118975Y-9871151D01*
G37*
G36*
X12367895Y-9731197D02*
G01*
X12507849Y-9731197D01*
X12507849Y-9871151D01*
X12367895Y-9871151D01*
G37*
G36*
X11870054Y-8280857D02*
G01*
X12010009Y-8280857D01*
X12010009Y-8420811D01*
X11870054Y-8420811D01*
G37*
G36*
X12367895Y-8280857D02*
G01*
X12507849Y-8280857D01*
X12507849Y-8420811D01*
X12367895Y-8420811D01*
G37*
G36*
X11870054Y-7411212D02*
G01*
X12010009Y-7411212D01*
X12010009Y-7551165D01*
X11870054Y-7551165D01*
G37*
G36*
X12118975Y-7411212D02*
G01*
X12258929Y-7411212D01*
X12258929Y-7551165D01*
X12118975Y-7551165D01*
G37*
G36*
X12367895Y-7411212D02*
G01*
X12507849Y-7411212D01*
X12507849Y-7551165D01*
X12367895Y-7551165D01*
G37*
G36*
X11870054Y-5960871D02*
G01*
X12010009Y-5960871D01*
X12010009Y-6100826D01*
X11870054Y-6100826D01*
G37*
G36*
X12367895Y-5960871D02*
G01*
X12507849Y-5960871D01*
X12507849Y-6100826D01*
X12367895Y-6100826D01*
G37*
G36*
X9869779Y-14399869D02*
G01*
X10009733Y-14399869D01*
X10009733Y-14539823D01*
X9869779Y-14539823D01*
G37*
G36*
X10118699Y-14399869D02*
G01*
X10258653Y-14399869D01*
X10258653Y-14539823D01*
X10118699Y-14539823D01*
G37*
G36*
X10367619Y-14399869D02*
G01*
X10507573Y-14399869D01*
X10507573Y-14539823D01*
X10367619Y-14539823D01*
G37*
G36*
X9869779Y-12949529D02*
G01*
X10009733Y-12949529D01*
X10009733Y-13089483D01*
X9869779Y-13089483D01*
G37*
G36*
X10367619Y-12949529D02*
G01*
X10507573Y-12949529D01*
X10507573Y-13089483D01*
X10367619Y-13089483D01*
G37*
G36*
X9869779Y-12069876D02*
G01*
X10009733Y-12069876D01*
X10009733Y-12209830D01*
X9869779Y-12209830D01*
G37*
G36*
X10118699Y-12069876D02*
G01*
X10258653Y-12069876D01*
X10258653Y-12209830D01*
X10118699Y-12209830D01*
G37*
G36*
X10367619Y-12069876D02*
G01*
X10507573Y-12069876D01*
X10507573Y-12209830D01*
X10367619Y-12209830D01*
G37*
G36*
X9869779Y-10619536D02*
G01*
X10009733Y-10619536D01*
X10009733Y-10759490D01*
X9869779Y-10759490D01*
G37*
G36*
X10367619Y-10619536D02*
G01*
X10507573Y-10619536D01*
X10507573Y-10759490D01*
X10367619Y-10759490D01*
G37*
G36*
X9869779Y-9729876D02*
G01*
X10009733Y-9729876D01*
X10009733Y-9869830D01*
X9869779Y-9869830D01*
G37*
G36*
X10118699Y-9729876D02*
G01*
X10258653Y-9729876D01*
X10258653Y-9869830D01*
X10118699Y-9869830D01*
G37*
G36*
X10367619Y-9729876D02*
G01*
X10507573Y-9729876D01*
X10507573Y-9869830D01*
X10367619Y-9869830D01*
G37*
G36*
X9869779Y-8279536D02*
G01*
X10009733Y-8279536D01*
X10009733Y-8419490D01*
X9869779Y-8419490D01*
G37*
G36*
X10367619Y-8279536D02*
G01*
X10507573Y-8279536D01*
X10507573Y-8419490D01*
X10367619Y-8419490D01*
G37*
G36*
X9869779Y-7409891D02*
G01*
X10009733Y-7409891D01*
X10009733Y-7549845D01*
X9869779Y-7549845D01*
G37*
G36*
X10118699Y-7409891D02*
G01*
X10258653Y-7409891D01*
X10258653Y-7549845D01*
X10118699Y-7549845D01*
G37*
G36*
X10367619Y-7409891D02*
G01*
X10507573Y-7409891D01*
X10507573Y-7549845D01*
X10367619Y-7549845D01*
G37*
G36*
X9869779Y-5959551D02*
G01*
X10009733Y-5959551D01*
X10009733Y-6099505D01*
X9869779Y-6099505D01*
G37*
G36*
X10367619Y-5959551D02*
G01*
X10507573Y-5959551D01*
X10507573Y-6099505D01*
X10367619Y-6099505D01*
G37*
G36*
X15867786Y-14399869D02*
G01*
X16007740Y-14399869D01*
X16007740Y-14539823D01*
X15867786Y-14539823D01*
G37*
G36*
X16116706Y-14399869D02*
G01*
X16256660Y-14399869D01*
X16256660Y-14539823D01*
X16116706Y-14539823D01*
G37*
G36*
X16365626Y-14399869D02*
G01*
X16505580Y-14399869D01*
X16505580Y-14539823D01*
X16365626Y-14539823D01*
G37*
G36*
X15867786Y-12949529D02*
G01*
X16007740Y-12949529D01*
X16007740Y-13089483D01*
X15867786Y-13089483D01*
G37*
G36*
X16365626Y-12949529D02*
G01*
X16505580Y-12949529D01*
X16505580Y-13089483D01*
X16365626Y-13089483D01*
G37*
G36*
X15867786Y-12069876D02*
G01*
X16007740Y-12069876D01*
X16007740Y-12209830D01*
X15867786Y-12209830D01*
G37*
G36*
X16116706Y-12069876D02*
G01*
X16256660Y-12069876D01*
X16256660Y-12209830D01*
X16116706Y-12209830D01*
G37*
G36*
X16365626Y-12069876D02*
G01*
X16505580Y-12069876D01*
X16505580Y-12209830D01*
X16365626Y-12209830D01*
G37*
G36*
X15867786Y-10619536D02*
G01*
X16007740Y-10619536D01*
X16007740Y-10759490D01*
X15867786Y-10759490D01*
G37*
G36*
X16365626Y-10619536D02*
G01*
X16505580Y-10619536D01*
X16505580Y-10759490D01*
X16365626Y-10759490D01*
G37*
G36*
X15867786Y-9729876D02*
G01*
X16007740Y-9729876D01*
X16007740Y-9869830D01*
X15867786Y-9869830D01*
G37*
G36*
X16116706Y-9729876D02*
G01*
X16256660Y-9729876D01*
X16256660Y-9869830D01*
X16116706Y-9869830D01*
G37*
G36*
X16365626Y-9729876D02*
G01*
X16505580Y-9729876D01*
X16505580Y-9869830D01*
X16365626Y-9869830D01*
G37*
G36*
X15867786Y-8279536D02*
G01*
X16007740Y-8279536D01*
X16007740Y-8419490D01*
X15867786Y-8419490D01*
G37*
G36*
X16365626Y-8279536D02*
G01*
X16505580Y-8279536D01*
X16505580Y-8419490D01*
X16365626Y-8419490D01*
G37*
G36*
X15867786Y-7409891D02*
G01*
X16007740Y-7409891D01*
X16007740Y-7549845D01*
X15867786Y-7549845D01*
G37*
G36*
X16116706Y-7409891D02*
G01*
X16256660Y-7409891D01*
X16256660Y-7549845D01*
X16116706Y-7549845D01*
G37*
G36*
X16365626Y-7409891D02*
G01*
X16505580Y-7409891D01*
X16505580Y-7549845D01*
X16365626Y-7549845D01*
G37*
G36*
X15867786Y-5959551D02*
G01*
X16007740Y-5959551D01*
X16007740Y-6099505D01*
X15867786Y-6099505D01*
G37*
G36*
X16365626Y-5959551D02*
G01*
X16505580Y-5959551D01*
X16505580Y-6099505D01*
X16365626Y-6099505D01*
G37*
G36*
X13867511Y-14398574D02*
G01*
X14007465Y-14398574D01*
X14007465Y-14538528D01*
X13867511Y-14538528D01*
G37*
G36*
X14116431Y-14398574D02*
G01*
X14256384Y-14398574D01*
X14256384Y-14538528D01*
X14116431Y-14538528D01*
G37*
G36*
X14365350Y-14398574D02*
G01*
X14505304Y-14398574D01*
X14505304Y-14538528D01*
X14365350Y-14538528D01*
G37*
G36*
X13867511Y-12948234D02*
G01*
X14007465Y-12948234D01*
X14007465Y-13088188D01*
X13867511Y-13088188D01*
G37*
G36*
X14365350Y-12948234D02*
G01*
X14505304Y-12948234D01*
X14505304Y-13088188D01*
X14365350Y-13088188D01*
G37*
G36*
X13867511Y-12068581D02*
G01*
X14007465Y-12068581D01*
X14007465Y-12208535D01*
X13867511Y-12208535D01*
G37*
G36*
X14116431Y-12068581D02*
G01*
X14256384Y-12068581D01*
X14256384Y-12208535D01*
X14116431Y-12208535D01*
G37*
G36*
X14365350Y-12068581D02*
G01*
X14505304Y-12068581D01*
X14505304Y-12208535D01*
X14365350Y-12208535D01*
G37*
G36*
X13867511Y-10618241D02*
G01*
X14007465Y-10618241D01*
X14007465Y-10758195D01*
X13867511Y-10758195D01*
G37*
G36*
X14365350Y-10618241D02*
G01*
X14505304Y-10618241D01*
X14505304Y-10758195D01*
X14365350Y-10758195D01*
G37*
G36*
X13867511Y-9728580D02*
G01*
X14007465Y-9728580D01*
X14007465Y-9868535D01*
X13867511Y-9868535D01*
G37*
G36*
X14116431Y-9728580D02*
G01*
X14256384Y-9728580D01*
X14256384Y-9868535D01*
X14116431Y-9868535D01*
G37*
G36*
X14365350Y-9728580D02*
G01*
X14505304Y-9728580D01*
X14505304Y-9868535D01*
X14365350Y-9868535D01*
G37*
G36*
X13867511Y-8278240D02*
G01*
X14007465Y-8278240D01*
X14007465Y-8418195D01*
X13867511Y-8418195D01*
G37*
G36*
X14365350Y-8278240D02*
G01*
X14505304Y-8278240D01*
X14505304Y-8418195D01*
X14365350Y-8418195D01*
G37*
G36*
X13867511Y-7408595D02*
G01*
X14007465Y-7408595D01*
X14007465Y-7548549D01*
X13867511Y-7548549D01*
G37*
G36*
X14116431Y-7408595D02*
G01*
X14256384Y-7408595D01*
X14256384Y-7548549D01*
X14116431Y-7548549D01*
G37*
G36*
X14365350Y-7408595D02*
G01*
X14505304Y-7408595D01*
X14505304Y-7548549D01*
X14365350Y-7548549D01*
G37*
G36*
X13867511Y-5958255D02*
G01*
X14007465Y-5958255D01*
X14007465Y-6098209D01*
X13867511Y-6098209D01*
G37*
G36*
X14365350Y-5958255D02*
G01*
X14505304Y-5958255D01*
X14505304Y-6098209D01*
X14365350Y-6098209D01*
G37*
G36*
X17869636Y-14401495D02*
G01*
X18009590Y-14401495D01*
X18009590Y-14541449D01*
X17869636Y-14541449D01*
G37*
G36*
X18118556Y-14401495D02*
G01*
X18258510Y-14401495D01*
X18258510Y-14541449D01*
X18118556Y-14541449D01*
G37*
G36*
X18367476Y-14401495D02*
G01*
X18507430Y-14401495D01*
X18507430Y-14541449D01*
X18367476Y-14541449D01*
G37*
G36*
X17869636Y-12951155D02*
G01*
X18009590Y-12951155D01*
X18009590Y-13091109D01*
X17869636Y-13091109D01*
G37*
G36*
X18367476Y-12951155D02*
G01*
X18507430Y-12951155D01*
X18507430Y-13091109D01*
X18367476Y-13091109D01*
G37*
G36*
X17869636Y-12071502D02*
G01*
X18009590Y-12071502D01*
X18009590Y-12211456D01*
X17869636Y-12211456D01*
G37*
G36*
X18118556Y-12071502D02*
G01*
X18258510Y-12071502D01*
X18258510Y-12211456D01*
X18118556Y-12211456D01*
G37*
G36*
X18367476Y-12071502D02*
G01*
X18507430Y-12071502D01*
X18507430Y-12211456D01*
X18367476Y-12211456D01*
G37*
G36*
X17869636Y-10621162D02*
G01*
X18009590Y-10621162D01*
X18009590Y-10761116D01*
X17869636Y-10761116D01*
G37*
G36*
X18367476Y-10621162D02*
G01*
X18507430Y-10621162D01*
X18507430Y-10761116D01*
X18367476Y-10761116D01*
G37*
G36*
X17869636Y-9731502D02*
G01*
X18009590Y-9731502D01*
X18009590Y-9871455D01*
X17869636Y-9871455D01*
G37*
G36*
X18118556Y-9731502D02*
G01*
X18258510Y-9731502D01*
X18258510Y-9871455D01*
X18118556Y-9871455D01*
G37*
G36*
X18367476Y-9731502D02*
G01*
X18507430Y-9731502D01*
X18507430Y-9871455D01*
X18367476Y-9871455D01*
G37*
G36*
X17869636Y-8281162D02*
G01*
X18009590Y-8281162D01*
X18009590Y-8421115D01*
X17869636Y-8421115D01*
G37*
G36*
X18367476Y-8281162D02*
G01*
X18507430Y-8281162D01*
X18507430Y-8421115D01*
X18367476Y-8421115D01*
G37*
G36*
X17869636Y-7411516D02*
G01*
X18009590Y-7411516D01*
X18009590Y-7551470D01*
X17869636Y-7551470D01*
G37*
G36*
X18118556Y-7411516D02*
G01*
X18258510Y-7411516D01*
X18258510Y-7551470D01*
X18118556Y-7551470D01*
G37*
G36*
X18367476Y-7411516D02*
G01*
X18507430Y-7411516D01*
X18507430Y-7551470D01*
X18367476Y-7551470D01*
G37*
G36*
X17869636Y-5961176D02*
G01*
X18009590Y-5961176D01*
X18009590Y-6101130D01*
X17869636Y-6101130D01*
G37*
G36*
X18367476Y-5961176D02*
G01*
X18507430Y-5961176D01*
X18507430Y-6101130D01*
X18367476Y-6101130D01*
G37*
G36*
X22866375Y-14399869D02*
G01*
X23006329Y-14399869D01*
X23006329Y-14539823D01*
X22866375Y-14539823D01*
G37*
G36*
X23115295Y-14399869D02*
G01*
X23255249Y-14399869D01*
X23255249Y-14539823D01*
X23115295Y-14539823D01*
G37*
G36*
X23364215Y-14399869D02*
G01*
X23504169Y-14399869D01*
X23504169Y-14539823D01*
X23364215Y-14539823D01*
G37*
G36*
X22866375Y-12949529D02*
G01*
X23006329Y-12949529D01*
X23006329Y-13089483D01*
X22866375Y-13089483D01*
G37*
G36*
X23364215Y-12949529D02*
G01*
X23504169Y-12949529D01*
X23504169Y-13089483D01*
X23364215Y-13089483D01*
G37*
G36*
X22866375Y-12069876D02*
G01*
X23006329Y-12069876D01*
X23006329Y-12209830D01*
X22866375Y-12209830D01*
G37*
G36*
X23115295Y-12069876D02*
G01*
X23255249Y-12069876D01*
X23255249Y-12209830D01*
X23115295Y-12209830D01*
G37*
G36*
X23364215Y-12069876D02*
G01*
X23504169Y-12069876D01*
X23504169Y-12209830D01*
X23364215Y-12209830D01*
G37*
G36*
X22866375Y-10619536D02*
G01*
X23006329Y-10619536D01*
X23006329Y-10759490D01*
X22866375Y-10759490D01*
G37*
G36*
X23364215Y-10619536D02*
G01*
X23504169Y-10619536D01*
X23504169Y-10759490D01*
X23364215Y-10759490D01*
G37*
G36*
X22866375Y-9729876D02*
G01*
X23006329Y-9729876D01*
X23006329Y-9869830D01*
X22866375Y-9869830D01*
G37*
G36*
X23115295Y-9729876D02*
G01*
X23255249Y-9729876D01*
X23255249Y-9869830D01*
X23115295Y-9869830D01*
G37*
G36*
X23364215Y-9729876D02*
G01*
X23504169Y-9729876D01*
X23504169Y-9869830D01*
X23364215Y-9869830D01*
G37*
G36*
X22866375Y-8279536D02*
G01*
X23006329Y-8279536D01*
X23006329Y-8419490D01*
X22866375Y-8419490D01*
G37*
G36*
X23364215Y-8279536D02*
G01*
X23504169Y-8279536D01*
X23504169Y-8419490D01*
X23364215Y-8419490D01*
G37*
G36*
X22866375Y-7409891D02*
G01*
X23006329Y-7409891D01*
X23006329Y-7549845D01*
X22866375Y-7549845D01*
G37*
G36*
X23115295Y-7409891D02*
G01*
X23255249Y-7409891D01*
X23255249Y-7549845D01*
X23115295Y-7549845D01*
G37*
G36*
X23364215Y-7409891D02*
G01*
X23504169Y-7409891D01*
X23504169Y-7549845D01*
X23364215Y-7549845D01*
G37*
G36*
X22866375Y-5959551D02*
G01*
X23006329Y-5959551D01*
X23006329Y-6099505D01*
X22866375Y-6099505D01*
G37*
G36*
X23364215Y-5959551D02*
G01*
X23504169Y-5959551D01*
X23504169Y-6099505D01*
X23364215Y-6099505D01*
G37*
G36*
X19867092Y-14398879D02*
G01*
X20007046Y-14398879D01*
X20007046Y-14538832D01*
X19867092Y-14538832D01*
G37*
G36*
X20116012Y-14398879D02*
G01*
X20255966Y-14398879D01*
X20255966Y-14538832D01*
X20116012Y-14538832D01*
G37*
G36*
X20364932Y-14398879D02*
G01*
X20504886Y-14398879D01*
X20504886Y-14538832D01*
X20364932Y-14538832D01*
G37*
G36*
X19867092Y-12948538D02*
G01*
X20007046Y-12948538D01*
X20007046Y-13088493D01*
X19867092Y-13088493D01*
G37*
G36*
X20364932Y-12948538D02*
G01*
X20504886Y-12948538D01*
X20504886Y-13088493D01*
X20364932Y-13088493D01*
G37*
G36*
X19867092Y-12068886D02*
G01*
X20007046Y-12068886D01*
X20007046Y-12208840D01*
X19867092Y-12208840D01*
G37*
G36*
X20116012Y-12068886D02*
G01*
X20255966Y-12068886D01*
X20255966Y-12208840D01*
X20116012Y-12208840D01*
G37*
G36*
X20364932Y-12068886D02*
G01*
X20504886Y-12068886D01*
X20504886Y-12208840D01*
X20364932Y-12208840D01*
G37*
G36*
X19867092Y-10618546D02*
G01*
X20007046Y-10618546D01*
X20007046Y-10758500D01*
X19867092Y-10758500D01*
G37*
G36*
X20364932Y-10618546D02*
G01*
X20504886Y-10618546D01*
X20504886Y-10758500D01*
X20364932Y-10758500D01*
G37*
G36*
X19867092Y-9728885D02*
G01*
X20007046Y-9728885D01*
X20007046Y-9868839D01*
X19867092Y-9868839D01*
G37*
G36*
X20116012Y-9728885D02*
G01*
X20255966Y-9728885D01*
X20255966Y-9868839D01*
X20116012Y-9868839D01*
G37*
G36*
X20364932Y-9728885D02*
G01*
X20504886Y-9728885D01*
X20504886Y-9868839D01*
X20364932Y-9868839D01*
G37*
G36*
X19867092Y-8278545D02*
G01*
X20007046Y-8278545D01*
X20007046Y-8418499D01*
X19867092Y-8418499D01*
G37*
G36*
X20364932Y-8278545D02*
G01*
X20504886Y-8278545D01*
X20504886Y-8418499D01*
X20364932Y-8418499D01*
G37*
G36*
X19867092Y-7408900D02*
G01*
X20007046Y-7408900D01*
X20007046Y-7548854D01*
X19867092Y-7548854D01*
G37*
G36*
X20116012Y-7408900D02*
G01*
X20255966Y-7408900D01*
X20255966Y-7548854D01*
X20116012Y-7548854D01*
G37*
G36*
X20364932Y-7408900D02*
G01*
X20504886Y-7408900D01*
X20504886Y-7548854D01*
X20364932Y-7548854D01*
G37*
G36*
X19867092Y-5958560D02*
G01*
X20007046Y-5958560D01*
X20007046Y-6098514D01*
X19867092Y-6098514D01*
G37*
G36*
X20364932Y-5958560D02*
G01*
X20504886Y-5958560D01*
X20504886Y-6098514D01*
X20364932Y-6098514D01*
G37*
D11*
G01*
X11649963Y-9250934D03*
G01*
X11649963Y-11570970D03*
G01*
X12039854Y-11581129D03*
G01*
X12079986Y-9250934D03*
G01*
X12079986Y-9380981D03*
G01*
X12079986Y-9501124D03*
G01*
X11569954Y-9380981D03*
G01*
X11489943Y-9501124D03*
G01*
X11569700Y-11710924D03*
G01*
X11489690Y-11830812D03*
G01*
X12039854Y-11701018D03*
G01*
X12039854Y-11831065D03*
G01*
X12849859Y-9250934D03*
G01*
X13059918Y-9891013D03*
G01*
X12759943Y-8991092D03*
G01*
X12629895Y-9121139D03*
G01*
X12629895Y-9870947D03*
G01*
X12299950Y-13790929D03*
G01*
X12297918Y-13662913D03*
G01*
X12299950Y-13280897D03*
G01*
X12299950Y-13410945D03*
G01*
X12920218Y-9681210D03*
G01*
X12979908Y-11321034D03*
G01*
X12680188Y-11451081D03*
G01*
X12729463Y-8861044D03*
G01*
X12939775Y-9030970D03*
G01*
X12939775Y-8721089D03*
G01*
X9649713Y-9249663D03*
G01*
X9649713Y-11569700D03*
G01*
X10039604Y-11579860D03*
G01*
X10079736Y-9249663D03*
G01*
X10079736Y-9379712D03*
G01*
X10079736Y-9499854D03*
G01*
X9569704Y-9379712D03*
G01*
X9489693Y-9499854D03*
G01*
X9569450Y-11709654D03*
G01*
X9489440Y-11829542D03*
G01*
X10039604Y-11699747D03*
G01*
X10039604Y-11829795D03*
G01*
X10849609Y-9249663D03*
G01*
X11059668Y-9900158D03*
G01*
X10929620Y-13539724D03*
G01*
X10719561Y-13539724D03*
G01*
X11419840Y-11199876D03*
G01*
X10759693Y-8989821D03*
G01*
X10629645Y-9119870D03*
G01*
X10629645Y-9869678D03*
G01*
X10299700Y-13789660D03*
G01*
X10297668Y-13661644D03*
G01*
X10299700Y-13279628D03*
G01*
X10299700Y-13409676D03*
G01*
X10919968Y-9679939D03*
G01*
X10989563Y-11320271D03*
G01*
X10679938Y-11449812D03*
G01*
X10729213Y-8859774D03*
G01*
X10939525Y-9029700D03*
G01*
X10939525Y-8719820D03*
G01*
X15647670Y-9249663D03*
G01*
X15647670Y-11569700D03*
G01*
X16037559Y-11579860D03*
G01*
X16077691Y-9249663D03*
G01*
X16077691Y-9379712D03*
G01*
X16077691Y-9499854D03*
G01*
X15567659Y-9379712D03*
G01*
X15487650Y-9499854D03*
G01*
X15567406Y-11709654D03*
G01*
X15487395Y-11829542D03*
G01*
X16037559Y-11699747D03*
G01*
X16037559Y-11829795D03*
G01*
X16847566Y-9249663D03*
G01*
X17057624Y-9889744D03*
G01*
X16757650Y-8989821D03*
G01*
X16627602Y-9119870D03*
G01*
X16627602Y-9869678D03*
G01*
X16297656Y-13789660D03*
G01*
X16295624Y-13661644D03*
G01*
X16297656Y-13279628D03*
G01*
X16297656Y-13409676D03*
G01*
X16917924Y-9679939D03*
G01*
X16977613Y-11319763D03*
G01*
X16677893Y-11449812D03*
G01*
X16727170Y-8859774D03*
G01*
X16937481Y-9029700D03*
G01*
X16937481Y-8719820D03*
G01*
X13647420Y-9248394D03*
G01*
X13647420Y-11568429D03*
G01*
X14037309Y-11578589D03*
G01*
X14077441Y-9248394D03*
G01*
X14077441Y-9378442D03*
G01*
X14077441Y-9498584D03*
G01*
X13567409Y-9378442D03*
G01*
X13487400Y-9498584D03*
G01*
X13567156Y-11708384D03*
G01*
X13487145Y-11828271D03*
G01*
X14037309Y-11698478D03*
G01*
X14037309Y-11828526D03*
G01*
X14847316Y-9248394D03*
G01*
X15057374Y-9898887D03*
G01*
X14757400Y-8988552D03*
G01*
X14627352Y-9118600D03*
G01*
X14627352Y-9868408D03*
G01*
X14297406Y-13788389D03*
G01*
X14295374Y-13660374D03*
G01*
X14297406Y-13278357D03*
G01*
X14297406Y-13408405D03*
G01*
X14917674Y-9678670D03*
G01*
X14987270Y-11319002D03*
G01*
X14677643Y-11448542D03*
G01*
X14726920Y-8858504D03*
G01*
X14937231Y-9028429D03*
G01*
X14937231Y-8718550D03*
G01*
X17649698Y-9251442D03*
G01*
X17649698Y-11571478D03*
G01*
X18039588Y-11581637D03*
G01*
X18079720Y-9251442D03*
G01*
X18079720Y-9381489D03*
G01*
X18079720Y-9501631D03*
G01*
X17569688Y-9381489D03*
G01*
X17489677Y-9501631D03*
G01*
X17569434Y-11711431D03*
G01*
X17489424Y-11831320D03*
G01*
X18039588Y-11701526D03*
G01*
X18039588Y-11831574D03*
G01*
X18849593Y-9251442D03*
G01*
X19059652Y-9891521D03*
G01*
X18759677Y-8991600D03*
G01*
X18629629Y-9121647D03*
G01*
X18629629Y-9871455D03*
G01*
X18299684Y-13791437D03*
G01*
X18297652Y-13663421D03*
G01*
X18299684Y-13281405D03*
G01*
X18299684Y-13411454D03*
G01*
X18919952Y-9681718D03*
G01*
X18979641Y-11321542D03*
G01*
X18679922Y-11451589D03*
G01*
X18729706Y-8861552D03*
G01*
X18939509Y-9031478D03*
G01*
X18939509Y-8721597D03*
G01*
X22646386Y-9249663D03*
G01*
X22646386Y-11569700D03*
G01*
X23036275Y-11579860D03*
G01*
X23076408Y-9249663D03*
G01*
X23076408Y-9379712D03*
G01*
X23076408Y-9499854D03*
G01*
X22566375Y-9379712D03*
G01*
X22486366Y-9499854D03*
G01*
X22566122Y-11709654D03*
G01*
X22486111Y-11829542D03*
G01*
X23036275Y-11699747D03*
G01*
X23036275Y-11829795D03*
G01*
X23846281Y-9249663D03*
G01*
X24056340Y-9889744D03*
G01*
X23756366Y-8989821D03*
G01*
X23626318Y-9119870D03*
G01*
X23626318Y-9869678D03*
G01*
X23296372Y-13789660D03*
G01*
X23294340Y-13661644D03*
G01*
X23296372Y-13279628D03*
G01*
X23296372Y-13409676D03*
G01*
X23916640Y-9679939D03*
G01*
X23976329Y-11319763D03*
G01*
X23676609Y-11449812D03*
G01*
X23725886Y-8859774D03*
G01*
X23936198Y-9029700D03*
G01*
X23936198Y-8719820D03*
G01*
X19647154Y-9248647D03*
G01*
X19647154Y-11568684D03*
G01*
X20037043Y-11578844D03*
G01*
X20077175Y-9248647D03*
G01*
X20077175Y-9378695D03*
G01*
X20077175Y-9498837D03*
G01*
X19567143Y-9378695D03*
G01*
X19487134Y-9498837D03*
G01*
X19566890Y-11708637D03*
G01*
X19486879Y-11828526D03*
G01*
X20037043Y-11698731D03*
G01*
X20037043Y-11828779D03*
G01*
X20847050Y-9248647D03*
G01*
X21056854Y-9899395D03*
G01*
X20757134Y-8988805D03*
G01*
X20627086Y-9118854D03*
G01*
X20627086Y-9868662D03*
G01*
X20297140Y-13788644D03*
G01*
X20295108Y-13660628D03*
G01*
X20297140Y-13278612D03*
G01*
X20297140Y-13408660D03*
G01*
X20917408Y-9678924D03*
G01*
X20977098Y-11319255D03*
G01*
X20677377Y-11448795D03*
G01*
X20726654Y-8858758D03*
G01*
X20936966Y-9028684D03*
G01*
X20936966Y-8718804D03*
G01*
X11389868Y-13539978D03*
G01*
X12299950Y-13539978D03*
G01*
X12940029Y-13539978D03*
G01*
X12709397Y-13539724D03*
G01*
X13379958Y-13539978D03*
G01*
X14289786Y-13539978D03*
G01*
X14929611Y-13539724D03*
G01*
X14719554Y-13539724D03*
G01*
X15389859Y-13539978D03*
G01*
X16299941Y-13539978D03*
G01*
X16889729Y-13539724D03*
G01*
X16679672Y-13539724D03*
G01*
X17360138Y-13539978D03*
G01*
X18260059Y-13539978D03*
G01*
X18949924Y-13539978D03*
G01*
X18689320Y-13539724D03*
G01*
X19359625Y-13539978D03*
G01*
X20269708Y-13539978D03*
G01*
X20930616Y-13529310D03*
G01*
X20720558Y-13529310D03*
G01*
X22380956Y-13529310D03*
G01*
X23292816Y-13529563D03*
G01*
X23959566Y-13539724D03*
G01*
X23749508Y-13539724D03*
G01*
X12320015Y-11199876D03*
G01*
X14299438Y-11199876D03*
G01*
X16311118Y-11200129D03*
G01*
X18289777Y-11199621D03*
G01*
X20292059Y-11200129D03*
G01*
X21948393Y-11198097D03*
G01*
X13409929Y-11199876D03*
G01*
X15420086Y-11199876D03*
G01*
X17420081Y-11200129D03*
G01*
X19410425Y-11200129D03*
G01*
X20979891Y-11199876D03*
G01*
X10940034Y-11197336D03*
G01*
X11159997Y-11198352D03*
G01*
X12940029Y-11197336D03*
G01*
X13150088Y-11198605D03*
G01*
X14950186Y-11197336D03*
G01*
X15150084Y-11198605D03*
G01*
X16960088Y-11197589D03*
G01*
X17169891Y-11198605D03*
G01*
X18949924Y-11197589D03*
G01*
X19159981Y-11198605D03*
G01*
X22379940Y-11199876D03*
G01*
X23299927Y-11199876D03*
G01*
X23934674Y-11195304D03*
G01*
X11420093Y-8860028D03*
G01*
X11119865Y-8860028D03*
G01*
X13420090Y-8859520D03*
G01*
X13119608Y-8859774D03*
G01*
X15408656Y-8859520D03*
G01*
X15109697Y-8859774D03*
G01*
X17429988Y-8859774D03*
G01*
X17129759Y-8859774D03*
G01*
X19409156Y-8860028D03*
G01*
X19129248Y-8859774D03*
G01*
X22339808Y-8858758D03*
G01*
X21159977Y-8859012D03*
G01*
X22566375Y-14039850D03*
G01*
X22666452Y-13919707D03*
G01*
X19566890Y-14038834D03*
G01*
X19667220Y-13918692D03*
G01*
X17569688Y-14041374D03*
G01*
X17669763Y-13921486D03*
G01*
X15567659Y-14039850D03*
G01*
X15667990Y-13919707D03*
G01*
X13567409Y-14038579D03*
G01*
X13647420Y-13908531D03*
G01*
X11580113Y-14040104D03*
G01*
X11655806Y-13916913D03*
G01*
X9569704Y-14039850D03*
G01*
X9670034Y-13919707D03*
G01*
X11419840Y-14960092D03*
G01*
X11750040Y-14960092D03*
G01*
X13399008Y-14959837D03*
G01*
X13699997Y-14960092D03*
G01*
X15690088Y-14960092D03*
G01*
X15439897Y-14960092D03*
G01*
X17420081Y-14960092D03*
G01*
X17679924Y-14960092D03*
G01*
X19389852Y-14960092D03*
G01*
X19679920Y-14960092D03*
G01*
X22319995Y-14960092D03*
G01*
X22699979Y-14960092D03*
G01*
X22736302Y-10129774D03*
G01*
X22646386Y-10299954D03*
G01*
X22566375Y-10400029D03*
G01*
X22486366Y-10500105D03*
G01*
X23659845Y-10130028D03*
G01*
X23850091Y-10130028D03*
G01*
X23649940Y-10299954D03*
G01*
X23850091Y-10299954D03*
G01*
X23649940Y-10400029D03*
G01*
X23849838Y-10400029D03*
G01*
X23850091Y-10500105D03*
G01*
X23650193Y-10500105D03*
G01*
X24150066Y-10130028D03*
G01*
X24340058Y-10129774D03*
G01*
X24139906Y-10299954D03*
G01*
X24340058Y-10299954D03*
G01*
X24150066Y-10670031D03*
G01*
X24319991Y-10670031D03*
G01*
X24150066Y-10919968D03*
G01*
X24319991Y-10919968D03*
G01*
X21290025Y-7219950D03*
G01*
X19729958Y-7219950D03*
G01*
X17750027Y-7219950D03*
G01*
X15739872Y-7219950D03*
G01*
X13739875Y-7219950D03*
G01*
X11739879Y-7219950D03*
G01*
X9740138Y-7219950D03*
G01*
X20176998Y-6649973D03*
G01*
X18179541Y-6649973D03*
G01*
X16177768Y-6649973D03*
G01*
X14177518Y-6649973D03*
G01*
X12189968Y-6649973D03*
G01*
X10179558Y-6649973D03*
G01*
X23180040Y-6649973D03*
G01*
X16819879Y-5649976D03*
G01*
X17040098Y-6359905D03*
G01*
X18940018Y-5710173D03*
G01*
X18739866Y-5599937D03*
M02*
