M48
METRIC,LZ,000.000
;FILE_FORMAT=3:3
;TYPE=PLATED
;Layer: Drill PTH
;EasyEDA v6.4.20.6, 2021-08-02T11:14:11+02:00
;e7c21c1e6ca5491a88c75d15d8fd51ee,3e5df01c9dd74657a85989452aaa4bc1,10
;Gerber Generator version 0.2
;Holesize 1 = 0.305 mm
T01C0.305
;Holesize 2 = 0.915 mm
T02C0.915
;Holesize 3 = 1.001 mm
T03C1.001
%
G05
G90
T01
X116500Y-092509
X116500Y-115710
X120399Y-115811
X120800Y-092509
X120800Y-093810
X120800Y-095011
X115700Y-093810
X114899Y-095011
X115697Y-117109
X114897Y-118308
X120399Y-117010
X120399Y-118311
X128499Y-092509
X130599Y-098910
X127599Y-089911
X126299Y-091211
X126299Y-098709
X123000Y-137909
X122979Y-136629
X123000Y-132809
X123000Y-134109
X129202Y-096812
X129799Y-113210
X126802Y-114511
X127295Y-088610
X129398Y-090310
X129398Y-087211
X096497Y-092497
X096497Y-115697
X100396Y-115799
X100797Y-092497
X100797Y-093797
X100797Y-094999
X095697Y-093797
X094897Y-094999
X095695Y-117097
X094894Y-118295
X100396Y-116997
X100396Y-118298
X108496Y-092497
X110597Y-099002
X109296Y-135397
X107196Y-135397
X114198Y-111999
X107597Y-089898
X106296Y-091199
X106296Y-098697
X102997Y-137897
X102977Y-136616
X102997Y-132796
X102997Y-134097
X109200Y-096799
X109896Y-113203
X106799Y-114498
X107292Y-088598
X109395Y-090297
X109395Y-087198
X156477Y-092497
X156477Y-115697
X160376Y-115799
X160777Y-092497
X160777Y-093797
X160777Y-094999
X155677Y-093797
X154877Y-094999
X155674Y-117097
X154874Y-118295
X160376Y-116997
X160376Y-118298
X168476Y-092497
X170576Y-098897
X167577Y-089898
X166276Y-091199
X166276Y-098697
X162977Y-137897
X162956Y-136616
X162977Y-132796
X162977Y-134097
X169179Y-096799
X169776Y-113198
X166779Y-114498
X167272Y-088598
X169375Y-090297
X169375Y-087198
X136474Y-092484
X136474Y-115684
X140373Y-115786
X140774Y-092484
X140774Y-093784
X140774Y-094986
X135674Y-093784
X134874Y-094986
X135672Y-117084
X134871Y-118283
X140373Y-116985
X140373Y-118285
X148473Y-092484
X150574Y-098989
X147574Y-089886
X146274Y-091186
X146274Y-098684
X142974Y-137884
X142954Y-136604
X142974Y-132784
X142974Y-134084
X149177Y-096787
X149873Y-113190
X146776Y-114485
X147269Y-088585
X149372Y-090284
X149372Y-087186
X176497Y-092514
X176497Y-115715
X180396Y-115816
X180797Y-092514
X180797Y-093815
X180797Y-095016
X175697Y-093815
X174897Y-095016
X175694Y-117114
X174894Y-118313
X180396Y-117015
X180396Y-118316
X188496Y-092514
X190597Y-098915
X187597Y-089916
X186296Y-091216
X186296Y-098715
X182997Y-137914
X182977Y-136634
X182997Y-132814
X182997Y-134115
X189200Y-096817
X189796Y-113215
X186799Y-114516
X187297Y-088616
X189395Y-090315
X189395Y-087216
X226464Y-092497
X226464Y-115697
X230363Y-115799
X230764Y-092497
X230764Y-093797
X230764Y-094999
X225664Y-093797
X224864Y-094999
X225661Y-117097
X224861Y-118295
X230363Y-116997
X230363Y-118298
X238463Y-092497
X240563Y-098897
X237564Y-089898
X236263Y-091199
X236263Y-098697
X232964Y-137897
X232943Y-136616
X232964Y-132796
X232964Y-134097
X239166Y-096799
X239763Y-113198
X236766Y-114498
X237259Y-088598
X239362Y-090297
X239362Y-087198
X196472Y-092486
X196472Y-115687
X200370Y-115788
X200772Y-092486
X200772Y-093787
X200772Y-094988
X195671Y-093787
X194871Y-094988
X195669Y-117086
X194869Y-118285
X200370Y-116987
X200370Y-118288
X208471Y-092486
X210569Y-098994
X207571Y-089888
X206271Y-091189
X206271Y-098687
X202971Y-137886
X202951Y-136606
X202971Y-132786
X202971Y-134087
X209174Y-096789
X209771Y-113193
X206774Y-114488
X207267Y-088588
X209370Y-090287
X209370Y-087188
X113899Y-135400
X123000Y-135400
X129400Y-135400
X127094Y-135397
X133800Y-135400
X142898Y-135400
X149296Y-135397
X147196Y-135397
X153899Y-135400
X162999Y-135400
X168897Y-135397
X166797Y-135397
X173601Y-135400
X182601Y-135400
X189499Y-135400
X186893Y-135397
X193596Y-135400
X202697Y-135400
X209306Y-135293
X207206Y-135293
X223810Y-135293
X232928Y-135296
X239596Y-135397
X237495Y-135397
X123200Y-111999
X142994Y-111999
X163111Y-112001
X182898Y-111996
X202921Y-112001
X219484Y-111981
X134099Y-111999
X154201Y-111999
X174201Y-112001
X194104Y-112001
X209799Y-111999
X109400Y-111973
X111600Y-111984
X129400Y-111973
X131501Y-111986
X149502Y-111973
X151501Y-111986
X169601Y-111976
X171699Y-111986
X189499Y-111976
X191600Y-111986
X223799Y-111999
X232999Y-111999
X239347Y-111953
X114201Y-088600
X111199Y-088600
X134201Y-088595
X131196Y-088598
X154087Y-088595
X151097Y-088598
X174300Y-088598
X171298Y-088598
X194092Y-088600
X191292Y-088598
X223398Y-088588
X211600Y-088590
X225664Y-140399
X226665Y-139197
X195669Y-140388
X196672Y-139187
X175697Y-140414
X176698Y-139215
X155677Y-140399
X156680Y-139197
X135674Y-140386
X136474Y-139085
X115801Y-140401
X116558Y-139169
X095697Y-140399
X096700Y-139197
X114198Y-149601
X117500Y-149601
X133990Y-149598
X137000Y-149601
X156901Y-149601
X154399Y-149601
X174201Y-149601
X176799Y-149601
X193899Y-149601
X196799Y-149601
X223200Y-149601
X227000Y-149601
X227363Y-101298
X226464Y-103000
X225664Y-104000
X224864Y-105001
X236598Y-101300
X238501Y-101300
X236499Y-103000
X238501Y-103000
X236499Y-104000
X238498Y-104000
X238501Y-105001
X236502Y-105001
X241501Y-101300
X243401Y-101298
X241399Y-103000
X243401Y-103000
X241501Y-106700
X243200Y-106700
X241501Y-109200
X243200Y-109200
X212900Y-072200
X197300Y-072200
X177500Y-072200
X157399Y-072200
X137399Y-072200
X117399Y-072200
X097401Y-072200
X201770Y-066500
X181795Y-066500
X161778Y-066500
X141775Y-066500
X121900Y-066500
X101796Y-066500
X231800Y-066500
X168199Y-056500
X170401Y-063599
X189400Y-057102
X187399Y-055999
T02
X246701Y-121901
X246682Y-119360
X246682Y-116820
X246682Y-114280
X246682Y-111740
X246682Y-109200
X246682Y-106660
X246682Y-104120
X246682Y-101580
X246682Y-099040
X246682Y-096500
X246682Y-093960
X246682Y-091420
X246682Y-088880
X246682Y-086340
X246682Y-083800
T03
X119400Y-144712
X121890Y-144712
X124379Y-144712
X119400Y-130208
X124379Y-130208
X119400Y-121412
X121890Y-121412
X124379Y-121412
X119400Y-106908
X124379Y-106908
X119400Y-098012
X121890Y-098012
X124379Y-098012
X119400Y-083508
X124379Y-083508
X119400Y-074812
X121890Y-074812
X124379Y-074812
X119400Y-060308
X124379Y-060308
X099398Y-144698
X101887Y-144698
X104376Y-144698
X099398Y-130195
X104376Y-130195
X099398Y-121399
X101887Y-121399
X104376Y-121399
X099398Y-106895
X104376Y-106895
X099398Y-097999
X101887Y-097999
X104376Y-097999
X099398Y-083495
X104376Y-083495
X099398Y-074799
X101887Y-074799
X104376Y-074799
X099398Y-060295
X104376Y-060295
X159378Y-144698
X161867Y-144698
X164356Y-144698
X159378Y-130195
X164356Y-130195
X159378Y-121399
X161867Y-121399
X164356Y-121399
X159378Y-106895
X164356Y-106895
X159378Y-097999
X161867Y-097999
X164356Y-097999
X159378Y-083495
X164356Y-083495
X159378Y-074799
X161867Y-074799
X164356Y-074799
X159378Y-060295
X164356Y-060295
X139375Y-144686
X141864Y-144686
X144353Y-144686
X139375Y-130182
X144353Y-130182
X139375Y-121386
X141864Y-121386
X144353Y-121386
X139375Y-106882
X144353Y-106882
X139375Y-097986
X141864Y-097986
X144353Y-097986
X139375Y-083482
X144353Y-083482
X139375Y-074786
X141864Y-074786
X144353Y-074786
X139375Y-060282
X144353Y-060282
X179396Y-144715
X181885Y-144715
X184375Y-144715
X179396Y-130211
X184375Y-130211
X179396Y-121415
X181885Y-121415
X184375Y-121415
X179396Y-106911
X184375Y-106911
X179396Y-098015
X181885Y-098015
X184375Y-098015
X179396Y-083511
X184375Y-083511
X179396Y-074815
X181885Y-074815
X184375Y-074815
X179396Y-060312
X184375Y-060312
X229364Y-144698
X231853Y-144698
X234342Y-144698
X229364Y-130195
X234342Y-130195
X229364Y-121399
X231853Y-121399
X234342Y-121399
X229364Y-106895
X234342Y-106895
X229364Y-097999
X231853Y-097999
X234342Y-097999
X229364Y-083495
X234342Y-083495
X229364Y-074799
X231853Y-074799
X234342Y-074799
X229364Y-060295
X234342Y-060295
X199371Y-144689
X201860Y-144689
X204349Y-144689
X199371Y-130185
X204349Y-130185
X199371Y-121389
X201860Y-121389
X204349Y-121389
X199371Y-106885
X204349Y-106885
X199371Y-097989
X201860Y-097989
X204349Y-097989
X199371Y-083485
X204349Y-083485
X199371Y-074789
X201860Y-074789
X204349Y-074789
X199371Y-060285
X204349Y-060285
M30
