G04 Layer: BottomSilkLayer*
G04 EasyEDA v6.4.20.6, 2021-08-02T11:14:11+02:00*
G04 e7c21c1e6ca5491a88c75d15d8fd51ee,3e5df01c9dd74657a85989452aaa4bc1,10*
G04 Gerber Generator version 0.2*
G04 Scale: 100 percent, Rotated: No, Reflected: No *
G04 Dimensions in millimeters *
G04 leading zeros omitted , absolute positions ,4 integer and 5 decimal *
%FSLAX45Y45*%
%MOMM*%

%ADD10C,0.2540*%
%ADD16C,0.1778*%
%ADD17C,0.2007*%
%ADD18C,0.4000*%
%ADD19C,0.2000*%

%LPD*%
D19*
X24433596Y-10373608D02*
G01*
X24442686Y-10364518D01*
X24456321Y-10359974D01*
X24474505Y-10359974D01*
X24488140Y-10364518D01*
X24497230Y-10373608D01*
X24497230Y-10382699D01*
X24492686Y-10391790D01*
X24488140Y-10396336D01*
X24479049Y-10400883D01*
X24451777Y-10409974D01*
X24442686Y-10414518D01*
X24438140Y-10419064D01*
X24433596Y-10428155D01*
X24433596Y-10441790D01*
X24442686Y-10450883D01*
X24456321Y-10455427D01*
X24474505Y-10455427D01*
X24488140Y-10450883D01*
X24497230Y-10441790D01*
X24376321Y-10359974D02*
G01*
X24389958Y-10364518D01*
X24399049Y-10378155D01*
X24403596Y-10400883D01*
X24403596Y-10414518D01*
X24399049Y-10437246D01*
X24389958Y-10450883D01*
X24376321Y-10455427D01*
X24367230Y-10455427D01*
X24353596Y-10450883D01*
X24344505Y-10437246D01*
X24339958Y-10414518D01*
X24339958Y-10400883D01*
X24344505Y-10378155D01*
X24353596Y-10364518D01*
X24367230Y-10359974D01*
X24376321Y-10359974D01*
X24438777Y-10628294D02*
G01*
X24447868Y-10619204D01*
X24461505Y-10614657D01*
X24479686Y-10614657D01*
X24493324Y-10619204D01*
X24502414Y-10628294D01*
X24502414Y-10637385D01*
X24497868Y-10646476D01*
X24493324Y-10651020D01*
X24484233Y-10655566D01*
X24456958Y-10664657D01*
X24447868Y-10669203D01*
X24443324Y-10673748D01*
X24438777Y-10682838D01*
X24438777Y-10696475D01*
X24447868Y-10705566D01*
X24461505Y-10710113D01*
X24479686Y-10710113D01*
X24493324Y-10705566D01*
X24502414Y-10696475D01*
X24408777Y-10632838D02*
G01*
X24399687Y-10628294D01*
X24386052Y-10614657D01*
X24386052Y-10710113D01*
X24443596Y-10893625D02*
G01*
X24452686Y-10884532D01*
X24466321Y-10879988D01*
X24484502Y-10879988D01*
X24498139Y-10884532D01*
X24507230Y-10893625D01*
X24507230Y-10902716D01*
X24502686Y-10911806D01*
X24498139Y-10916351D01*
X24489049Y-10920897D01*
X24461777Y-10929988D01*
X24452686Y-10934532D01*
X24448140Y-10939078D01*
X24443596Y-10948169D01*
X24443596Y-10961806D01*
X24452686Y-10970897D01*
X24466321Y-10975441D01*
X24484502Y-10975441D01*
X24498139Y-10970897D01*
X24507230Y-10961806D01*
X24409049Y-10902716D02*
G01*
X24409049Y-10898169D01*
X24404502Y-10889079D01*
X24399958Y-10884532D01*
X24390868Y-10879988D01*
X24372686Y-10879988D01*
X24363596Y-10884532D01*
X24359049Y-10889079D01*
X24354502Y-10898169D01*
X24354502Y-10907260D01*
X24359049Y-10916351D01*
X24368140Y-10929988D01*
X24413596Y-10975441D01*
X24349958Y-10975441D01*
X24427230Y-12152701D02*
G01*
X24431777Y-12143610D01*
X24440868Y-12134519D01*
X24449958Y-12129975D01*
X24468140Y-12129975D01*
X24477230Y-12134519D01*
X24486321Y-12143610D01*
X24490867Y-12152701D01*
X24495412Y-12166338D01*
X24495412Y-12189066D01*
X24490867Y-12202701D01*
X24486321Y-12211791D01*
X24477230Y-12220884D01*
X24468140Y-12225428D01*
X24449958Y-12225428D01*
X24440868Y-12220884D01*
X24431777Y-12211791D01*
X24427230Y-12202701D01*
X24427230Y-12189066D01*
X24449958Y-12189066D02*
G01*
X24427230Y-12189066D01*
X24397230Y-12129975D02*
G01*
X24397230Y-12225428D01*
X24397230Y-12129975D02*
G01*
X24333593Y-12225428D01*
X24333593Y-12129975D02*
G01*
X24333593Y-12225428D01*
X24303593Y-12129975D02*
G01*
X24303593Y-12225428D01*
X24303593Y-12129975D02*
G01*
X24271777Y-12129975D01*
X24258140Y-12134519D01*
X24249049Y-12143610D01*
X24244503Y-12152701D01*
X24239959Y-12166338D01*
X24239959Y-12189066D01*
X24244503Y-12202701D01*
X24249049Y-12211791D01*
X24258140Y-12220884D01*
X24271777Y-12225428D01*
X24303593Y-12225428D01*
X24441767Y-10099982D02*
G01*
X24487223Y-10099982D01*
X24491767Y-10140891D01*
X24487223Y-10136344D01*
X24473585Y-10131798D01*
X24459948Y-10131798D01*
X24446313Y-10136344D01*
X24437223Y-10145435D01*
X24432676Y-10159072D01*
X24432676Y-10168163D01*
X24437223Y-10181798D01*
X24446313Y-10190891D01*
X24459948Y-10195435D01*
X24473585Y-10195435D01*
X24487223Y-10190891D01*
X24491767Y-10186344D01*
X24496313Y-10177254D01*
X24402676Y-10099982D02*
G01*
X24366313Y-10195435D01*
X24329948Y-10099982D02*
G01*
X24366313Y-10195435D01*
X24470078Y-9864140D02*
G01*
X24470078Y-9959644D01*
X24470078Y-9864140D02*
G01*
X24410896Y-9864140D01*
X24470078Y-9909606D02*
G01*
X24433756Y-9909606D01*
X24470078Y-9959644D02*
G01*
X24410896Y-9959644D01*
X24317424Y-9864140D02*
G01*
X24362890Y-9959644D01*
X24380924Y-9864140D02*
G01*
X24317424Y-9864140D01*
X24422686Y-11379987D02*
G01*
X24486323Y-11475440D01*
X24486323Y-11379987D02*
G01*
X24422686Y-11379987D01*
X24486323Y-11475440D02*
G01*
X24422686Y-11475440D01*
X24392686Y-11398168D02*
G01*
X24383596Y-11393624D01*
X24369958Y-11379987D01*
X24369958Y-11475440D01*
X24433596Y-11639981D02*
G01*
X24497230Y-11735435D01*
X24497230Y-11639981D02*
G01*
X24433596Y-11639981D01*
X24497230Y-11735435D02*
G01*
X24433596Y-11735435D01*
X24399049Y-11662707D02*
G01*
X24399049Y-11658163D01*
X24394505Y-11649072D01*
X24389958Y-11644525D01*
X24380868Y-11639981D01*
X24362686Y-11639981D01*
X24353596Y-11644525D01*
X24349049Y-11649072D01*
X24344505Y-11658163D01*
X24344505Y-11667253D01*
X24349049Y-11676344D01*
X24358140Y-11689981D01*
X24403596Y-11735435D01*
X24339958Y-11735435D01*
X24423580Y-11889971D02*
G01*
X24487215Y-11985426D01*
X24487215Y-11889971D02*
G01*
X24423580Y-11889971D01*
X24487215Y-11985426D02*
G01*
X24423580Y-11985426D01*
X24384487Y-11889971D02*
G01*
X24334487Y-11889971D01*
X24361762Y-11926336D01*
X24348125Y-11926336D01*
X24339034Y-11930880D01*
X24334487Y-11935426D01*
X24329943Y-11949061D01*
X24329943Y-11958152D01*
X24334487Y-11971789D01*
X24343580Y-11980880D01*
X24357215Y-11985426D01*
X24370852Y-11985426D01*
X24384487Y-11980880D01*
X24389034Y-11976336D01*
X24393580Y-11967245D01*
X24478035Y-9609988D02*
G01*
X24478035Y-9705492D01*
X24478035Y-9609988D02*
G01*
X24418853Y-9609988D01*
X24478035Y-9655454D02*
G01*
X24441713Y-9655454D01*
X24478035Y-9705492D02*
G01*
X24418853Y-9705492D01*
X24334525Y-9623704D02*
G01*
X24338843Y-9614560D01*
X24352559Y-9609988D01*
X24361703Y-9609988D01*
X24375419Y-9614560D01*
X24384309Y-9628276D01*
X24388881Y-9650882D01*
X24388881Y-9673742D01*
X24384309Y-9691776D01*
X24375419Y-9700920D01*
X24361703Y-9705492D01*
X24357131Y-9705492D01*
X24343415Y-9700920D01*
X24334525Y-9691776D01*
X24329953Y-9678314D01*
X24329953Y-9673742D01*
X24334525Y-9660026D01*
X24343415Y-9650882D01*
X24357131Y-9646310D01*
X24361703Y-9646310D01*
X24375419Y-9650882D01*
X24384309Y-9660026D01*
X24388881Y-9673742D01*
X24472592Y-9349991D02*
G01*
X24472592Y-9445495D01*
X24472592Y-9349991D02*
G01*
X24413410Y-9349991D01*
X24472592Y-9395457D02*
G01*
X24436270Y-9395457D01*
X24472592Y-9445495D02*
G01*
X24413410Y-9445495D01*
X24329082Y-9349991D02*
G01*
X24374294Y-9349991D01*
X24378866Y-9390885D01*
X24374294Y-9386313D01*
X24360832Y-9381995D01*
X24347116Y-9381995D01*
X24333400Y-9386313D01*
X24324510Y-9395457D01*
X24319938Y-9409173D01*
X24319938Y-9418317D01*
X24324510Y-9431779D01*
X24333400Y-9440923D01*
X24347116Y-9445495D01*
X24360832Y-9445495D01*
X24374294Y-9440923D01*
X24378866Y-9436351D01*
X24383438Y-9427207D01*
X24487169Y-9109986D02*
G01*
X24487169Y-9205490D01*
X24487169Y-9109986D02*
G01*
X24427987Y-9109986D01*
X24487169Y-9155452D02*
G01*
X24450847Y-9155452D01*
X24487169Y-9205490D02*
G01*
X24427987Y-9205490D01*
X24352549Y-9109986D02*
G01*
X24398015Y-9173740D01*
X24329943Y-9173740D01*
X24352549Y-9109986D02*
G01*
X24352549Y-9205490D01*
X24492615Y-8849997D02*
G01*
X24492615Y-8945501D01*
X24492615Y-8849997D02*
G01*
X24433433Y-8849997D01*
X24492615Y-8895463D02*
G01*
X24456293Y-8895463D01*
X24492615Y-8945501D02*
G01*
X24433433Y-8945501D01*
X24394317Y-8849997D02*
G01*
X24344533Y-8849997D01*
X24371711Y-8886319D01*
X24357995Y-8886319D01*
X24349105Y-8890891D01*
X24344533Y-8895463D01*
X24339961Y-8909179D01*
X24339961Y-8918323D01*
X24344533Y-8931785D01*
X24353423Y-8940929D01*
X24367139Y-8945501D01*
X24380855Y-8945501D01*
X24394317Y-8940929D01*
X24398889Y-8936357D01*
X24403461Y-8927213D01*
X24502618Y-8599985D02*
G01*
X24502618Y-8695489D01*
X24502618Y-8599985D02*
G01*
X24443436Y-8599985D01*
X24502618Y-8645451D02*
G01*
X24466295Y-8645451D01*
X24502618Y-8695489D02*
G01*
X24443436Y-8695489D01*
X24408891Y-8622845D02*
G01*
X24408891Y-8618273D01*
X24404320Y-8609129D01*
X24400002Y-8604557D01*
X24390858Y-8599985D01*
X24372570Y-8599985D01*
X24363425Y-8604557D01*
X24359108Y-8609129D01*
X24354536Y-8618273D01*
X24354536Y-8627417D01*
X24359108Y-8636307D01*
X24367998Y-8650023D01*
X24413463Y-8695489D01*
X24349963Y-8695489D01*
X24501698Y-8339990D02*
G01*
X24501698Y-8435494D01*
X24501698Y-8339990D02*
G01*
X24442516Y-8339990D01*
X24501698Y-8385456D02*
G01*
X24465376Y-8385456D01*
X24501698Y-8435494D02*
G01*
X24442516Y-8435494D01*
X24412544Y-8358278D02*
G01*
X24403400Y-8353706D01*
X24389938Y-8339990D01*
X24389938Y-8435494D01*
D16*
X12280699Y-8682459D02*
G01*
X12280699Y-8760388D01*
X12275505Y-8775976D01*
X12265113Y-8786368D01*
X12249525Y-8791562D01*
X12239134Y-8791562D01*
X12223549Y-8786368D01*
X12213158Y-8775976D01*
X12207963Y-8760388D01*
X12207963Y-8682459D01*
X12173673Y-8703238D02*
G01*
X12163282Y-8698044D01*
X12147694Y-8682459D01*
X12147694Y-8791562D01*
X12108210Y-8708435D02*
G01*
X12108210Y-8703238D01*
X12103013Y-8692847D01*
X12097819Y-8687653D01*
X12087428Y-8682459D01*
X12066645Y-8682459D01*
X12056254Y-8687653D01*
X12051060Y-8692847D01*
X12045863Y-8703238D01*
X12045863Y-8713630D01*
X12051060Y-8724021D01*
X12061451Y-8739609D01*
X12113404Y-8791562D01*
X12040669Y-8791562D01*
X12264189Y-11090379D02*
G01*
X12264189Y-11168308D01*
X12258995Y-11183896D01*
X12248603Y-11194287D01*
X12233015Y-11199482D01*
X12222624Y-11199482D01*
X12207039Y-11194287D01*
X12196648Y-11183896D01*
X12191453Y-11168308D01*
X12191453Y-11090379D01*
X12157163Y-11111158D02*
G01*
X12146772Y-11105964D01*
X12131184Y-11090379D01*
X12131184Y-11199482D01*
X12086503Y-11090379D02*
G01*
X12029353Y-11090379D01*
X12060527Y-11131941D01*
X12044941Y-11131941D01*
X12034550Y-11137137D01*
X12029353Y-11142332D01*
X12024159Y-11157917D01*
X12024159Y-11168308D01*
X12029353Y-11183896D01*
X12039744Y-11194287D01*
X12055332Y-11199482D01*
X12070918Y-11199482D01*
X12086503Y-11194287D01*
X12091700Y-11189091D01*
X12096894Y-11178700D01*
X12321593Y-13489155D02*
G01*
X12321593Y-13567084D01*
X12316399Y-13582672D01*
X12306007Y-13593063D01*
X12290419Y-13598258D01*
X12280028Y-13598258D01*
X12264443Y-13593063D01*
X12254052Y-13582672D01*
X12248857Y-13567084D01*
X12248857Y-13489155D01*
X12214567Y-13509934D02*
G01*
X12204176Y-13504740D01*
X12188588Y-13489155D01*
X12188588Y-13598258D01*
X12102345Y-13489155D02*
G01*
X12154298Y-13561890D01*
X12076369Y-13561890D01*
X12102345Y-13489155D02*
G01*
X12102345Y-13598258D01*
X10280373Y-8680033D02*
G01*
X10280373Y-8757963D01*
X10275178Y-8773551D01*
X10264787Y-8783942D01*
X10249199Y-8789136D01*
X10238808Y-8789136D01*
X10223223Y-8783942D01*
X10212831Y-8773551D01*
X10207637Y-8757963D01*
X10207637Y-8680033D01*
X10111000Y-8680033D02*
G01*
X10162956Y-8680033D01*
X10168150Y-8726792D01*
X10162956Y-8721595D01*
X10147368Y-8716401D01*
X10131783Y-8716401D01*
X10116197Y-8721595D01*
X10105806Y-8731986D01*
X10100609Y-8747572D01*
X10100609Y-8757963D01*
X10105806Y-8773551D01*
X10116197Y-8783942D01*
X10131783Y-8789136D01*
X10147368Y-8789136D01*
X10162956Y-8783942D01*
X10168150Y-8778745D01*
X10173347Y-8768354D01*
X10263863Y-11087953D02*
G01*
X10263863Y-11165883D01*
X10258668Y-11181471D01*
X10248277Y-11191862D01*
X10232689Y-11197056D01*
X10222298Y-11197056D01*
X10206713Y-11191862D01*
X10196322Y-11181471D01*
X10191127Y-11165883D01*
X10191127Y-11087953D01*
X10094490Y-11103538D02*
G01*
X10099687Y-11093147D01*
X10115273Y-11087953D01*
X10125664Y-11087953D01*
X10141249Y-11093147D01*
X10151640Y-11108733D01*
X10156837Y-11134712D01*
X10156837Y-11160688D01*
X10151640Y-11181471D01*
X10141249Y-11191862D01*
X10125664Y-11197056D01*
X10120467Y-11197056D01*
X10104881Y-11191862D01*
X10094490Y-11181471D01*
X10089296Y-11165883D01*
X10089296Y-11160688D01*
X10094490Y-11145103D01*
X10104881Y-11134712D01*
X10120467Y-11129515D01*
X10125664Y-11129515D01*
X10141249Y-11134712D01*
X10151640Y-11145103D01*
X10156837Y-11160688D01*
X10321267Y-13486729D02*
G01*
X10321267Y-13564659D01*
X10316072Y-13580247D01*
X10305681Y-13590638D01*
X10290093Y-13595832D01*
X10279702Y-13595832D01*
X10264117Y-13590638D01*
X10253725Y-13580247D01*
X10248531Y-13564659D01*
X10248531Y-13486729D01*
X10141503Y-13486729D02*
G01*
X10193459Y-13595832D01*
X10214241Y-13486729D02*
G01*
X10141503Y-13486729D01*
X16278369Y-8680051D02*
G01*
X16278369Y-8757980D01*
X16273175Y-8773568D01*
X16262784Y-8783960D01*
X16247196Y-8789154D01*
X16236805Y-8789154D01*
X16221219Y-8783960D01*
X16210828Y-8773568D01*
X16205634Y-8757980D01*
X16205634Y-8680051D01*
X16171344Y-8700830D02*
G01*
X16160953Y-8695636D01*
X16145365Y-8680051D01*
X16145365Y-8789154D01*
X16043534Y-8716418D02*
G01*
X16048730Y-8732004D01*
X16059122Y-8742395D01*
X16074707Y-8747589D01*
X16079904Y-8747589D01*
X16095489Y-8742395D01*
X16105880Y-8732004D01*
X16111075Y-8716418D01*
X16111075Y-8711222D01*
X16105880Y-8695636D01*
X16095489Y-8685245D01*
X16079904Y-8680051D01*
X16074707Y-8680051D01*
X16059122Y-8685245D01*
X16048730Y-8695636D01*
X16043534Y-8716418D01*
X16043534Y-8742395D01*
X16048730Y-8768372D01*
X16059122Y-8783960D01*
X16074707Y-8789154D01*
X16085098Y-8789154D01*
X16100684Y-8783960D01*
X16105880Y-8773568D01*
X16261859Y-11087971D02*
G01*
X16261859Y-11165900D01*
X16256665Y-11181488D01*
X16246274Y-11191880D01*
X16230686Y-11197074D01*
X16220295Y-11197074D01*
X16204709Y-11191880D01*
X16194318Y-11181488D01*
X16189124Y-11165900D01*
X16189124Y-11087971D01*
X16149637Y-11113947D02*
G01*
X16149637Y-11108750D01*
X16144443Y-11098359D01*
X16139246Y-11093165D01*
X16128855Y-11087971D01*
X16108075Y-11087971D01*
X16097684Y-11093165D01*
X16092487Y-11098359D01*
X16087293Y-11108750D01*
X16087293Y-11119142D01*
X16092487Y-11129533D01*
X16102878Y-11145121D01*
X16154834Y-11197074D01*
X16082096Y-11197074D01*
X16016635Y-11087971D02*
G01*
X16032220Y-11093165D01*
X16042612Y-11108750D01*
X16047806Y-11134730D01*
X16047806Y-11150315D01*
X16042612Y-11176292D01*
X16032220Y-11191880D01*
X16016635Y-11197074D01*
X16006244Y-11197074D01*
X15990656Y-11191880D01*
X15980265Y-11176292D01*
X15975070Y-11150315D01*
X15975070Y-11134730D01*
X15980265Y-11108750D01*
X15990656Y-11093165D01*
X16006244Y-11087971D01*
X16016635Y-11087971D01*
X16319263Y-13486747D02*
G01*
X16319263Y-13564676D01*
X16314069Y-13580264D01*
X16303678Y-13590656D01*
X16288090Y-13595850D01*
X16277699Y-13595850D01*
X16262113Y-13590656D01*
X16251722Y-13580264D01*
X16246528Y-13564676D01*
X16246528Y-13486747D01*
X16207041Y-13512723D02*
G01*
X16207041Y-13507526D01*
X16201847Y-13497135D01*
X16196650Y-13491941D01*
X16186259Y-13486747D01*
X16165479Y-13486747D01*
X16155088Y-13491941D01*
X16149891Y-13497135D01*
X16144697Y-13507526D01*
X16144697Y-13517918D01*
X16149891Y-13528309D01*
X16160282Y-13543897D01*
X16212238Y-13595850D01*
X16139500Y-13595850D01*
X16105210Y-13507526D02*
G01*
X16094819Y-13502332D01*
X16079233Y-13486747D01*
X16079233Y-13595850D01*
X14278373Y-8680051D02*
G01*
X14278373Y-8757980D01*
X14273179Y-8773568D01*
X14262788Y-8783960D01*
X14247200Y-8789154D01*
X14236809Y-8789154D01*
X14221223Y-8783960D01*
X14210832Y-8773568D01*
X14205638Y-8757980D01*
X14205638Y-8680051D01*
X14166151Y-8706027D02*
G01*
X14166151Y-8700830D01*
X14160957Y-8690439D01*
X14155760Y-8685245D01*
X14145369Y-8680051D01*
X14124589Y-8680051D01*
X14114198Y-8685245D01*
X14109001Y-8690439D01*
X14103807Y-8700830D01*
X14103807Y-8711222D01*
X14109001Y-8721613D01*
X14119392Y-8737201D01*
X14171348Y-8789154D01*
X14098610Y-8789154D01*
X14001976Y-8695636D02*
G01*
X14007170Y-8685245D01*
X14022758Y-8680051D01*
X14033149Y-8680051D01*
X14048734Y-8685245D01*
X14059126Y-8700830D01*
X14064320Y-8726810D01*
X14064320Y-8752786D01*
X14059126Y-8773568D01*
X14048734Y-8783960D01*
X14033149Y-8789154D01*
X14027952Y-8789154D01*
X14012367Y-8783960D01*
X14001976Y-8773568D01*
X13996779Y-8757980D01*
X13996779Y-8752786D01*
X14001976Y-8737201D01*
X14012367Y-8726810D01*
X14027952Y-8721613D01*
X14033149Y-8721613D01*
X14048734Y-8726810D01*
X14059126Y-8737201D01*
X14064320Y-8752786D01*
X14261863Y-11087971D02*
G01*
X14261863Y-11165900D01*
X14256669Y-11181488D01*
X14246278Y-11191880D01*
X14230690Y-11197074D01*
X14220299Y-11197074D01*
X14204713Y-11191880D01*
X14194322Y-11181488D01*
X14189128Y-11165900D01*
X14189128Y-11087971D01*
X14149641Y-11113947D02*
G01*
X14149641Y-11108750D01*
X14144447Y-11098359D01*
X14139250Y-11093165D01*
X14128859Y-11087971D01*
X14108079Y-11087971D01*
X14097688Y-11093165D01*
X14092491Y-11098359D01*
X14087297Y-11108750D01*
X14087297Y-11119142D01*
X14092491Y-11129533D01*
X14102882Y-11145121D01*
X14154838Y-11197074D01*
X14082100Y-11197074D01*
X13975074Y-11087971D02*
G01*
X14027028Y-11197074D01*
X14047810Y-11087971D02*
G01*
X13975074Y-11087971D01*
X14319267Y-13486747D02*
G01*
X14319267Y-13564676D01*
X14314073Y-13580264D01*
X14303682Y-13590656D01*
X14288094Y-13595850D01*
X14277703Y-13595850D01*
X14262117Y-13590656D01*
X14251726Y-13580264D01*
X14246532Y-13564676D01*
X14246532Y-13486747D01*
X14207045Y-13512723D02*
G01*
X14207045Y-13507526D01*
X14201851Y-13497135D01*
X14196654Y-13491941D01*
X14186263Y-13486747D01*
X14165483Y-13486747D01*
X14155092Y-13491941D01*
X14149895Y-13497135D01*
X14144701Y-13507526D01*
X14144701Y-13517918D01*
X14149895Y-13528309D01*
X14160286Y-13543897D01*
X14212242Y-13595850D01*
X14139504Y-13595850D01*
X14079237Y-13486747D02*
G01*
X14094823Y-13491941D01*
X14100020Y-13502332D01*
X14100020Y-13512723D01*
X14094823Y-13523114D01*
X14084432Y-13528309D01*
X14063652Y-13533506D01*
X14048064Y-13538700D01*
X14037673Y-13549091D01*
X14032478Y-13559482D01*
X14032478Y-13575068D01*
X14037673Y-13585459D01*
X14042870Y-13590656D01*
X14058455Y-13595850D01*
X14079237Y-13595850D01*
X14094823Y-13590656D01*
X14100020Y-13585459D01*
X14105214Y-13575068D01*
X14105214Y-13559482D01*
X14100020Y-13549091D01*
X14089628Y-13538700D01*
X14074043Y-13533506D01*
X14053261Y-13528309D01*
X14042870Y-13523114D01*
X14037673Y-13512723D01*
X14037673Y-13502332D01*
X14042870Y-13491941D01*
X14058455Y-13486747D01*
X14079237Y-13486747D01*
X18280222Y-8681669D02*
G01*
X18280222Y-8759598D01*
X18275028Y-8775186D01*
X18264637Y-8785578D01*
X18249049Y-8790772D01*
X18238657Y-8790772D01*
X18223072Y-8785578D01*
X18212681Y-8775186D01*
X18207487Y-8759598D01*
X18207487Y-8681669D01*
X18162805Y-8681669D02*
G01*
X18105655Y-8681669D01*
X18136826Y-8723231D01*
X18121241Y-8723231D01*
X18110850Y-8728428D01*
X18105655Y-8733622D01*
X18100459Y-8749207D01*
X18100459Y-8759598D01*
X18105655Y-8775186D01*
X18116047Y-8785578D01*
X18131632Y-8790772D01*
X18147217Y-8790772D01*
X18162805Y-8785578D01*
X18168000Y-8780381D01*
X18173197Y-8769990D01*
X18055777Y-8681669D02*
G01*
X17998627Y-8681669D01*
X18029801Y-8723231D01*
X18014215Y-8723231D01*
X18003824Y-8728428D01*
X17998627Y-8733622D01*
X17993433Y-8749207D01*
X17993433Y-8759598D01*
X17998627Y-8775186D01*
X18009019Y-8785578D01*
X18024607Y-8790772D01*
X18040192Y-8790772D01*
X18055777Y-8785578D01*
X18060974Y-8780381D01*
X18066169Y-8769990D01*
X18263712Y-11089589D02*
G01*
X18263712Y-11167518D01*
X18258518Y-11183106D01*
X18248127Y-11193498D01*
X18232539Y-11198692D01*
X18222147Y-11198692D01*
X18206562Y-11193498D01*
X18196171Y-11183106D01*
X18190977Y-11167518D01*
X18190977Y-11089589D01*
X18146295Y-11089589D02*
G01*
X18089145Y-11089589D01*
X18120316Y-11131151D01*
X18104731Y-11131151D01*
X18094340Y-11136348D01*
X18089145Y-11141542D01*
X18083949Y-11157127D01*
X18083949Y-11167518D01*
X18089145Y-11183106D01*
X18099537Y-11193498D01*
X18115122Y-11198692D01*
X18130707Y-11198692D01*
X18146295Y-11193498D01*
X18151490Y-11188301D01*
X18156687Y-11177910D01*
X17997705Y-11089589D02*
G01*
X18049659Y-11162324D01*
X17971726Y-11162324D01*
X17997705Y-11089589D02*
G01*
X17997705Y-11198692D01*
X18321116Y-13488365D02*
G01*
X18321116Y-13566294D01*
X18315922Y-13581882D01*
X18305531Y-13592274D01*
X18289943Y-13597468D01*
X18279551Y-13597468D01*
X18263966Y-13592274D01*
X18253575Y-13581882D01*
X18248381Y-13566294D01*
X18248381Y-13488365D01*
X18203699Y-13488365D02*
G01*
X18146549Y-13488365D01*
X18177720Y-13529927D01*
X18162135Y-13529927D01*
X18151744Y-13535124D01*
X18146549Y-13540318D01*
X18141353Y-13555903D01*
X18141353Y-13566294D01*
X18146549Y-13581882D01*
X18156941Y-13592274D01*
X18172526Y-13597468D01*
X18188111Y-13597468D01*
X18203699Y-13592274D01*
X18208894Y-13587077D01*
X18214091Y-13576686D01*
X18044718Y-13488365D02*
G01*
X18096671Y-13488365D01*
X18101868Y-13535124D01*
X18096671Y-13529927D01*
X18081086Y-13524732D01*
X18065501Y-13524732D01*
X18049913Y-13529927D01*
X18039521Y-13540318D01*
X18034327Y-13555903D01*
X18034327Y-13566294D01*
X18039521Y-13581882D01*
X18049913Y-13592274D01*
X18065501Y-13597468D01*
X18081086Y-13597468D01*
X18096671Y-13592274D01*
X18101868Y-13587077D01*
X18107063Y-13576686D01*
X23279221Y-8681338D02*
G01*
X23279221Y-8759268D01*
X23274027Y-8774856D01*
X23263636Y-8785247D01*
X23248048Y-8790442D01*
X23237657Y-8790442D01*
X23222071Y-8785247D01*
X23211680Y-8774856D01*
X23206486Y-8759268D01*
X23206486Y-8681338D01*
X23120240Y-8681338D02*
G01*
X23172196Y-8754074D01*
X23094264Y-8754074D01*
X23120240Y-8681338D02*
G01*
X23120240Y-8790442D01*
X23028800Y-8681338D02*
G01*
X23044386Y-8686533D01*
X23054777Y-8702118D01*
X23059974Y-8728097D01*
X23059974Y-8743683D01*
X23054777Y-8769659D01*
X23044386Y-8785247D01*
X23028800Y-8790442D01*
X23018409Y-8790442D01*
X23002824Y-8785247D01*
X22992433Y-8769659D01*
X22987236Y-8743683D01*
X22987236Y-8728097D01*
X22992433Y-8702118D01*
X23002824Y-8686533D01*
X23018409Y-8681338D01*
X23028800Y-8681338D01*
X23262711Y-11089259D02*
G01*
X23262711Y-11167188D01*
X23257517Y-11182776D01*
X23247126Y-11193167D01*
X23231538Y-11198362D01*
X23221147Y-11198362D01*
X23205561Y-11193167D01*
X23195170Y-11182776D01*
X23189976Y-11167188D01*
X23189976Y-11089259D01*
X23103730Y-11089259D02*
G01*
X23155686Y-11161994D01*
X23077754Y-11161994D01*
X23103730Y-11089259D02*
G01*
X23103730Y-11198362D01*
X23043464Y-11110038D02*
G01*
X23033073Y-11104844D01*
X23017487Y-11089259D01*
X23017487Y-11198362D01*
X23320115Y-13488035D02*
G01*
X23320115Y-13565964D01*
X23314921Y-13581552D01*
X23304530Y-13591943D01*
X23288942Y-13597138D01*
X23278551Y-13597138D01*
X23262965Y-13591943D01*
X23252574Y-13581552D01*
X23247380Y-13565964D01*
X23247380Y-13488035D01*
X23161134Y-13488035D02*
G01*
X23213090Y-13560770D01*
X23135158Y-13560770D01*
X23161134Y-13488035D02*
G01*
X23161134Y-13597138D01*
X23095671Y-13514011D02*
G01*
X23095671Y-13508814D01*
X23090477Y-13498423D01*
X23085280Y-13493229D01*
X23074891Y-13488035D01*
X23054109Y-13488035D01*
X23043718Y-13493229D01*
X23038521Y-13498423D01*
X23033327Y-13508814D01*
X23033327Y-13519205D01*
X23038521Y-13529597D01*
X23048912Y-13545185D01*
X23100868Y-13597138D01*
X23028130Y-13597138D01*
X20280218Y-8681669D02*
G01*
X20280218Y-8759598D01*
X20275024Y-8775186D01*
X20264633Y-8785578D01*
X20249045Y-8790772D01*
X20238653Y-8790772D01*
X20223068Y-8785578D01*
X20212677Y-8775186D01*
X20207483Y-8759598D01*
X20207483Y-8681669D01*
X20121237Y-8681669D02*
G01*
X20173193Y-8754404D01*
X20095260Y-8754404D01*
X20121237Y-8681669D02*
G01*
X20121237Y-8790772D01*
X19988232Y-8681669D02*
G01*
X20040188Y-8790772D01*
X20060970Y-8681669D02*
G01*
X19988232Y-8681669D01*
X20263708Y-11089589D02*
G01*
X20263708Y-11167518D01*
X20258514Y-11183106D01*
X20248123Y-11193498D01*
X20232535Y-11198692D01*
X20222143Y-11198692D01*
X20206558Y-11193498D01*
X20196167Y-11183106D01*
X20190973Y-11167518D01*
X20190973Y-11089589D01*
X20104727Y-11089589D02*
G01*
X20156683Y-11162324D01*
X20078750Y-11162324D01*
X20104727Y-11089589D02*
G01*
X20104727Y-11198692D01*
X20018484Y-11089589D02*
G01*
X20034069Y-11094783D01*
X20039263Y-11105174D01*
X20039263Y-11115565D01*
X20034069Y-11125956D01*
X20023678Y-11131151D01*
X20002896Y-11136348D01*
X19987310Y-11141542D01*
X19976919Y-11151933D01*
X19971722Y-11162324D01*
X19971722Y-11177910D01*
X19976919Y-11188301D01*
X19982113Y-11193498D01*
X19997701Y-11198692D01*
X20018484Y-11198692D01*
X20034069Y-11193498D01*
X20039263Y-11188301D01*
X20044460Y-11177910D01*
X20044460Y-11162324D01*
X20039263Y-11151933D01*
X20028872Y-11141542D01*
X20013287Y-11136348D01*
X19992505Y-11131151D01*
X19982113Y-11125956D01*
X19976919Y-11115565D01*
X19976919Y-11105174D01*
X19982113Y-11094783D01*
X19997701Y-11089589D01*
X20018484Y-11089589D01*
X20321112Y-13488365D02*
G01*
X20321112Y-13566294D01*
X20315918Y-13581882D01*
X20305527Y-13592274D01*
X20289939Y-13597468D01*
X20279547Y-13597468D01*
X20263962Y-13592274D01*
X20253571Y-13581882D01*
X20248377Y-13566294D01*
X20248377Y-13488365D01*
X20162131Y-13488365D02*
G01*
X20214087Y-13561100D01*
X20136154Y-13561100D01*
X20162131Y-13488365D02*
G01*
X20162131Y-13597468D01*
X20034323Y-13524732D02*
G01*
X20039517Y-13540318D01*
X20049909Y-13550709D01*
X20065497Y-13555903D01*
X20070691Y-13555903D01*
X20086276Y-13550709D01*
X20096667Y-13540318D01*
X20101864Y-13524732D01*
X20101864Y-13519536D01*
X20096667Y-13503950D01*
X20086276Y-13493559D01*
X20070691Y-13488365D01*
X20065497Y-13488365D01*
X20049909Y-13493559D01*
X20039517Y-13503950D01*
X20034323Y-13524732D01*
X20034323Y-13550709D01*
X20039517Y-13576686D01*
X20049909Y-13592274D01*
X20065497Y-13597468D01*
X20075888Y-13597468D01*
X20091473Y-13592274D01*
X20096667Y-13581882D01*
X25132741Y-10420487D02*
G01*
X25055017Y-10420487D01*
X25039269Y-10415407D01*
X25028855Y-10404993D01*
X25023775Y-10389245D01*
X25023775Y-10378831D01*
X25028855Y-10363337D01*
X25039269Y-10352923D01*
X25055017Y-10347843D01*
X25132741Y-10347843D01*
X25132741Y-10251069D02*
G01*
X25132741Y-10303139D01*
X25086005Y-10308219D01*
X25091339Y-10303139D01*
X25096419Y-10287391D01*
X25096419Y-10271897D01*
X25091339Y-10256403D01*
X25080925Y-10245989D01*
X25065431Y-10240655D01*
X25055017Y-10240655D01*
X25039269Y-10245989D01*
X25028855Y-10256403D01*
X25023775Y-10271897D01*
X25023775Y-10287391D01*
X25028855Y-10303139D01*
X25034189Y-10308219D01*
X25044603Y-10313553D01*
X25132741Y-10175377D02*
G01*
X25127661Y-10190871D01*
X25112167Y-10201285D01*
X25086005Y-10206365D01*
X25070511Y-10206365D01*
X25044603Y-10201285D01*
X25028855Y-10190871D01*
X25023775Y-10175377D01*
X25023775Y-10164963D01*
X25028855Y-10149215D01*
X25044603Y-10138801D01*
X25070511Y-10133721D01*
X25086005Y-10133721D01*
X25112167Y-10138801D01*
X25127661Y-10149215D01*
X25132741Y-10164963D01*
X25132741Y-10175377D01*
D10*
X12044552Y-8558403D02*
G01*
X12369977Y-8558403D01*
X12369977Y-9553422D01*
X12001677Y-9553422D01*
X12001677Y-8558403D01*
X12044552Y-8558403D01*
X12035256Y-10890046D02*
G01*
X12360681Y-10890046D01*
X12360681Y-11885066D01*
X11992381Y-11885066D01*
X11992381Y-10890046D01*
X12035256Y-10890046D01*
X12055398Y-13229285D02*
G01*
X12380823Y-13229285D01*
X12380823Y-14224304D01*
X12012523Y-14224304D01*
X12012523Y-13229285D01*
X12055398Y-13229285D01*
X10044277Y-8557082D02*
G01*
X10369702Y-8557082D01*
X10369702Y-9552101D01*
X10001402Y-9552101D01*
X10001402Y-8557082D01*
X10044277Y-8557082D01*
X10034981Y-10888726D02*
G01*
X10360406Y-10888726D01*
X10360406Y-11883745D01*
X9992106Y-11883745D01*
X9992106Y-10888726D01*
X10034981Y-10888726D01*
X10055123Y-13227964D02*
G01*
X10380548Y-13227964D01*
X10380548Y-14222984D01*
X10012248Y-14222984D01*
X10012248Y-13227964D01*
X10055123Y-13227964D01*
X16042284Y-8557082D02*
G01*
X16367709Y-8557082D01*
X16367709Y-9552101D01*
X15999409Y-9552101D01*
X15999409Y-8557082D01*
X16042284Y-8557082D01*
X16032988Y-10888726D02*
G01*
X16358412Y-10888726D01*
X16358412Y-11883770D01*
X15990112Y-11883770D01*
X15990112Y-10888726D01*
X16032988Y-10888726D01*
X16053130Y-13227964D02*
G01*
X16378554Y-13227964D01*
X16378554Y-14222984D01*
X16010254Y-14222984D01*
X16010254Y-13227964D01*
X16053130Y-13227964D01*
X14042009Y-8555786D02*
G01*
X14367433Y-8555786D01*
X14367433Y-9550780D01*
X13999133Y-9550780D01*
X13999133Y-8555786D01*
X14042009Y-8555786D01*
X14032712Y-10887405D02*
G01*
X14358137Y-10887405D01*
X14358137Y-11882450D01*
X13989837Y-11882450D01*
X13989837Y-10887405D01*
X14032712Y-10887405D01*
X14052854Y-13226669D02*
G01*
X14378279Y-13226669D01*
X14378279Y-14221663D01*
X14009979Y-14221663D01*
X14009979Y-13226669D01*
X14052854Y-13226669D01*
X18044134Y-8558707D02*
G01*
X18369559Y-8558707D01*
X18369559Y-9553727D01*
X18001259Y-9553727D01*
X18001259Y-8558707D01*
X18044134Y-8558707D01*
X18034838Y-10890351D02*
G01*
X18360263Y-10890351D01*
X18360263Y-11885371D01*
X17991963Y-11885371D01*
X17991963Y-10890351D01*
X18034838Y-10890351D01*
X18054980Y-13229589D02*
G01*
X18380405Y-13229589D01*
X18380405Y-14224609D01*
X18012105Y-14224609D01*
X18012105Y-13229589D01*
X18054980Y-13229589D01*
X23040873Y-8557082D02*
G01*
X23366298Y-8557082D01*
X23366298Y-9552101D01*
X22997998Y-9552101D01*
X22997998Y-8557082D01*
X23040873Y-8557082D01*
X23031551Y-10888726D02*
G01*
X23356976Y-10888726D01*
X23356976Y-11883745D01*
X22988676Y-11883745D01*
X22988676Y-10888726D01*
X23031551Y-10888726D01*
X23051693Y-13227964D02*
G01*
X23377118Y-13227964D01*
X23377118Y-14222984D01*
X23008818Y-14222984D01*
X23008818Y-13227964D01*
X23051693Y-13227964D01*
X20041590Y-8556091D02*
G01*
X20367015Y-8556091D01*
X20367015Y-9551111D01*
X19998715Y-9551111D01*
X19998715Y-8556091D01*
X20041590Y-8556091D01*
X20032294Y-10887735D02*
G01*
X20357718Y-10887735D01*
X20357718Y-11882754D01*
X19989418Y-11882754D01*
X19989418Y-10887735D01*
X20032294Y-10887735D01*
X20052436Y-13226973D02*
G01*
X20377861Y-13226973D01*
X20377861Y-14221993D01*
X20009561Y-14221993D01*
X20009561Y-13226973D01*
X20052436Y-13226973D01*
D17*
X24543054Y-12317120D02*
G01*
X24543054Y-8253120D01*
X24543054Y-12317120D02*
G01*
X24797054Y-12317120D01*
X24797054Y-12317120D02*
G01*
X24797054Y-12126620D01*
X24797054Y-12126620D02*
G01*
X24797054Y-8253120D01*
X24543054Y-8253120D02*
G01*
X24797054Y-8253120D01*
D18*
G75*
G01*
X12413160Y-8525043D02*
G02*
X12413160Y-8525297I20000J-127D01*
G75*
G01*
X12403864Y-10856686D02*
G02*
X12403864Y-10856940I19999J-127D01*
G75*
G01*
X12424006Y-13195925D02*
G02*
X12424006Y-13196179I20000J-127D01*
G75*
G01*
X10412887Y-8523724D02*
G02*
X10412887Y-8523978I20000J-127D01*
G75*
G01*
X10403591Y-10855368D02*
G02*
X10403591Y-10855622I20000J-127D01*
G75*
G01*
X10423733Y-13194607D02*
G02*
X10423733Y-13194861I20000J-127D01*
G75*
G01*
X16410884Y-8523742D02*
G02*
X16410884Y-8523996I20000J-127D01*
G75*
G01*
X16401588Y-10855386D02*
G02*
X16401588Y-10855640I19999J-127D01*
G75*
G01*
X16421730Y-13194624D02*
G02*
X16421730Y-13194878I19999J-127D01*
G75*
G01*
X14410611Y-8522424D02*
G02*
X14410611Y-8522678I20000J-127D01*
G75*
G01*
X14401315Y-10854068D02*
G02*
X14401315Y-10854322I19999J-127D01*
G75*
G01*
X14421457Y-13193306D02*
G02*
X14421457Y-13193560I20000J-127D01*
G75*
G01*
X18412737Y-8525360D02*
G02*
X18412737Y-8525614I19999J-127D01*
G75*
G01*
X18403440Y-10857004D02*
G02*
X18403440Y-10857258I20000J-127D01*
G75*
G01*
X18423583Y-13196242D02*
G02*
X18423583Y-13196496I19999J-127D01*
G75*
G01*
X23409468Y-8523729D02*
G02*
X23409468Y-8523983I20000J-127D01*
G75*
G01*
X23400172Y-10855373D02*
G02*
X23400172Y-10855627I19999J-127D01*
G75*
G01*
X23420314Y-13194612D02*
G02*
X23420314Y-13194866I19999J-127D01*
G75*
G01*
X20410188Y-8522741D02*
G02*
X20410188Y-8522995I19999J-127D01*
G75*
G01*
X20400891Y-10854385D02*
G02*
X20400891Y-10854639I20000J-127D01*
G75*
G01*
X20421034Y-13193624D02*
G02*
X20421034Y-13193878I19999J-127D01*
M02*
