G04 Layer: TopSolderMaskLayer*
G04 EasyEDA v6.4.20.6, 2021-08-02T11:14:11+02:00*
G04 e7c21c1e6ca5491a88c75d15d8fd51ee,3e5df01c9dd74657a85989452aaa4bc1,10*
G04 Gerber Generator version 0.2*
G04 Scale: 100 percent, Rotated: No, Reflected: No *
G04 Dimensions in millimeters *
G04 leading zeros omitted , absolute positions ,4 integer and 5 decimal *
%FSLAX45Y45*%
%MOMM*%

%ADD21C,1.7018*%

%LPD*%
G36*
X24584913Y-12275312D02*
G01*
X24584913Y-12105131D01*
X24755093Y-12105131D01*
X24755093Y-12275312D01*
G37*
D21*
G01*
X24668225Y-11935968D03*
G01*
X24668225Y-11681968D03*
G01*
X24668225Y-11427968D03*
G01*
X24668225Y-11173968D03*
G01*
X24668225Y-10919968D03*
G01*
X24668225Y-10665968D03*
G01*
X24668225Y-10411968D03*
G01*
X24668225Y-10157968D03*
G01*
X24668225Y-9903968D03*
G01*
X24668225Y-9649968D03*
G01*
X24668225Y-9395968D03*
G01*
X24668225Y-9141968D03*
G01*
X24668225Y-8887968D03*
G01*
X24668225Y-8633968D03*
G01*
X24668225Y-8379968D03*
G36*
X11860022Y-14551405D02*
G01*
X11860022Y-14391131D01*
X12020295Y-14391131D01*
X12020295Y-14551405D01*
G37*
G36*
X12108941Y-14551405D02*
G01*
X12108941Y-14391131D01*
X12269215Y-14391131D01*
X12269215Y-14551405D01*
G37*
G36*
X12357861Y-14551405D02*
G01*
X12357861Y-14391131D01*
X12518136Y-14391131D01*
X12518136Y-14551405D01*
G37*
G36*
X11860022Y-13101065D02*
G01*
X11860022Y-12940792D01*
X12020295Y-12940792D01*
X12020295Y-13101065D01*
G37*
G36*
X12357861Y-13101065D02*
G01*
X12357861Y-12940792D01*
X12518136Y-12940792D01*
X12518136Y-13101065D01*
G37*
G36*
X11860022Y-12221210D02*
G01*
X11860022Y-12060936D01*
X12020295Y-12060936D01*
X12020295Y-12221210D01*
G37*
G36*
X12108941Y-12221210D02*
G01*
X12108941Y-12060936D01*
X12269215Y-12060936D01*
X12269215Y-12221210D01*
G37*
G36*
X12357861Y-12221210D02*
G01*
X12357861Y-12060936D01*
X12518136Y-12060936D01*
X12518136Y-12221210D01*
G37*
G36*
X11860022Y-10770870D02*
G01*
X11860022Y-10610595D01*
X12020295Y-10610595D01*
X12020295Y-10770870D01*
G37*
G36*
X12357861Y-10770870D02*
G01*
X12357861Y-10610595D01*
X12518136Y-10610595D01*
X12518136Y-10770870D01*
G37*
G36*
X11860022Y-9881362D02*
G01*
X11860022Y-9721087D01*
X12020295Y-9721087D01*
X12020295Y-9881362D01*
G37*
G36*
X12108941Y-9881362D02*
G01*
X12108941Y-9721087D01*
X12269215Y-9721087D01*
X12269215Y-9881362D01*
G37*
G36*
X12357861Y-9881362D02*
G01*
X12357861Y-9721087D01*
X12518136Y-9721087D01*
X12518136Y-9881362D01*
G37*
G36*
X11860022Y-8431021D02*
G01*
X11860022Y-8270747D01*
X12020295Y-8270747D01*
X12020295Y-8431021D01*
G37*
G36*
X12357861Y-8431021D02*
G01*
X12357861Y-8270747D01*
X12518136Y-8270747D01*
X12518136Y-8431021D01*
G37*
G36*
X11860022Y-7561326D02*
G01*
X11860022Y-7401052D01*
X12020295Y-7401052D01*
X12020295Y-7561326D01*
G37*
G36*
X12108941Y-7561326D02*
G01*
X12108941Y-7401052D01*
X12269215Y-7401052D01*
X12269215Y-7561326D01*
G37*
G36*
X12357861Y-7561326D02*
G01*
X12357861Y-7401052D01*
X12518136Y-7401052D01*
X12518136Y-7561326D01*
G37*
G36*
X11860022Y-6110986D02*
G01*
X11860022Y-5950712D01*
X12020295Y-5950712D01*
X12020295Y-6110986D01*
G37*
G36*
X12357861Y-6110986D02*
G01*
X12357861Y-5950712D01*
X12518136Y-5950712D01*
X12518136Y-6110986D01*
G37*
G36*
X9859518Y-14549881D02*
G01*
X9859518Y-14389607D01*
X10019791Y-14389607D01*
X10019791Y-14549881D01*
G37*
G36*
X10108438Y-14549881D02*
G01*
X10108438Y-14389607D01*
X10268711Y-14389607D01*
X10268711Y-14549881D01*
G37*
G36*
X10357358Y-14549881D02*
G01*
X10357358Y-14389607D01*
X10517631Y-14389607D01*
X10517631Y-14549881D01*
G37*
G36*
X9859518Y-13099542D02*
G01*
X9859518Y-12939268D01*
X10019791Y-12939268D01*
X10019791Y-13099542D01*
G37*
G36*
X10357358Y-13099542D02*
G01*
X10357358Y-12939268D01*
X10517631Y-12939268D01*
X10517631Y-13099542D01*
G37*
G36*
X9859518Y-12219939D02*
G01*
X9859518Y-12059665D01*
X10019791Y-12059665D01*
X10019791Y-12219939D01*
G37*
G36*
X10108438Y-12219939D02*
G01*
X10108438Y-12059665D01*
X10268711Y-12059665D01*
X10268711Y-12219939D01*
G37*
G36*
X10357358Y-12219939D02*
G01*
X10357358Y-12059665D01*
X10517631Y-12059665D01*
X10517631Y-12219939D01*
G37*
G36*
X9859518Y-10769600D02*
G01*
X9859518Y-10609326D01*
X10019791Y-10609326D01*
X10019791Y-10769600D01*
G37*
G36*
X10357358Y-10769600D02*
G01*
X10357358Y-10609326D01*
X10517631Y-10609326D01*
X10517631Y-10769600D01*
G37*
G36*
X9859518Y-9880092D02*
G01*
X9859518Y-9719818D01*
X10019791Y-9719818D01*
X10019791Y-9880092D01*
G37*
G36*
X10108438Y-9880092D02*
G01*
X10108438Y-9719818D01*
X10268711Y-9719818D01*
X10268711Y-9880092D01*
G37*
G36*
X10357358Y-9880092D02*
G01*
X10357358Y-9719818D01*
X10517631Y-9719818D01*
X10517631Y-9880092D01*
G37*
G36*
X9859518Y-8429752D02*
G01*
X9859518Y-8269478D01*
X10019791Y-8269478D01*
X10019791Y-8429752D01*
G37*
G36*
X10357358Y-8429752D02*
G01*
X10357358Y-8269478D01*
X10517631Y-8269478D01*
X10517631Y-8429752D01*
G37*
G36*
X9859518Y-7560055D02*
G01*
X9859518Y-7399781D01*
X10019791Y-7399781D01*
X10019791Y-7560055D01*
G37*
G36*
X10108438Y-7560055D02*
G01*
X10108438Y-7399781D01*
X10268711Y-7399781D01*
X10268711Y-7560055D01*
G37*
G36*
X10357358Y-7560055D02*
G01*
X10357358Y-7399781D01*
X10517631Y-7399781D01*
X10517631Y-7560055D01*
G37*
G36*
X9859518Y-6109715D02*
G01*
X9859518Y-5949442D01*
X10019791Y-5949442D01*
X10019791Y-6109715D01*
G37*
G36*
X10357358Y-6109715D02*
G01*
X10357358Y-5949442D01*
X10517631Y-5949442D01*
X10517631Y-6109715D01*
G37*
G36*
X15857727Y-14549881D02*
G01*
X15857727Y-14389607D01*
X16018002Y-14389607D01*
X16018002Y-14549881D01*
G37*
G36*
X16106647Y-14549881D02*
G01*
X16106647Y-14389607D01*
X16266922Y-14389607D01*
X16266922Y-14549881D01*
G37*
G36*
X16355568Y-14549881D02*
G01*
X16355568Y-14389607D01*
X16515841Y-14389607D01*
X16515841Y-14549881D01*
G37*
G36*
X15857727Y-13099542D02*
G01*
X15857727Y-12939268D01*
X16018002Y-12939268D01*
X16018002Y-13099542D01*
G37*
G36*
X16355568Y-13099542D02*
G01*
X16355568Y-12939268D01*
X16515841Y-12939268D01*
X16515841Y-13099542D01*
G37*
G36*
X15857727Y-12219939D02*
G01*
X15857727Y-12059665D01*
X16018002Y-12059665D01*
X16018002Y-12219939D01*
G37*
G36*
X16106647Y-12219939D02*
G01*
X16106647Y-12059665D01*
X16266922Y-12059665D01*
X16266922Y-12219939D01*
G37*
G36*
X16355568Y-12219939D02*
G01*
X16355568Y-12059665D01*
X16515841Y-12059665D01*
X16515841Y-12219939D01*
G37*
G36*
X15857727Y-10769600D02*
G01*
X15857727Y-10609326D01*
X16018002Y-10609326D01*
X16018002Y-10769600D01*
G37*
G36*
X16355568Y-10769600D02*
G01*
X16355568Y-10609326D01*
X16515841Y-10609326D01*
X16515841Y-10769600D01*
G37*
G36*
X15857727Y-9880092D02*
G01*
X15857727Y-9719818D01*
X16018002Y-9719818D01*
X16018002Y-9880092D01*
G37*
G36*
X16106647Y-9880092D02*
G01*
X16106647Y-9719818D01*
X16266922Y-9719818D01*
X16266922Y-9880092D01*
G37*
G36*
X16355568Y-9880092D02*
G01*
X16355568Y-9719818D01*
X16515841Y-9719818D01*
X16515841Y-9880092D01*
G37*
G36*
X15857727Y-8429752D02*
G01*
X15857727Y-8269478D01*
X16018002Y-8269478D01*
X16018002Y-8429752D01*
G37*
G36*
X16355568Y-8429752D02*
G01*
X16355568Y-8269478D01*
X16515841Y-8269478D01*
X16515841Y-8429752D01*
G37*
G36*
X15857727Y-7560055D02*
G01*
X15857727Y-7399781D01*
X16018002Y-7399781D01*
X16018002Y-7560055D01*
G37*
G36*
X16106647Y-7560055D02*
G01*
X16106647Y-7399781D01*
X16266922Y-7399781D01*
X16266922Y-7560055D01*
G37*
G36*
X16355568Y-7560055D02*
G01*
X16355568Y-7399781D01*
X16515841Y-7399781D01*
X16515841Y-7560055D01*
G37*
G36*
X15857727Y-6109715D02*
G01*
X15857727Y-5949442D01*
X16018002Y-5949442D01*
X16018002Y-6109715D01*
G37*
G36*
X16355568Y-6109715D02*
G01*
X16355568Y-5949442D01*
X16515841Y-5949442D01*
X16515841Y-6109715D01*
G37*
G36*
X13857477Y-14548612D02*
G01*
X13857477Y-14388337D01*
X14017752Y-14388337D01*
X14017752Y-14548612D01*
G37*
G36*
X14106397Y-14548612D02*
G01*
X14106397Y-14388337D01*
X14266418Y-14388337D01*
X14266418Y-14548612D01*
G37*
G36*
X14355063Y-14548612D02*
G01*
X14355063Y-14388337D01*
X14515591Y-14388337D01*
X14515591Y-14548612D01*
G37*
G36*
X13857477Y-13098271D02*
G01*
X13857477Y-12937997D01*
X14017752Y-12937997D01*
X14017752Y-13098271D01*
G37*
G36*
X14355063Y-13098271D02*
G01*
X14355063Y-12937997D01*
X14515591Y-12937997D01*
X14515591Y-13098271D01*
G37*
G36*
X13857477Y-12218670D02*
G01*
X13857477Y-12058395D01*
X14017752Y-12058395D01*
X14017752Y-12218670D01*
G37*
G36*
X14106397Y-12218670D02*
G01*
X14106397Y-12058395D01*
X14266418Y-12058395D01*
X14266418Y-12218670D01*
G37*
G36*
X14355063Y-12218670D02*
G01*
X14355063Y-12058395D01*
X14515591Y-12058395D01*
X14515591Y-12218670D01*
G37*
G36*
X13857477Y-10768329D02*
G01*
X13857477Y-10608055D01*
X14017752Y-10608055D01*
X14017752Y-10768329D01*
G37*
G36*
X14355063Y-10768329D02*
G01*
X14355063Y-10608055D01*
X14515591Y-10608055D01*
X14515591Y-10768329D01*
G37*
G36*
X13857477Y-9878821D02*
G01*
X13857477Y-9718547D01*
X14017752Y-9718547D01*
X14017752Y-9878821D01*
G37*
G36*
X14106397Y-9878821D02*
G01*
X14106397Y-9718547D01*
X14266418Y-9718547D01*
X14266418Y-9878821D01*
G37*
G36*
X14355063Y-9878821D02*
G01*
X14355063Y-9718547D01*
X14515591Y-9718547D01*
X14515591Y-9878821D01*
G37*
G36*
X13857477Y-8428481D02*
G01*
X13857477Y-8268208D01*
X14017752Y-8268208D01*
X14017752Y-8428481D01*
G37*
G36*
X14355063Y-8428481D02*
G01*
X14355063Y-8268208D01*
X14515591Y-8268208D01*
X14515591Y-8428481D01*
G37*
G36*
X13857477Y-7558786D02*
G01*
X13857477Y-7398512D01*
X14017752Y-7398512D01*
X14017752Y-7558786D01*
G37*
G36*
X14106397Y-7558786D02*
G01*
X14106397Y-7398512D01*
X14266418Y-7398512D01*
X14266418Y-7558786D01*
G37*
G36*
X14355063Y-7558786D02*
G01*
X14355063Y-7398512D01*
X14515591Y-7398512D01*
X14515591Y-7558786D01*
G37*
G36*
X13857477Y-6108445D02*
G01*
X13857477Y-5948171D01*
X14017752Y-5948171D01*
X14017752Y-6108445D01*
G37*
G36*
X14355063Y-6108445D02*
G01*
X14355063Y-5948171D01*
X14515591Y-5948171D01*
X14515591Y-6108445D01*
G37*
G36*
X17859502Y-14551660D02*
G01*
X17859502Y-14391386D01*
X18019775Y-14391386D01*
X18019775Y-14551660D01*
G37*
G36*
X18108422Y-14551660D02*
G01*
X18108422Y-14391386D01*
X18268695Y-14391386D01*
X18268695Y-14551660D01*
G37*
G36*
X18357341Y-14551660D02*
G01*
X18357341Y-14391386D01*
X18517616Y-14391386D01*
X18517616Y-14551660D01*
G37*
G36*
X17859502Y-13101320D02*
G01*
X17859502Y-12941045D01*
X18019775Y-12941045D01*
X18019775Y-13101320D01*
G37*
G36*
X18357341Y-13101320D02*
G01*
X18357341Y-12941045D01*
X18517616Y-12941045D01*
X18517616Y-13101320D01*
G37*
G36*
X17859502Y-12221718D02*
G01*
X17859502Y-12061444D01*
X18019775Y-12061444D01*
X18019775Y-12221718D01*
G37*
G36*
X18108422Y-12221718D02*
G01*
X18108422Y-12061444D01*
X18268695Y-12061444D01*
X18268695Y-12221718D01*
G37*
G36*
X18357341Y-12221718D02*
G01*
X18357341Y-12061444D01*
X18517616Y-12061444D01*
X18517616Y-12221718D01*
G37*
G36*
X17859502Y-10771378D02*
G01*
X17859502Y-10611104D01*
X18019775Y-10611104D01*
X18019775Y-10771378D01*
G37*
G36*
X18357341Y-10771378D02*
G01*
X18357341Y-10611104D01*
X18517616Y-10611104D01*
X18517616Y-10771378D01*
G37*
G36*
X17859502Y-9881615D02*
G01*
X17859502Y-9721342D01*
X18019775Y-9721342D01*
X18019775Y-9881615D01*
G37*
G36*
X18108422Y-9881615D02*
G01*
X18108422Y-9721342D01*
X18268695Y-9721342D01*
X18268695Y-9881615D01*
G37*
G36*
X18357341Y-9881615D02*
G01*
X18357341Y-9721342D01*
X18517616Y-9721342D01*
X18517616Y-9881615D01*
G37*
G36*
X17859502Y-8431276D02*
G01*
X17859502Y-8271002D01*
X18019775Y-8271002D01*
X18019775Y-8431276D01*
G37*
G36*
X18357341Y-8431276D02*
G01*
X18357341Y-8271002D01*
X18517616Y-8271002D01*
X18517616Y-8431276D01*
G37*
G36*
X17859502Y-7561579D02*
G01*
X17859502Y-7401305D01*
X18019775Y-7401305D01*
X18019775Y-7561579D01*
G37*
G36*
X18108422Y-7561579D02*
G01*
X18108422Y-7401305D01*
X18268695Y-7401305D01*
X18268695Y-7561579D01*
G37*
G36*
X18357341Y-7561579D02*
G01*
X18357341Y-7401305D01*
X18517616Y-7401305D01*
X18517616Y-7561579D01*
G37*
G36*
X17859502Y-6111239D02*
G01*
X17859502Y-5950965D01*
X18019775Y-5950965D01*
X18019775Y-6111239D01*
G37*
G36*
X18357341Y-6111239D02*
G01*
X18357341Y-5950965D01*
X18517616Y-5950965D01*
X18517616Y-6111239D01*
G37*
G36*
X22856190Y-14549881D02*
G01*
X22856190Y-14389607D01*
X23016463Y-14389607D01*
X23016463Y-14549881D01*
G37*
G36*
X23105109Y-14549881D02*
G01*
X23105109Y-14389607D01*
X23265384Y-14389607D01*
X23265384Y-14549881D01*
G37*
G36*
X23354029Y-14549881D02*
G01*
X23354029Y-14389607D01*
X23514304Y-14389607D01*
X23514304Y-14549881D01*
G37*
G36*
X22856190Y-13099542D02*
G01*
X22856190Y-12939268D01*
X23016463Y-12939268D01*
X23016463Y-13099542D01*
G37*
G36*
X23354029Y-13099542D02*
G01*
X23354029Y-12939268D01*
X23514304Y-12939268D01*
X23514304Y-13099542D01*
G37*
G36*
X22856190Y-12219939D02*
G01*
X22856190Y-12059665D01*
X23016463Y-12059665D01*
X23016463Y-12219939D01*
G37*
G36*
X23105109Y-12219939D02*
G01*
X23105109Y-12059665D01*
X23265384Y-12059665D01*
X23265384Y-12219939D01*
G37*
G36*
X23354029Y-12219939D02*
G01*
X23354029Y-12059665D01*
X23514304Y-12059665D01*
X23514304Y-12219939D01*
G37*
G36*
X22856190Y-10769600D02*
G01*
X22856190Y-10609326D01*
X23016463Y-10609326D01*
X23016463Y-10769600D01*
G37*
G36*
X23354029Y-10769600D02*
G01*
X23354029Y-10609326D01*
X23514304Y-10609326D01*
X23514304Y-10769600D01*
G37*
G36*
X22856190Y-9880092D02*
G01*
X22856190Y-9719818D01*
X23016463Y-9719818D01*
X23016463Y-9880092D01*
G37*
G36*
X23105109Y-9880092D02*
G01*
X23105109Y-9719818D01*
X23265384Y-9719818D01*
X23265384Y-9880092D01*
G37*
G36*
X23354029Y-9880092D02*
G01*
X23354029Y-9719818D01*
X23514304Y-9719818D01*
X23514304Y-9880092D01*
G37*
G36*
X22856190Y-8429752D02*
G01*
X22856190Y-8269478D01*
X23016463Y-8269478D01*
X23016463Y-8429752D01*
G37*
G36*
X23354029Y-8429752D02*
G01*
X23354029Y-8269478D01*
X23514304Y-8269478D01*
X23514304Y-8429752D01*
G37*
G36*
X22856190Y-7560055D02*
G01*
X22856190Y-7399781D01*
X23016463Y-7399781D01*
X23016463Y-7560055D01*
G37*
G36*
X23105109Y-7560055D02*
G01*
X23105109Y-7399781D01*
X23265384Y-7399781D01*
X23265384Y-7560055D01*
G37*
G36*
X23354029Y-7560055D02*
G01*
X23354029Y-7399781D01*
X23514304Y-7399781D01*
X23514304Y-7560055D01*
G37*
G36*
X22856190Y-6109715D02*
G01*
X22856190Y-5949442D01*
X23016463Y-5949442D01*
X23016463Y-6109715D01*
G37*
G36*
X23354029Y-6109715D02*
G01*
X23354029Y-5949442D01*
X23514304Y-5949442D01*
X23514304Y-6109715D01*
G37*
G36*
X19856958Y-14549120D02*
G01*
X19856958Y-14388845D01*
X20017231Y-14388845D01*
X20017231Y-14549120D01*
G37*
G36*
X20105877Y-14549120D02*
G01*
X20105877Y-14388845D01*
X20266152Y-14388845D01*
X20266152Y-14549120D01*
G37*
G36*
X20354798Y-14549120D02*
G01*
X20354798Y-14388845D01*
X20515072Y-14388845D01*
X20515072Y-14549120D01*
G37*
G36*
X19856958Y-13098779D02*
G01*
X19856958Y-12938505D01*
X20017231Y-12938505D01*
X20017231Y-13098779D01*
G37*
G36*
X20354798Y-13098779D02*
G01*
X20354798Y-12938505D01*
X20515072Y-12938505D01*
X20515072Y-13098779D01*
G37*
G36*
X19856958Y-12218924D02*
G01*
X19856958Y-12058650D01*
X20017231Y-12058650D01*
X20017231Y-12218924D01*
G37*
G36*
X20105877Y-12218924D02*
G01*
X20105877Y-12058650D01*
X20266152Y-12058650D01*
X20266152Y-12218924D01*
G37*
G36*
X20354798Y-12218924D02*
G01*
X20354798Y-12058650D01*
X20515072Y-12058650D01*
X20515072Y-12218924D01*
G37*
G36*
X19856958Y-10768584D02*
G01*
X19856958Y-10608310D01*
X20017231Y-10608310D01*
X20017231Y-10768584D01*
G37*
G36*
X20354798Y-10768584D02*
G01*
X20354798Y-10608310D01*
X20515072Y-10608310D01*
X20515072Y-10768584D01*
G37*
G36*
X19856958Y-9879076D02*
G01*
X19856958Y-9718802D01*
X20017231Y-9718802D01*
X20017231Y-9879076D01*
G37*
G36*
X20105877Y-9879076D02*
G01*
X20105877Y-9718802D01*
X20266152Y-9718802D01*
X20266152Y-9879076D01*
G37*
G36*
X20354798Y-9879076D02*
G01*
X20354798Y-9718802D01*
X20515072Y-9718802D01*
X20515072Y-9879076D01*
G37*
G36*
X19856958Y-8428736D02*
G01*
X19856958Y-8268462D01*
X20017231Y-8268462D01*
X20017231Y-8428736D01*
G37*
G36*
X20354798Y-8428736D02*
G01*
X20354798Y-8268462D01*
X20515072Y-8268462D01*
X20515072Y-8428736D01*
G37*
G36*
X19856958Y-7559039D02*
G01*
X19856958Y-7398765D01*
X20017231Y-7398765D01*
X20017231Y-7559039D01*
G37*
G36*
X20105877Y-7559039D02*
G01*
X20105877Y-7398765D01*
X20266152Y-7398765D01*
X20266152Y-7559039D01*
G37*
G36*
X20354798Y-7559039D02*
G01*
X20354798Y-7398765D01*
X20515072Y-7398765D01*
X20515072Y-7559039D01*
G37*
G36*
X19856958Y-6108700D02*
G01*
X19856958Y-5948426D01*
X20017231Y-5948426D01*
X20017231Y-6108700D01*
G37*
G36*
X20354798Y-6108700D02*
G01*
X20354798Y-5948426D01*
X20515072Y-5948426D01*
X20515072Y-6108700D01*
G37*
M02*
