G04 Layer: BottomPasteMaskLayer*
G04 EasyEDA v6.4.20.6, 2021-08-02T11:14:11+02:00*
G04 e7c21c1e6ca5491a88c75d15d8fd51ee,3e5df01c9dd74657a85989452aaa4bc1,10*
G04 Gerber Generator version 0.2*
G04 Scale: 100 percent, Rotated: No, Reflected: No *
G04 Dimensions in millimeters *
G04 leading zeros omitted , absolute positions ,4 integer and 5 decimal *
%FSLAX45Y45*%
%MOMM*%

%ADD15C,0.6000*%

%LPD*%
D15*
X11829232Y-9500108D02*
G01*
X11949231Y-9500108D01*
X11829232Y-9373108D02*
G01*
X11949231Y-9373108D01*
X11829232Y-9246108D02*
G01*
X11949231Y-9246108D01*
X11829232Y-9119108D02*
G01*
X11949231Y-9119108D01*
X11829232Y-8992108D02*
G01*
X11949231Y-8992108D01*
X11829232Y-8865108D02*
G01*
X11949231Y-8865108D01*
X11829232Y-8738108D02*
G01*
X11949231Y-8738108D01*
X11829232Y-8611108D02*
G01*
X11949231Y-8611108D01*
X12423592Y-9500108D02*
G01*
X12543591Y-9500108D01*
X12423592Y-9373108D02*
G01*
X12543591Y-9373108D01*
X12423592Y-9246108D02*
G01*
X12543591Y-9246108D01*
X12423592Y-9119108D02*
G01*
X12543591Y-9119108D01*
X12423592Y-8992108D02*
G01*
X12543591Y-8992108D01*
X12423592Y-8865108D02*
G01*
X12543591Y-8865108D01*
X12423592Y-8738108D02*
G01*
X12543591Y-8738108D01*
X12423592Y-8611108D02*
G01*
X12543591Y-8611108D01*
X11819072Y-11830304D02*
G01*
X11939071Y-11830304D01*
X11819072Y-11703304D02*
G01*
X11939071Y-11703304D01*
X11819072Y-11576304D02*
G01*
X11939071Y-11576304D01*
X11819072Y-11449304D02*
G01*
X11939071Y-11449304D01*
X11819072Y-11322304D02*
G01*
X11939071Y-11322304D01*
X11819072Y-11195304D02*
G01*
X11939071Y-11195304D01*
X11819072Y-11068304D02*
G01*
X11939071Y-11068304D01*
X11819072Y-10941304D02*
G01*
X11939071Y-10941304D01*
X12413686Y-11830304D02*
G01*
X12533685Y-11830304D01*
X12413686Y-11703304D02*
G01*
X12533685Y-11703304D01*
X12413686Y-11576304D02*
G01*
X12533685Y-11576304D01*
X12413686Y-11449304D02*
G01*
X12533685Y-11449304D01*
X12413686Y-11322304D02*
G01*
X12533685Y-11322304D01*
X12413686Y-11195304D02*
G01*
X12533685Y-11195304D01*
X12413686Y-11068304D02*
G01*
X12533685Y-11068304D01*
X12413686Y-10941304D02*
G01*
X12533685Y-10941304D01*
X11840916Y-14169897D02*
G01*
X11960915Y-14169897D01*
X11840916Y-14042897D02*
G01*
X11960915Y-14042897D01*
X11840916Y-13915897D02*
G01*
X11960915Y-13915897D01*
X11840916Y-13788897D02*
G01*
X11960915Y-13788897D01*
X11840916Y-13661897D02*
G01*
X11960915Y-13661897D01*
X11840916Y-13534897D02*
G01*
X11960915Y-13534897D01*
X11840916Y-13407897D02*
G01*
X11960915Y-13407897D01*
X11840916Y-13280897D02*
G01*
X11960915Y-13280897D01*
X12435276Y-14169897D02*
G01*
X12555275Y-14169897D01*
X12435276Y-14042897D02*
G01*
X12555275Y-14042897D01*
X12435276Y-13915897D02*
G01*
X12555275Y-13915897D01*
X12435276Y-13788897D02*
G01*
X12555275Y-13788897D01*
X12435276Y-13661897D02*
G01*
X12555275Y-13661897D01*
X12435276Y-13534897D02*
G01*
X12555275Y-13534897D01*
X12435276Y-13407897D02*
G01*
X12555275Y-13407897D01*
X12435276Y-13280897D02*
G01*
X12555275Y-13280897D01*
X9829236Y-9500108D02*
G01*
X9949235Y-9500108D01*
X9829236Y-9373108D02*
G01*
X9949235Y-9373108D01*
X9829236Y-9246108D02*
G01*
X9949235Y-9246108D01*
X9829236Y-9119108D02*
G01*
X9949235Y-9119108D01*
X9829236Y-8992108D02*
G01*
X9949235Y-8992108D01*
X9829236Y-8865108D02*
G01*
X9949235Y-8865108D01*
X9829236Y-8738108D02*
G01*
X9949235Y-8738108D01*
X9829236Y-8611108D02*
G01*
X9949235Y-8611108D01*
X10423596Y-9500108D02*
G01*
X10543595Y-9500108D01*
X10423596Y-9373108D02*
G01*
X10543595Y-9373108D01*
X10423596Y-9246108D02*
G01*
X10543595Y-9246108D01*
X10423596Y-9119108D02*
G01*
X10543595Y-9119108D01*
X10423596Y-8992108D02*
G01*
X10543595Y-8992108D01*
X10423596Y-8865108D02*
G01*
X10543595Y-8865108D01*
X10423596Y-8738108D02*
G01*
X10543595Y-8738108D01*
X10423596Y-8611108D02*
G01*
X10543595Y-8611108D01*
X9819076Y-11830304D02*
G01*
X9939075Y-11830304D01*
X9819076Y-11703304D02*
G01*
X9939075Y-11703304D01*
X9819076Y-11576304D02*
G01*
X9939075Y-11576304D01*
X9819076Y-11449304D02*
G01*
X9939075Y-11449304D01*
X9819076Y-11322304D02*
G01*
X9939075Y-11322304D01*
X9819076Y-11195304D02*
G01*
X9939075Y-11195304D01*
X9819076Y-11068304D02*
G01*
X9939075Y-11068304D01*
X9819076Y-10941304D02*
G01*
X9939075Y-10941304D01*
X10413690Y-11830304D02*
G01*
X10533689Y-11830304D01*
X10413690Y-11703304D02*
G01*
X10533689Y-11703304D01*
X10413690Y-11576304D02*
G01*
X10533689Y-11576304D01*
X10413690Y-11449304D02*
G01*
X10533689Y-11449304D01*
X10413690Y-11322304D02*
G01*
X10533689Y-11322304D01*
X10413690Y-11195304D02*
G01*
X10533689Y-11195304D01*
X10413690Y-11068304D02*
G01*
X10533689Y-11068304D01*
X10413690Y-10941304D02*
G01*
X10533689Y-10941304D01*
X9840920Y-14169897D02*
G01*
X9960919Y-14169897D01*
X9840920Y-14042897D02*
G01*
X9960919Y-14042897D01*
X9840920Y-13915897D02*
G01*
X9960919Y-13915897D01*
X9840920Y-13788897D02*
G01*
X9960919Y-13788897D01*
X9840920Y-13661897D02*
G01*
X9960919Y-13661897D01*
X9840920Y-13534897D02*
G01*
X9960919Y-13534897D01*
X9840920Y-13407897D02*
G01*
X9960919Y-13407897D01*
X9840920Y-13280897D02*
G01*
X9960919Y-13280897D01*
X10435280Y-14169897D02*
G01*
X10555279Y-14169897D01*
X10435280Y-14042897D02*
G01*
X10555279Y-14042897D01*
X10435280Y-13915897D02*
G01*
X10555279Y-13915897D01*
X10435280Y-13788897D02*
G01*
X10555279Y-13788897D01*
X10435280Y-13661897D02*
G01*
X10555279Y-13661897D01*
X10435280Y-13534897D02*
G01*
X10555279Y-13534897D01*
X10435280Y-13407897D02*
G01*
X10555279Y-13407897D01*
X10435280Y-13280897D02*
G01*
X10555279Y-13280897D01*
X15829224Y-9500108D02*
G01*
X15949223Y-9500108D01*
X15829224Y-9373108D02*
G01*
X15949223Y-9373108D01*
X15829224Y-9246108D02*
G01*
X15949223Y-9246108D01*
X15829224Y-9119108D02*
G01*
X15949223Y-9119108D01*
X15829224Y-8992108D02*
G01*
X15949223Y-8992108D01*
X15829224Y-8865108D02*
G01*
X15949223Y-8865108D01*
X15829224Y-8738108D02*
G01*
X15949223Y-8738108D01*
X15829224Y-8611108D02*
G01*
X15949223Y-8611108D01*
X16423584Y-9500108D02*
G01*
X16543583Y-9500108D01*
X16423584Y-9373108D02*
G01*
X16543583Y-9373108D01*
X16423584Y-9246108D02*
G01*
X16543583Y-9246108D01*
X16423584Y-9119108D02*
G01*
X16543583Y-9119108D01*
X16423584Y-8992108D02*
G01*
X16543583Y-8992108D01*
X16423584Y-8865108D02*
G01*
X16543583Y-8865108D01*
X16423584Y-8738108D02*
G01*
X16543583Y-8738108D01*
X16423584Y-8611108D02*
G01*
X16543583Y-8611108D01*
X15819064Y-11830304D02*
G01*
X15939063Y-11830304D01*
X15819064Y-11703304D02*
G01*
X15939063Y-11703304D01*
X15819064Y-11576304D02*
G01*
X15939063Y-11576304D01*
X15819064Y-11449304D02*
G01*
X15939063Y-11449304D01*
X15819064Y-11322304D02*
G01*
X15939063Y-11322304D01*
X15819064Y-11195304D02*
G01*
X15939063Y-11195304D01*
X15819064Y-11068304D02*
G01*
X15939063Y-11068304D01*
X15819064Y-10941304D02*
G01*
X15939063Y-10941304D01*
X16413678Y-11830304D02*
G01*
X16533677Y-11830304D01*
X16413678Y-11703304D02*
G01*
X16533677Y-11703304D01*
X16413678Y-11576304D02*
G01*
X16533677Y-11576304D01*
X16413678Y-11449304D02*
G01*
X16533677Y-11449304D01*
X16413678Y-11322304D02*
G01*
X16533677Y-11322304D01*
X16413678Y-11195304D02*
G01*
X16533677Y-11195304D01*
X16413678Y-11068304D02*
G01*
X16533677Y-11068304D01*
X16413678Y-10941304D02*
G01*
X16533677Y-10941304D01*
X15840908Y-14169897D02*
G01*
X15960907Y-14169897D01*
X15840908Y-14042897D02*
G01*
X15960907Y-14042897D01*
X15840908Y-13915897D02*
G01*
X15960907Y-13915897D01*
X15840908Y-13788897D02*
G01*
X15960907Y-13788897D01*
X15840908Y-13661897D02*
G01*
X15960907Y-13661897D01*
X15840908Y-13534897D02*
G01*
X15960907Y-13534897D01*
X15840908Y-13407897D02*
G01*
X15960907Y-13407897D01*
X15840908Y-13280897D02*
G01*
X15960907Y-13280897D01*
X16435268Y-14169897D02*
G01*
X16555267Y-14169897D01*
X16435268Y-14042897D02*
G01*
X16555267Y-14042897D01*
X16435268Y-13915897D02*
G01*
X16555267Y-13915897D01*
X16435268Y-13788897D02*
G01*
X16555267Y-13788897D01*
X16435268Y-13661897D02*
G01*
X16555267Y-13661897D01*
X16435268Y-13534897D02*
G01*
X16555267Y-13534897D01*
X16435268Y-13407897D02*
G01*
X16555267Y-13407897D01*
X16435268Y-13280897D02*
G01*
X16555267Y-13280897D01*
X13829228Y-9500108D02*
G01*
X13949227Y-9500108D01*
X13829228Y-9373108D02*
G01*
X13949227Y-9373108D01*
X13829228Y-9246108D02*
G01*
X13949227Y-9246108D01*
X13829228Y-9119108D02*
G01*
X13949227Y-9119108D01*
X13829228Y-8992108D02*
G01*
X13949227Y-8992108D01*
X13829228Y-8865108D02*
G01*
X13949227Y-8865108D01*
X13829228Y-8738108D02*
G01*
X13949227Y-8738108D01*
X13829228Y-8611108D02*
G01*
X13949227Y-8611108D01*
X14423588Y-9500108D02*
G01*
X14543587Y-9500108D01*
X14423588Y-9373108D02*
G01*
X14543587Y-9373108D01*
X14423588Y-9246108D02*
G01*
X14543587Y-9246108D01*
X14423588Y-9119108D02*
G01*
X14543587Y-9119108D01*
X14423588Y-8992108D02*
G01*
X14543587Y-8992108D01*
X14423588Y-8865108D02*
G01*
X14543587Y-8865108D01*
X14423588Y-8738108D02*
G01*
X14543587Y-8738108D01*
X14423588Y-8611108D02*
G01*
X14543587Y-8611108D01*
X13819068Y-11830304D02*
G01*
X13939067Y-11830304D01*
X13819068Y-11703304D02*
G01*
X13939067Y-11703304D01*
X13819068Y-11576304D02*
G01*
X13939067Y-11576304D01*
X13819068Y-11449304D02*
G01*
X13939067Y-11449304D01*
X13819068Y-11322304D02*
G01*
X13939067Y-11322304D01*
X13819068Y-11195304D02*
G01*
X13939067Y-11195304D01*
X13819068Y-11068304D02*
G01*
X13939067Y-11068304D01*
X13819068Y-10941304D02*
G01*
X13939067Y-10941304D01*
X14413682Y-11830304D02*
G01*
X14533681Y-11830304D01*
X14413682Y-11703304D02*
G01*
X14533681Y-11703304D01*
X14413682Y-11576304D02*
G01*
X14533681Y-11576304D01*
X14413682Y-11449304D02*
G01*
X14533681Y-11449304D01*
X14413682Y-11322304D02*
G01*
X14533681Y-11322304D01*
X14413682Y-11195304D02*
G01*
X14533681Y-11195304D01*
X14413682Y-11068304D02*
G01*
X14533681Y-11068304D01*
X14413682Y-10941304D02*
G01*
X14533681Y-10941304D01*
X13840912Y-14169897D02*
G01*
X13960911Y-14169897D01*
X13840912Y-14042897D02*
G01*
X13960911Y-14042897D01*
X13840912Y-13915897D02*
G01*
X13960911Y-13915897D01*
X13840912Y-13788897D02*
G01*
X13960911Y-13788897D01*
X13840912Y-13661897D02*
G01*
X13960911Y-13661897D01*
X13840912Y-13534897D02*
G01*
X13960911Y-13534897D01*
X13840912Y-13407897D02*
G01*
X13960911Y-13407897D01*
X13840912Y-13280897D02*
G01*
X13960911Y-13280897D01*
X14435272Y-14169897D02*
G01*
X14555271Y-14169897D01*
X14435272Y-14042897D02*
G01*
X14555271Y-14042897D01*
X14435272Y-13915897D02*
G01*
X14555271Y-13915897D01*
X14435272Y-13788897D02*
G01*
X14555271Y-13788897D01*
X14435272Y-13661897D02*
G01*
X14555271Y-13661897D01*
X14435272Y-13534897D02*
G01*
X14555271Y-13534897D01*
X14435272Y-13407897D02*
G01*
X14555271Y-13407897D01*
X14435272Y-13280897D02*
G01*
X14555271Y-13280897D01*
X17829220Y-9499854D02*
G01*
X17949219Y-9499854D01*
X17829220Y-9372854D02*
G01*
X17949219Y-9372854D01*
X17829220Y-9245854D02*
G01*
X17949219Y-9245854D01*
X17829220Y-9118854D02*
G01*
X17949219Y-9118854D01*
X17829220Y-8991854D02*
G01*
X17949219Y-8991854D01*
X17829220Y-8864854D02*
G01*
X17949219Y-8864854D01*
X17829220Y-8737854D02*
G01*
X17949219Y-8737854D01*
X17829220Y-8610854D02*
G01*
X17949219Y-8610854D01*
X18423580Y-9499854D02*
G01*
X18543579Y-9499854D01*
X18423580Y-9372854D02*
G01*
X18543579Y-9372854D01*
X18423580Y-9245854D02*
G01*
X18543579Y-9245854D01*
X18423580Y-9118854D02*
G01*
X18543579Y-9118854D01*
X18423580Y-8991854D02*
G01*
X18543579Y-8991854D01*
X18423580Y-8864854D02*
G01*
X18543579Y-8864854D01*
X18423580Y-8737854D02*
G01*
X18543579Y-8737854D01*
X18423580Y-8610854D02*
G01*
X18543579Y-8610854D01*
X17819060Y-11830050D02*
G01*
X17939059Y-11830050D01*
X17819060Y-11703050D02*
G01*
X17939059Y-11703050D01*
X17819060Y-11576050D02*
G01*
X17939059Y-11576050D01*
X17819060Y-11449050D02*
G01*
X17939059Y-11449050D01*
X17819060Y-11322050D02*
G01*
X17939059Y-11322050D01*
X17819060Y-11195050D02*
G01*
X17939059Y-11195050D01*
X17819060Y-11068050D02*
G01*
X17939059Y-11068050D01*
X17819060Y-10941050D02*
G01*
X17939059Y-10941050D01*
X18413674Y-11830050D02*
G01*
X18533673Y-11830050D01*
X18413674Y-11703050D02*
G01*
X18533673Y-11703050D01*
X18413674Y-11576050D02*
G01*
X18533673Y-11576050D01*
X18413674Y-11449050D02*
G01*
X18533673Y-11449050D01*
X18413674Y-11322050D02*
G01*
X18533673Y-11322050D01*
X18413674Y-11195050D02*
G01*
X18533673Y-11195050D01*
X18413674Y-11068050D02*
G01*
X18533673Y-11068050D01*
X18413674Y-10941050D02*
G01*
X18533673Y-10941050D01*
X17840904Y-14169644D02*
G01*
X17960903Y-14169644D01*
X17840904Y-14042644D02*
G01*
X17960903Y-14042644D01*
X17840904Y-13915644D02*
G01*
X17960903Y-13915644D01*
X17840904Y-13788644D02*
G01*
X17960903Y-13788644D01*
X17840904Y-13661644D02*
G01*
X17960903Y-13661644D01*
X17840904Y-13534644D02*
G01*
X17960903Y-13534644D01*
X17840904Y-13407644D02*
G01*
X17960903Y-13407644D01*
X17840904Y-13280644D02*
G01*
X17960903Y-13280644D01*
X18435264Y-14169644D02*
G01*
X18555263Y-14169644D01*
X18435264Y-14042644D02*
G01*
X18555263Y-14042644D01*
X18435264Y-13915644D02*
G01*
X18555263Y-13915644D01*
X18435264Y-13788644D02*
G01*
X18555263Y-13788644D01*
X18435264Y-13661644D02*
G01*
X18555263Y-13661644D01*
X18435264Y-13534644D02*
G01*
X18555263Y-13534644D01*
X18435264Y-13407644D02*
G01*
X18555263Y-13407644D01*
X18435264Y-13280644D02*
G01*
X18555263Y-13280644D01*
X22829464Y-9499854D02*
G01*
X22949463Y-9499854D01*
X22829464Y-9372854D02*
G01*
X22949463Y-9372854D01*
X22829464Y-9245854D02*
G01*
X22949463Y-9245854D01*
X22829464Y-9118854D02*
G01*
X22949463Y-9118854D01*
X22829464Y-8991854D02*
G01*
X22949463Y-8991854D01*
X22829464Y-8864854D02*
G01*
X22949463Y-8864854D01*
X22829464Y-8737854D02*
G01*
X22949463Y-8737854D01*
X22829464Y-8610854D02*
G01*
X22949463Y-8610854D01*
X23423824Y-9499854D02*
G01*
X23543823Y-9499854D01*
X23423824Y-9372854D02*
G01*
X23543823Y-9372854D01*
X23423824Y-9245854D02*
G01*
X23543823Y-9245854D01*
X23423824Y-9118854D02*
G01*
X23543823Y-9118854D01*
X23423824Y-8991854D02*
G01*
X23543823Y-8991854D01*
X23423824Y-8864854D02*
G01*
X23543823Y-8864854D01*
X23423824Y-8737854D02*
G01*
X23543823Y-8737854D01*
X23423824Y-8610854D02*
G01*
X23543823Y-8610854D01*
X22819304Y-11830304D02*
G01*
X22939303Y-11830304D01*
X22819304Y-11703304D02*
G01*
X22939303Y-11703304D01*
X22819304Y-11576304D02*
G01*
X22939303Y-11576304D01*
X22819304Y-11449304D02*
G01*
X22939303Y-11449304D01*
X22819304Y-11322304D02*
G01*
X22939303Y-11322304D01*
X22819304Y-11195304D02*
G01*
X22939303Y-11195304D01*
X22819304Y-11068304D02*
G01*
X22939303Y-11068304D01*
X22819304Y-10941304D02*
G01*
X22939303Y-10941304D01*
X23413918Y-11830304D02*
G01*
X23533917Y-11830304D01*
X23413918Y-11703304D02*
G01*
X23533917Y-11703304D01*
X23413918Y-11576304D02*
G01*
X23533917Y-11576304D01*
X23413918Y-11449304D02*
G01*
X23533917Y-11449304D01*
X23413918Y-11322304D02*
G01*
X23533917Y-11322304D01*
X23413918Y-11195304D02*
G01*
X23533917Y-11195304D01*
X23413918Y-11068304D02*
G01*
X23533917Y-11068304D01*
X23413918Y-10941304D02*
G01*
X23533917Y-10941304D01*
X22841148Y-14169897D02*
G01*
X22961147Y-14169897D01*
X22841148Y-14042897D02*
G01*
X22961147Y-14042897D01*
X22841148Y-13915897D02*
G01*
X22961147Y-13915897D01*
X22841148Y-13788897D02*
G01*
X22961147Y-13788897D01*
X22841148Y-13661897D02*
G01*
X22961147Y-13661897D01*
X22841148Y-13534897D02*
G01*
X22961147Y-13534897D01*
X22841148Y-13407897D02*
G01*
X22961147Y-13407897D01*
X22841148Y-13280897D02*
G01*
X22961147Y-13280897D01*
X23435508Y-14169897D02*
G01*
X23555507Y-14169897D01*
X23435508Y-14042897D02*
G01*
X23555507Y-14042897D01*
X23435508Y-13915897D02*
G01*
X23555507Y-13915897D01*
X23435508Y-13788897D02*
G01*
X23555507Y-13788897D01*
X23435508Y-13661897D02*
G01*
X23555507Y-13661897D01*
X23435508Y-13534897D02*
G01*
X23555507Y-13534897D01*
X23435508Y-13407897D02*
G01*
X23555507Y-13407897D01*
X23435508Y-13280897D02*
G01*
X23555507Y-13280897D01*
X19829216Y-9499854D02*
G01*
X19949215Y-9499854D01*
X19829216Y-9372854D02*
G01*
X19949215Y-9372854D01*
X19829216Y-9245854D02*
G01*
X19949215Y-9245854D01*
X19829216Y-9118854D02*
G01*
X19949215Y-9118854D01*
X19829216Y-8991854D02*
G01*
X19949215Y-8991854D01*
X19829216Y-8864854D02*
G01*
X19949215Y-8864854D01*
X19829216Y-8737854D02*
G01*
X19949215Y-8737854D01*
X19829216Y-8610854D02*
G01*
X19949215Y-8610854D01*
X20423576Y-9499854D02*
G01*
X20543575Y-9499854D01*
X20423576Y-9372854D02*
G01*
X20543575Y-9372854D01*
X20423576Y-9245854D02*
G01*
X20543575Y-9245854D01*
X20423576Y-9118854D02*
G01*
X20543575Y-9118854D01*
X20423576Y-8991854D02*
G01*
X20543575Y-8991854D01*
X20423576Y-8864854D02*
G01*
X20543575Y-8864854D01*
X20423576Y-8737854D02*
G01*
X20543575Y-8737854D01*
X20423576Y-8610854D02*
G01*
X20543575Y-8610854D01*
X19819056Y-11830050D02*
G01*
X19939055Y-11830050D01*
X19819056Y-11703050D02*
G01*
X19939055Y-11703050D01*
X19819056Y-11576050D02*
G01*
X19939055Y-11576050D01*
X19819056Y-11449050D02*
G01*
X19939055Y-11449050D01*
X19819056Y-11322050D02*
G01*
X19939055Y-11322050D01*
X19819056Y-11195050D02*
G01*
X19939055Y-11195050D01*
X19819056Y-11068050D02*
G01*
X19939055Y-11068050D01*
X19819056Y-10941050D02*
G01*
X19939055Y-10941050D01*
X20413670Y-11830050D02*
G01*
X20533669Y-11830050D01*
X20413670Y-11703050D02*
G01*
X20533669Y-11703050D01*
X20413670Y-11576050D02*
G01*
X20533669Y-11576050D01*
X20413670Y-11449050D02*
G01*
X20533669Y-11449050D01*
X20413670Y-11322050D02*
G01*
X20533669Y-11322050D01*
X20413670Y-11195050D02*
G01*
X20533669Y-11195050D01*
X20413670Y-11068050D02*
G01*
X20533669Y-11068050D01*
X20413670Y-10941050D02*
G01*
X20533669Y-10941050D01*
X19840900Y-14169644D02*
G01*
X19960899Y-14169644D01*
X19840900Y-14042644D02*
G01*
X19960899Y-14042644D01*
X19840900Y-13915644D02*
G01*
X19960899Y-13915644D01*
X19840900Y-13788644D02*
G01*
X19960899Y-13788644D01*
X19840900Y-13661644D02*
G01*
X19960899Y-13661644D01*
X19840900Y-13534644D02*
G01*
X19960899Y-13534644D01*
X19840900Y-13407644D02*
G01*
X19960899Y-13407644D01*
X19840900Y-13280644D02*
G01*
X19960899Y-13280644D01*
X20435260Y-14169644D02*
G01*
X20555259Y-14169644D01*
X20435260Y-14042644D02*
G01*
X20555259Y-14042644D01*
X20435260Y-13915644D02*
G01*
X20555259Y-13915644D01*
X20435260Y-13788644D02*
G01*
X20555259Y-13788644D01*
X20435260Y-13661644D02*
G01*
X20555259Y-13661644D01*
X20435260Y-13534644D02*
G01*
X20555259Y-13534644D01*
X20435260Y-13407644D02*
G01*
X20555259Y-13407644D01*
X20435260Y-13280644D02*
G01*
X20555259Y-13280644D01*
M02*
